<svg width="107" height="18" viewBox="0 0 107 18" fill="none" xmlns="http://www.w3.org/2000/svg">
<path d="M8.1638 16.9068C8.2302 16.8858 8.496 16.9408 8.61134 16.9328C8.47854 17.1596 7.92428 16.9828 8.1638 16.9068ZM20.1438 0.459034C20.0476 0.514511 19.9514 0.569988 19.8552 0.625464C20.1267 0.664651 20.4924 0.626707 20.7441 0.682593C20.7853 0.691967 20.6768 0.854189 20.7743 0.862395C20.8719 0.870556 20.8551 0.647313 20.9974 0.624787C21.1569 0.600199 21.8848 0.762461 22.1374 0.761066C23.0822 0.754889 24.0362 0.636457 24.9819 0.738001C24.0031 0.893844 24.9863 1.07107 25.2606 1.00212C25.3214 0.986128 25.3157 0.571339 26.2951 0.684974C26.9176 0.757094 26.3365 1.34455 27.379 1.05732C26.5834 0.635046 27.3694 0.671506 27.9963 0.663611C28.1043 0.662185 28.9763 0.732703 29.362 0.717959C29.4939 0.71281 29.6969 0.49748 29.8719 0.493425C29.9923 0.490797 30.0822 0.610407 30.261 0.60604C31.0946 0.587108 31.9143 0.585579 32.7487 0.63358C32.2556 1.1872 33.1294 0.875079 33.1683 0.902134C33.3657 1.05556 32.4658 1.09024 32.8206 1.18838C33.3179 1.17576 33.8152 1.16314 34.3125 1.15052C33.9052 1.07815 34.8571 0.68554 35.0299 0.869828C34.9577 0.375858 37.2917 1.32044 37.6498 1.15907C37.7244 1.12497 37.2405 0.876623 38.3673 0.998748C38.4893 1.01229 38.4417 1.16067 38.5059 1.1474C38.5444 1.13942 38.781 0.668603 39.0259 0.932303C39.1154 1.02855 38.5345 1.33377 39.8049 1.22084C39.304 0.734664 41.5673 0.976666 41.9829 1.10123C41.9003 1.03577 41.8176 0.97031 41.735 0.904851C42.1453 1.0832 42.2212 0.920217 42.3139 0.93001C42.6877 0.969356 43.2003 1.13914 43.5489 1.12737C43.9568 1.11388 43.961 0.814496 44.4353 0.935427C44.3231 0.868307 44.2109 0.801187 44.0988 0.734066C44.4269 0.753062 44.755 0.772059 45.0832 0.791055C44.3192 1.18023 45.247 0.811505 45.308 0.803545C45.4052 0.790035 45.2642 0.950975 45.4268 0.932297C45.4436 0.92913 45.4208 0.776109 45.6713 0.761303C46.1947 0.730889 46.1102 0.922217 46.3298 0.922109C46.3499 0.921308 46.2808 0.782997 46.6604 0.754C47.8669 0.661667 46.6534 0.859428 46.607 0.878019C46.546 0.902543 46.9539 1.48166 45.9318 1.26807C46.2751 1.33623 46.3072 1.59111 46.3459 1.59779C46.3801 1.60331 46.9762 1.57305 47.0091 1.5646C47.3028 1.48091 47.0467 1.30454 47.1041 1.2739C47.151 1.24921 47.8666 1.48265 48.0398 0.961015C48.3786 1.44685 47.838 1.39755 47.2615 1.46631C47.1765 1.56456 47.808 1.6668 47.8413 1.66685C48.657 1.67364 48.2091 1.27242 48.3898 1.02034C48.4848 0.888452 48.8146 1.1624 48.5111 0.803568C49.2518 0.772956 48.8008 0.974999 48.8484 1.00597C48.9201 1.0515 49.1801 0.95192 49.2124 0.965815C49.2599 0.986379 49.0932 1.10806 49.2805 1.15324C49.3116 1.15984 49.616 0.950612 49.227 0.845581C49.7477 0.880627 49.7065 0.699388 49.8797 1.06548C50.245 0.379395 50.1362 1.47546 50.2772 1.51542C50.6519 1.62078 50.548 1.07845 50.5681 1.05224C50.7064 0.884363 51.7446 1.08009 52.0029 1.0045C51.8976 1.39343 51.1784 1.00101 51.016 1.07513C50.4748 1.3217 51.7737 1.2772 51.3778 1.7634C51.5431 1.6304 51.7084 1.4974 51.8738 1.3644C52.1716 1.6822 51.7436 1.81554 52.5543 1.70805C52.6892 1.43743 51.9815 1.74561 52.1249 1.53279C52.2094 1.4079 52.6791 1.38532 52.689 1.31914C52.699 1.23947 52.2738 1.33001 52.3418 1.20796C52.4903 0.944601 54.0355 1.21118 52.8561 1.34458C53.1847 1.34315 53.3491 1.8713 53.6356 1.70991C53.8208 1.60515 52.791 0.868165 54.345 1.01615C54.3758 1.2651 53.7225 1.08372 53.7054 1.10249C53.6812 1.1298 53.7944 1.69201 53.8147 1.7199C53.8863 1.81176 55.4773 1.52624 55.8103 1.8113C55.6805 1.48576 57.0109 1.76471 57.157 1.66727C57.1959 1.64035 57.0533 1.44035 57.0948 1.41972C57.3538 1.297 58.0476 1.65815 58.371 1.67038C58.7328 1.68419 58.6886 1.5122 58.7088 1.51272C58.8679 1.52378 58.7396 1.63889 58.837 1.63948C58.9841 1.64031 59.9946 1.6736 60.0455 1.64981C60.0605 1.64238 59.8973 1.44485 60.118 1.40975C60.1562 1.40366 60.1299 1.63579 60.7833 1.54156C61.5704 1.42823 60.2403 1.24748 60.5692 1.00722C61.0707 1.35843 61.0576 1.01494 61.1942 1.04318C61.2415 1.05345 61.5915 1.34868 61.9748 1.33381C61.6994 1.37861 61.424 1.42341 61.1486 1.46821C61.4184 1.52193 61.9439 1.46351 62.1661 1.52343C62.2744 1.5526 62.1827 1.79156 62.4187 1.7873C62.4688 1.78509 62.673 1.20273 62.0524 1.45906C62.0049 1.24999 62.2978 1.3886 62.4348 1.33087C62.4556 1.32187 62.5402 0.974126 62.7125 1.19236C62.7538 1.24604 62.2887 2.25839 63.4706 1.53362C63.5086 1.51026 63.3783 1.3817 63.4155 1.35566C63.4409 1.33802 63.7404 1.39234 63.7737 1.37459C63.8078 1.35553 63.6642 1.21517 63.7048 1.1882C63.913 1.04921 64.1794 1.60305 63.7532 1.55703C63.8951 1.62651 64.0371 1.69598 64.179 1.76546C64.0303 1.34854 64.4041 1.65066 64.6015 1.63972C65.8666 1.56983 65.0225 1.29164 65.2412 1.15387C65.5929 0.932673 65.3192 1.64118 65.8402 1.43242C65.8884 1.41289 65.2639 1.10518 66.4874 1.287C66.3064 1.29706 66.1255 1.30712 65.9446 1.31718C66.0451 1.72002 66.5978 1.29575 66.64 1.29051C67.1216 1.23985 66.795 1.38167 67.5113 1.18144C67.5753 1.16346 67.7133 1.26395 67.8502 1.21576C68.4176 1.01726 67.1052 1.08506 67.0708 0.92203C67.0546 0.842151 68.465 0.87549 68.5131 0.913798C68.7171 1.08353 67.8729 0.981693 68.032 1.19153C68.0901 1.26605 70.102 1.13303 70.5046 1.21789C70.9692 1.31659 71.1736 1.86342 71.1823 1.25124C71.308 1.85341 71.4279 1.44449 71.4874 1.44919C72.2067 1.51159 72.2079 1.51766 72.8257 1.46592C72.9621 1.4547 73.0755 1.63811 73.124 1.60778C73.1522 1.58945 73.1016 1.39383 73.2396 1.33492C73.4313 1.25435 74.5769 1.46583 74.6611 1.5745C74.7454 1.68316 74.1761 1.61672 74.2766 1.79502C74.6889 1.81683 75.0849 1.77666 75.4999 1.79926C75.6723 1.80917 75.5825 1.93246 75.657 1.93563C75.6887 1.93746 76.2853 1.83375 76.2605 1.78773C76.2024 1.68071 74.3627 1.73498 74.849 1.5223C74.9428 1.48121 75.2702 1.77034 75.221 1.42203C76.8632 1.51634 78.5054 1.61064 80.1477 1.70494C79.2012 1.95622 78.1411 1.71357 77.1521 1.72866C77.0166 1.7304 76.5588 1.69255 76.6128 1.86887C77.4532 1.92229 78.4993 1.84052 79.3056 1.96267C79.3314 1.96671 79.235 2.12376 79.3316 2.1497C79.5121 2.19812 80.1034 1.94892 80.2019 2.01572C80.2187 2.03123 79.8815 2.2363 79.9822 2.36958C80.2407 2.71162 80.3142 1.96013 80.5391 1.97116C80.713 1.98 81.8787 2.35466 82.172 2.12764C82.4839 1.88565 81.3117 1.97736 81.4001 1.77794C82.1945 1.58417 82.9948 1.80659 83.7439 1.78856C83.7571 1.78805 83.644 1.63006 83.8113 1.60968C84.1024 1.57421 84.1766 1.79749 84.3177 1.83443C84.47 1.87377 85.01 1.84695 85.0814 1.92877C85.0905 1.9395 84.9791 2.15923 84.9624 2.16529C84.7265 2.25406 84.6457 1.96675 84.6243 1.96287C84.544 1.95125 84.4641 2.06026 84.3908 2.05303C84.2702 2.04099 84.2047 1.93883 84.0454 1.92837C83.9355 1.92078 84.0398 2.11676 83.9339 2.10684C83.8951 2.10242 83.4797 1.65325 83.4363 2.10735C83.4229 2.25053 86.8519 2.46681 87.1959 2.35543C86.9023 2.29801 86.6086 2.2406 86.315 2.18319C86.9111 2.32183 87.632 1.96544 87.6778 2.50316C89.8925 2.56791 92.1071 2.63266 94.3218 2.69741C94.7168 2.7469 94.4967 3.09009 95.1484 2.99573C94.9813 2.88417 94.8142 2.7726 94.647 2.66104C94.9798 2.74133 96.4563 2.90596 96.6961 2.83699C96.7272 2.82795 96.7731 2.5159 97.1427 2.49253C97.4706 2.4719 97.521 2.70651 97.6958 2.753C97.8425 2.79138 98.0083 2.7316 98.0518 2.74493C98.0852 2.75559 98.0971 2.89887 98.1774 2.92459C98.4312 3.00417 98.2287 2.59916 98.477 3.06438C98.4153 3.08144 98.3536 3.09851 98.292 3.11557C98.5984 3.18544 99.016 3.39952 98.5627 3.49894C98.4848 3.51611 98.5528 3.37824 98.4948 3.37793C96.2233 3.38231 98.0345 3.66859 98.8324 3.46101C99.035 3.66814 100.182 3.55362 100.219 3.59442C100.272 3.65349 100.074 3.81566 100.33 3.95968C100.384 3.99017 101.917 3.88966 101.362 4.15721C101.248 4.2124 100.514 4.14639 100.337 4.15276C100.75 4.59163 101.732 3.97765 101.842 3.99465C102.284 4.0666 100.987 4.3636 101.984 4.42352C102.751 4.46952 102.034 4.17232 102.33 4.05113C102.496 3.98313 103.362 4.31123 103.342 3.89669C103.641 3.85525 103.464 4.07299 103.501 4.08911C103.537 4.10332 104.124 3.9848 104.313 4.07392C104.336 4.085 104.262 4.29967 104.285 4.31752C104.331 4.34812 104.897 4.31039 104.92 4.29235C104.934 4.27981 104.801 4.09 104.857 4.04479C104.922 3.99268 105.466 4.04216 105.496 3.98854C105.539 3.90745 104.867 3.95482 104.981 3.74503C105.29 3.80103 105.796 3.66509 106.002 3.49728C105.951 3.54534 105.651 3.54949 105.547 3.5314C105.599 3.22307 106.243 3.23333 106.021 3.47567C106.162 3.34573 106.067 3.27519 106.147 3.15206C106.168 3.12088 106.367 3.11628 106.406 3.06318C106.411 3.05257 106.207 2.93413 106.248 2.8718C106.324 2.75917 106.927 2.79033 106.976 2.82053C107.114 2.9061 106.621 3.00343 106.579 3.13329C106.573 3.15324 106.989 3.41242 106.995 3.43502C107.017 3.67711 106.553 3.49844 106.604 3.71671C106.719 3.76379 106.834 3.81088 106.948 3.85796C106.502 4.07431 105.682 3.95319 105.468 4.20204C106.127 4.13358 106.816 4.14889 106.809 4.71377C106.806 4.95167 106.521 5.08847 106.531 5.14906C106.571 5.3659 106.968 5.13447 106.982 5.14604C106.994 5.15934 106.999 5.17224 106.999 5.18474C106.999 5.18474 106.999 5.18475 106.999 5.18475C106.998 5.31148 106.435 5.39745 106.406 5.45504C106.358 5.55739 106.604 5.98281 106.603 6.07639C106.594 6.09511 106.193 6.19147 106.327 6.35604C106.462 6.52227 106.812 6.52921 106.824 6.54646C106.89 6.64576 106.276 6.73 106.258 6.7881C106.248 6.81748 106.575 7.00158 106.584 7.05371C106.592 7.10601 106.341 7.2176 106.241 7.3815C106.166 7.50327 106.379 7.59916 106.341 7.618C106.314 7.63047 105.735 7.62294 105.707 7.6442C105.664 7.67564 105.798 7.82327 105.778 7.85967C105.75 7.91204 105.563 7.85746 105.587 7.91184C105.605 7.95237 106.325 8.46368 106.319 8.5984C106.309 8.82817 105.546 8.2921 106.252 9.20585C106.257 9.21185 106.431 9.14903 106.436 9.15466C106.541 9.32255 105.982 9.57402 106.664 9.53556C105.393 9.81349 106.503 9.87959 106.311 10.2648C106.238 10.4129 105.746 10.4696 105.743 10.4919C105.789 10.6811 105.947 10.5362 105.999 10.6293C106.028 10.6812 105.587 10.8766 105.684 11.0071C105.735 11.0744 106.202 11.055 106.221 11.0682C106.405 11.1928 106.177 11.323 106.217 11.4106C106.243 11.4694 106.525 11.4766 106.532 11.4872C106.543 11.5093 106.159 11.742 106.078 11.8244C106.017 11.8877 106.244 11.99 106.201 12.0175C105.945 12.1818 105.407 11.7516 105.924 12.3521C105.955 12.389 106.153 12.3761 106.158 12.3834C106.279 12.5534 105.915 12.5646 105.849 12.7022C105.735 12.9393 106.259 12.8114 105.823 12.9748C106.147 13.1337 106.329 13.1289 106.711 13.089C105.653 13.2002 105.275 13.8133 106.448 13.8088C106.075 13.7957 106.113 14.144 106.001 14.1491C105.932 14.1518 105.395 13.8008 105.635 14.5794C105.666 14.6767 105.995 14.5565 105.89 14.7541C105.103 14.696 105.873 14.8802 105.873 14.9064C105.859 15.3636 103.936 14.971 103.604 15.02C103.219 15.0769 102.875 15.434 102.791 15.4337C102.516 15.4312 102.746 15.2504 102.685 15.1826C102.624 15.1153 101.839 15.4585 101.8 15.4389C101.65 15.3601 101.805 15.1448 101.79 15.1337C101.604 14.9991 100.553 15.159 100.26 15.1058C100.268 15.2465 100.857 15.2632 100.487 15.4857C100.056 15.745 100.037 15.1248 100.026 15.0974C98.0616 15.0848 96.0972 15.0722 94.1329 15.0596C94.1543 15.3897 95.4408 15.153 95.4696 15.1967C95.6388 15.4554 93.4693 15.4303 93.2043 15.3114C93.4058 15.3845 93.6073 15.4577 93.8088 15.5308C93.4601 15.9068 92.7007 15.4069 92.1998 15.5696C92.038 15.6224 92.3463 15.7717 92.3398 15.7816C92.1572 15.9272 91.8673 15.811 92.0867 15.6153C91.6423 15.8006 91.7089 15.5921 91.3695 15.5732C91.352 15.5724 91.4964 15.7268 91.227 15.7877C91.1009 15.8162 90.4293 15.8103 90.3382 15.9433C90.3007 15.9993 90.6358 16.596 90.6826 16.0856C91.4106 16.3415 90.9181 15.8551 91.2018 15.8695C91.2453 15.8726 91.1425 16.1567 91.8583 16.0292C91.7174 16.542 90.8982 16.1499 90.7565 16.2108C90.4644 16.3361 91.6606 16.6129 91.8843 16.2142C91.7778 16.6144 91.9688 16.269 92.2359 16.288C92.5282 16.3087 92.3996 16.4269 92.5578 16.4291C92.9906 16.4361 92.8139 16.1513 93.1683 16.4099C92.8278 15.6163 93.7801 16.3114 94.0575 16.521C93.6026 16.5569 93.1476 16.5927 92.6927 16.6286C92.7183 16.6703 92.7439 16.712 92.7695 16.7538C92.6498 16.7468 92.5302 16.7398 92.4105 16.7328C92.4301 16.6932 92.4496 16.6536 92.4692 16.614C91.8494 16.8668 91.7015 16.5747 91.6511 16.571C91.0034 16.5312 90.2549 16.5267 89.5996 16.5196C89.5013 16.5185 89.5664 16.7778 88.8518 16.5686C88.6238 16.5019 88.8415 16.3027 88.5822 16.3305C88.253 16.8743 88.2632 16.4382 88.1669 16.4366C87.8904 16.434 87.7201 16.5679 87.6946 16.5691C87.3528 16.587 86.8527 16.5597 86.4773 16.5763C86.4702 16.5783 86.6639 16.7482 86.4206 16.6962C86.3352 16.6776 85.5742 15.9532 84.9009 16.1807C85.075 16.2308 85.2491 16.2808 85.4232 16.3309C85.2185 16.2613 83.7786 16.4285 84.1285 16.6238C84.343 16.7431 84.8736 16.2858 84.9271 16.7309C84.4498 16.5934 81.8046 16.7675 81.5998 16.6623C81.5715 16.6473 81.7479 16.5047 81.7088 16.4858C81.6785 16.4715 81.0727 16.5 80.9928 16.4438C80.9453 16.4105 81.2137 16.3246 81.1924 16.2724C81.1737 16.2352 80.4182 16.1663 80.3733 16.3467C80.5597 16.2759 81.0809 16.3441 80.8058 16.494C80.7704 16.5126 80.5891 16.3942 80.5461 16.4178C80.1472 16.6356 81.3336 16.5936 81.5171 16.5972C80.77 16.8205 79.6203 16.5381 78.7557 16.6801C78.4084 16.5264 79.275 16.4548 78.8815 16.3264C78.0653 16.0603 78.6617 16.5325 78.6361 16.5514C78.4314 16.7013 77.7464 15.8812 77.7402 16.5004C77.4443 16.4044 77.5411 16.3272 77.1215 16.4043C77.1762 16.4477 77.2309 16.4911 77.2856 16.5345C76.8172 16.8889 75.8415 15.9747 75.9159 15.9063C76.116 15.7234 76.6258 16.0164 76.6697 16.0099C76.7346 16.0003 76.9196 15.3736 77.6234 15.9421C77.9178 15.5234 76.5022 15.6471 77.1484 15.3659C76.7134 15.4089 74.9281 15.0988 74.669 15.2813C74.6381 15.3052 74.7772 15.7265 74.3375 15.5086C74.1287 15.4048 74.6344 15.4047 74.5394 15.3081C74.2469 15.0117 70.2294 15.1618 69.4664 15.1701C69.4169 15.1702 69.4363 15.04 69.3877 15.0407C69.2382 15.043 68.6917 15.2322 68.4247 15.1697C68.9767 15.4161 67.9002 15.4248 67.6266 15.3957C67.2115 15.3513 67.2393 15.1222 67.0603 15.0718C66.3701 14.8773 65.2929 15.4117 64.7601 14.8976C64.7848 15.4031 63.8327 14.6412 63.3964 14.6326C63.0546 14.6258 62.5556 14.9555 63.015 15.1635C62.4253 15.1346 61.8033 15.2231 61.2496 15.2485C61.1581 15.2528 61.2854 15.1046 61.1292 15.1167C61.115 15.1188 61.0941 15.2651 60.9599 15.279C59.8523 15.3962 60.3936 15.0902 60.1874 14.9968C60.0721 14.9445 59.9868 14.9182 59.9241 14.9092C60.5693 14.8867 61.3137 14.8362 61.5127 14.8339C61.3461 14.509 60.0827 14.8825 59.7146 14.7921C59.7019 14.7888 59.7481 14.611 59.7351 14.6096C59.7348 14.6096 59.7346 14.6096 59.7343 14.6096C59.5962 14.5947 58.715 14.6521 58.8943 14.8663C58.9424 14.9235 59.3477 14.9272 59.8286 14.9125C59.6981 14.9511 59.7934 15.1516 59.7703 15.1599C59.491 15.256 58.8108 15.0547 58.5691 15.0262C58.5138 15.0199 58.5166 15.1478 58.5075 15.1481C58.2877 15.1169 58.3815 14.7526 58.1522 15.1271C57.758 14.6682 58.8996 15.0665 58.8217 14.7702C58.7618 14.542 56.2168 14.6403 56.221 14.9989C56.2126 14.9605 56.1781 14.9126 56.1068 14.8578C55.9488 14.736 55.2404 14.7669 55.1176 14.8319C55.0969 14.8447 55.1018 15.1927 55.0762 15.1957C55.0122 15.2031 54.1493 14.9221 53.8241 15.1248C53.9982 15.1752 54.1723 15.2256 54.3464 15.276C53.2923 15.2691 53.4542 15.3742 53.8045 15.4816C53.822 15.4827 53.839 15.496 53.8557 15.4976C54.1272 15.5771 54.4755 15.6545 54.4806 15.682C54.4996 15.7869 52.7106 15.8284 53.0576 15.5088C53.106 15.4651 53.9321 15.6166 53.5246 15.3824C53.4533 15.3414 52.9212 15.4021 52.8936 15.3765C52.7084 15.2059 53.8709 14.9926 53.7313 14.7514C53.4475 14.9771 53.0872 14.8534 52.7636 14.9093C52.6164 14.9346 52.5787 15.1087 52.5605 15.1119C52.2891 15.1549 52.4429 14.9734 52.3524 14.9771C52.3038 14.9798 51.7661 15.3641 51.8721 14.8283C50.1089 15.2066 51.3817 15.2182 52.4613 15.1981C52.1184 15.3903 51.4506 15.2895 51.1502 15.3321C51.0424 15.3475 51.1045 15.5272 50.9223 15.5613C50.5473 15.6315 48.7622 15.409 48.2971 15.3561C48.5836 15.2955 48.5018 15.0996 48.281 15.1111C48.0602 15.1225 48.2431 15.3847 48.1998 15.4123C48.1534 15.4408 47.1191 15.3082 46.9465 15.3403C47.727 15.2533 47.5529 15.0571 46.8915 15.0305C46.9877 14.9754 47.0838 14.9203 47.18 14.8651C46.7915 14.9402 45.9789 14.6358 45.7539 14.722C45.7186 14.7359 45.8434 14.9006 45.8236 14.9084C45.6263 14.9761 44.9589 14.803 44.9273 14.8585C44.9004 14.9047 45.1845 15.0445 45.078 15.111C45.0557 15.125 44.7827 14.9014 44.5112 14.9532C44.4105 14.9722 44.4696 15.1275 44.4442 15.1362C44.2324 15.2086 44.3595 14.9493 43.9733 14.9875C43.6904 15.0159 43.4775 15.2685 43.0878 15.1805C44.3671 15.5172 43.2904 15.3715 42.7532 15.4648C42.6672 15.4797 42.7382 15.7612 42.226 15.6197C43.3235 15.1222 41.917 15.3483 41.6298 15.3401C41.6141 15.3382 41.6104 15.153 41.4696 15.1487C41.4577 15.1488 41.4736 15.2741 41.3426 15.2824C40.1 15.3612 40.8953 15.2273 40.6606 15.1017C40.5606 15.0481 39.9551 15.2194 39.7925 15.2222C39.755 15.2223 39.7735 15.0924 39.6287 15.0961C39.3727 15.103 39.142 15.2393 38.973 15.2487C38.9532 15.2492 38.9544 15.044 38.6335 15.1075C38.5432 15.1253 38.4414 15.1972 38.5688 15.2574C38.9911 15.4554 39.7988 15.1271 40.2764 15.3253C40.7119 15.5058 39.3333 15.5095 39.2616 15.5098C39.2352 15.5102 39.5054 15.4109 39.2321 15.3881C38.9987 15.3691 38.5685 15.7195 38.2211 15.6391C38.1946 15.6331 37.9193 15.33 37.9323 15.3126C37.944 15.2999 38.3718 15.2387 38.3106 15.1512C38.3033 15.1412 38.0318 15.1407 37.997 15.0756C37.9543 14.9964 37.8446 14.2219 37.7868 14.202C37.6385 14.1527 37.7337 14.3299 37.6376 14.3168C37.4315 14.289 36.7179 14.0535 36.6921 14.3214C36.8102 14.3384 36.9283 14.3554 37.0464 14.3724C36.3883 14.3938 36.6676 14.5106 36.574 14.56C36.4731 14.6134 36.5035 14.3781 36.282 14.3538C36.2338 14.3485 35.3056 14.389 35.3215 14.488C35.8361 14.3355 35.6431 14.6249 35.6667 14.6303C35.7564 14.6501 35.8728 14.4879 35.9933 14.4922C36.8414 14.5258 35.9835 14.7756 36.1831 14.8437C36.2518 14.8667 36.3905 14.7286 36.4197 14.736C36.5145 14.7599 36.5143 14.9426 36.5779 14.9284C36.7261 14.8955 36.5558 14.6355 36.5677 14.6222C36.7014 14.4617 37.2175 14.6678 36.8924 14.9459C37.085 15.049 37.1109 14.7075 37.2632 14.8456C37.5658 15.1189 37.1092 15.0452 36.9849 15.0889C36.539 15.2467 36.4084 15.1143 35.7789 15.1533C35.5523 15.167 35.2824 15.3305 35.1772 15.3386C35.1109 15.3437 34.4912 14.7604 34.4643 15.6639C34.2221 15.5742 33.8464 14.9751 33.5957 15C33.3707 15.0227 33.4392 15.3431 33.4181 15.3553C33.3858 15.3744 33.1142 15.3466 33.0218 15.391C32.9136 15.4433 32.9662 15.5659 32.7948 15.614C32.3683 15.7334 32.3825 15.4072 32.339 15.3856C31.8337 15.1357 32.0516 15.6019 31.9386 15.6381C31.8335 15.6714 30.366 15.4789 30.0556 15.5934C30.1821 15.5293 30.3086 15.4651 30.435 15.4009C30.2117 15.1952 29.9699 15.525 29.9691 15.1599C29.9179 15.7488 29.4567 15.3505 29.3169 15.3644C29.2618 15.3702 29.2652 15.4706 29.1963 15.4743C28.9271 15.4894 28.3212 15.4038 28.1748 15.4533C27.5416 15.6666 29.152 16.0465 29.2789 16.0697C29.0246 16.0608 27.5845 16.1793 28.2432 16.4688C28.345 16.5135 28.5286 16.2514 28.5862 16.2417C28.9755 16.1774 28.6676 16.4109 28.6978 16.4336C28.7493 16.4704 29.0072 16.2443 29.0745 16.2722C29.0969 16.2811 28.9499 16.4938 29.3205 16.5018C29.1363 16.7075 28.0961 16.5287 27.9589 16.5761C27.91 16.5931 28.2111 17.0393 27.3235 16.6002C27.3335 16.6415 27.3434 16.6828 27.3534 16.724C26.8568 16.7363 26.3602 16.7486 25.8636 16.7609C25.9184 16.6665 26.1989 16.4787 25.8475 16.5158C25.6451 16.5373 25.7927 16.7499 25.7742 16.7559C25.5923 16.8123 22.3827 16.7118 21.7603 16.7295C21.5486 16.7352 20.9571 16.8994 20.9121 16.9021C20.643 16.9166 19.6916 16.7971 19.5013 16.8193C19.3825 16.8336 19.4937 17.0112 19.3878 17.0019C19.2893 16.9931 19.393 16.8234 19.3638 16.816C19.122 16.7518 17.2787 16.9584 16.843 16.7933C17.1098 16.8441 18.4464 16.5157 18.4208 16.3951C18.4151 16.3786 18.0923 16.2457 18.0248 16.3084C17.9158 16.1596 17.5323 16.6059 17.3269 16.5156C17.3037 16.5053 17.3979 16.2539 17.0302 16.2046C16.9035 16.1878 16.5696 16.3813 16.2375 16.1577C15.7527 16.2591 13.2122 15.908 13.0351 16.1774C13.0298 16.1917 13.3871 16.2884 13.144 16.3974C12.8209 16.5423 13.1145 16.0468 12.74 16.0003C12.6835 15.9933 11.6399 16.0339 11.6054 16.0644C11.2868 16.341 12.1974 16.4629 12.1843 16.4953C12.1517 16.5768 11.3938 16.6192 11.3632 16.5996C11.3341 16.5793 11.9553 16.2146 11.2117 16.3481C11.2963 16.3932 11.3809 16.4382 11.4656 16.4833C11.1157 16.5663 11.0848 16.3097 11.0004 16.2932C10.7379 16.2412 10.4499 16.6278 10.0332 16.143C9.92298 16.0143 10.1092 15.8744 10.0955 15.8551C9.96327 15.6821 9.78825 16.1399 9.59027 15.7953C9.57536 15.7696 10.0455 15.5687 9.22715 15.5605C9.28316 15.5939 9.33918 15.6273 9.39519 15.6607C9.27911 15.733 8.45008 15.7688 8.33877 15.7504C8.01359 15.6966 8.29981 15.4634 7.97223 15.4885C8.17912 15.8138 7.18339 15.8466 7.24326 15.5689C7.10095 15.917 6.25796 15.6395 5.86057 15.6275C5.60982 15.6201 5.09684 15.7678 5.01732 15.7492C4.92046 15.7265 4.9522 15.4883 4.77742 15.4336C4.72757 15.418 4.20415 15.5879 3.74846 15.3368C3.66014 15.2884 3.47753 14.8822 3.64346 14.7827C3.92747 14.6124 4.45861 14.9432 4.45405 14.7042C4.44844 14.4485 3.72748 14.5937 3.53413 14.5586C2.64146 14.3958 3.16032 14.129 3.1381 14.0464C3.08035 13.8459 2.59174 13.8475 2.57153 13.8294C2.48779 13.7487 2.83547 13.5938 2.84185 13.4718C2.84965 13.313 2.38143 13.0219 2.48899 12.9694C2.64295 12.8948 3.07348 13.1378 3.10103 13.1266C3.45965 12.9759 2.97352 12.6043 2.84028 12.4227C2.7999 12.3669 2.96373 12.2772 2.92997 12.2606C2.41461 12.0089 2.816 12.7754 2.47214 12.7212C2.16535 12.6729 2.5629 12.4355 2.55129 12.4221C2.53626 12.4073 2.16906 12.3907 2.11236 12.3048C2.08442 12.2618 3.04356 11.8017 3.00566 11.591C2.70061 11.6345 2.39555 11.678 2.0905 11.7215C2.06919 11.447 2.50544 11.653 2.55102 11.6251C2.64279 11.5692 2.3897 11.4281 2.40144 11.3415C2.40781 11.2864 2.70823 11.0924 2.43926 11.0087C2.34682 10.9798 2.15047 11.1703 1.81468 10.9707C2.99205 10.7309 2.17924 10.569 2.14551 10.4716C2.1125 10.3741 2.67561 10.1507 1.99432 10.1848C1.96982 9.65079 2.01059 10.0162 2.20495 9.92422C2.44306 9.81115 1.89691 9.63025 2.76193 9.77173C2.715 9.52139 2.01854 9.53252 1.98187 9.51224C1.95021 9.49387 2.10614 9.37242 2.05134 9.33026C1.40313 8.8413 1.8494 9.06599 1.66324 8.75589C1.64669 8.72818 1.03081 8.60807 1.50092 8.56758C2.35738 8.49399 2.71168 8.85145 2.86259 8.09578C2.23276 7.761 1.46128 8.24243 1.2688 8.2489C0.974191 8.25806 1.28071 8.10654 1.24483 8.06293C1.23236 8.04884 0.97846 8.0592 0.975167 8.04691C0.799637 7.46782 2.10501 8.04795 2.51862 7.95142C2.40882 7.86392 2.29903 7.77641 2.18923 7.68891C2.33933 7.68686 2.48942 7.68481 2.63952 7.68276C1.92625 7.50223 2.61494 7.61672 2.7976 7.15088C2.8386 7.04621 2.36724 7.22195 2.90575 6.93502C2.51123 6.86391 2.63817 6.76958 2.27912 6.898C2.29012 6.7107 3.09715 6.50688 3.41559 6.41371C2.29582 6.19258 2.92905 6.88594 1.96272 6.51316C1.78071 6.7435 2.24401 6.70268 2.2059 6.74062C2.06918 6.87706 1.75378 6.65541 1.36622 7.13431C1.30311 7.21294 1.56471 7.45926 1.17432 7.44381C1.13114 7.44173 0.884279 7.23101 0.887871 7.21594C0.922392 7.05305 1.16805 7.11652 1.17885 7.0485C1.189 6.9841 0.913925 7.0203 0.913145 7.00242C0.906626 6.79788 1.14309 6.92643 1.10917 6.8621C1.03594 6.72219 0.0519509 6.27292 1.34034 6.41391C0.267016 6.635 1.20108 6.63838 1.61905 6.55351C1.72563 6.53225 1.75372 6.41038 1.9057 6.36942C2.10119 6.31637 2.32884 6.37713 2.42994 6.35567C2.53868 6.33199 1.92486 6.03752 2.81575 6.13205C2.36464 5.84064 1.56016 6.13924 1.11627 5.93344C0.220719 5.51757 1.74801 5.44446 1.9074 5.40647C1.94987 5.39617 1.80938 5.2299 1.83772 5.22007C1.88405 5.205 2.74967 5.28939 2.83637 5.15371C2.92285 5.01815 2.51899 5.157 2.49358 5.01455C2.47634 4.91864 3.52304 4.75865 2.9579 4.68789C2.56839 4.63937 1.846 5.01741 1.72882 4.60266C2.3026 4.57381 2.87639 4.54496 3.45017 4.51611C3.13777 4.35579 2.82538 4.19548 2.51299 4.03516C3.1571 3.9913 3.71187 4.1742 4.3253 3.95465C2.86108 3.43658 4.80604 3.5567 4.82802 3.49554C4.83552 3.4589 4.26118 3.04416 4.16885 2.96842C4.68268 2.81578 6.24023 2.75348 5.33415 2.23951C5.4984 2.35518 5.9014 2.07725 5.89632 2.05594C5.84758 1.83218 4.97303 1.96876 5.11734 1.76844C5.28457 1.53597 5.51285 1.85562 5.76698 1.83266C7.07108 1.71273 6.7246 0.543767 8.02925 0.740492C8.00365 0.698744 7.97805 0.656996 7.95246 0.615248C9.37181 0.694659 10.7912 0.774069 12.2105 0.85348C12.7694 0.50275 14.25 0.299902 14.9759 0.346111C15.1221 0.355155 15.8382 0.548717 15.8921 0.581977C15.9918 0.645688 15.44 0.664452 15.6881 0.784483C15.7405 0.809134 16.9553 0.899056 16.8703 0.699093C16.7343 0.674722 16.3071 0.770819 16.2377 0.723238C15.7508 0.383699 19.4955 0.686505 19.6824 0.553277C19.6 0.487821 19.5177 0.422364 19.4353 0.356906C19.6714 0.390949 19.9076 0.424992 20.1438 0.459034ZM9.12787 16.3513C8.98408 16.5498 8.62982 16.3964 8.41913 16.4505C8.12804 16.5263 7.62723 17.2912 7.84699 16.5219C8.27395 16.4651 8.70091 16.4082 9.12787 16.3513ZM15.3568 16.7077C15.0719 16.5977 15.2977 16.1691 15.5304 16.3503C15.5562 16.3709 15.7423 16.8558 15.3568 16.7077ZM12.3612 16.4751C12.3733 16.4695 12.6203 16.4833 12.6288 16.4901C12.8488 16.6651 12.1042 16.6228 12.3612 16.4751ZM26.8434 16.3903C26.5282 16.4059 26.7527 16.7996 26.9501 16.6403C26.9625 16.6302 26.8642 16.3896 26.8434 16.3903ZM26.6194 16.3778C26.3781 16.0248 25.8786 16.7309 26.271 16.663C26.3091 16.6561 26.6306 16.395 26.6194 16.3778ZM14.3392 16.5269C14.3727 16.3929 14.667 16.4605 14.7926 16.4938C14.7881 16.6165 14.4629 16.5131 14.3392 16.5269ZM21.8174 16.5599C21.8309 16.4544 20.8057 16.4506 20.7346 16.5891C20.8969 16.5316 21.8047 16.6547 21.8174 16.5599ZM24.4477 16.4362C24.4219 16.4177 24.0675 16.4422 24.077 16.5355C24.2487 16.6594 24.564 16.52 24.4477 16.4362ZM29.6729 16.4916C29.6923 16.4683 29.4327 15.8726 30.0574 16.269C30.1492 16.327 29.8182 16.4789 29.8508 16.5005C29.919 16.5427 29.9731 16.5625 30.0167 16.5664C29.7236 16.6128 29.4193 16.6331 29.3902 16.5968C29.2537 16.4256 29.6643 16.5013 29.6729 16.4916ZM32.4203 16.0754C32.4815 15.9792 32.8661 16.0345 32.9534 16.0752C32.9683 16.0828 32.9003 16.3365 33.0739 16.3191C33.2133 16.3047 33.0078 16.0423 33.2786 16.0865C33.5522 16.131 33.1843 16.3132 33.2081 16.3266C33.2401 16.3443 33.6651 16.2313 33.6505 16.3827C33.6396 16.4948 33.1862 16.4146 33.0736 16.4374C32.9295 16.4667 33.1021 16.6553 32.8622 16.6129C32.7114 16.5864 32.7982 16.2584 32.7665 16.2415C32.7399 16.2279 32.2102 16.4121 32.4211 16.0764C32.4208 16.0761 32.4205 16.0757 32.4203 16.0754ZM30.096 16.5526C30.0739 16.5635 30.048 16.5692 30.0167 16.5664C30.0433 16.5622 30.0698 16.5573 30.096 16.5526ZM9.95533 16.2149C10.103 16.3177 9.66063 16.4435 9.49482 16.3091C9.49294 16.202 9.93181 16.1989 9.95533 16.2149ZM30.3699 16.2875C30.8039 16.3739 30.4831 16.4842 30.096 16.5526C30.2193 16.4919 30.2242 16.2586 30.3699 16.2875ZM18.0248 16.3084C18.0429 16.3331 18.0542 16.3714 18.0551 16.4342C18.0075 16.3651 18.0035 16.3282 18.0248 16.3084ZM19.038 16.43C19.3875 16.242 18.681 16.243 18.6842 16.38C18.6858 16.4317 19.024 16.4375 19.038 16.43ZM27.2473 16.4127C27.2157 16.3937 27.7152 15.8207 26.9938 16.2474C27.376 16.3191 26.9715 16.3782 26.977 16.4289C26.9912 16.5744 27.6357 16.4407 27.7775 16.5049C27.8915 16.2458 27.3518 16.4754 27.2481 16.4128C27.2479 16.4128 27.2476 16.4127 27.2473 16.4127ZM37.3629 16.2619C37.2743 16.4135 36.9983 16.3619 36.8118 16.3512C36.9004 16.1995 37.1764 16.2512 37.3629 16.2619ZM86.1834 16.7427C84.9037 16.8716 84.744 16.2493 85.9114 16.5056C85.9342 16.511 86.2616 16.6805 86.1834 16.7427ZM75.2137 16.4787C75.0958 16.207 75.4949 16.1673 75.7556 16.2815C75.8146 16.3072 76.0311 16.5833 75.7805 16.6345C75.7915 16.3067 75.4059 16.1777 75.2137 16.4787ZM30.6173 16.1165C30.7456 15.9373 31.1341 16.0694 31.3391 16.0984C31.2124 16.2458 30.7983 16.1747 30.6173 16.1165ZM81.9857 16.3795C81.8512 16.3577 81.758 16.5923 81.7811 16.6121C81.8844 16.7029 82.138 16.5149 81.9857 16.3795ZM29.3596 16.0767C29.3428 15.9687 29.8599 15.8697 29.8934 16.1367C29.7832 16.1164 29.3718 16.1445 29.3596 16.0767ZM37.0119 16.1777C36.9322 16.1221 37.3482 16.0278 37.4732 16.0834C37.462 16.1981 37.064 16.2138 37.0119 16.1777ZM79.8156 16.439C79.6952 16.4174 79.3938 16.4083 79.3595 16.5032C79.3169 16.6218 79.7593 16.5854 79.8156 16.439ZM102.269 16.4446C102.283 16.4875 101.814 16.7912 101.607 16.7113C101.214 16.5584 102.252 16.4143 102.269 16.4446ZM83.2624 16.2701C83.6408 16.4975 83.2203 16.2768 83.2348 16.5126C83.4908 16.5235 84.1276 16.5412 83.6919 16.3053C83.607 16.2596 83.3816 16.2865 83.2624 16.2701ZM82.9121 16.1879C82.8706 16.2639 82.5941 16.5021 82.8313 16.4871C82.941 16.4798 83.1202 16.2139 82.9121 16.1879ZM99.375 16.5222C99.0359 16.3103 100.598 16.437 100.643 16.474C100.666 16.4935 100.682 16.5118 100.691 16.5273C100.749 16.4617 101.044 16.4526 101.077 16.6202C100.988 16.6056 100.746 16.618 100.718 16.5992C100.706 16.5912 100.697 16.5837 100.691 16.5761C100.586 16.7204 99.44 16.5624 99.375 16.5222ZM96.7865 16.2831C97.1796 15.9789 97.2438 16.503 97.21 16.5195C96.7831 16.7298 97.0638 16.3463 97.0509 16.3281C97.0216 16.2978 96.7181 16.4741 96.7877 16.2831C96.7873 16.2831 96.7869 16.2831 96.7865 16.2831ZM98.8448 16.4311C98.8609 16.4245 99.1884 16.4437 99.2018 16.4521C99.4687 16.6306 98.542 16.5768 98.8448 16.4311ZM34.4914 15.7285C34.7255 15.7828 34.4936 15.9732 34.3383 15.9025C34.3256 15.8955 34.2849 15.6806 34.4914 15.7285ZM82.7243 16.2381C82.6702 16.2012 81.2803 16.0508 81.3612 16.3425C81.4796 16.3093 83.0595 16.4739 82.7243 16.2381ZM72.328 16.0697C72.5733 16.0743 72.3032 16.3461 72.1733 16.2426C72.1251 16.2042 72.2661 16.0688 72.328 16.0697ZM28.6661 15.8211C28.4099 15.9694 28.4673 15.4643 28.6865 15.6397C28.6951 15.6466 28.6761 15.8153 28.6661 15.8211ZM74.2865 16.2459C73.4388 16.4042 73.6473 15.5364 74.7446 15.8403C74.7098 15.8787 74.675 15.9171 74.6402 15.9555C75.9087 16.0979 74.7265 16.0177 74.4151 16.0634C74.2968 16.0808 74.3945 16.2269 74.2873 16.2469C74.287 16.2466 74.2867 16.2462 74.2865 16.2459ZM71.038 16.041C70.2289 15.4161 71.7807 15.8327 72.2277 15.7565C71.7927 16.0073 71.2299 15.9634 71.9934 16.2316C70.8731 16.2715 71.3416 16.0301 71.2971 16.0092C71.2444 15.9858 71.0724 16.0678 71.038 16.041ZM73.1873 16.0571C73.2346 16.0395 73.5883 16.1685 73.7163 16.1492C73.5356 16.3584 72.8735 16.1766 73.1873 16.0571ZM94.0692 16.4008C94.1002 16.2358 94.1743 16.1148 94.4538 16.1792C94.3665 16.2614 94.1869 16.3311 94.0692 16.4008ZM8.86666 15.4793C8.67389 15.4657 8.2904 15.3998 8.40655 15.5746C8.4193 15.5895 8.86516 15.5768 8.86666 15.4793ZM78.6848 16.0662C78.6439 16.0455 77.5832 16.0219 77.9479 16.2077C78.0579 16.2637 79.0234 16.2494 78.6848 16.0662ZM84.1784 16.1386C84.0896 16.1361 83.7286 16.1638 83.7206 16.2028C83.6949 16.3377 84.1383 16.2676 84.1784 16.1386ZM7.89521 15.301C7.86997 15.2837 7.28053 15.3085 7.34454 15.3893C7.46605 15.542 7.98172 15.3609 7.89521 15.301ZM35.3485 15.3495C35.3978 15.3439 35.4613 15.524 35.4783 15.5261C35.5183 15.5291 36.4205 15.4685 36.0739 15.6957C36.0161 15.7338 34.7198 15.6331 34.5513 15.6087C34.4884 15.3617 35.0403 15.6013 35.1753 15.5772C35.1991 15.5726 35.2163 15.3667 35.3481 15.3506C35.3482 15.3502 35.3484 15.3499 35.3485 15.3495ZM95.53 16.2402C95.5713 16.0839 96.6321 15.9901 96.618 16.1798C96.2554 16.1999 95.8927 16.22 95.53 16.2402ZM94.9919 16.2092C94.7668 16.0962 95.2968 16.0645 95.4524 16.1149C95.4531 16.2203 95.0247 16.2257 94.9919 16.2092ZM82.1737 15.5345C82.0669 15.5718 82.3922 15.8034 82.3185 15.8472C82.2713 15.8744 82.0342 15.7865 81.9576 15.8573C81.9359 15.8798 82.1766 16.0969 82.2469 16.0883C82.3467 16.0768 82.2516 15.9069 82.3604 15.9067C82.7218 15.9065 83.041 16.0301 83.3797 16.0305C83.4103 16.0302 83.1742 15.9085 83.4351 15.9127C83.4754 15.9131 83.716 16.0932 84.0284 16.0698C84.7229 15.5255 85.2239 16.071 86.1005 15.8807C86.068 15.8285 85.4151 15.6832 85.3767 15.6777C84.6463 15.5803 83.3365 15.558 82.5707 15.5497C82.3742 15.5473 82.4686 15.6648 82.3839 15.6683C82.317 15.6708 82.3985 15.4557 82.1737 15.5345ZM8.97023 15.361C8.88032 15.1445 8.55656 15.2779 8.35068 15.2648C8.42136 15.46 8.7694 15.3113 8.97023 15.361ZM90.2352 15.9974C90.1319 16.0047 89.8124 15.9368 89.7853 16.0014C89.7505 16.0859 90.212 16.1437 90.2352 15.9974ZM40.4311 15.4585C40.4411 15.4528 40.6894 15.4666 40.6987 15.4735C40.919 15.6486 40.1743 15.6062 40.4311 15.4585ZM46.3722 15.5559C46.5608 15.5311 46.7514 15.4655 46.8131 15.641C46.6933 15.6131 46.349 15.6775 46.3722 15.5559ZM54.5693 15.6278C54.5325 15.3984 55.098 15.552 55.2049 15.5736C55.1643 15.675 54.5962 15.7931 54.5693 15.6278ZM94.0352 15.6813C94.3817 15.6981 94.3117 15.3505 94.5303 15.5096C94.566 15.5364 94.6752 16.26 94.2968 15.9857C94.2287 15.9364 94.4985 15.7673 94.0352 15.6813ZM74.9237 15.8493C75.0133 15.6986 75.2883 15.7461 75.4744 15.76C75.4316 15.8722 75.0563 15.8397 74.9237 15.8493ZM6.83277 15.1178C6.67224 14.9023 5.91971 15.0539 6.10422 15.197C6.13048 15.2157 6.72749 15.1087 6.83277 15.1178ZM31.505 15.4338C31.8156 15.2682 31.176 15.21 30.9725 15.3727C31.064 15.3628 31.4841 15.4447 31.505 15.4338ZM52.6015 15.4848C52.6164 15.478 52.9439 15.4973 52.9585 15.5058C53.2253 15.6842 52.2987 15.6304 52.6015 15.4848ZM44.421 15.2595C44.5404 15.1219 45.3154 15.2411 45.4881 15.3816C45.3188 15.5827 44.2729 15.4312 44.421 15.2595ZM92.6082 15.7665C92.8555 15.7616 93.0897 15.8065 93.3162 15.8686C93.2674 15.9849 92.6335 15.8539 92.6082 15.7665ZM53.8045 15.4816C53.822 15.4827 53.839 15.496 53.8557 15.4976C53.8383 15.4925 53.8212 15.4867 53.8045 15.4816ZM87.0748 15.6325C86.868 15.5844 86.909 15.7987 86.9217 15.8054C87.0769 15.8761 87.3088 15.6867 87.0748 15.6325ZM8.73648 15.0412C8.66647 14.8475 8.31656 14.994 8.11652 14.9462C8.17325 15.0991 8.5748 15.06 8.73648 15.0412ZM70.169 15.6375C69.9107 15.4258 70.9721 15.1926 71.194 15.3296C71.2093 15.459 70.2069 15.6665 70.169 15.6375ZM30.5481 15.1353C30.5288 14.9838 30.0824 15.1622 30.1762 15.2345C30.2356 15.2805 30.5597 15.2293 30.5481 15.1353ZM71.7259 15.4228C71.8258 15.3776 72.0564 15.529 71.9738 15.6192C71.8679 15.7348 71.7 15.4358 71.7259 15.4228ZM80.6554 15.3853C80.6121 15.3618 80.0255 15.5116 80.2658 15.6681C80.4325 15.7769 80.4613 15.5585 80.5007 15.5582C80.5448 15.5593 81.4816 15.8357 80.6554 15.3853ZM64.2381 15.4499C64.4594 15.3939 64.7257 15.4639 64.9569 15.4619C64.8618 15.5545 64.3309 15.575 64.2381 15.4499ZM32.2636 15.1109C32.2105 15.0493 30.7503 14.9987 31.5783 15.1948C31.6266 15.2058 32.4247 15.2977 32.2636 15.1109ZM94.0352 15.6813C93.9915 15.6792 93.9411 15.6715 93.8828 15.656C93.9408 15.6624 93.9913 15.6732 94.0352 15.6813ZM90.0992 15.6215C90.18 15.5121 89.7783 15.4789 89.6591 15.5364C89.6213 15.6706 90.088 15.6368 90.0992 15.6215ZM64.9758 15.3085C65.1096 15.2467 65.3506 15.3162 65.5155 15.3104C65.4866 15.4125 65.0324 15.413 64.9758 15.3085ZM55.6281 15.1054C55.8919 15.1687 56.2175 15.1438 56.2237 15.0187C56.229 15.0383 56.2416 15.0592 56.2627 15.0803C56.284 15.1011 56.5678 15.0456 56.6904 15.0895C57.4246 15.3502 53.8443 15.2118 55.9233 14.8778C55.8249 14.9537 55.7265 15.0296 55.6281 15.1054ZM43.3736 14.9549C43.225 14.8011 42.8029 14.9881 42.9114 15.0492C42.987 15.091 43.5224 15.1098 43.3736 14.9549ZM49.1482 14.9189C49.1036 14.8913 48.6923 14.9942 48.681 15.0743C48.9161 15.1611 49.3513 15.0472 49.1482 14.9189ZM42.2218 14.7656C42.1279 14.7417 42.0054 14.9863 42.0164 14.9972C42.1112 15.0878 42.3787 14.9039 42.2218 14.7656ZM93.3235 15.0126C93.184 14.9409 92.7356 15.1146 92.6369 15.2759C92.6191 15.2444 92.5707 15.203 92.4817 15.1531C92.482 15.1531 92.4822 15.1531 92.4825 15.1531C92.3624 15.0864 88.7528 14.9808 91.1715 15.3161C91.2472 15.3268 91.145 15.1802 91.4533 15.2088C91.4737 15.2108 91.4827 15.3298 91.5456 15.3362C91.6904 15.3502 92.4615 15.4323 92.6175 15.338C92.6186 15.3601 92.6284 15.3811 92.6496 15.4006C92.8382 15.5739 93.4317 15.0679 93.3235 15.0126ZM49.9619 14.9048C49.8797 14.8599 49.6179 14.8993 49.5899 15.004C49.719 15.0567 50.1525 15.0094 49.9619 14.9048ZM32.2223 14.6799C32.0549 14.592 31.6271 14.7494 31.7551 14.8363C31.8336 14.8898 32.4154 14.7808 32.2223 14.6799ZM47.3434 14.9362C48.3069 15.0693 47.5737 14.9283 47.7229 14.7758C47.5964 14.8293 47.4699 14.8827 47.3434 14.9362ZM97.7841 15.452C97.6307 15.4151 97.8143 15.1131 97.9821 15.2795C98.0348 15.3323 97.87 15.472 97.7841 15.452ZM104.731 15.4228C104.602 15.1523 105.242 15.3166 104.99 15.4989C104.978 15.5051 104.74 15.4332 104.731 15.4228ZM99.8783 15.2672C99.7721 15.4496 99.7039 15.4707 99.4102 15.4226C99.8461 15.3751 99.4438 15.2091 99.8783 15.2672ZM56.221 14.9989C56.2226 15.0063 56.224 15.0118 56.2237 15.0187C56.2218 15.0119 56.2211 15.0055 56.221 14.9989ZM41.3144 14.8048C41.1952 14.6484 40.8566 14.6566 40.956 14.8139C40.9656 14.8285 41.2639 14.9191 41.3144 14.8048ZM92.6369 15.2759C92.6526 15.3039 92.6443 15.3218 92.6175 15.338C92.6164 15.3172 92.6235 15.2977 92.6369 15.2759ZM43.1327 14.6953C43.1196 14.8111 43.6342 14.861 43.655 14.8476C43.9525 14.6494 43.3455 14.6903 43.1327 14.6953ZM28.8182 14.485C28.7915 14.4968 28.96 14.7976 29.0662 14.6814C29.1484 14.5912 28.9181 14.4399 28.8182 14.485ZM100.878 15.2019C101.041 15.2036 101.27 15.2057 101.311 15.3481C101.202 15.3253 100.873 15.3061 100.878 15.2019ZM104.481 15.2254C104.287 15.3906 103.847 15.386 103.566 15.3558C103.563 15.1359 104.3 15.2754 104.481 15.2254ZM93.7651 15.0987C93.7518 15.0896 93.3434 15.0202 93.3979 15.1679C93.4775 15.3845 93.8798 15.1798 93.7651 15.0987ZM29.611 14.6512C29.7948 14.5516 29.3769 14.2361 29.1816 14.4749C29.0813 14.5972 29.58 14.6679 29.611 14.6512ZM40.2596 14.5915C40.0175 14.6744 40.6143 14.8318 40.6993 14.6787C40.5882 14.6653 40.3457 14.5622 40.2596 14.5915ZM48.4736 14.5131C47.7172 14.0621 48.1238 14.8757 48.2594 14.8058C48.2785 14.7958 48.4921 14.5237 48.4736 14.5131ZM4.9538 14.2129C4.84555 14.2735 5.24488 14.5007 5.29821 14.3541C5.33118 14.2624 5.02303 14.1742 4.9538 14.2129ZM59.9241 14.9092C59.892 14.9103 59.8602 14.9115 59.8286 14.9125C59.8523 14.9054 59.8834 14.9034 59.9241 14.9092ZM38.0743 13.9764C38.6038 14.6081 38.5521 14.1245 38.5986 14.1276C38.6991 14.1353 38.9311 14.3069 39.1209 14.2809C38.9032 14.3494 38.6855 14.4179 38.4679 14.4865C38.6388 14.5333 40.1258 14.778 40.158 14.6767C40.2041 14.5324 39.7351 14.5734 39.7215 14.5605C39.702 14.5422 39.6326 14.1391 39.5893 14.1234C39.518 14.0983 38.2729 14.0783 38.0743 13.9764ZM46.8824 14.5676C47.0042 14.6166 47.0375 14.7764 47.0947 14.7388C47.1141 14.7259 47.1187 14.5739 47.1851 14.5352C47.0842 14.546 46.9833 14.5568 46.8824 14.5676ZM37.1102 14.5308C36.9604 14.3436 37.6393 14.4205 37.6609 14.4415C37.7759 14.5685 37.2326 14.6837 37.1102 14.5308ZM42.8769 14.558C42.8522 14.5469 42.3309 14.484 42.3341 14.5871C42.4714 14.667 43.169 14.6965 42.8769 14.558ZM47.2669 14.5256C47.4501 14.5451 47.7952 14.7014 47.7576 14.4721C47.7573 14.4721 47.7571 14.4721 47.7568 14.4721C47.5935 14.4899 47.4302 14.5078 47.2669 14.5256ZM30.2417 14.1736C29.9053 13.8057 30.0619 14.268 30.3617 14.3885C30.4543 14.2256 30.2968 14.2334 30.2417 14.1736ZM29.1569 13.8915C29.063 13.825 28.0882 13.8877 28.235 14.0821C28.2872 14.1513 28.849 13.9832 28.8746 13.9968C28.9136 14.0169 28.7329 14.2287 29.032 14.1892C29.0152 14.1167 29.1891 13.9137 29.1569 13.8915ZM29.9626 13.9375C29.6276 13.657 29.5469 14.1677 29.8008 14.1715C29.9 14.1733 30.0104 13.9779 29.9626 13.9375ZM31.3414 13.994C31.2203 13.9444 30.8974 13.8706 30.6727 14.0386C30.9711 14.0559 31.2695 14.0732 31.5678 14.0906C31.6032 13.9945 31.4473 14.0376 31.3406 13.994C31.3408 13.994 31.3411 13.994 31.3414 13.994ZM106.523 13.934C106.256 13.7865 106.874 13.7367 106.9 13.7726C106.977 13.8916 106.642 13.9999 106.523 13.934ZM2.90202 9.54683C2.82802 9.48832 2.78108 9.29764 2.61607 9.39576C2.77978 9.53773 2.94349 9.6797 3.1072 9.82167C3.23848 9.50113 2.98289 9.61137 2.90202 9.54683ZM2.28288 8.36532C2.30626 8.35774 2.18357 7.8618 2.48164 8.19493C2.68303 8.41987 1.57441 8.62682 1.37672 8.40557C1.59839 8.30571 2.08161 8.42695 2.28288 8.36532ZM0.364681 6.20551C0.352292 6.16593 0.773252 6.11201 0.821652 6.14028C1.07579 6.2893 0.431724 6.41754 0.364681 6.20551ZM1.70499 6.31254C1.50873 6.2146 1.9461 6.15678 2.07575 6.21329C2.08751 6.3055 1.73532 6.32682 1.70499 6.31254ZM103.873 6.74286C103.663 6.4046 103.466 7.12666 103.795 6.9839C103.811 6.97719 103.882 6.75941 103.873 6.74286ZM0.780386 5.71029C0.976648 5.80822 0.539282 5.86605 0.409631 5.80953C0.39839 5.71743 0.750497 5.69596 0.780386 5.71029ZM103.731 5.94043C103.45 5.6958 103.542 6.50882 103.577 6.54187C103.722 6.67248 104.225 6.35845 104.328 6.28017C103.578 6.395 103.863 6.0557 103.731 5.94043ZM102.419 6.41581C102.156 6.49997 102.826 6.67198 102.956 6.4468C102.825 6.4564 102.494 6.39147 102.419 6.41581ZM100.826 6.14037C100.685 6.10996 100.265 6.03637 100.194 6.16348C100.348 6.1418 100.765 6.27129 100.826 6.14037ZM100.51 5.75449C100.29 5.57879 100.233 6.08416 100.489 5.93589C100.499 5.93015 100.518 5.76422 100.51 5.75449ZM99.2695 5.5602C99.1264 5.35766 98.9564 5.84601 99.1911 5.86143C99.2609 5.8651 99.2846 5.58341 99.2695 5.5602ZM103.384 5.06344C103.177 4.9751 102.907 5.32342 103.35 5.36612C103.193 5.41826 103.037 5.47041 102.881 5.52255C103.46 5.72466 103.422 5.23772 103.588 5.2594C103.821 5.29018 103.799 5.6915 103.751 5.81713C103.944 5.57295 104.755 5.57664 105.224 5.53421C104.813 5.42711 104.146 5.24186 103.74 5.17263C103.624 5.15261 103.511 5.26165 103.412 5.24841C103.253 5.22658 103.396 5.06937 103.385 5.06345C103.385 5.06345 103.384 5.06344 103.384 5.06344ZM97.6369 5.53759C97.2131 5.30569 97.4778 5.80025 97.7193 5.71477C97.7297 5.70811 97.6475 5.54325 97.6369 5.53759ZM0.229556 4.20981C0.796775 4.42082 0.380508 4.6895 1.57505 4.2868C1.07207 4.57511 1.5454 4.49726 1.44665 4.61453C1.36744 4.70731 1.07468 4.62711 1.24351 4.81705C1.02119 4.60995 0.0471052 4.6575 0.00401534 4.6238C0.0044235 4.6238 0.00483165 4.62381 0.00523981 4.62381C-0.0206429 4.60385 0.0485551 4.1427 0.229556 4.20981ZM100.836 4.85374C100.7 4.2554 100.635 5.20245 100.36 4.70503C99.9818 5.42004 101.388 4.71479 101.551 5.32327C100.033 5.23847 102.55 5.93406 101.498 5.01561C102.368 5.35355 101.785 4.90579 101.921 4.7913C102.066 4.66935 102.559 4.808 102.536 4.5854C102.536 4.5854 102.536 4.58539 102.536 4.58539C102.233 4.59811 101.931 4.61083 101.628 4.62356C101.92 5.10602 101.303 4.95638 101.097 4.56357C101.01 4.66029 100.923 4.75702 100.836 4.85374ZM102.543 5.32014C102.513 5.30888 101.855 5.36993 101.897 5.4666C101.984 5.52884 102.918 5.46398 102.543 5.32014ZM105.438 5.24255C105.202 5.23916 104.838 5.14215 104.707 5.32181C104.943 5.32524 105.308 5.42231 105.438 5.24255ZM93.2812 5.09401C92.9789 5.23961 93.905 5.29228 93.6386 5.11397C93.6255 5.10558 93.296 5.08722 93.2812 5.09401ZM100.151 4.93757C99.8466 4.75225 99.9858 5.33434 100.214 5.18513C100.227 5.17634 100.165 4.94603 100.151 4.93757ZM0.691435 4.14359C0.713239 4.0015 1.53809 4.1092 1.68448 4.10934C1.60007 4.24082 0.666422 4.30648 0.691435 4.14359ZM105.858 4.71417C105.393 4.19815 104.75 4.78308 104.681 4.76951C104.611 4.7557 104.722 4.53309 104.707 4.52694C104.671 4.51406 103.93 4.52586 103.894 4.54109C103.868 4.55299 103.999 4.86852 103.846 4.96609C104.145 4.79031 105.498 4.91475 105.568 4.88059C105.623 4.85329 105.216 4.51941 105.857 4.71417C105.858 4.71417 105.858 4.71417 105.858 4.71417ZM104.507 4.69939C104.69 4.83286 104.171 4.84447 104.046 4.79468C103.769 4.68327 104.483 4.68356 104.507 4.69939ZM103.26 4.56626C103.201 4.53616 102.667 4.50429 102.62 4.65052C102.872 4.84315 103.394 4.63638 103.26 4.56626ZM97.3125 4.53006C97.1735 4.54754 96.7928 4.43125 96.7697 4.5592C96.9089 4.54181 97.2895 4.65802 97.3125 4.53006ZM3.51945 3.05156C3.28984 2.94216 3.82457 2.90337 3.97997 2.95627C3.98762 3.04184 3.539 3.06095 3.51945 3.05156ZM100.111 3.71169C100.029 3.67195 98.351 3.75343 98.1152 3.81123C98.3444 3.91031 100.006 3.93338 100.082 3.88679C100.104 3.87284 100.121 3.71792 100.111 3.71169ZM103.738 3.68664C103.893 3.49937 103.991 3.72666 104.011 3.72968C104.201 3.76035 104.595 3.7215 104.507 3.90245C104.172 3.82596 103.428 4.05853 103.738 3.68664ZM97.2013 3.675C96.6313 3.73968 97.7231 3.94879 97.5815 3.75017C97.5723 3.73816 97.2603 3.6682 97.2013 3.675ZM100.298 3.65846C100.425 3.50715 102.102 3.65443 102.371 3.65719C102.127 3.93619 101.935 3.72072 101.611 3.73202C101.523 3.7354 101.545 3.85263 101.536 3.85273C101.384 3.85672 101.499 3.72265 101.406 3.71972C101.347 3.71824 100.12 3.87165 100.298 3.65846ZM103.827 3.55673C103.921 3.44943 104.969 3.41316 105.011 3.44231C105.324 3.65909 103.908 3.59516 103.827 3.55673ZM100.147 3.40695C100.33 3.08177 101.161 3.30851 100.59 3.46611C100.535 3.48043 100.306 3.33656 100.147 3.40695ZM97.2651 3.36429C97.2372 3.35442 96.6442 3.2835 96.6326 3.3874C96.718 3.42863 97.5829 3.47302 97.2651 3.36429ZM97.5761 3.01544C97.5618 3.0178 97.6991 3.21943 97.421 3.19143C97.3978 3.18882 97.3567 2.96304 97.006 3.04225C96.9349 3.05858 96.8235 3.20664 96.8313 3.21598C97.1924 3.5731 98.2959 2.906 97.5761 3.01544ZM103.847 3.3743C103.792 3.27864 103.931 2.99756 104.052 3.14171C104.104 3.20394 104.004 3.37247 103.847 3.3743ZM95.3835 3.25529C95.7302 3.08729 94.6472 3.04473 94.5916 3.08804C94.6253 3.19503 95.3489 3.27169 95.3835 3.25529ZM4.07187 1.73474C4.0716 1.73474 4.07132 1.73474 4.07105 1.73473C4.36098 1.77627 4.17983 1.91703 4.19338 1.92163C4.80975 2.13668 4.64877 1.81249 4.74582 1.77532C4.95393 1.69492 4.91683 2.08697 5.2681 1.92758C4.68773 2.16238 5.2149 2.06662 5.22996 2.20636C5.2894 2.77663 4.46277 1.93239 4.17341 2.04908C4.13309 2.06523 4.42791 2.24983 4.32453 2.30058C3.9884 2.46502 2.95937 1.57589 4.07187 1.73474ZM104.147 3.11769C104.283 2.95163 105.303 3.12353 105.031 3.25883C104.987 3.28052 103.947 3.35972 104.147 3.11769ZM56.4319 2.42211C56.6788 2.27961 56.1114 2.10403 56.0048 2.21575C55.952 2.27141 56.3235 2.48465 56.4319 2.42211ZM52.4484 1.76516C52.1564 1.79181 51.8432 2.39279 52.207 2.30249C52.2457 2.29261 52.4811 1.84924 52.4484 1.76516ZM71.6011 2.2555C71.2985 2.03684 71.3128 2.43797 71.5365 2.43441C71.6155 2.43322 71.6106 2.26242 71.6011 2.2555ZM59.9747 2.19807C59.9443 2.18379 59.5919 2.20608 59.6039 2.29836C59.7336 2.35487 60.1709 2.29601 59.9747 2.19807ZM71.6983 2.19934C71.517 2.26991 71.8252 2.56284 72.0486 2.2815C71.9363 2.30369 71.717 2.19213 71.6983 2.19934ZM99.5259 2.51493C99.3731 2.67816 98.9457 2.62438 98.6997 2.65037C98.6751 2.43681 99.3499 2.55196 99.5259 2.51493ZM53.6845 2.0196C53.4069 2.16734 53.9974 2.29598 53.945 2.09676C53.9376 2.0859 53.6954 2.01329 53.6845 2.0196ZM81.4294 2.26904C81.2274 2.39439 81.8632 2.5715 81.6899 2.3462C81.6813 2.337 81.4404 2.26207 81.4294 2.26904ZM84.2119 2.36888C84.06 2.32453 83.4105 2.33162 83.662 2.45814C83.7011 2.47758 84.1994 2.48531 84.2119 2.36888ZM4.76441 1.62192C4.68441 1.40203 5.16023 1.45867 5.22806 1.49761C5.25469 1.51379 4.86875 1.90801 4.76441 1.62192ZM69.6231 2.20266C69.4652 2.22859 69.0569 2.17265 68.9839 2.28693C69.1769 2.26495 69.6727 2.43213 69.6231 2.20266ZM54.9436 2.0304C54.7054 1.79004 54.2943 1.80968 54.393 2.12173C54.847 2.10515 54.3395 1.84158 54.9436 2.0304ZM72.7158 1.9526C72.5896 1.93325 72.4899 2.2311 72.5041 2.24531C72.6398 2.38051 72.8403 2.07002 72.7158 1.9526ZM63.2292 2.10934C63.2231 1.98159 62.8174 2.03574 62.8707 2.11842C62.8882 2.14618 63.2341 2.21272 63.2292 2.10934ZM94.2205 2.39242C94.036 2.27413 94.604 2.16553 94.7704 2.30316C94.8501 2.49996 94.2439 2.40602 94.2205 2.39242ZM76.22 2.06026C76.2406 1.87096 75.6063 1.97213 75.8544 2.13154C75.9165 2.17142 76.2127 2.12355 76.22 2.06026ZM82.2844 1.89003C81.8575 2.11198 83.6397 2.28917 83.1736 2.00319C83.1403 1.98281 82.3216 1.87129 82.2844 1.89003ZM85.1961 2.05853C85.1231 2.03294 85.1656 1.39659 85.4665 1.64496C85.5061 1.67717 85.3182 1.84373 85.3504 1.88253C85.3693 1.90465 86.028 2.00027 86.0585 1.98569C86.0913 1.96912 86.0548 1.76469 86.0881 1.74212C86.1257 1.71689 86.53 1.89997 86.7426 1.90392C87.1432 1.91105 87.188 1.74161 87.2209 1.74135C87.3166 1.74113 87.4763 1.86324 87.6703 1.86491C88.6483 1.87275 90.1454 1.74284 90.9172 2.11024C90.2287 1.95914 89.5698 2.10639 88.8829 2.14715C89.0873 1.7945 87.8704 2.41083 88.5825 2.00839C88.2556 2.09406 85.4356 2.13852 85.1969 2.05853C85.1967 2.05853 85.1964 2.05853 85.1961 2.05853ZM51.2987 1.57587C51.48 1.36017 50.56 1.40042 50.4796 1.65118C50.6006 1.68723 51.2763 1.6003 51.2987 1.57587ZM55.546 1.08555C55.6318 1.04883 55.7168 0.624665 56.1626 0.844377C56.1631 0.844381 56.1635 0.844384 56.1639 0.844388C56.2942 0.908554 56.144 1.01069 56.1677 1.04781C56.1763 1.06296 56.5826 1.27817 56.2432 1.30898C55.7255 1.35627 56.1974 0.992403 55.9217 0.985312C55.888 0.984647 55.3639 1.20975 55.3938 1.26052C55.3969 1.26643 55.5544 1.21925 55.5801 1.24048C55.6773 1.32029 55.6284 1.45253 55.6421 1.45898C55.6872 1.47559 56.5147 1.25728 56.6328 1.45584C56.6712 1.51987 55.3151 1.654 55.2626 1.6204C55.2294 1.59923 55.247 1.23103 55.2128 1.19448C55.1951 1.17627 54.6489 1.30917 54.5785 1.27465C54.558 1.26466 54.5424 1.25396 54.531 1.24515C54.6124 1.35988 54.119 1.34703 54.1353 1.2186C54.1444 1.16814 54.4838 1.20059 54.4958 1.20953C54.5011 1.21332 54.5057 1.21852 54.51 1.22212C54.441 1.08258 55.5909 1.09966 55.3446 0.890645C55.679 0.780557 55.2945 1.19339 55.546 1.08555ZM57.1506 0.873382C57.1158 0.911795 57.081 0.950207 57.0462 0.98862C57.6308 0.899295 58.3024 1.0921 58.9748 1.09703C59.1453 1.09856 58.9513 0.859811 59.1743 0.926652C59.353 0.980217 59.5492 1.20182 59.4513 1.2499C59.4274 1.2619 59.0641 1.11535 58.8814 1.12832C58.3421 1.16674 58.4763 1.37118 58.4447 1.37637C58.4099 1.38182 58.0721 1.23576 57.8868 1.24038C57.4209 1.25244 57.2071 1.37518 56.5723 1.20623C56.9408 1.07579 56.7424 0.783015 57.1506 0.873382ZM78.9 1.51058C78.9234 1.38291 79.3042 1.49996 79.4432 1.48248C79.4201 1.61047 79.039 1.4931 78.9 1.51058ZM21.99 0.809489C21.8707 1.01823 22.7494 1.07845 22.5194 0.901631C22.4684 0.86239 22.1004 0.81202 21.99 0.809489ZM25.9385 0.974248C26.0567 0.917337 25.5845 0.761801 25.5838 0.924217C25.584 0.976304 25.9233 0.98165 25.9385 0.974248ZM64.6926 1.15079C64.7149 1.14443 65.038 1.19421 65.048 1.20498C65.2603 1.42981 64.1966 1.29101 64.6926 1.15079ZM30.7425 0.761031C30.3312 0.89472 31.5646 0.965935 31.1892 0.787022C31.1705 0.778304 30.7623 0.754532 30.7425 0.761031ZM32.4579 0.738765C32.3596 0.745213 31.9238 0.672818 31.9175 0.736797C31.9078 0.84002 32.4067 0.915302 32.4579 0.738765ZM72.8086 1.16068C72.7634 0.9238 73.3372 1.10827 73.5376 1.08037C73.5828 1.31742 73.0089 1.13271 72.8086 1.16068ZM69.178 0.952218C71.6057 0.78864 71.0662 1.28878 69.0325 1.06603C69.031 0.914323 69.0248 0.962518 69.178 0.952218ZM72.2843 1.00944C72.1946 1.16008 71.9196 1.11258 71.7336 1.09869C71.768 0.993696 72.1497 1.0354 72.2843 1.00944ZM20.9461 0.474879C21.1001 0.284967 21.7716 0.527194 21.6511 0.604991C21.623 0.621774 20.8893 0.57958 20.9461 0.474879ZM64.8978 0.95037C64.8434 0.719896 65.571 0.820539 65.6263 0.87213C65.8492 1.07965 64.9572 0.900174 64.8978 0.95037ZM76.2537 0.990726C76.384 0.811824 76.7485 0.907897 76.9835 0.912497C76.875 1.0655 76.4531 0.995841 76.2537 0.990726ZM74.5587 0.833665C74.5735 0.82689 74.9011 0.846233 74.9157 0.854662C75.1826 1.0331 74.2559 0.979336 74.5587 0.833665ZM3.68569 0.00129379C3.69666 -0.00440735 3.94473 0.0094106 3.95332 0.0162627C4.17322 0.191269 3.42867 0.148931 3.68569 0.00129379Z" fill="#333333"/>
</svg>
