<svg width="103" height="17" viewBox="0 0 103 17" fill="none" xmlns="http://www.w3.org/2000/svg">
<path d="M7.97607 16.8621C8.03979 16.8405 8.29617 16.8928 8.40713 16.8836C8.28145 17.1117 7.74622 16.9405 7.97607 16.8621ZM19.3513 0.29687C19.2593 0.353293 19.1672 0.409716 19.0752 0.46614C19.3369 0.502645 19.6886 0.461094 19.9314 0.514492C19.9711 0.52346 19.8682 0.686745 19.9621 0.693988C20.0562 0.701185 20.0379 0.478119 20.1746 0.45419C20.3279 0.428029 21.0302 0.583098 21.2733 0.57921C22.1827 0.563709 23.1 0.435867 24.0113 0.528071C23.0706 0.693567 24.0186 0.861076 24.2821 0.789424C24.3405 0.772835 24.331 0.358123 25.2749 0.462086C25.8748 0.528059 25.321 1.12122 26.3219 0.823711C25.5519 0.409315 26.3089 0.438015 26.9122 0.423934C27.0163 0.421441 27.8564 0.483349 28.2274 0.464799C28.3544 0.458349 28.5477 0.241026 28.7161 0.235244C28.832 0.231427 28.9197 0.350144 29.0918 0.344013C29.8941 0.316854 30.6831 0.307235 31.4868 0.346998C31.0174 0.905454 31.8555 0.584728 31.8932 0.611398C32.0847 0.762868 31.2188 0.806432 31.5613 0.90106C32.0399 0.883534 32.5185 0.866007 32.997 0.84848C32.6042 0.780132 33.5168 0.378146 33.6849 0.56072C33.6107 0.0674859 35.8664 0.988982 36.2097 0.824089C36.2812 0.789259 35.813 0.545696 36.8988 0.656694C37.0164 0.669029 36.972 0.817876 37.0336 0.803973C37.0706 0.795613 37.2939 0.322481 37.5322 0.583751C37.6192 0.679111 37.0629 0.990053 38.2848 0.864585C37.7979 0.383378 39.9789 0.603029 40.3802 0.723484C40.3 0.658844 40.2198 0.594203 40.1397 0.529563C40.5364 0.703852 40.6079 0.540129 40.6972 0.549007C41.0574 0.584662 41.5525 0.749382 41.8879 0.734165C42.2805 0.716653 42.2816 0.417242 42.7393 0.533486C42.6307 0.467476 42.5221 0.401466 42.4135 0.335456C42.7295 0.351212 43.0456 0.36697 43.3617 0.382726C42.63 0.779421 43.5195 0.401558 43.5782 0.392997C43.6717 0.378527 43.5374 0.540851 43.6938 0.52057C43.7099 0.517237 43.6865 0.364449 43.9275 0.347172C44.431 0.311593 44.3515 0.503746 44.5629 0.50147C44.5823 0.50047 44.5144 0.362849 44.8795 0.330106C46.0401 0.22587 44.8738 0.435597 44.8293 0.454647C44.7708 0.479771 45.1691 1.05484 44.1831 0.851338C44.5142 0.916114 44.5476 1.17066 44.5849 1.17696C44.6179 1.18214 45.1913 1.146 45.223 1.13722C45.5049 1.05064 45.2567 0.876801 45.3116 0.845601C45.3566 0.820449 46.0476 1.04681 46.2093 0.523497C46.5402 1.00596 46.0193 0.961999 45.465 1.03645C45.3841 1.13553 45.993 1.23154 46.025 1.23126C46.8103 1.22999 46.3753 0.833216 46.5469 0.579365C46.637 0.446545 46.9571 0.717228 46.6615 0.361405C47.3743 0.323484 46.9421 0.529969 46.9881 0.560473C47.0576 0.605289 47.307 0.503147 47.3382 0.516722C47.384 0.536818 47.2248 0.660141 47.4055 0.703464C47.4355 0.709761 47.7265 0.497537 47.3511 0.39635C47.8526 0.426256 47.8112 0.245432 47.9815 0.609796C48.3266 -0.0798603 48.2323 1.01723 48.3684 1.05579C48.7301 1.15745 48.6249 0.616166 48.644 0.589759C48.7755 0.42053 49.7768 0.606003 50.0247 0.527867C49.9271 0.917818 49.231 0.53251 49.0754 0.608226C48.5568 0.860134 49.8067 0.802808 49.4302 1.29289C49.5881 1.15827 49.746 1.02365 49.9039 0.889023C50.1936 1.20387 49.7828 1.34142 50.5622 1.22593C50.6895 0.953996 50.0112 1.26914 50.1472 1.05493C50.2274 0.929202 50.6793 0.901989 50.6881 0.835722C50.697 0.755955 50.2886 0.850683 50.3529 0.727971C50.4933 0.463158 51.9833 0.714469 50.8493 0.859509C51.1656 0.85483 51.3288 1.38133 51.6031 1.21713C51.7804 1.11054 50.7821 0.383757 52.2794 0.516393C52.3114 0.765034 51.6808 0.590111 51.6645 0.609042C51.6415 0.636599 51.7558 1.19766 51.7756 1.22534C51.8454 1.3165 53.3742 1.01529 53.6975 1.29704C53.5694 0.972803 54.8528 1.23861 54.9925 1.13973C55.0297 1.11243 54.8905 0.913849 54.9303 0.892803C55.1784 0.76754 55.8497 1.12182 56.1611 1.13086C56.5095 1.1411 56.4653 0.969554 56.4848 0.96987C56.6381 0.979365 56.5157 1.09574 56.6094 1.09536C56.751 1.09474 57.724 1.11805 57.7729 1.09376C57.7872 1.08619 57.6282 0.890276 57.8403 0.852995C57.8771 0.846535 57.8539 1.07892 58.4821 0.978237C59.2386 0.857147 57.9566 0.689527 58.2708 0.446032C58.757 0.792276 58.741 0.448935 58.8728 0.47583C58.9184 0.485628 59.2582 0.777386 59.627 0.758738C59.3623 0.806252 59.0976 0.853766 58.8329 0.901281C59.0932 0.952341 59.5985 0.888738 59.8129 0.94646C59.9175 0.974558 59.8314 1.21441 60.0586 1.20782C60.1069 1.20512 60.2979 0.620767 59.7029 0.883218C59.6552 0.674619 59.9385 0.810334 60.0698 0.751259C60.0897 0.742054 60.1679 0.393489 60.3358 0.610011C60.376 0.663283 59.938 1.68018 61.0687 0.943774C61.1052 0.92004 60.9784 0.792776 61.014 0.766364C61.0384 0.748478 61.3271 0.799841 61.359 0.781761C61.3917 0.762363 61.2521 0.623427 61.291 0.596057C61.4901 0.45502 61.7518 1.0062 61.3411 0.964394C61.4784 1.03247 61.6157 1.10054 61.753 1.16861C61.6059 0.753177 61.9685 1.0516 62.1584 1.03871C63.3756 0.956334 62.5604 0.686491 62.7696 0.546569C63.1061 0.321909 62.8493 1.03308 63.3489 0.819186C63.3951 0.799187 62.791 0.497651 63.9704 0.667388C63.7964 0.679233 63.6223 0.691077 63.4482 0.702922C63.5488 1.10476 64.0768 0.675048 64.1174 0.669392C64.5805 0.613985 64.2675 0.759016 64.9551 0.551731C65.0165 0.533121 65.1503 0.632239 65.2816 0.582702C65.8259 0.378613 64.5632 0.459368 64.5286 0.29668C64.5122 0.216965 65.8702 0.236382 65.9168 0.274214C66.1149 0.441925 65.3013 0.348423 65.4565 0.556676C65.5131 0.630619 67.4485 0.477751 67.8369 0.55863C68.285 0.652749 68.487 1.19753 68.4895 0.585291C68.6163 1.18619 68.7278 0.776113 68.7851 0.780224C69.4781 0.835518 69.4794 0.841581 70.0736 0.783747C70.2048 0.771175 70.3156 0.953462 70.362 0.92265C70.389 0.904041 70.3385 0.708932 70.4707 0.648661C70.6545 0.566207 71.7592 0.766372 71.8414 0.874199C71.9236 0.982028 71.3749 0.921205 71.4733 1.09851C71.8704 1.11624 72.2512 1.07218 72.651 1.09067C72.817 1.09889 72.7317 1.22306 72.8035 1.22549C72.834 1.227 73.4073 1.11741 73.383 1.07164C73.326 0.965196 71.5556 1.03763 72.0217 0.820154C72.1117 0.778133 72.4296 1.06402 72.3789 0.716217C73.9606 0.794308 75.5423 0.872398 77.1241 0.950489C76.2154 1.21109 75.1926 0.978918 74.2407 1.00377C74.1103 1.00685 73.6692 0.973515 73.7229 1.14929C74.5324 1.19442 75.5386 1.10233 76.3159 1.21652C76.3408 1.2203 76.2496 1.37829 76.3427 1.40328C76.5169 1.44991 77.0838 1.19489 77.1792 1.26072C77.1955 1.27605 76.8729 1.48444 76.9711 1.61673C77.2232 1.9562 77.2868 1.20402 77.5034 1.21283C77.6709 1.21996 78.7965 1.58308 79.0768 1.35318C79.3747 1.10813 78.2472 1.2114 78.3304 1.01112C79.0932 0.809523 79.8658 1.02403 80.5866 0.998611C80.5993 0.997966 80.489 0.841103 80.6498 0.819069C80.9297 0.780725 81.0033 1.00327 81.1395 1.03881C81.2864 1.07664 81.806 1.04449 81.8755 1.12561C81.8844 1.13625 81.7792 1.35707 81.7632 1.36329C81.537 1.45439 81.4564 1.16789 81.4358 1.16422C81.3585 1.15339 81.2825 1.26318 81.2119 1.25668C81.0957 1.24584 81.0317 1.14433 80.8783 1.13544C80.7724 1.12893 80.8746 1.32387 80.7726 1.315C80.7352 1.31096 80.3311 0.865909 80.2937 1.32042C80.282 1.46373 83.585 1.64614 83.915 1.53137C83.6318 1.47686 83.3486 1.42235 83.0654 1.36784C83.6405 1.50059 84.3312 1.13711 84.3803 1.67434C86.5128 1.71723 88.6453 1.76012 90.7778 1.80301C91.1586 1.8486 90.9499 2.19395 91.5764 2.09316C91.4144 1.98325 91.2525 1.87334 91.0905 1.76343C91.4117 1.84043 92.8345 1.99048 93.0647 1.91915C93.0945 1.9098 93.1358 1.59731 93.4913 1.5703C93.8067 1.54644 93.8575 1.78053 94.0262 1.8253C94.1678 1.86223 94.3268 1.80081 94.3688 1.81371C94.4011 1.82405 94.4139 1.9672 94.4915 1.99213C94.7365 2.06919 94.5378 1.6662 94.7812 2.12896C94.722 2.14662 94.6628 2.16429 94.6036 2.18196C94.8992 2.24881 95.3032 2.45875 94.8678 2.56265C94.793 2.58058 94.8572 2.44205 94.8014 2.44231C92.6148 2.46911 94.361 2.7375 95.1271 2.52205C95.324 2.72718 96.4269 2.60134 96.4636 2.64177C96.5146 2.70032 96.3259 2.86443 96.5734 3.00592C96.6254 3.03588 98.1 2.92025 97.5692 3.19325C97.4596 3.24957 96.7526 3.1908 96.5821 3.19892C96.9834 3.6337 97.9231 3.01005 98.0288 3.02597C98.4553 3.09355 97.2098 3.40333 98.1705 3.45341C98.9092 3.49183 98.2155 3.20173 98.4996 3.07762C98.6592 3.00798 99.4953 3.32753 99.4724 2.9132C99.7593 2.86882 99.5915 3.08829 99.6269 3.10405C99.6616 3.11791 100.226 2.9936 100.409 3.08084C100.431 3.09169 100.361 3.30709 100.384 3.3247C100.429 3.35485 100.973 3.31153 100.995 3.29327C101.009 3.28059 100.879 3.0921 100.932 3.04635C100.994 2.99359 101.518 3.03771 101.547 2.98379C101.587 2.90228 100.941 2.95628 101.049 2.74538C101.347 2.79832 101.832 2.6574 102.029 2.48756C101.98 2.53612 101.692 2.54323 101.591 2.52617C101.638 2.21734 102.259 2.22125 102.047 2.46577C102.181 2.33444 102.089 2.26484 102.165 2.14093C102.185 2.10954 102.377 2.10298 102.413 2.04949C102.418 2.03884 102.221 1.92242 102.26 1.85968C102.332 1.74631 102.912 1.77152 102.96 1.80123C103.094 1.88543 102.62 1.98762 102.581 2.1179C102.575 2.1379 102.978 2.39296 102.984 2.4155C103.008 2.65736 102.56 2.48327 102.611 2.70103C102.722 2.74698 102.833 2.79293 102.944 2.83888C102.516 3.05963 101.725 2.94661 101.522 3.19756C102.155 3.1226 102.819 3.1311 102.817 3.69603C102.817 3.93395 102.544 4.07355 102.554 4.13404C102.595 4.35047 102.974 4.11514 102.988 4.12656C103 4.13975 103.005 4.15259 103.005 4.16509C103.005 4.1651 103.005 4.1651 103.005 4.16511C103.005 4.29184 102.464 4.38336 102.437 4.44124C102.392 4.54405 102.633 4.96703 102.632 5.06061C102.624 5.07942 102.239 5.17973 102.369 5.34298C102.5 5.50787 102.838 5.51135 102.849 5.52848C102.914 5.62713 102.324 5.71742 102.306 5.7757C102.297 5.80517 102.614 5.98604 102.623 6.03807C102.631 6.09029 102.391 6.20436 102.296 6.36924C102.225 6.49173 102.431 6.58552 102.395 6.60473C102.369 6.61747 101.812 6.61565 101.784 6.63719C101.743 6.66906 101.874 6.81535 101.855 6.85195C101.828 6.9046 101.648 6.85186 101.672 6.906C101.689 6.94635 102.387 7.45053 102.383 7.5853C102.375 7.81516 101.636 7.28665 102.324 8.19339C102.329 8.19934 102.496 8.1348 102.501 8.14038C102.604 8.30722 102.067 8.56421 102.724 8.51901C101.503 8.80947 102.572 8.86462 102.391 9.25174C102.322 9.40054 101.849 9.46212 101.847 9.48444C101.893 9.67314 102.043 9.5267 102.095 9.61921C102.123 9.67091 101.7 9.87065 101.795 10.0002C101.844 10.0669 102.294 10.0429 102.312 10.056C102.49 10.1787 102.272 10.3111 102.311 10.3984C102.337 10.4569 102.608 10.4614 102.615 10.4719C102.627 10.4938 102.259 10.7304 102.182 10.8135C102.124 10.8774 102.343 10.9775 102.302 11.0054C102.057 11.1722 101.535 10.7474 102.038 11.3428C102.069 11.3793 102.259 11.3644 102.264 11.3717C102.382 11.5405 102.032 11.5553 101.969 11.6935C101.862 11.9317 102.365 11.7987 101.947 11.9664C102.261 12.122 102.435 12.1154 102.803 12.0718C101.786 12.1935 101.428 12.8102 102.556 12.7942C102.197 12.7847 102.237 13.1327 102.13 13.1389C102.063 13.1423 101.543 12.7965 101.782 13.5728C101.812 13.6697 102.128 13.5464 102.029 13.7449C101.27 13.6946 102.013 13.8712 102.014 13.8974C102.004 14.3547 100.149 13.9811 99.8307 14.0334C99.4609 14.094 99.1324 14.4546 99.0521 14.455C98.7876 14.4553 99.007 14.2723 98.9478 14.205C98.8878 14.1384 98.136 14.4893 98.0984 14.47C97.9527 14.3928 98.1005 14.1759 98.0853 14.165C97.9049 14.0322 96.895 14.2025 96.6122 14.1522C96.621 14.2928 97.1887 14.3037 96.8344 14.5298C96.4218 14.7934 96.3978 14.1734 96.387 14.1461C94.496 14.1529 92.6049 14.1597 90.7139 14.1665C90.7376 14.4963 91.9738 14.247 92.002 14.2904C92.1672 14.5474 90.0787 14.5437 89.8224 14.4274C90.0171 14.4985 90.2118 14.5697 90.4064 14.6408C90.0743 15.0202 89.3385 14.5279 88.8579 14.6955C88.7026 14.7499 89.0009 14.8961 88.9947 14.9061C88.8203 15.0535 88.5402 14.9402 88.7495 14.7423C88.3235 14.932 88.3856 14.7229 88.0587 14.7074C88.0418 14.7067 88.1823 14.8597 87.9236 14.9232C87.8024 14.9529 87.1559 14.9537 87.0694 15.0876C87.0338 15.144 87.3621 15.7373 87.4023 15.2265C88.1056 15.4751 87.6269 14.9936 87.9001 15.0052C87.9419 15.0079 87.8457 15.293 88.5335 15.1585C88.4028 15.6727 87.6104 15.2886 87.4747 15.351C87.1947 15.4791 88.3488 15.7441 88.5604 15.3432C88.4616 15.7444 88.6422 15.3972 88.8995 15.4136C89.1811 15.4313 89.0584 15.5509 89.2108 15.5514C89.6274 15.5542 89.4546 15.2711 89.7982 15.5262C89.4629 14.736 90.3862 15.4217 90.6552 15.6285C90.2176 15.6689 89.7801 15.7092 89.3425 15.7496C89.3675 15.791 89.3926 15.8325 89.4176 15.874C89.3023 15.8682 89.1871 15.8624 89.0718 15.8566C89.0902 15.8168 89.1087 15.777 89.1272 15.7372C88.5329 15.9961 88.3878 15.7055 88.3393 15.7023C87.7154 15.6689 86.9948 15.6717 86.364 15.6711C86.2694 15.671 86.3344 15.9297 85.6446 15.7275C85.4245 15.6631 85.6322 15.4617 85.3828 15.4921C85.0711 16.0391 85.0768 15.6029 84.984 15.6023C84.7179 15.6025 84.5552 15.738 84.5306 15.7394C84.2018 15.7607 83.7201 15.7384 83.3589 15.7587C83.3521 15.7608 83.5402 15.9287 83.3055 15.8791C83.2231 15.8614 82.4836 15.1445 81.8376 15.3786C82.0057 15.427 82.1738 15.4753 82.3419 15.5236C82.1442 15.4561 80.7597 15.6375 81.0984 15.8293C81.306 15.9465 81.8124 15.484 81.8682 15.9285C81.4073 15.7957 78.8627 15.996 78.6646 15.8928C78.6371 15.878 78.8057 15.7337 78.7678 15.7153C78.7385 15.7012 78.1556 15.7357 78.0782 15.6803C78.0321 15.6474 78.2896 15.5589 78.2687 15.5069C78.2503 15.4699 77.5224 15.4085 77.4809 15.5893C77.6596 15.5166 78.1621 15.5798 77.8987 15.7323C77.8648 15.7512 77.6891 15.6347 77.6479 15.6587C77.266 15.8805 78.4077 15.8267 78.5844 15.8285C77.8673 16.0591 76.7579 15.7882 75.927 15.9387C75.5911 15.7884 76.4247 15.7083 76.0447 15.5838C75.2564 15.3257 75.8351 15.792 75.8106 15.8111C75.615 15.963 74.9478 15.1497 74.9477 15.769C74.662 15.6759 74.7544 15.5978 74.3512 15.679C74.4043 15.7219 74.4574 15.7647 74.5104 15.8076C74.0629 16.1665 73.115 15.262 73.1859 15.1929C73.3768 15.0081 73.8704 15.296 73.9125 15.2891C73.9749 15.2788 74.147 14.6503 74.83 15.2119C75.1093 14.7903 73.7478 14.9279 74.3672 14.6403C73.9488 14.6877 72.2274 14.3952 71.9797 14.5803C71.9502 14.6044 72.0881 15.0243 71.6627 14.8108C71.4608 14.7091 71.9476 14.704 71.8552 14.6084C71.5708 14.3149 67.7049 14.5046 66.9705 14.5205C66.9229 14.521 66.9403 14.3906 66.8935 14.3918C66.7496 14.3955 66.2253 14.5901 65.9678 14.5303C66.5014 14.7713 65.4653 14.7905 65.2017 14.7641C64.8016 14.7239 64.8262 14.4945 64.6534 14.4458C63.9872 14.2582 62.9553 14.8032 62.4375 14.2944C62.4661 14.7996 61.5423 14.0471 61.1223 14.0429C60.7932 14.0394 60.316 14.374 60.7602 14.5774C60.1922 14.5544 59.5944 14.649 59.0616 14.68C58.9736 14.6851 59.0947 14.5357 58.9445 14.5493C58.9308 14.5516 58.9121 14.698 58.7831 14.7133C57.7179 14.8414 58.2361 14.53 58.0367 14.4387C57.9252 14.3875 57.8429 14.3621 57.7825 14.3537C58.4033 14.3248 59.1194 14.267 59.3109 14.2627C59.1474 13.9395 57.9349 14.3255 57.5797 14.2386C57.5673 14.2355 57.6102 14.0573 57.5976 14.056C57.5974 14.056 57.5971 14.056 57.5969 14.056C57.4638 14.0424 56.6161 14.1086 56.7907 14.321C56.8376 14.3777 57.2277 14.3774 57.6905 14.3579C57.5653 14.3978 57.6589 14.5974 57.6368 14.6059C57.3688 14.7047 56.7121 14.5102 56.4792 14.4841C56.4259 14.4783 56.4298 14.6062 56.4211 14.6065C56.2092 14.5776 56.296 14.2123 56.0788 14.5891C55.695 14.1341 56.7978 14.5211 56.7199 14.2256C56.6601 13.998 54.2111 14.1214 54.2186 14.48C54.2102 14.4416 54.1764 14.3941 54.1073 14.3399C53.9541 14.2197 53.2725 14.2577 53.1549 14.3238C53.135 14.3368 53.1431 14.6848 53.1185 14.688C53.0569 14.6961 52.2236 14.4236 51.9126 14.6295C52.0806 14.6782 52.2487 14.7268 52.4168 14.7755C51.402 14.7791 51.5588 14.8825 51.897 14.9864C51.9139 14.9874 51.9304 15.0006 51.9465 15.002C52.2086 15.0788 52.5447 15.1527 52.5498 15.1802C52.569 15.2849 50.8474 15.344 51.1784 15.021C51.2245 14.9769 52.0212 15.1202 51.6266 14.8901C51.5576 14.8497 51.046 14.9157 51.0192 14.8904C50.8393 14.7216 51.9563 14.4968 51.8196 14.257C51.5486 14.4855 51.2006 14.3654 50.8897 14.4245C50.7481 14.4512 50.7135 14.6257 50.696 14.629C50.4352 14.6747 50.5815 14.4917 50.4944 14.4963C50.4477 14.4995 49.9337 14.8891 50.0307 14.3523C48.3369 14.748 49.5623 14.747 50.6014 14.7162C50.2731 14.9119 49.6294 14.8176 49.3405 14.8632C49.2369 14.8797 49.2984 15.0587 49.1233 15.0947C48.763 15.1685 47.0425 14.9636 46.5943 14.9153C46.8695 14.8519 46.789 14.6569 46.5765 14.6705C46.364 14.6841 46.5427 14.9444 46.5012 14.9725C46.4568 15.0015 45.4599 14.879 45.2941 14.9129C46.0445 14.8182 45.8751 14.6237 45.2382 14.6037C45.3302 14.5476 45.4223 14.4915 45.5143 14.4354C45.141 14.5144 44.3559 14.218 44.1402 14.3064C44.1063 14.3206 44.228 14.4841 44.209 14.4921C44.0197 14.5617 43.3757 14.3952 43.3457 14.451C43.3203 14.4975 43.5951 14.6345 43.4932 14.7021C43.4719 14.7163 43.207 14.4953 42.9461 14.5498C42.8494 14.5698 42.9077 14.7245 42.8834 14.7335C42.6802 14.808 42.8 14.5474 42.4287 14.5895C42.1566 14.6206 41.9541 14.8754 41.5781 14.7912C42.8127 15.1152 41.7749 14.9801 41.2587 15.0788C41.176 15.0945 41.2471 15.3753 40.7527 15.2388C41.8044 14.7305 40.4527 14.9706 40.1762 14.9652C40.161 14.9634 40.1557 14.7782 40.0201 14.7753C40.0086 14.7755 40.0251 14.9007 39.8991 14.9103C38.7037 15.0014 39.468 14.8596 39.2409 14.7363C39.1441 14.6837 38.5629 14.861 38.4063 14.8654C38.3703 14.8658 38.3868 14.7358 38.2475 14.7409C38.0011 14.7504 37.7804 14.8889 37.6177 14.9C37.5987 14.9006 37.5979 14.6954 37.2896 14.7621C37.2029 14.7808 37.1056 14.8537 37.2287 14.9126C37.6372 15.1065 38.4116 14.7703 38.8732 14.9637C39.2941 15.1399 37.967 15.1572 37.898 15.1582C37.8727 15.1589 38.1318 15.0569 37.8685 15.0368C37.6436 15.0202 37.2328 15.3748 36.8977 15.2978C36.8721 15.292 36.6042 14.9917 36.6166 14.9741C36.6278 14.9613 37.0389 14.8959 36.9792 14.809C36.972 14.7991 36.7107 14.8012 36.6766 14.7365C36.6347 14.6577 36.5217 13.8844 36.4659 13.865C36.3227 13.8172 36.416 13.9935 36.3233 13.9813C36.1247 13.9555 35.4356 13.7271 35.4133 13.9952C35.5271 14.0111 35.641 14.0269 35.7548 14.0428C35.1215 14.0706 35.3915 14.1846 35.3018 14.235C35.2052 14.2894 35.2323 14.0537 35.0188 14.0317C34.9724 14.0269 34.0792 14.0765 34.0955 14.1754C34.5894 14.0178 34.4064 14.309 34.4292 14.3142C34.5157 14.3332 34.6262 14.1698 34.7423 14.173C35.5589 14.1981 34.7355 14.4564 34.9283 14.5226C34.9947 14.5448 35.1268 14.4053 35.155 14.4125C35.2465 14.4355 35.2481 14.6181 35.3091 14.6033C35.4515 14.569 35.2851 14.3107 35.2964 14.2972C35.4236 14.1355 35.9224 14.3364 35.612 14.6177C35.7985 14.7189 35.8201 14.3772 35.968 14.5138C36.262 14.7841 35.8217 14.7148 35.7025 14.7598C35.2747 14.922 35.1478 14.7909 34.5422 14.8361C34.3241 14.8521 34.0659 15.0182 33.9647 15.0273C33.9009 15.0331 33.2988 14.4559 33.2815 15.3597C33.0475 15.2724 32.6801 14.677 32.4391 14.7043C32.2228 14.7293 32.2917 15.049 32.2715 15.0613C32.2406 15.0808 31.9789 15.0557 31.8904 15.101C31.7867 15.1544 31.8385 15.2764 31.674 15.3262C31.2645 15.4499 31.2751 15.1235 31.233 15.1023C30.7443 14.8574 30.9584 15.3215 30.85 15.3588C30.7492 15.3931 29.3347 15.2151 29.037 15.3327C29.1581 15.2673 29.2793 15.2018 29.4004 15.1364C29.1835 14.933 28.9538 15.2651 28.9496 14.9001C28.9059 15.4894 28.4582 15.0957 28.3237 15.111C28.2708 15.1173 28.275 15.2177 28.2087 15.2221C27.9496 15.2398 27.3656 15.1602 27.2251 15.2111C26.6177 15.4307 28.1715 15.7946 28.2938 15.8166C28.049 15.8102 26.6638 15.9429 27.3007 16.2259C27.3991 16.2696 27.5734 16.0058 27.6287 15.9954C28.0028 15.9273 27.7087 16.1638 27.738 16.1863C27.7879 16.2225 28.034 15.9939 28.099 16.0211C28.1207 16.0298 27.9812 16.2439 28.338 16.2482C28.1626 16.4558 27.1596 16.2873 27.028 16.336C26.9812 16.3535 27.2752 16.7967 26.4167 16.3664C26.4266 16.4076 26.4366 16.4487 26.4466 16.4899C25.9686 16.5071 25.4907 16.5243 25.0128 16.5414C25.0647 16.4466 25.3329 16.256 24.995 16.2966C24.8004 16.32 24.9445 16.5312 24.9267 16.5373C24.7521 16.5956 21.6615 16.5268 21.0626 16.5506C20.8589 16.5584 20.2911 16.7284 20.2478 16.7316C19.9888 16.7487 19.0719 16.6386 18.889 16.6627C18.7747 16.6781 18.8834 16.8547 18.7814 16.8464C18.6865 16.8385 18.7847 16.6678 18.7565 16.6607C18.5232 16.599 16.7507 16.8237 16.3298 16.6629C16.587 16.7111 17.8706 16.3695 17.8447 16.2492C17.8391 16.2327 17.5271 16.103 17.4628 16.1664C17.3564 16.0187 16.9915 16.4687 16.7929 16.3805C16.7704 16.3704 16.8588 16.118 16.5043 16.0724C16.3822 16.0568 16.0627 16.2537 15.7408 16.0334C15.2751 16.1395 12.8262 15.8135 12.6583 16.0847C12.6533 16.099 12.9982 16.1922 12.7653 16.3036C12.4556 16.4516 12.7335 15.9533 12.3726 15.9105C12.3181 15.904 11.3139 15.9549 11.281 15.9857C10.977 16.2655 11.8546 16.3784 11.8423 16.4109C11.8118 16.4927 11.0826 16.5426 11.053 16.5233C11.0248 16.5033 11.6192 16.1325 10.9047 16.2733C10.9866 16.3176 11.0685 16.3618 11.1504 16.406C10.8143 16.4924 10.7822 16.2361 10.7008 16.2205C10.4476 16.1711 10.174 16.5605 9.76826 16.0798C9.66097 15.9523 9.83892 15.8105 9.82549 15.7914C9.69659 15.6197 9.53248 16.0792 9.33862 15.7366C9.32402 15.711 9.77469 15.5055 8.98683 15.5054C9.04107 15.5382 9.09531 15.571 9.14955 15.6039C9.03849 15.6773 8.2408 15.7213 8.13347 15.704C7.81994 15.6534 8.09323 15.4174 7.77813 15.4458C7.98039 15.7689 7.0222 15.8116 7.07718 15.5333C6.94352 15.8829 6.12939 15.6136 5.74674 15.6055C5.50529 15.6007 5.01289 15.7534 4.93617 15.7356C4.84271 15.7138 4.87099 15.4754 4.70223 15.4224C4.6541 15.4073 4.15186 15.5823 3.71081 15.3357C3.62533 15.2882 3.44567 14.8838 3.60445 14.7827C3.87622 14.6096 4.39066 14.9351 4.38399 14.6962C4.37615 14.4405 3.68353 14.5929 3.49707 14.5596C2.63622 14.4058 3.13314 14.1338 3.11096 14.0514C3.05346 13.8515 2.58313 13.8579 2.5635 13.84C2.48212 13.7602 2.81533 13.6018 2.8203 13.4798C2.8263 13.3209 2.37281 13.0345 2.47585 12.9809C2.62334 12.9047 3.04009 13.1435 3.0665 13.1321C3.41028 12.9778 2.93878 12.611 2.80879 12.4307C2.76938 12.3753 2.92624 12.2841 2.89358 12.2678C2.39508 12.0212 2.78878 12.7837 2.45726 12.7329C2.16148 12.6876 2.5419 12.4463 2.53059 12.433C2.51598 12.4184 2.16235 12.4054 2.10695 12.3201C2.07965 12.2773 2.99854 11.8078 2.96006 11.5975C2.66682 11.6439 2.37358 11.6904 2.08034 11.7369C2.05722 11.4627 2.47912 11.6644 2.52274 11.6361C2.61054 11.5793 2.36557 11.4406 2.37604 11.3539C2.38165 11.2987 2.66899 11.1018 2.40927 11.0208C2.32002 10.9928 2.13282 11.1852 1.80768 10.9889C2.93875 10.7375 2.15478 10.5837 2.12139 10.4865C2.08868 10.3894 2.62861 10.1605 1.97311 10.2013C1.94443 9.66755 1.98716 10.0326 2.17338 9.93865C2.40151 9.82323 1.87405 9.64774 2.70809 9.78067C2.66052 9.53081 1.99021 9.54881 1.95471 9.52889C1.92406 9.51084 2.073 9.38785 2.01985 9.34624C1.39121 8.86369 1.82293 9.08397 1.64078 8.77572C1.62458 8.74817 1.03058 8.63415 1.48273 8.58902C2.30647 8.50698 2.65094 8.86092 2.789 8.10381C2.17951 7.77525 1.44147 8.26428 1.25625 8.27265C0.972738 8.28472 1.26636 8.13018 1.2314 8.08693C1.21926 8.07296 0.974951 8.08583 0.971664 8.07356C0.797173 7.49624 2.05929 8.06345 2.45651 7.96285C2.34998 7.87643 2.24346 7.79002 2.13693 7.7036C2.2814 7.70007 2.42586 7.69654 2.57033 7.69301C1.882 7.51953 2.54603 7.62721 2.71742 7.15959C2.7559 7.05453 2.30383 7.2349 2.81948 6.94268C2.43902 6.87546 2.56032 6.77988 2.21592 6.91184C2.22471 6.72444 2.99964 6.51267 3.30528 6.41636C2.22526 6.20629 2.84143 6.89337 1.90767 6.53014C1.73466 6.76227 2.18025 6.71688 2.14393 6.7552C2.01363 6.89298 1.7079 6.67445 1.3394 7.15715C1.2794 7.2364 1.53357 7.48013 1.15762 7.46853C1.11604 7.46688 0.876392 7.25861 0.879706 7.2435C0.911383 7.08028 1.14846 7.14132 1.15821 7.07319C1.16737 7.0087 0.902921 7.04761 0.901999 7.02974C0.893773 6.82527 1.12262 6.95148 1.08936 6.88749C1.01753 6.74831 0.0660409 6.30878 1.30761 6.43705C0.276519 6.66871 1.1757 6.66288 1.57723 6.57388C1.67963 6.55157 1.70551 6.42943 1.85141 6.38698C2.03909 6.33199 2.25881 6.39051 2.35593 6.36805C2.46038 6.3433 1.86669 6.0549 2.72518 6.14063C2.28815 5.85369 1.51659 6.16022 1.08734 5.9588C0.221296 5.5518 1.6908 5.46361 1.84387 5.42405C1.88465 5.41334 1.74783 5.24847 1.77501 5.23835C1.81947 5.22283 2.65353 5.29866 2.7357 5.16213C2.81765 5.02573 2.43022 5.16856 2.40439 5.02636C2.38689 4.93063 3.39294 4.76032 2.84825 4.69514C2.47283 4.65047 1.78105 5.03562 1.6643 4.62205C2.21636 4.58754 2.76841 4.55303 3.32047 4.51851C3.01823 4.36129 2.71598 4.20406 2.41374 4.04683C3.03336 3.99662 3.56913 4.17403 4.15754 3.94844C2.74311 3.44484 4.61651 3.54577 4.63708 3.48439C4.64396 3.44768 4.08713 3.03863 3.99753 2.9638C4.49069 2.8061 5.98943 2.72843 5.11231 2.22343C5.27153 2.33747 5.65682 2.05558 5.65172 2.03431C5.60267 1.81105 4.76211 1.95625 4.89912 1.75452C5.05788 1.52041 5.28068 1.8378 5.52509 1.81232C6.77929 1.67953 6.43462 0.514044 7.69237 0.697883C7.66733 0.656389 7.64229 0.614896 7.61726 0.573403C8.98431 0.638801 10.3514 0.704198 11.7184 0.769596C12.2531 0.413368 13.6764 0.195915 14.3756 0.234958C14.5164 0.242559 15.2076 0.429043 15.2598 0.46177C15.3564 0.524494 14.8253 0.548703 15.0654 0.666279C15.1161 0.690411 16.2863 0.76834 16.2025 0.569226C16.0713 0.546199 15.661 0.646507 15.5938 0.599613C15.1219 0.264896 18.7295 0.530727 18.9081 0.395661C18.8282 0.331021 18.7483 0.266381 18.6684 0.20174C18.896 0.23345 19.1237 0.265161 19.3513 0.29687ZM8.8988 16.2971C8.76229 16.497 8.4198 16.3471 8.2175 16.4033C7.93802 16.482 7.46322 17.2517 7.66743 16.4804C8.07789 16.4193 8.48834 16.3582 8.8988 16.2971ZM14.8983 16.592C14.623 16.4848 14.8362 16.054 15.0619 16.2329C15.087 16.2533 15.2708 16.7363 14.8983 16.592ZM12.0125 16.389C12.024 16.3833 12.2619 16.3946 12.2702 16.4013C12.4836 16.5742 11.7665 16.5392 12.0125 16.389ZM25.9525 16.1612C25.6492 16.1799 25.869 16.5714 26.0575 16.4102C26.0694 16.4 25.9724 16.1603 25.9525 16.1612ZM25.7368 16.1509C25.501 15.8004 25.027 16.5113 25.4041 16.4396C25.4407 16.4323 25.7477 16.168 25.7368 16.1509ZM13.917 16.4213C13.9479 16.2869 14.2319 16.3516 14.3532 16.3837C14.3499 16.5064 14.0359 16.4062 13.917 16.4213ZM21.116 16.3804C21.128 16.2748 20.1411 16.2811 20.0739 16.4204C20.2296 16.3612 21.1047 16.4754 21.116 16.3804ZM23.6468 16.2308C23.6218 16.2126 23.2808 16.2405 23.2908 16.3337C23.4573 16.4559 23.7595 16.3134 23.6468 16.2308ZM28.6771 16.2346C28.6956 16.2112 28.44 15.618 29.0452 16.0082C29.1341 16.0653 28.8169 16.2205 28.8485 16.2418C28.9146 16.2833 28.9668 16.3026 29.0088 16.306C28.7271 16.3553 28.4344 16.3786 28.4061 16.3426C28.273 16.1727 28.669 16.2444 28.6771 16.2346ZM31.3178 15.7913C31.3759 15.6945 31.7466 15.746 31.831 15.7858C31.8455 15.7933 31.7825 16.0477 31.9494 16.0286C32.0834 16.0128 31.8831 15.7524 32.1442 15.794C32.4081 15.8357 32.0556 16.0215 32.0787 16.0347C32.1096 16.0521 32.5176 15.9349 32.505 16.0864C32.4956 16.1986 32.0584 16.123 31.9502 16.1469C31.8118 16.1776 31.9798 16.3645 31.7484 16.3244C31.603 16.2994 31.6834 15.9706 31.6527 15.954C31.627 15.9406 31.1188 16.1301 31.3186 15.7923C31.3184 15.792 31.3181 15.7916 31.3178 15.7913ZM29.085 16.2915C29.0638 16.3026 29.0389 16.3085 29.0088 16.306C29.0344 16.3016 29.0598 16.2964 29.085 16.2915ZM9.69403 16.1525C9.83716 16.2538 9.41253 16.3841 9.25163 16.2513C9.2488 16.1442 9.67124 16.1367 9.69403 16.1525ZM29.3462 16.0236C29.7648 16.1058 29.457 16.2192 29.085 16.2915C29.2031 16.2295 29.2056 15.9962 29.3462 16.0236ZM17.4628 16.1664C17.4804 16.1909 17.4916 16.2291 17.4931 16.2919C17.4466 16.2232 17.4425 16.1864 17.4628 16.1664ZM18.4392 16.278C18.7739 16.0865 18.0938 16.0945 18.0982 16.2314C18.1002 16.2831 18.4258 16.2856 18.4392 16.278ZM26.3415 16.1797C26.3109 16.161 26.7863 15.5831 26.0958 16.0169C26.4645 16.0848 26.0756 16.1479 26.0814 16.1985C26.0965 16.3439 26.7156 16.2038 26.8528 16.2666C26.96 16.0064 26.4426 16.2413 26.3423 16.1797C26.342 16.1797 26.3418 16.1797 26.3415 16.1797ZM36.0775 15.929C35.9937 16.0815 35.7275 16.0326 35.5479 16.0237C35.6317 15.8712 35.8979 15.9202 36.0775 15.929ZM83.0776 15.928C81.847 16.0695 81.6873 15.4488 82.8135 15.6936C82.8355 15.6987 83.1523 15.865 83.0776 15.928ZM72.5155 15.7723C72.3994 15.5017 72.7831 15.458 73.0352 15.5697C73.0923 15.5948 73.3033 15.8687 73.0625 15.9225C73.07 15.5945 72.6975 15.4694 72.5155 15.7723ZM29.5827 15.8502C29.7045 15.6697 30.0797 15.798 30.2774 15.825C30.1568 15.9736 29.7575 15.9066 29.5827 15.8502ZM79.0334 15.6062C78.9037 15.5858 78.8162 15.8212 78.8386 15.8408C78.9389 15.9306 79.1813 15.7401 79.0334 15.6062ZM28.3716 15.8228C28.3544 15.715 28.8513 15.6109 28.886 15.8775C28.7798 15.8583 28.384 15.8905 28.3716 15.8228ZM35.7388 15.8483C35.6616 15.7935 36.0611 15.6951 36.182 15.7495C36.1723 15.8642 35.7894 15.8839 35.7388 15.8483ZM76.945 15.6871C76.8288 15.6667 76.5386 15.6606 76.5065 15.7558C76.4666 15.8748 76.8922 15.834 76.945 15.6871ZM98.5586 15.4711C98.5733 15.5139 98.124 15.8222 97.9242 15.7443C97.5447 15.5953 98.5427 15.4409 98.5586 15.4711ZM80.2612 15.4842C80.6277 15.7079 80.2209 15.4913 80.237 15.727C80.4835 15.7354 81.0967 15.7467 80.675 15.5151C80.5929 15.4703 80.3762 15.4994 80.2612 15.4842ZM79.9233 15.4055C79.8841 15.4819 79.6201 15.7228 79.8484 15.7054C79.9539 15.697 80.1239 15.4294 79.9233 15.4055ZM95.774 15.5773C95.4455 15.3687 96.9507 15.48 96.994 15.5165C97.0169 15.5358 97.0318 15.554 97.0404 15.5694C97.0956 15.5032 97.3799 15.4912 97.4129 15.6585C97.3277 15.6447 97.095 15.6595 97.0679 15.641C97.0563 15.6331 97.0476 15.6257 97.0416 15.6182C96.9413 15.7635 95.8369 15.6168 95.774 15.5773ZM93.2799 15.3637C93.6554 15.0556 93.7222 15.5791 93.6898 15.5959C93.2809 15.8104 93.5475 15.4242 93.5349 15.4061C93.5064 15.3761 93.2159 15.5553 93.2811 15.3637C93.2807 15.3637 93.2803 15.3637 93.2799 15.3637ZM95.2627 15.4914C95.2781 15.4846 95.5936 15.5006 95.6065 15.5089C95.8651 15.6847 94.9726 15.6401 95.2627 15.4914ZM33.3083 15.424C33.5341 15.4759 33.3127 15.6686 33.1626 15.5994C33.1502 15.5926 33.109 15.3781 33.3083 15.424ZM79.743 15.4575C79.6906 15.4211 78.3512 15.2845 78.4318 15.5753C78.5455 15.541 80.068 15.6899 79.743 15.4575ZM69.7337 15.3918C69.9699 15.3939 69.7125 15.6684 69.5864 15.5662C69.5397 15.5282 69.6742 15.3914 69.7337 15.3918ZM27.7016 15.5741C27.4564 15.7249 27.5069 15.2193 27.7195 15.3925C27.7279 15.3993 27.7112 15.5682 27.7016 15.5741ZM71.6206 15.5486C70.8062 15.7152 70.9987 14.8454 72.0578 15.1385C72.0247 15.1772 71.9915 15.216 71.9584 15.2548C73.1808 15.3846 72.042 15.316 71.7428 15.3649C71.629 15.3834 71.7245 15.5285 71.6214 15.5496C71.6212 15.5493 71.6209 15.5489 71.6206 15.5486ZM68.4916 15.3758C67.7069 14.7588 69.2046 15.1601 69.6341 15.0795C69.2178 15.3346 68.6757 15.2963 69.4131 15.5569C68.3351 15.6079 68.7838 15.3618 68.7407 15.3414C68.6898 15.3185 68.5251 15.4023 68.4916 15.3758ZM70.5608 15.3706C70.6061 15.3526 70.9478 15.4781 71.0709 15.4575C70.8989 15.6685 70.2598 15.4932 70.5608 15.3706ZM90.6654 15.5082C90.6937 15.3429 90.7638 15.2212 91.0335 15.2828C90.9502 15.3659 90.778 15.4374 90.6654 15.5082ZM8.63904 15.4277C8.45335 15.416 8.08357 15.3539 8.19704 15.5275C8.20945 15.5423 8.63852 15.5252 8.63904 15.4277ZM75.8528 15.3255C75.8133 15.3052 74.792 15.2921 75.1448 15.4742C75.2513 15.5292 76.1805 15.5054 75.8528 15.3255ZM81.1417 15.3437C81.0563 15.342 80.7091 15.3733 80.7017 15.4124C80.6783 15.5475 81.1044 15.473 81.1417 15.3437ZM7.7022 15.259C7.67774 15.2419 7.11058 15.2726 7.17297 15.3527C7.29139 15.5042 7.78605 15.318 7.7022 15.259ZM34.1297 15.0366C34.1771 15.0304 34.2399 15.2099 34.2563 15.2119C34.2949 15.2144 35.1627 15.145 34.8313 15.3755C34.776 15.4142 33.5272 15.3263 33.3648 15.3036C33.3019 15.0573 33.8354 15.2914 33.9652 15.266C33.988 15.2612 34.0026 15.055 34.1293 15.0376C34.1294 15.0373 34.1296 15.0369 34.1297 15.0366ZM92.07 15.3332C92.1083 15.1765 93.1285 15.0723 93.1168 15.2621C92.7679 15.2858 92.419 15.3095 92.07 15.3332ZM91.5518 15.3075C91.334 15.1968 91.8438 15.1599 91.9941 15.2087C91.9958 15.3141 91.5835 15.3237 91.5518 15.3075ZM79.2063 14.7594C79.1038 14.7977 79.4192 15.0261 79.3487 15.0706C79.3035 15.0983 79.0743 15.0127 79.0013 15.0843C78.9806 15.107 79.2144 15.3217 79.282 15.3124C79.378 15.3 79.2848 15.1309 79.3895 15.1297C79.7374 15.1259 80.0458 15.2464 80.3719 15.2434C80.4014 15.2428 80.173 15.1235 80.4241 15.1251C80.4629 15.1251 80.6963 15.3028 80.9967 15.2763C81.6601 14.7252 82.1476 15.2658 82.9896 15.0668C82.9578 15.0149 82.3279 14.8761 82.2909 14.871C81.5869 14.7808 80.3258 14.7714 79.5886 14.7706C79.3994 14.7702 79.4914 14.8868 79.4099 14.8911C79.3455 14.8943 79.4219 14.6784 79.2063 14.7594ZM8.73761 15.3083C8.649 15.0928 8.33861 15.2294 8.14031 15.2184C8.2102 15.4128 8.54382 15.2607 8.73761 15.3083ZM86.9708 15.1427C86.8714 15.151 86.5633 15.0862 86.5378 15.1512C86.505 15.2359 86.9499 15.2892 86.9708 15.1427ZM39.0233 15.0954C39.0329 15.0895 39.2721 15.101 39.2811 15.1077C39.4948 15.2807 38.7776 15.2456 39.0233 15.0954ZM44.7433 15.1341C44.9246 15.1074 45.1075 15.04 45.1685 15.2149C45.053 15.1881 44.7221 15.256 44.7433 15.1341ZM52.6346 15.1251C52.5971 14.8961 53.1429 15.0441 53.246 15.0646C53.2079 15.1665 52.6621 15.2902 52.6346 15.1251ZM90.6257 14.7891C90.9594 14.8025 90.8888 14.4556 91.1007 14.6125C91.1353 14.639 91.2474 15.3615 90.8805 15.0909C90.8145 15.0423 91.0726 14.8705 90.6257 14.7891ZM72.2303 15.1457C72.3151 14.9941 72.5803 15.0389 72.7595 15.051C72.7194 15.1636 72.3578 15.1348 72.2303 15.1457ZM6.67774 15.0863C6.52115 14.8724 5.7982 15.0314 5.97718 15.1727C6.00263 15.1911 6.5763 15.0782 6.67774 15.0863ZM30.4307 15.1587C30.7281 14.9901 30.1119 14.9383 29.9175 15.103C30.0055 15.0921 30.4106 15.1698 30.4307 15.1587ZM50.739 15.0015C50.7533 14.9946 51.0688 15.0107 51.0829 15.019C51.3415 15.1948 50.4489 15.1502 50.739 15.0015ZM42.8622 14.857C42.9758 14.7183 43.723 14.8298 43.8906 14.9685C43.7295 15.1713 42.7213 15.0302 42.8622 14.857ZM89.2529 14.8884C89.4909 14.8811 89.7168 14.9237 89.9355 14.9835C89.8895 15.1002 89.2781 14.9755 89.2529 14.8884ZM51.897 14.9864C51.9139 14.9874 51.9304 15.0006 51.9465 15.002C51.9297 14.997 51.9132 14.9914 51.897 14.9864ZM83.925 14.809C83.7255 14.763 83.767 14.9768 83.7793 14.9834C83.9295 15.0526 84.1509 14.8609 83.925 14.809ZM8.50955 14.9909C8.44031 14.798 8.10488 14.9478 7.91186 14.902C7.96792 15.0544 8.3541 15.0113 8.50955 14.9909ZM67.6513 14.9808C67.4006 14.7717 68.4202 14.5281 68.6351 14.6628C68.651 14.7921 67.688 15.0095 67.6513 14.9808ZM29.5068 14.8697C29.4867 14.7185 29.0586 14.9012 29.1496 14.9726C29.2073 15.018 29.5188 14.9637 29.5068 14.8697ZM69.1479 14.7508C69.2437 14.7046 69.4671 14.8537 69.3885 14.9447C69.2876 15.0614 69.1232 14.764 69.1479 14.7508ZM77.7433 14.6252C77.7014 14.6021 77.1381 14.7576 77.3709 14.9118C77.5325 15.0189 77.5581 14.8003 77.596 14.7996C77.6385 14.8003 78.5429 15.0674 77.7433 14.6252ZM61.9404 14.8518C62.1528 14.7936 62.4099 14.861 62.6323 14.8567C62.5418 14.9503 62.0308 14.976 61.9404 14.8518ZM31.1578 14.8284C31.1062 14.7673 29.7 14.7311 30.4989 14.919C30.5455 14.9296 31.3147 15.0136 31.1578 14.8284ZM90.6257 14.7891C90.5837 14.7874 90.5351 14.7802 90.4788 14.7653C90.5347 14.7712 90.5834 14.7814 90.6257 14.7891ZM86.8363 14.7681C86.913 14.658 86.526 14.6288 86.4119 14.6874C86.3768 14.8219 86.8257 14.7835 86.8363 14.7681ZM62.6491 14.7031C62.7773 14.6401 63.0099 14.7072 63.1686 14.6997C63.1418 14.8021 62.7046 14.8071 62.6491 14.7031ZM53.6489 14.5923C53.9034 14.653 54.2166 14.6249 54.2214 14.4997C54.2267 14.5193 54.239 14.54 54.2595 14.5609C54.2802 14.5815 54.5529 14.5232 54.6713 14.5659C55.3806 14.8194 51.9328 14.7163 53.9309 14.3618C53.8369 14.4387 53.7429 14.5155 53.6489 14.5923ZM41.851 14.5628C41.7065 14.4104 41.3021 14.6016 41.4071 14.6616C41.4802 14.7026 41.9957 14.7161 41.851 14.5628ZM47.4094 14.4698C47.3663 14.4426 46.9713 14.5495 46.9612 14.6298C47.1883 14.7143 47.6062 14.5961 47.4094 14.4698ZM40.7405 14.3848C40.6499 14.3619 40.5343 14.6077 40.545 14.6184C40.6371 14.7081 40.8929 14.5216 40.7405 14.3848ZM89.9342 14.1274C89.7993 14.0571 89.3694 14.2352 89.2758 14.3975C89.2584 14.3662 89.2114 14.3253 89.1253 14.2762C89.1255 14.2762 89.1258 14.2762 89.1261 14.2762C89.0098 14.2107 85.5342 14.1408 87.8656 14.4522C87.9386 14.4622 87.8388 14.3165 88.1359 14.3421C88.1555 14.3439 88.1653 14.4629 88.2259 14.4686C88.3655 14.4811 89.1085 14.5556 89.2578 14.4598C89.2591 14.4819 89.2687 14.5028 89.2892 14.5221C89.4725 14.6935 90.039 14.1816 89.9342 14.1274ZM48.1926 14.4476C48.1131 14.4036 47.8615 14.4456 47.8354 14.5505C47.9602 14.6019 48.3771 14.5503 48.1926 14.4476ZM31.114 14.3978C30.952 14.3116 30.5417 14.4732 30.6658 14.5589C30.7418 14.6116 31.3008 14.4968 31.114 14.3978ZM45.6723 14.5049C46.601 14.6285 45.8939 14.4947 46.0361 14.3408C45.9148 14.3955 45.7936 14.4502 45.6723 14.5049ZM94.2324 14.5228C94.0843 14.4874 94.2582 14.1836 94.4213 14.3483C94.4725 14.4007 94.3152 14.542 94.2324 14.5228ZM100.919 14.4251C100.792 14.1558 101.41 14.3138 101.169 14.4986C101.158 14.5049 100.928 14.4353 100.919 14.4251ZM96.2464 14.3174C96.146 14.5008 96.0806 14.5226 95.7974 14.4774C96.2166 14.4255 95.8277 14.2635 96.2464 14.3174ZM54.2186 14.48C54.2202 14.4874 54.2216 14.4929 54.2214 14.4997C54.2195 14.4929 54.2188 14.4866 54.2186 14.48ZM39.8674 14.433C39.7511 14.2777 39.4253 14.2893 39.5224 14.4456C39.5318 14.4601 39.8199 14.5478 39.8674 14.433ZM89.2758 14.3975C89.2913 14.4254 89.2834 14.4434 89.2578 14.4598C89.2566 14.4391 89.2632 14.4195 89.2758 14.3975ZM41.6167 14.3056C41.6051 14.4214 42.101 14.4663 42.1209 14.4527C42.4054 14.2515 41.8215 14.2985 41.6167 14.3056ZM27.8353 14.2365C27.8097 14.2486 27.9748 14.5477 28.0759 14.4304C28.1541 14.3395 27.9311 14.1904 27.8353 14.2365ZM97.2079 14.2422C97.3649 14.2423 97.586 14.2421 97.6269 14.3841C97.5216 14.3624 97.2047 14.3465 97.2079 14.2422ZM100.677 14.2301C100.492 14.3973 100.068 14.397 99.797 14.3696C99.7919 14.1497 100.503 14.2819 100.677 14.2301ZM90.3602 14.2092C90.3473 14.2003 89.9535 14.1349 90.0074 14.282C90.0861 14.4978 90.4713 14.2892 90.3602 14.2092ZM28.6 14.3949C28.776 14.2934 28.3707 13.9821 28.185 14.2229C28.0897 14.3461 28.5703 14.4119 28.6 14.3949ZM38.85 14.2301C38.6177 14.3154 39.1937 14.4669 39.2741 14.3129C39.167 14.3006 38.9326 14.1999 38.85 14.2301ZM46.7562 14.0706C46.0238 13.6271 46.423 14.4367 46.5528 14.3654C46.5711 14.3552 46.7741 14.0811 46.7562 14.0706ZM4.86038 14.2C4.75675 14.2617 5.14332 14.4849 5.19326 14.3378C5.22411 14.2457 4.92665 14.1606 4.86038 14.2ZM57.7825 14.3537C57.7516 14.3552 57.7209 14.3566 57.6905 14.3579C57.7133 14.3507 57.7432 14.3483 57.7825 14.3537ZM36.7405 13.6366C37.2562 14.263 37.2019 13.78 37.2466 13.7826C37.3434 13.7893 37.5685 13.9587 37.7509 13.9308C37.542 14.0014 37.3331 14.0721 37.1242 14.1428C37.2893 14.1879 38.723 14.4179 38.753 14.3163C38.796 14.1715 38.3449 14.2172 38.3317 14.2044C38.3128 14.1863 38.2421 13.784 38.2003 13.7687C38.1314 13.7443 36.9326 13.7365 36.7405 13.6366ZM45.225 14.1409C45.3427 14.1887 45.3763 14.3481 45.4309 14.3099C45.4496 14.2969 45.4525 14.1448 45.5161 14.1055C45.4191 14.1173 45.322 14.1291 45.225 14.1409ZM35.8177 14.2005C35.6717 14.0147 36.326 14.085 36.347 14.1058C36.4589 14.2317 35.937 14.3522 35.8177 14.2005ZM41.3691 14.1708C41.3452 14.16 40.8428 14.1022 40.8469 14.2053C40.9799 14.2838 41.6516 14.3064 41.3691 14.1708ZM45.5947 14.0951C45.7712 14.1127 46.105 14.2657 46.0666 14.0367C46.0663 14.0367 46.0661 14.0367 46.0658 14.0367C45.9088 14.0562 45.7517 14.0756 45.5947 14.0951ZM29.2025 13.9111C28.8753 13.5466 29.0305 14.0073 29.3201 14.1248C29.4078 13.961 29.2562 13.9704 29.2025 13.9111ZM28.1556 13.6397C28.0646 13.5741 27.1269 13.6465 27.2701 13.8394C27.3209 13.9081 27.8601 13.7344 27.885 13.7478C27.9226 13.7675 27.7507 13.981 28.0383 13.9386C28.0214 13.8663 28.1868 13.6616 28.1556 13.6397ZM28.9317 13.6777C28.6065 13.4006 28.5337 13.9121 28.7782 13.9133C28.8737 13.9142 28.9781 13.7177 28.9317 13.6777ZM30.2594 13.7207C30.1424 13.6722 29.8309 13.6016 29.6162 13.7718C29.9036 13.7862 30.191 13.8006 30.4784 13.815C30.5114 13.7186 30.3618 13.7632 30.2587 13.7207C30.2589 13.7207 30.2592 13.7207 30.2594 13.7207ZM102.63 12.9186C102.371 12.7737 102.966 12.7179 102.992 12.7535C103.066 12.8717 102.745 12.9834 102.63 12.9186ZM2.84079 9.5544C2.769 9.49662 2.72199 9.30641 2.56409 9.40615C2.72304 9.5465 2.88198 9.68685 3.04093 9.8272C3.16424 9.50538 2.91925 9.61814 2.84079 9.5544ZM2.23353 8.37905C2.25597 8.37125 2.13313 7.87654 2.42323 8.20671C2.61924 8.42966 1.55403 8.64754 1.36163 8.42825C1.57406 8.3262 2.04037 8.44267 2.23353 8.37905ZM0.366437 6.23828C0.354134 6.19883 0.758844 6.14076 0.805704 6.16854C1.05176 6.31505 0.432997 6.44964 0.366437 6.23828ZM1.65767 6.33208C1.46781 6.23609 1.88827 6.17395 2.01362 6.22918C2.02581 6.32126 1.687 6.34606 1.65767 6.33208ZM100.011 5.75399C99.8054 5.41782 99.622 6.1418 99.9379 5.9958C99.953 5.98893 100.02 5.77045 100.011 5.75399ZM0.761879 5.73898C0.951739 5.83497 0.531274 5.89711 0.405931 5.84188C0.394232 5.74989 0.732971 5.72495 0.761879 5.73898ZM99.8659 4.953C99.593 4.71117 99.6895 5.52323 99.7236 5.55594C99.8641 5.68512 100.345 5.36613 100.444 5.28684C99.7231 5.40907 99.9944 5.06697 99.8659 4.953ZM98.608 5.44131C98.355 5.52807 99.0018 5.69345 99.1251 5.467C98.9993 5.47789 98.68 5.41623 98.608 5.44131ZM97.0719 5.18161C96.9358 5.15259 96.5311 5.08314 96.4632 5.21096C96.6118 5.18775 97.0145 5.31312 97.0719 5.18161ZM96.7636 4.79887C96.5509 4.62534 96.5001 5.13126 96.7453 4.98046C96.7548 4.97463 96.7715 4.80852 96.7636 4.79887ZM95.5678 4.61683C95.4282 4.41571 95.2692 4.90572 95.4953 4.91881C95.5625 4.9218 95.5826 4.63988 95.5678 4.61683ZM99.524 4.07948C99.3242 3.99319 99.0669 4.34416 99.4935 4.38249C99.3437 4.43617 99.1939 4.48985 99.0441 4.54354C99.603 4.73993 99.5617 4.25339 99.7222 4.27342C99.9464 4.3019 99.9289 4.70342 99.8839 4.82952C100.068 4.58344 100.849 4.57912 101.3 4.53206C100.903 4.42902 100.259 4.25037 99.8679 4.18515C99.7561 4.16627 99.6477 4.27644 99.5524 4.26417C99.3996 4.24391 99.5352 4.08529 99.5248 4.07948C99.5246 4.07948 99.5243 4.07948 99.524 4.07948ZM93.9961 4.61033C93.5859 4.38263 93.8455 4.87455 94.0771 4.78669C94.0871 4.77993 94.0063 4.61589 93.9961 4.61033ZM0.217331 4.24401C0.765359 4.44941 0.367215 4.72219 1.51326 4.30772C1.03184 4.60098 1.48673 4.51846 1.39279 4.63671C1.31743 4.73026 1.03484 4.65295 1.19917 4.84121C0.983192 4.63632 0.0459699 4.69348 0.00416941 4.66021C0.00456235 4.66021 0.00495528 4.66021 0.00534822 4.66021C-0.0197574 4.6405 0.0424559 4.17869 0.217331 4.24401ZM97.0693 3.89494C96.9322 3.29798 96.879 4.24561 96.6099 3.75093C96.2522 4.46965 97.5988 3.75055 97.7623 4.35739C96.2993 4.28758 98.7291 4.95829 97.7075 4.05027C98.5489 4.37961 97.9831 3.93762 98.1129 3.8218C98.2517 3.69841 98.7276 3.8322 98.7034 3.60983C98.7031 3.60983 98.7028 3.60983 98.7026 3.60983C98.4116 3.62554 98.1205 3.64124 97.8295 3.65695C98.1146 4.13652 97.5198 3.99297 97.3179 3.6022C97.235 3.69978 97.1522 3.79736 97.0693 3.89494ZM98.7167 4.34447C98.688 4.3335 98.055 4.40104 98.0959 4.49731C98.1805 4.55867 99.0789 4.4846 98.7167 4.34447ZM101.503 4.23831C101.275 4.23726 100.924 4.14384 100.8 4.32478C101.027 4.32588 101.379 4.41935 101.503 4.23831ZM89.799 4.20977C89.5093 4.35834 90.4013 4.40187 90.1432 4.2262C90.1305 4.21793 89.8132 4.20283 89.799 4.20977ZM96.4104 3.98553C96.1158 3.80322 96.2552 4.3839 96.4734 4.23246C96.486 4.22353 96.424 3.99385 96.4104 3.98553ZM0.661312 4.17324C0.680946 4.03094 1.47599 4.1305 1.61691 4.12919C1.53691 4.26149 0.638788 4.33637 0.661312 4.17324ZM101.902 3.70581C101.45 3.19441 100.836 3.78565 100.769 3.77277C100.702 3.75965 100.807 3.53595 100.792 3.52995C100.757 3.51743 100.044 3.53654 100.01 3.55213C99.9852 3.56428 100.114 3.8785 99.9672 3.97758C100.254 3.79885 101.557 3.90994 101.625 3.87508C101.677 3.84725 101.282 3.5174 101.902 3.70581C101.902 3.70581 101.902 3.70581 101.902 3.70581ZM100.601 3.70437C100.779 3.83603 100.28 3.85276 100.159 3.8042C99.8904 3.69554 100.578 3.68877 100.601 3.70437ZM99.4 3.58355C99.343 3.55403 98.8284 3.52744 98.7847 3.67412C99.0284 3.86426 99.5294 3.65234 99.4 3.58355ZM93.6742 3.60605C93.5406 3.62491 93.173 3.51238 93.152 3.64055C93.2858 3.62179 93.6533 3.73423 93.6742 3.60605ZM3.3732 3.05335C3.15112 2.94622 3.6655 2.90216 3.81559 2.95352C3.82378 3.039 3.3921 3.06255 3.3732 3.05335ZM96.3599 2.76011C96.2807 2.72117 94.6665 2.81921 94.4401 2.87933C94.6616 2.97614 96.2615 2.98282 96.334 2.93548C96.3552 2.92131 96.37 2.76624 96.3599 2.76011ZM99.8511 2.69926C99.999 2.51047 100.096 2.73677 100.114 2.7396C100.297 2.76839 100.677 2.72566 100.594 2.90747C100.271 2.83429 99.5566 3.07419 99.8511 2.69926ZM93.559 2.75213C93.0109 2.82244 94.0639 3.02076 93.9257 2.82355C93.9168 2.81163 93.6157 2.74475 93.559 2.75213ZM96.5402 2.70503C96.661 2.55247 98.2759 2.6832 98.5351 2.6833C98.303 2.96469 98.1158 2.75114 97.8039 2.76563C97.7198 2.76987 97.7423 2.88688 97.7333 2.88707C97.5875 2.89256 97.6965 2.75736 97.6067 2.75535C97.5499 2.75445 96.3702 2.91997 96.5402 2.70503ZM99.9355 2.56848C100.026 2.46025 101.034 2.41364 101.075 2.44237C101.378 2.65605 100.014 2.60611 99.9355 2.56848ZM96.392 2.45503C96.5654 2.12805 97.3675 2.34658 96.8187 2.50981C96.7663 2.52467 96.5443 2.38307 96.392 2.45503ZM93.6174 2.44081C93.5904 2.43121 93.019 2.36615 93.0088 2.47016C93.0914 2.51054 93.9244 2.5464 93.6174 2.44081ZM93.9135 2.08891C93.8998 2.09141 94.0338 2.29167 93.7659 2.26642C93.7435 2.26404 93.7018 2.03867 93.365 2.12134C93.2967 2.13837 93.1909 2.28752 93.1985 2.29679C93.5494 2.65032 94.6054 1.97237 93.9135 2.08891ZM99.9539 2.38585C99.8995 2.29074 100.03 2.00831 100.149 2.15125C100.199 2.21297 100.105 2.38247 99.9539 2.38585ZM91.8052 2.35038C92.1373 2.17897 91.0943 2.1471 91.0412 2.19096C91.0747 2.29761 91.772 2.36712 91.8052 2.35038ZM3.89241 1.73114C3.89214 1.73114 3.89188 1.73114 3.89162 1.73114C4.1711 1.76981 3.99807 1.91235 4.01116 1.91682C4.60653 2.12578 4.44848 1.80319 4.54155 1.76507C4.74111 1.68262 4.70914 2.07501 5.04576 1.91217C4.48933 2.15268 4.99588 2.05172 5.01171 2.19131C5.07436 2.76096 4.27058 1.92492 3.99315 2.04446C3.95449 2.06101 4.24005 2.24269 4.14101 2.29446C3.81903 2.46221 2.81998 1.58328 3.89241 1.73114ZM100.24 2.1263C100.369 1.9589 101.353 2.12072 101.092 2.2587C101.05 2.28082 100.049 2.37029 100.24 2.1263ZM54.3017 1.90169C54.538 1.75677 53.9901 1.58679 53.8886 1.69955C53.8383 1.75573 54.1979 1.9653 54.3017 1.90169ZM50.4609 1.28409C50.18 1.31362 49.8843 1.91766 50.2336 1.82377C50.2707 1.81351 50.4931 1.36784 50.4609 1.28409ZM68.9022 1.58537C68.6089 1.3697 68.6265 1.77067 68.8418 1.76491C68.9178 1.76294 68.9115 1.5922 68.9022 1.58537ZM57.7099 1.6427C57.6805 1.62872 57.3415 1.65449 57.3539 1.74664C57.4793 1.80187 57.8997 1.73869 57.7099 1.6427ZM68.9953 1.52826C68.8215 1.60061 69.1209 1.89048 69.3333 1.60695C69.2253 1.63025 69.0132 1.52087 68.9953 1.52826ZM95.7856 1.56918C95.6401 1.7339 95.2282 1.68435 94.9916 1.71276C94.966 1.49946 95.6166 1.60794 95.7856 1.56918ZM51.6531 1.52632C51.3873 1.67679 51.957 1.7996 51.9046 1.60091C51.8974 1.59012 51.6636 1.5199 51.6531 1.52632ZM78.3633 1.50191C78.1701 1.62925 78.7837 1.80007 78.6148 1.5765C78.6064 1.56738 78.3738 1.49483 78.3633 1.50191ZM81.0427 1.57428C80.8961 1.53143 80.2709 1.54494 80.5143 1.66896C80.5521 1.68802 81.0318 1.69083 81.0427 1.57428ZM4.55798 1.61149C4.47887 1.3924 4.93745 1.44434 5.00311 1.48261C5.02891 1.49852 4.66116 1.89654 4.55798 1.61149ZM66.9976 1.55206C66.8459 1.57955 66.4524 1.52764 66.3831 1.64263C66.5687 1.61874 67.0477 1.78103 66.9976 1.55206ZM52.8653 1.52469C52.6337 1.28669 52.2381 1.31039 52.3361 1.62145C52.773 1.60039 52.282 1.34184 52.8653 1.52469ZM69.9724 1.27149C69.8507 1.25338 69.7576 1.5522 69.7714 1.56627C69.9033 1.70013 70.0934 1.38767 69.9724 1.27149ZM60.8419 1.52185C60.8348 1.39417 60.4448 1.45231 60.4969 1.53447C60.514 1.56205 60.8476 1.62517 60.8419 1.52185ZM90.6774 1.49903C90.4987 1.38258 91.0444 1.26837 91.2059 1.40435C91.2845 1.60036 90.7 1.51241 90.6774 1.49903ZM73.3466 1.34455C73.3646 1.15506 72.755 1.26249 72.9953 1.41943C73.0555 1.45871 73.3403 1.40792 73.3466 1.34455ZM79.1827 1.11447C78.7739 1.34063 80.4911 1.50022 80.0398 1.21886C80.0075 1.19881 79.2183 1.09537 79.1827 1.11447ZM81.9872 1.25423C81.9166 1.22936 81.9515 0.592623 82.2436 0.838009C82.2819 0.869833 82.1027 1.03824 82.134 1.07672C82.1525 1.09865 82.7873 1.18777 82.8166 1.17289C82.848 1.15599 82.8109 0.951935 82.8428 0.929029C82.8788 0.903429 83.2697 1.08251 83.4743 1.08437C83.86 1.08754 83.9016 0.917663 83.9332 0.917085C84.0254 0.915915 84.1803 1.03644 84.3671 1.0362C85.3086 1.03439 86.7484 0.889708 87.4949 1.24947C86.8307 1.10518 86.1978 1.25892 85.537 1.30646C85.7303 0.951805 84.5648 1.58012 85.2465 1.17067C84.9326 1.25956 82.2185 1.33185 81.988 1.25423C81.9877 1.25423 81.9874 1.25423 81.9872 1.25423ZM49.3523 1.10616C49.5247 0.888675 48.6395 0.938008 48.5645 1.18955C48.6814 1.2244 49.3309 1.13081 49.3523 1.10616ZM53.4362 0.573938C53.5184 0.536372 53.5962 0.111391 54.0274 0.326693C54.0278 0.326692 54.0282 0.326692 54.0286 0.326692C54.1547 0.389568 54.0111 0.493182 54.0342 0.530066C54.0427 0.545128 54.4359 0.756323 54.1094 0.790477C53.6115 0.842875 54.0624 0.474368 53.7969 0.469999C53.7644 0.469667 53.262 0.69993 53.2913 0.750407C53.2943 0.756287 53.4455 0.707554 53.4705 0.728529C53.5648 0.807373 53.519 0.940094 53.5323 0.946403C53.5758 0.962564 54.3703 0.736106 54.4859 0.933487C54.5235 0.997136 53.2193 1.14464 53.1685 1.11156C53.1363 1.09072 53.1497 0.722369 53.1164 0.686159C53.0993 0.668122 52.5747 0.806408 52.5066 0.772579C52.4868 0.762794 52.4717 0.752244 52.4606 0.743547C52.5401 0.85747 52.065 0.849495 52.0795 0.720905C52.0877 0.670362 52.4147 0.699456 52.4264 0.708284C52.4316 0.712022 52.436 0.717175 52.4402 0.720729C52.3724 0.581881 53.4795 0.587606 53.2404 0.381033C53.5613 0.26765 53.195 0.684262 53.4362 0.573938ZM54.9787 0.345945C54.9456 0.3847 54.9125 0.423454 54.8794 0.462208C55.4412 0.367118 56.0896 0.553284 56.7368 0.551579C56.9011 0.551429 56.712 0.314602 56.9273 0.379239C57.0998 0.431039 57.2908 0.650695 57.197 0.699738C57.1742 0.711973 56.823 0.569015 56.6473 0.58379C56.1285 0.627528 56.2596 0.830635 56.2293 0.836139C56.1958 0.841931 55.8692 0.699209 55.6909 0.705658C55.2426 0.722322 55.0379 0.84716 54.4253 0.684484C54.7787 0.55041 54.5849 0.259612 54.9787 0.345945ZM75.9212 0.76845C75.9425 0.640558 76.3102 0.753839 76.4438 0.734992C76.4228 0.863199 76.0548 0.749593 75.9212 0.76845ZM21.1319 0.629086C21.019 0.838993 21.8655 0.890542 21.6423 0.715999C21.593 0.677261 21.2382 0.630527 21.1319 0.629086ZM24.9344 0.754865C25.0476 0.696791 24.5916 0.545922 24.5925 0.708337C24.5932 0.76042 24.9198 0.762417 24.9344 0.754865ZM62.2415 0.548901C62.2629 0.542319 62.5744 0.588907 62.5841 0.599579C62.7906 0.822301 61.7654 0.694014 62.2415 0.548901ZM29.5567 0.494244C29.1621 0.631985 30.3501 0.691024 29.987 0.515825C29.9689 0.507292 29.5757 0.48755 29.5567 0.494244ZM31.2078 0.455049C31.1132 0.462467 30.6931 0.394375 30.6876 0.458415C30.6792 0.561728 31.1602 0.632083 31.2078 0.455049ZM70.0541 0.478691C70.0085 0.242265 70.5625 0.421058 70.7551 0.391189C70.801 0.627779 70.2467 0.448738 70.0541 0.478691ZM66.5573 0.306069C68.8927 0.118538 68.3781 0.623974 66.4183 0.421315C66.4154 0.269627 66.4099 0.317881 66.5573 0.306069ZM69.548 0.332631C69.4632 0.484149 69.1979 0.439361 69.0187 0.427313C69.0509 0.321982 69.4187 0.359918 69.548 0.332631ZM20.1238 0.304795C20.2702 0.113373 20.919 0.34896 20.8037 0.427943C20.7768 0.445001 20.0701 0.410052 20.1238 0.304795ZM62.437 0.346467C62.3825 0.116539 63.0839 0.209997 63.1376 0.26104C63.3542 0.466348 62.4938 0.295686 62.437 0.346467ZM73.3688 0.274739C73.4926 0.0945591 73.8444 0.187031 74.0706 0.189312C73.9677 0.343377 73.5608 0.277886 73.3688 0.274739ZM71.7357 0.134415C71.7499 0.127494 72.0654 0.143603 72.0796 0.151887C72.3382 0.327688 71.4456 0.283068 71.7357 0.134415ZM3.50413 0.00159042C3.51464 -0.00421876 3.75357 0.00715009 3.7619 0.0139171C3.97525 0.186744 3.25813 0.151757 3.50413 0.00159042Z" fill="#333333"/>
</svg>
