<svg width="130" height="19" viewBox="0 0 130 19" fill="none" xmlns="http://www.w3.org/2000/svg">
<path d="M9.67491 16.9976C9.75524 16.978 10.0749 17.0385 10.2141 17.0328C10.0509 17.2569 9.38511 17.0687 9.67491 16.9976ZM24.3406 0.798139C24.2239 0.851628 24.1072 0.905117 23.9905 0.958606C24.3172 1.00339 24.7587 0.972992 25.0614 1.03406C25.1109 1.04429 24.9778 1.20426 25.0953 1.21448C25.2128 1.22465 25.1957 1.00108 25.3674 0.981486C25.5601 0.96019 26.4354 1.13745 26.74 1.14127C27.8791 1.15458 29.0308 1.05583 30.1695 1.17687C28.9874 1.31252 30.1702 1.51 30.502 1.44672C30.5755 1.43199 30.5741 1.01711 31.7534 1.15094C32.5028 1.23589 31.7943 1.81132 33.0551 1.54561C32.1016 1.10696 33.0487 1.15963 33.8045 1.16466C33.9348 1.16546 34.9851 1.25396 35.4502 1.24717C35.6093 1.24475 35.857 1.03362 36.068 1.03317C36.2132 1.03303 36.32 1.15449 36.5356 1.15381C37.5408 1.15207 38.529 1.16745 39.5343 1.23265C38.9323 1.77606 39.9899 1.48199 40.0364 1.50984C40.2724 1.66733 39.187 1.68345 39.6135 1.7889C40.2131 1.78654 40.8128 1.78417 41.4125 1.78181C40.9224 1.70104 42.0754 1.3281 42.2812 1.51594C42.2008 1.02051 45.0018 2.01316 45.4357 1.85919C45.5261 1.82664 44.9461 1.56833 46.3029 1.71368C46.4498 1.72974 46.3904 1.87713 46.4679 1.86518C46.5144 1.858 46.8061 1.39209 47.0978 1.66083C47.2043 1.75891 46.4999 2.05213 48.033 1.96541C47.4356 1.46894 50.1609 1.7576 50.6603 1.89073C50.5615 1.82357 50.4628 1.75641 50.364 1.68925C50.8563 1.87605 50.95 1.71464 51.0617 1.72635C51.5117 1.7734 52.1275 1.95375 52.5478 1.94916C53.0398 1.94409 53.0489 1.64481 53.619 1.77552C53.4847 1.70609 53.3504 1.63666 53.2161 1.56723C53.6114 1.59299 54.0068 1.61876 54.4021 1.64452C53.4758 2.01791 54.5993 1.66835 54.6729 1.66165C54.7904 1.65014 54.6181 1.80816 54.8144 1.79284C54.8347 1.79002 54.8092 1.63654 55.1114 1.6269C55.7428 1.60728 55.6384 1.79686 55.9032 1.80128C55.9275 1.80089 55.8459 1.66116 56.304 1.64C57.7597 1.57256 56.2941 1.74527 56.2379 1.76291C56.1641 1.78617 56.648 2.37367 55.4187 2.139C55.8315 2.21424 55.8669 2.46976 55.9134 2.47724C55.9546 2.48347 56.6736 2.46551 56.7134 2.45773C57.0686 2.38011 56.7623 2.19846 56.8319 2.16901C56.8887 2.14529 57.7483 2.39347 57.9641 1.87545C58.366 2.36824 57.715 2.30779 57.019 2.36466C56.9152 2.46114 57.6751 2.5764 57.7152 2.57714C58.6985 2.60075 58.164 2.19032 58.3853 1.94199C58.5016 1.81207 58.8954 2.0928 58.5344 1.72773C59.4278 1.7124 58.8814 1.90513 58.9383 1.93708C59.0242 1.98409 59.339 1.88988 59.3778 1.90444C59.4346 1.92598 59.2321 2.04422 59.4573 2.09325C59.4947 2.10049 59.8645 1.89756 59.397 1.78451C60.0242 1.83029 59.977 1.64822 60.1809 2.01786C60.6305 1.33935 60.4845 2.4331 60.6539 2.47596C61.1042 2.58905 60.9863 2.0446 61.0109 2.01881C61.1799 1.8538 62.4289 2.07093 62.7413 2.00067C62.6091 2.38741 61.7473 1.98017 61.5506 2.05094C60.8948 2.28633 62.4613 2.26862 61.9774 2.74662C62.1785 2.61704 62.3796 2.48746 62.5808 2.35789C62.9356 2.68181 62.4177 2.8063 63.3965 2.71554C63.5628 2.44772 62.7054 2.74128 62.8812 2.53144C62.9848 2.4083 63.5513 2.39541 63.5641 2.32944C63.5773 2.24998 63.0635 2.33174 63.1471 2.21111C63.3297 1.95083 65.1889 2.24926 63.7652 2.35833C64.1614 2.36367 64.3524 2.89517 64.7 2.73971C64.9248 2.63877 63.6933 1.8806 65.5647 2.06062C65.5984 2.3102 64.8133 2.11536 64.7924 2.13376C64.7629 2.16058 64.8917 2.72508 64.9158 2.75339C65.0009 2.84672 66.9228 2.59404 67.3204 2.88594C67.1683 2.55775 68.7684 2.86412 68.9459 2.7697C68.9932 2.74359 68.824 2.54066 68.8743 2.52088C69.1881 2.40352 70.0197 2.77895 70.4093 2.79785C70.8454 2.81912 70.7944 2.64623 70.8187 2.64716C71.0105 2.66151 70.8542 2.77397 70.9716 2.77656C71.1489 2.78042 72.3667 2.83455 72.4284 2.81181C72.4465 2.8047 72.2525 2.60382 72.5191 2.57327C72.5652 2.56797 72.5303 2.79954 73.3194 2.71879C74.2697 2.62171 72.6688 2.41353 73.0684 2.18007C73.6683 2.5416 73.6571 2.19787 73.8214 2.22893C73.8783 2.24017 74.2963 2.54259 74.7585 2.53563C74.4259 2.57475 74.0933 2.61386 73.7606 2.65298C74.0852 2.71226 74.7196 2.66469 74.9866 2.72918C75.1168 2.76059 75.0029 2.99764 75.2876 2.99825C75.348 2.99707 75.6021 2.41896 74.8504 2.66248C74.796 2.45244 75.1472 2.59708 75.3132 2.54218C75.3383 2.53361 75.4451 2.18764 75.6498 2.40941C75.6989 2.46394 75.1244 3.46662 76.5591 2.76628C76.6052 2.7437 76.4499 2.61247 76.4951 2.58719C76.526 2.57008 76.8863 2.63058 76.9267 2.61351C76.968 2.59515 76.7969 2.45184 76.8462 2.42571C77.0991 2.29103 77.4127 2.85032 76.8995 2.79552C77.0697 2.86792 77.2399 2.94031 77.41 3.01271C77.2364 2.59276 77.6829 2.90257 77.921 2.8957C79.4472 2.85191 78.4333 2.55633 78.6988 2.42308C79.1259 2.20915 78.7863 2.91196 79.4172 2.71396C79.4756 2.69543 78.7268 2.37485 80.1994 2.5819C79.9811 2.58822 79.7629 2.59455 79.5446 2.60088C79.6603 3.00577 80.3323 2.59292 80.3833 2.58855C80.9646 2.54784 80.5689 2.6829 81.4352 2.49747C81.5126 2.48081 81.6776 2.58413 81.8433 2.53877C82.53 2.35199 80.9469 2.39272 80.9077 2.22899C80.8892 2.14878 82.5891 2.21121 82.6465 2.2505C82.8902 2.42443 81.8739 2.30519 82.0629 2.51829C82.1319 2.594 84.5591 2.50249 85.0433 2.59565C85.602 2.70393 85.8411 3.25493 85.8599 2.64297C86.0033 3.2477 86.1533 2.84128 86.225 2.84721C87.0912 2.92443 87.0927 2.93053 87.8382 2.89154C88.0028 2.88313 88.137 3.06887 88.1958 3.03954C88.2301 3.02179 88.1718 2.82514 88.339 2.76908C88.5712 2.69247 89.9493 2.92757 90.0494 3.03796C90.1495 3.14836 89.4642 3.07018 89.5828 3.25054C90.0796 3.28085 90.5575 3.24886 91.0576 3.28001C91.2652 3.29348 91.1553 3.41491 91.2451 3.41961C91.2833 3.42209 92.0039 3.3307 91.9746 3.28417C91.906 3.17596 89.6874 3.19228 90.2766 2.98965C90.3902 2.95049 90.781 3.24636 90.7264 2.89706C92.7049 3.02522 94.6835 3.15339 96.662 3.28156C95.5176 3.5133 94.2428 3.2488 93.0503 3.2435C92.8869 3.24244 92.3355 3.19514 92.3983 3.37257C93.4107 3.44331 94.673 3.38313 95.6433 3.5219C95.6744 3.52647 95.5561 3.68153 95.6721 3.70945C95.889 3.76159 96.6054 3.52461 96.7231 3.59343C96.7432 3.60928 96.3339 3.80739 96.4535 3.94274C96.7605 4.29009 96.8592 3.54016 97.1302 3.55583C97.3397 3.56826 98.74 3.96693 99.0967 3.74597C99.476 3.51044 98.0616 3.57797 98.1709 3.38039C99.1312 3.20302 100.093 3.44193 100.996 3.43935C101.012 3.43911 100.878 3.2788 101.08 3.26187C101.431 3.2324 101.518 3.4572 101.688 3.49705C101.871 3.53952 102.522 3.52384 102.607 3.60714C102.618 3.61805 102.48 3.83547 102.46 3.84118C102.175 3.92508 102.081 3.63612 102.055 3.6318C101.959 3.61853 101.861 3.72587 101.773 3.71714C101.627 3.70262 101.55 3.59911 101.358 3.58537C101.226 3.57551 101.349 3.77362 101.221 3.76153C101.174 3.7563 100.68 3.2986 100.621 3.75177C100.603 3.89466 104.734 4.18165 105.15 4.07737C104.797 4.01391 104.444 3.95044 104.091 3.88698C104.807 4.0379 105.681 3.69641 105.729 4.23503C108.398 4.34545 111.067 4.45588 113.736 4.5663C114.212 4.62394 113.942 4.96256 114.729 4.88165C114.529 4.76665 114.329 4.65164 114.129 4.53664C114.529 4.62379 116.307 4.81886 116.597 4.75484C116.634 4.74644 116.694 4.43536 117.14 4.41962C117.535 4.40576 117.593 4.64138 117.803 4.69148C117.979 4.73288 118.18 4.67652 118.232 4.69075C118.272 4.7021 118.285 4.84562 118.381 4.87299C118.686 4.95779 118.448 4.54864 118.741 5.01895C118.666 5.03474 118.591 5.05053 118.517 5.06632C118.885 5.14251 119.386 5.36518 118.838 5.45525C118.744 5.4708 118.828 5.33435 118.758 5.33285C116.019 5.29038 118.199 5.61399 119.164 5.42288C119.405 5.63418 120.789 5.54332 120.834 5.58489C120.896 5.64504 120.656 5.80311 120.962 5.95241C121.027 5.984 122.876 5.91512 122.204 6.17122C122.066 6.22404 121.182 6.1429 120.968 6.14562C121.46 6.59296 122.652 5.99928 122.784 6.01855C123.316 6.09961 121.749 6.36984 122.951 6.45033C123.875 6.51214 123.013 6.20017 123.372 6.08509C123.574 6.02053 124.613 6.36646 124.595 5.95154C124.955 5.91626 124.739 6.13035 124.783 6.14723C124.826 6.16217 125.536 6.05577 125.763 6.14879C125.79 6.16034 125.697 6.37346 125.726 6.39179C125.781 6.42335 126.463 6.39728 126.491 6.37972C126.509 6.36748 126.351 6.17494 126.419 6.13089C126.498 6.08011 127.153 6.1408 127.19 6.08782C127.243 6.00762 126.433 6.04113 126.573 5.83371C126.944 5.89607 127.556 5.77057 127.806 5.60702C127.745 5.65403 127.383 5.65199 127.258 5.63176C127.324 5.32452 128.101 5.34807 127.829 5.5858C128.001 5.45878 127.888 5.38629 127.986 5.26482C128.012 5.23407 128.252 5.23358 128.299 5.18128C128.305 5.17078 128.061 5.04814 128.112 4.98667C128.205 4.8756 128.931 4.9192 128.99 4.95041C129.155 5.03882 128.56 5.12598 128.507 5.25496C128.5 5.27478 128.997 5.54252 129.004 5.56525C129.028 5.80778 128.471 5.61955 128.53 5.83887C128.668 5.88831 128.805 5.93775 128.943 5.9872C128.402 6.19434 127.415 6.0563 127.153 6.30072C127.949 6.24586 128.779 6.27537 128.763 6.84007C128.756 7.0779 128.411 7.2088 128.422 7.26961C128.467 7.48725 128.949 7.26402 128.966 7.27588C128.98 7.28943 128.986 7.30243 128.986 7.31492C128.986 7.31493 128.986 7.31494 128.986 7.31494C128.983 7.44163 128.303 7.51599 128.268 7.57299C128.208 7.67433 128.499 8.1048 128.496 8.19835C128.485 8.21688 128 8.30496 128.159 8.47227C128.32 8.64128 128.742 8.65544 128.756 8.67294C128.834 8.7736 128.094 8.84517 128.07 8.90288C128.058 8.93205 128.45 9.12289 128.46 9.1752C128.469 9.22766 128.164 9.33406 128.042 9.49588C127.95 9.6161 128.205 9.71638 128.16 9.73444C128.127 9.74636 127.429 9.72689 127.394 9.74756C127.342 9.77811 127.502 9.9285 127.478 9.96449C127.442 10.0163 127.218 9.95784 127.246 10.0127C127.267 10.0536 128.129 10.5797 128.119 10.7143C128.104 10.9439 127.192 10.3921 128.03 11.3203C128.036 11.3264 128.247 11.2672 128.253 11.2729C128.378 11.443 127.7 11.6829 128.522 11.6585C126.987 11.9102 128.324 11.9992 128.088 12.3805C127.997 12.527 127.403 12.5736 127.4 12.5958C127.452 12.7859 127.645 12.6443 127.707 12.7384C127.741 12.791 127.206 12.9773 127.322 13.1098C127.382 13.1781 127.945 13.1683 127.968 13.1819C128.188 13.3103 127.911 13.4358 127.958 13.5242C127.989 13.5835 128.328 13.5966 128.337 13.6073C128.351 13.6296 127.884 13.8544 127.786 13.9351C127.711 13.9972 127.983 14.1041 127.931 14.1307C127.62 14.2897 126.978 13.8485 127.592 14.4596C127.63 14.4971 127.868 14.4883 127.875 14.4957C128.018 14.6682 127.579 14.6719 127.497 14.8081C127.357 15.0429 127.99 14.9258 127.462 15.0802C127.851 15.2457 128.07 15.2446 128.531 15.2127C127.255 15.3021 126.79 15.9073 128.204 15.927C127.754 15.9062 127.796 16.2553 127.661 16.2581C127.578 16.2594 126.935 15.8973 127.214 16.6808C127.249 16.7787 127.648 16.6654 127.519 16.8607C126.57 16.7864 127.496 16.9864 127.496 17.0127C127.473 17.4695 125.16 17.0373 124.759 17.0795C124.295 17.1284 123.874 17.4784 123.774 17.4763C123.443 17.4682 123.722 17.2922 123.65 17.2231C123.576 17.1546 122.626 17.4815 122.579 17.4611C122.399 17.3793 122.589 17.1671 122.571 17.1557C122.348 17.0173 121.079 17.1555 120.727 17.0963C120.734 17.2372 121.445 17.266 120.995 17.4808C120.472 17.7312 120.458 17.1107 120.445 17.083C118.077 17.0299 115.709 16.9768 113.341 16.9237C113.362 17.2542 114.916 17.0441 114.95 17.0884C115.151 17.3506 112.536 17.2807 112.218 17.1563C112.46 17.2336 112.702 17.3109 112.944 17.3882C112.518 17.7569 111.609 17.2414 111.003 17.3938C110.808 17.4432 111.177 17.5989 111.169 17.6087C110.947 17.7505 110.599 17.6283 110.866 17.4371C110.328 17.6133 110.411 17.4062 110.002 17.3803C109.981 17.3791 110.153 17.5365 109.828 17.5919C109.675 17.6177 108.866 17.598 108.754 17.7291C108.708 17.7843 109.104 18.3878 109.167 17.8785C110.042 18.1493 109.454 17.6528 109.796 17.6731C109.849 17.6771 109.721 17.9591 110.585 17.8463C110.409 18.3562 109.426 17.9472 109.255 18.0052C108.901 18.1245 110.339 18.4259 110.614 18.0318C110.48 18.4298 110.715 18.0884 111.037 18.1129C111.389 18.1396 111.233 18.2552 111.423 18.2606C111.945 18.2766 111.736 17.9881 112.16 18.254C111.76 17.4534 112.898 18.1681 113.23 18.3835C112.681 18.4099 112.132 18.4364 111.583 18.4628C111.614 18.5051 111.644 18.5474 111.674 18.5897C111.53 18.5802 111.386 18.5707 111.242 18.5612C111.266 18.5221 111.29 18.4829 111.314 18.4437C110.563 18.6837 110.389 18.3886 110.328 18.3838C109.548 18.3307 108.646 18.3107 107.856 18.2901C107.737 18.287 107.812 18.5476 106.954 18.3236C106.68 18.2523 106.945 18.0576 106.632 18.08C106.228 18.617 106.246 18.1811 106.13 18.1775C105.796 18.1693 105.589 18.2997 105.559 18.3003C105.146 18.3112 104.544 18.2736 104.091 18.2824C104.082 18.2843 104.314 18.4581 104.021 18.4011C103.918 18.3808 103.011 17.6407 102.196 17.8543C102.405 17.908 102.614 17.9616 102.823 18.0152C102.578 17.9414 100.84 18.0789 101.259 18.2814C101.516 18.4052 102.162 17.9589 102.22 18.405C101.646 18.2576 98.4552 18.3772 98.2097 18.2678C98.1757 18.2522 98.3904 18.1132 98.3435 18.0936C98.3071 18.0786 97.5764 18.0946 97.4809 18.0368C97.4241 18.0025 97.7487 17.9221 97.7238 17.8695C97.7018 17.8319 96.7918 17.7475 96.7353 17.9269C96.961 17.8599 97.5885 17.939 97.2547 18.0831C97.2118 18.101 96.9948 17.9789 96.9427 18.0016C96.4588 18.2112 97.8897 18.1936 98.1109 18.2009C97.2071 18.4088 95.825 18.1028 94.7808 18.227C94.3641 18.0661 95.4098 18.0124 94.9372 17.8759C93.9568 17.593 94.6694 18.0774 94.6383 18.0958C94.3894 18.2414 93.5748 17.4072 93.5589 18.0263C93.2035 17.9242 93.3212 17.849 92.8143 17.9175C92.8796 17.962 92.945 18.0065 93.0104 18.0511C92.4409 18.3957 91.277 17.4614 91.3676 17.3946C91.6113 17.2159 92.222 17.5194 92.2749 17.5138C92.3533 17.5055 92.5849 16.8826 93.4257 17.4656C93.7862 17.053 92.078 17.1475 92.8608 16.8796C92.3358 16.9137 90.1878 16.5668 89.873 16.744C89.8353 16.7672 89.9973 17.1913 89.4702 16.9644C89.2199 16.8563 89.8296 16.8666 89.7163 16.7681C89.3677 16.4657 84.5224 16.5329 83.6024 16.5255C83.5428 16.5245 83.5679 16.3947 83.5092 16.3945C83.329 16.3936 82.6676 16.5716 82.3466 16.5036C83.0087 16.7614 81.7108 16.7478 81.3814 16.713C80.8815 16.6602 80.9181 16.4316 80.703 16.3775C79.8736 16.1688 78.5676 16.681 77.9324 16.1559C77.9552 16.6619 76.8178 15.8804 76.2919 15.8628C75.88 15.8489 75.2739 16.1683 75.825 16.3857C75.1144 16.3448 74.3634 16.4203 73.6955 16.4344C73.5851 16.4368 73.7406 16.2912 73.5521 16.3001C73.535 16.3019 73.5078 16.4477 73.3459 16.4589C72.0089 16.5533 72.6656 16.2584 72.4184 16.1608C72.28 16.1061 72.1776 16.078 72.1022 16.0678C72.8803 16.0585 73.7784 16.0234 74.0183 16.0252C73.8218 15.6969 72.2937 16.0443 71.8512 15.9463C71.8358 15.9428 71.894 15.7659 71.8784 15.7643C71.878 15.7643 71.8777 15.7643 71.8774 15.7643C71.711 15.7465 70.648 15.7858 70.8612 16.0036C70.9184 16.0618 71.407 16.0739 71.9869 16.069C71.8291 16.105 71.9412 16.3075 71.9134 16.3153C71.5753 16.4056 70.758 16.1903 70.467 16.1568C70.4005 16.1494 70.402 16.2773 70.3911 16.2774C70.1266 16.2417 70.2445 15.8794 69.963 16.2491C69.494 15.7821 70.8649 16.2039 70.775 15.906C70.7059 15.6766 67.6364 15.7224 67.6366 16.0811C67.627 16.0425 67.586 15.9939 67.5008 15.9376C67.3121 15.8125 66.4576 15.8289 66.3086 15.8913C66.2835 15.9037 66.2847 16.2518 66.2538 16.2542C66.1765 16.2603 65.1401 15.9616 64.7453 16.1575C64.9545 16.2115 65.1637 16.2655 65.3729 16.3195C64.1022 16.2908 64.296 16.3993 64.7168 16.5138C64.7379 16.5153 64.7582 16.529 64.7784 16.5309C65.1046 16.616 65.5234 16.7006 65.5292 16.7282C65.5506 16.8335 63.3934 16.8381 63.816 16.5257C63.8749 16.483 64.8688 16.6515 64.3807 16.4089C64.2953 16.3664 63.653 16.4162 63.62 16.39C63.3991 16.2156 64.8035 16.0263 64.6385 15.7822C64.2933 16.0021 63.8606 15.871 63.4698 15.9202C63.2919 15.9424 63.2441 16.1158 63.2221 16.1185C62.8943 16.1559 63.0822 15.9776 62.973 15.9794C62.9144 15.9811 62.261 16.3543 62.3961 15.8208C60.2652 16.1627 61.7995 16.2005 63.1014 16.2027C62.6854 16.3879 61.8817 16.2733 61.5189 16.3096C61.3887 16.3229 61.4612 16.5038 61.2411 16.5342C60.788 16.5966 58.639 16.3373 58.079 16.2748C58.4252 16.2201 58.3293 16.0226 58.063 16.0294C57.7966 16.0364 58.0136 16.3023 57.961 16.3289C57.9046 16.3565 56.6595 16.2026 56.451 16.2311C57.3931 16.1603 57.1859 15.9605 56.3889 15.9203C56.5056 15.8671 56.6223 15.814 56.739 15.7608C56.2695 15.8279 55.2941 15.5068 55.0216 15.5883C54.9789 15.6015 55.1271 15.7688 55.1031 15.7761C54.8644 15.8397 54.0621 15.6529 54.0232 15.7077C53.9902 15.7534 54.3308 15.899 54.2015 15.9634C54.1745 15.9769 53.8484 15.7476 53.5204 15.7938C53.3987 15.8108 53.4678 15.9672 53.4371 15.9755C53.1808 16.0435 53.3375 15.7868 52.8714 15.8171C52.53 15.8396 52.2699 16.0878 51.8012 15.9918C53.3389 16.3549 52.0429 16.1869 51.3941 16.2692C51.2901 16.2823 51.3719 16.5652 50.7564 16.4131C52.0862 15.9383 50.3876 16.1355 50.0415 16.1213C50.0225 16.1191 50.0206 15.9338 49.8509 15.9266C49.8365 15.9264 49.854 16.052 49.696 16.0577C48.1969 16.1108 49.1575 15.9933 48.8762 15.8629C48.7564 15.8073 48.0241 15.9661 47.828 15.9655C47.7829 15.9648 47.8068 15.8353 47.6323 15.8361C47.3235 15.8377 47.0436 15.9692 46.8397 15.9751C46.8159 15.9752 46.82 15.77 46.4323 15.8269C46.3233 15.8428 46.1996 15.9126 46.3523 15.9754C46.8587 16.1821 47.837 15.8706 48.41 16.0786C48.9326 16.268 47.2705 16.2433 47.184 16.2421C47.1523 16.242 47.4794 16.1482 47.1502 16.1199C46.869 16.0961 46.3456 16.4375 45.9279 16.3499C45.8961 16.3434 45.5683 16.0347 45.5842 16.0175C45.5986 16.0051 46.1151 15.9527 46.0424 15.8639C46.0338 15.8538 45.7065 15.8477 45.6654 15.7819C45.6151 15.7018 45.4933 14.9251 45.4239 14.904C45.2458 14.8516 45.3581 15.0309 45.2424 15.0157C44.9943 14.9836 44.1373 14.7335 44.1026 15.0008C44.2447 15.0203 44.3868 15.0397 44.529 15.0592C43.7353 15.067 44.0705 15.1895 43.9569 15.2369C43.8346 15.2883 43.8745 15.0536 43.6077 15.0248C43.5497 15.0185 42.4301 15.0398 42.4479 15.1391C43.0703 14.9972 42.8338 15.2826 42.8622 15.2886C42.9701 15.3102 43.1125 15.1504 43.2578 15.1572C44.2797 15.2083 43.2421 15.4403 43.4818 15.5126C43.5644 15.537 43.7334 15.4017 43.7685 15.4097C43.8825 15.4357 43.8798 15.6183 43.9566 15.6054C44.1358 15.5756 43.934 15.3121 43.9485 15.299C44.1118 15.1413 44.7313 15.358 44.3355 15.6294C44.5664 15.7365 44.6022 15.3956 44.7839 15.5367C45.1451 15.8163 44.5956 15.7331 44.4452 15.7743C43.9054 15.9229 43.7498 15.7879 42.9904 15.8138C42.7169 15.8229 42.3893 15.9807 42.2624 15.9867C42.1824 15.9904 41.4432 15.3944 41.3985 16.2973C41.1078 16.2026 40.663 15.5958 40.3605 15.6155C40.0889 15.6336 40.1671 15.9553 40.1415 15.9671C40.1023 15.9855 39.7753 15.9522 39.6633 15.9946C39.5321 16.0447 39.5939 16.1684 39.3866 16.213C38.8708 16.3236 38.8923 15.9977 38.8401 15.9751C38.2344 15.7148 38.4907 16.1856 38.3541 16.2194C38.227 16.2505 36.4603 16.0277 36.0846 16.1359C36.238 16.0743 36.3913 16.0127 36.5446 15.9512C36.2782 15.7409 35.9822 16.0657 35.9862 15.7006C35.9164 16.2884 35.3659 15.8806 35.1972 15.8917C35.1307 15.8963 35.1334 15.9968 35.0502 15.9991C34.7255 16.0086 33.9962 15.9105 33.819 15.957C33.0528 16.1572 34.9891 16.5703 35.1417 16.5961C34.8353 16.582 33.0975 16.6707 33.8878 16.9738C34.0099 17.0206 34.2348 16.7624 34.3043 16.7538C34.7745 16.6975 34.4002 16.9246 34.4363 16.948C34.4979 16.9859 34.8119 16.7651 34.8926 16.7944C34.9195 16.8038 34.7394 17.0134 35.1861 17.029C34.9612 17.2309 33.7095 17.0307 33.5436 17.0753C33.4844 17.0912 33.8413 17.5436 32.7773 17.0863C32.7887 17.1277 32.8001 17.1692 32.8116 17.2106C32.2127 17.2127 31.6139 17.2147 31.015 17.2168C31.0824 17.1236 31.4231 16.9415 30.9989 16.9714C30.7547 16.9887 30.9297 17.2043 30.9073 17.2099C30.6872 17.2626 26.8192 17.0959 26.0687 17.1008C25.8134 17.1021 25.0981 17.2541 25.0438 17.2559C24.7191 17.2648 23.5738 17.1257 23.3442 17.144C23.2008 17.1558 23.3323 17.3357 23.2048 17.3243C23.0862 17.3134 23.2135 17.1458 23.1784 17.1378C22.8878 17.0687 20.6628 17.2372 20.1398 17.0631C20.4607 17.1195 22.0765 16.8187 22.0472 16.6976C22.0406 16.6809 21.6532 16.5414 21.5711 16.6027C21.4416 16.4516 20.9733 16.89 20.7269 16.7954C20.699 16.7847 20.816 16.5352 20.3734 16.4784C20.2209 16.4589 19.8158 16.6456 19.4184 16.4151C18.8326 16.5065 15.7745 16.103 15.5574 16.3688C15.5508 16.3829 15.9803 16.487 15.6858 16.591C15.2943 16.7292 15.655 16.2398 15.2041 16.1856C15.1361 16.1774 13.8774 16.1965 13.8354 16.2262C13.4476 16.4963 14.5436 16.6369 14.5274 16.669C14.4871 16.7499 13.5728 16.7767 13.5362 16.7565C13.5014 16.7355 14.2552 16.3837 13.3569 16.5018C13.4583 16.5487 13.5597 16.5955 13.6611 16.6423C13.2382 16.718 13.2044 16.4608 13.1029 16.4426C12.7872 16.3851 12.4347 16.7658 11.9389 16.2724C11.8078 16.1415 12.0342 16.0054 12.0179 15.9858C11.8609 15.8101 11.6437 16.2643 11.4097 15.9157C11.3921 15.8897 11.9616 15.6985 10.9751 15.6734C11.0422 15.7079 11.1092 15.7425 11.1763 15.777C11.0354 15.8469 10.0355 15.8656 9.90153 15.8449C9.51023 15.7844 9.85845 15.5572 9.46319 15.5755C9.7082 15.905 8.50734 15.9173 8.58329 15.6408C8.40701 15.986 7.39449 15.6911 6.91558 15.6709C6.61339 15.6584 5.99295 15.7955 5.89734 15.7753C5.78087 15.7505 5.82237 15.513 5.61241 15.4547C5.55253 15.4381 4.9192 15.5971 4.37325 15.3366C4.26743 15.2864 4.05279 14.8765 4.25418 14.7804C4.59889 14.616 5.23472 14.9578 5.23246 14.7187C5.22917 14.4629 4.35804 14.5932 4.12541 14.5541C3.05146 14.373 3.6806 14.1168 3.65493 14.0338C3.58804 13.8321 2.99897 13.8236 2.97484 13.8051C2.87498 13.7227 3.29624 13.5749 3.30558 13.4531C3.31714 13.2945 2.75663 12.9938 2.88701 12.9434C3.07363 12.872 3.58936 13.1239 3.62272 13.1133C4.05711 12.97 3.47609 12.5884 3.31792 12.4041C3.27 12.3474 3.46873 12.2611 3.42826 12.2439C2.81036 11.9815 3.28386 12.7562 2.87006 12.695C2.50087 12.6403 2.98335 12.4111 2.96953 12.3975C2.95161 12.3824 2.50916 12.3582 2.44197 12.2712C2.40887 12.2276 3.57141 11.7873 3.52859 11.5758C3.16024 11.613 2.79188 11.6502 2.42353 11.6874C2.40157 11.4125 2.9247 11.6275 2.98003 11.6006C3.09142 11.5466 2.78822 11.4002 2.80354 11.3138C2.81197 11.2589 3.17679 11.0711 2.85366 10.9819C2.74261 10.9511 2.5033 11.1375 2.1012 10.931C3.52385 10.7155 2.54615 10.5369 2.50682 10.4387C2.46834 10.3406 3.15023 10.1289 2.32843 10.1488C2.30614 9.61439 2.35033 9.98062 2.58589 9.89265C2.87448 9.78449 2.21852 9.59235 3.25944 9.75166C3.20625 9.50037 2.36649 9.49714 2.32255 9.4761C2.28463 9.45708 2.47425 9.33885 2.40877 9.29557C1.63395 8.79327 2.1689 9.02715 1.94869 8.71323C1.92911 8.68518 1.18826 8.55237 1.75555 8.52158C2.78907 8.46566 3.21134 8.8304 3.40353 8.07791C2.64877 7.73015 1.71217 8.19564 1.48004 8.19814C1.12475 8.20122 1.49633 8.05604 1.45367 8.01169C1.43883 7.99734 1.1326 8.00247 1.12879 7.99011C0.925043 7.40745 2.49087 8.01445 2.99081 7.92646C2.85963 7.8367 2.72845 7.74694 2.59728 7.65717C2.77825 7.65822 2.95923 7.65927 3.14021 7.66032C2.28276 7.46508 3.11147 7.59377 3.33799 7.13173C3.38885 7.02792 2.81821 7.19392 3.47131 6.91812C2.99666 6.83888 3.15097 6.74717 2.71637 6.86818C2.73217 6.68111 3.70787 6.49396 4.09303 6.40736C2.74607 6.16315 3.50006 6.86953 2.34015 6.47684C2.1176 6.70341 2.67669 6.67214 2.63024 6.7093C2.46357 6.84291 2.08633 6.61477 1.61261 7.08564C1.53546 7.16296 1.8475 7.41466 1.37707 7.39116C1.32505 7.38819 1.03029 7.1724 1.03483 7.1574C1.07865 6.99523 1.37394 7.06377 1.38789 6.99597C1.40099 6.93178 1.06889 6.96231 1.06819 6.94441C1.06311 6.73975 1.34643 6.87317 1.30642 6.80814C1.22003 6.66674 0.0398666 6.19721 1.59118 6.36476C0.294232 6.56369 1.42025 6.58634 1.92529 6.5101C2.05407 6.49104 2.08959 6.36975 2.27336 6.33193C2.50976 6.28291 2.78338 6.34837 2.90555 6.329C3.03697 6.30756 2.30097 6.00045 3.3737 6.11335C2.83381 5.81266 1.85992 6.09464 1.32758 5.8797C0.25357 5.44539 2.09581 5.40378 2.28848 5.36908C2.33982 5.35966 2.17271 5.19051 2.207 5.18126C2.26306 5.16715 3.30547 5.26938 3.41184 5.1355C3.51793 5.00173 3.02917 5.13225 3.00047 4.98928C2.98099 4.89302 4.24502 4.75463 3.56467 4.67223C3.09575 4.61567 2.21974 4.97879 2.0841 4.56165C2.77622 4.54464 3.46834 4.52763 4.16045 4.51061C3.78602 4.34386 3.41159 4.17711 3.03716 4.01036C3.81427 3.97979 4.48059 4.17412 5.2231 3.96725C3.46492 3.419 5.80806 3.57924 5.83539 3.51853C5.84493 3.48205 5.15815 3.0555 5.04787 2.97786C5.66939 2.83583 7.54796 2.80565 6.4626 2.27303C6.65904 2.39208 7.14866 2.12248 7.14282 2.10107C7.0871 1.87632 6.03091 1.99485 6.20761 1.79752C6.41238 1.56852 6.68325 1.89286 6.98993 1.87514C8.56372 1.78211 8.16188 0.606091 9.73204 0.82971C9.70175 0.787437 9.67145 0.745165 9.64116 0.702892C11.3512 0.811571 13.0612 0.920251 14.7713 1.02893C15.4498 0.689754 17.2376 0.517458 18.112 0.578634C18.2881 0.590692 19.1488 0.799012 19.2133 0.833381C19.3327 0.899145 18.6671 0.906524 18.9647 1.03167C19.0275 1.0574 20.4908 1.17237 20.391 0.970663C20.2273 0.943489 19.711 1.03077 19.6281 0.981761C19.0457 0.632203 23.556 1.01222 23.7832 0.88286C23.6847 0.815709 23.5863 0.748558 23.4879 0.681406C23.7721 0.720317 24.0564 0.759229 24.3406 0.798139ZM10.8447 16.4621C10.6686 16.6576 10.2436 16.4969 9.98891 16.5467C9.63695 16.6165 9.02282 17.3709 9.29819 16.6063C9.81368 16.5582 10.3292 16.5102 10.8447 16.4621ZM18.3492 16.9469C18.0072 16.831 18.2852 16.4071 18.5633 16.5931C18.5941 16.6143 18.8119 17.103 18.3492 16.9469ZM14.741 16.6526C14.7556 16.6472 15.0532 16.666 15.0634 16.6731C15.3262 16.8526 14.4291 16.7949 14.741 16.6526ZM32.2013 16.8664C31.8211 16.8755 32.0864 17.2739 32.3265 17.1186C32.3416 17.1088 32.2263 16.8661 32.2013 16.8664ZM31.9315 16.8493C31.6453 16.4914 31.0335 17.1871 31.5076 17.1273C31.5535 17.1212 31.9447 16.8667 31.9315 16.8493ZM17.1249 16.7452C17.167 16.6118 17.5209 16.6855 17.672 16.7214C17.6648 16.844 17.2742 16.7339 17.1249 16.7452ZM26.1398 16.9324C26.1575 16.8271 24.9217 16.8022 24.8341 16.9393C25.0306 16.8851 26.1233 17.0269 26.1398 16.9324ZM29.3125 16.863C29.2817 16.8439 28.8541 16.861 28.8642 16.9546C29.0696 17.082 29.4515 16.9491 29.3125 16.863ZM35.611 17.0261C35.6348 17.0032 35.3298 16.4022 36.0776 16.8114C36.1874 16.8714 35.7864 17.0164 35.8253 17.0387C35.9071 17.0822 35.972 17.1032 36.0245 17.108C35.6704 17.1484 35.3034 17.1624 35.2688 17.1255C35.1066 16.9514 35.6005 17.0356 35.611 17.0261ZM38.9288 16.6666C39.0039 16.5716 39.4668 16.6349 39.5715 16.6774C39.5894 16.6853 39.504 16.9376 39.7135 16.9238C39.8817 16.9123 39.6375 16.6456 39.9634 16.6954C40.2927 16.7455 39.8467 16.9201 39.8752 16.934C39.9135 16.9524 40.4274 16.8482 40.4077 16.9992C40.3931 17.1111 39.8475 17.0216 39.7115 17.0421C39.5374 17.0684 39.743 17.2605 39.4542 17.2132C39.2728 17.1835 39.3819 16.8574 39.3439 16.8399C39.312 16.8257 38.6709 16.999 38.9297 16.6676C38.9294 16.6673 38.9291 16.6669 38.9288 16.6666ZM36.1203 17.0959C36.0934 17.1063 36.0621 17.1114 36.0245 17.108C36.0566 17.1043 36.0886 17.0999 36.1203 17.0959ZM11.8441 16.3427C12.0207 16.4485 11.4857 16.5653 11.2876 16.4275C11.2868 16.3203 11.816 16.3262 11.8441 16.3427ZM36.4541 16.8364C36.9762 16.9318 36.5879 17.0354 36.1203 17.0959C36.2697 17.0377 36.2788 16.8045 36.4541 16.8364ZM21.5711 16.6027C21.5925 16.6277 21.6056 16.6663 21.6058 16.7291C21.5494 16.659 21.5451 16.622 21.5711 16.6027ZM22.7909 16.7451C23.2148 16.5643 22.363 16.5508 22.365 16.6878C22.3662 16.7396 22.7739 16.7523 22.7909 16.7451ZM32.6879 16.8972C32.6501 16.8775 33.2601 16.3149 32.3845 16.7267C32.8444 16.8063 32.3558 16.857 32.3618 16.9078C32.377 17.0536 33.1558 16.9332 33.3259 17.0003C33.4668 16.7436 32.813 16.962 32.6889 16.8972C32.6886 16.8972 32.6883 16.8972 32.6879 16.8972ZM44.8849 16.955C44.7761 17.1048 44.444 17.0475 44.2193 17.0329C44.3282 16.8831 44.6603 16.9405 44.8849 16.955ZM103.734 18.4427C102.19 18.5453 102.006 17.9197 103.41 18.2001C103.437 18.2059 103.83 18.3822 103.734 18.4427ZM90.5134 17.9525C90.3749 17.6784 90.8565 17.6469 91.1693 17.7665C91.2401 17.7934 91.4973 18.0739 91.1945 18.12C91.2123 17.7924 90.7491 17.6555 90.5134 17.9525ZM36.7546 16.6705C36.9118 16.4939 37.3783 16.634 37.6251 16.6673C37.4704 16.8121 36.9721 16.7324 36.7546 16.6705ZM98.6788 17.993C98.5169 17.9684 98.4013 18.201 98.4289 18.2213C98.5522 18.3143 98.8605 18.1316 98.6788 17.993ZM35.239 16.6047C35.2202 16.4964 35.8449 16.4081 35.8816 16.6758C35.7491 16.6532 35.2527 16.6728 35.239 16.6047ZM44.4628 16.8636C44.3676 16.8064 44.8703 16.7207 45.0203 16.7788C45.0052 16.8933 44.5253 16.9008 44.4628 16.8636ZM96.0618 18.0077C95.9168 17.9836 95.5536 17.9684 95.511 18.0625C95.4581 18.1802 95.9919 18.1529 96.0618 18.0077ZM123.13 18.4764C123.147 18.5196 122.577 18.8136 122.329 18.7295C121.857 18.5685 123.111 18.4458 123.13 18.4764ZM100.219 17.9099C100.672 18.1451 100.169 17.9157 100.183 18.1519C100.491 18.1681 101.259 18.1988 100.737 17.9539C100.635 17.9065 100.363 17.9287 100.219 17.9099ZM99.7982 17.8205C99.7471 17.8956 99.4105 18.1281 99.6967 18.118C99.8291 18.1129 100.049 17.8508 99.7982 17.8205ZM119.641 18.4944C119.235 18.2755 121.117 18.4344 121.17 18.4722C121.198 18.4923 121.216 18.5109 121.227 18.5266C121.297 18.4622 121.654 18.4591 121.691 18.6274C121.584 18.611 121.293 18.6184 121.259 18.599C121.245 18.5908 121.234 18.5831 121.227 18.5754C121.098 18.7174 119.718 18.5359 119.641 18.4944ZM116.523 18.2018C117.001 17.9058 117.072 18.4312 117.031 18.447C116.513 18.6484 116.857 18.2708 116.841 18.2523C116.806 18.2214 116.438 18.3914 116.525 18.2019C116.524 18.2019 116.524 18.2019 116.523 18.2018ZM119.003 18.3923C119.022 18.386 119.417 18.412 119.433 18.4207C119.752 18.6046 118.636 18.5317 119.003 18.3923ZM41.4304 16.3625C41.7119 16.4215 41.4297 16.6071 41.2435 16.5332C41.2282 16.526 41.1821 16.3103 41.4304 16.3625ZM99.571 17.8668C99.5064 17.8288 97.8328 17.6498 97.9263 17.9431C98.0696 17.9123 99.972 18.1095 99.571 17.8668ZM87.04 17.484C87.3357 17.4937 87.0064 17.7599 86.8511 17.6537C86.7936 17.6143 86.9654 17.4818 87.04 17.484ZM34.4063 16.3349C34.0955 16.4779 34.1716 15.974 34.4335 16.1539C34.4437 16.161 34.4185 16.3293 34.4063 16.3349ZM89.3987 17.7006C88.3746 17.8414 88.6378 16.9779 89.9565 17.3045C89.914 17.3422 89.8715 17.3799 89.8291 17.4175C91.3563 17.5861 89.9322 17.4814 89.5562 17.5208C89.4134 17.5357 89.5291 17.6838 89.3996 17.7016C89.3993 17.7013 89.399 17.7009 89.3987 17.7006ZM85.4852 17.4287C84.5183 16.7871 86.3834 17.2357 86.9233 17.1687C86.3956 17.4106 85.7177 17.3551 86.6344 17.639C85.2832 17.6558 85.8513 17.424 85.798 17.4022C85.7347 17.3777 85.5264 17.4562 85.4852 17.4287ZM88.0762 17.4891C88.1334 17.4725 88.558 17.6088 88.7126 17.5921C88.4919 17.7976 87.6962 17.6021 88.0762 17.4891ZM113.246 18.2634C113.286 18.0992 113.376 17.9797 113.712 18.0498C113.606 18.1302 113.389 18.1962 113.246 18.2634ZM10.5416 15.5847C10.3094 15.5671 9.84797 15.4933 9.98562 15.6705C10.0008 15.6857 10.5385 15.6822 10.5416 15.5847ZM94.7035 17.6116C94.6546 17.5901 93.3761 17.5446 93.8133 17.7379C93.9451 17.7962 95.1092 17.8018 94.7035 17.6116ZM101.325 17.7973C101.218 17.7929 100.783 17.8132 100.773 17.8521C100.74 17.9864 101.275 17.9254 101.325 17.7973ZM9.37289 15.3864C9.34269 15.3685 8.63176 15.3812 8.70782 15.4633C8.85224 15.6185 9.47637 15.4481 9.37289 15.3864ZM42.4688 16.0012C42.5283 15.9965 42.6024 16.1779 42.6229 16.1804C42.6711 16.1842 43.7595 16.1423 43.3386 16.3623C43.2684 16.3991 41.707 16.2717 41.5042 16.2439C41.4317 15.9956 42.0938 16.2466 42.2569 16.2253C42.2857 16.2212 42.3092 16.0156 42.4683 16.0022C42.4685 16.0019 42.4686 16.0015 42.4688 16.0012ZM115.009 18.133C115.061 17.9776 116.341 17.9057 116.322 18.0951C115.884 18.1077 115.447 18.1204 115.009 18.133ZM114.361 18.0909C114.091 17.9733 114.73 17.9526 114.917 18.0061C114.917 18.1115 114.4 18.1081 114.361 18.0909ZM98.9168 17.1519C98.7875 17.187 99.1766 17.4253 99.0872 17.4676C99.0299 17.4938 98.7452 17.401 98.6519 17.4702C98.6254 17.4923 98.9127 17.7143 98.9975 17.7072C99.1181 17.6978 99.0057 17.5258 99.1369 17.528C99.5725 17.5352 99.9557 17.6653 100.364 17.6727C100.401 17.673 100.118 17.5466 100.432 17.5561C100.481 17.5573 100.769 17.7424 101.146 17.7254C101.99 17.1955 102.587 17.7513 103.646 17.579C103.608 17.5262 102.823 17.3675 102.776 17.3612C101.897 17.2487 100.318 17.1994 99.3953 17.1753C99.1584 17.1689 99.2705 17.2883 99.1684 17.29C99.0877 17.2912 99.1889 17.0778 98.9168 17.1519ZM10.6681 15.4685C10.5626 15.2502 10.1705 15.377 9.92248 15.3597C10.005 15.5562 10.4266 15.4147 10.6681 15.4685ZM108.629 17.781C108.505 17.7862 108.12 17.7117 108.087 17.7758C108.044 17.8595 108.599 17.9268 108.629 17.781ZM48.5947 16.215C48.6069 16.2094 48.906 16.2284 48.9171 16.2355C49.1803 16.4151 48.2832 16.3573 48.5947 16.215ZM55.7558 16.4349C55.9835 16.414 56.2141 16.3523 56.2861 16.5291C56.1421 16.4987 55.7261 16.556 55.7558 16.4349ZM65.6368 16.6758C65.5956 16.4457 66.2753 16.611 66.4039 16.6347C66.3535 16.7353 65.6671 16.8417 65.6368 16.6758ZM113.215 17.5434C113.632 17.5673 113.552 17.2182 113.814 17.3818C113.856 17.4094 113.978 18.1352 113.526 17.8532C113.444 17.8025 113.772 17.6389 113.215 17.5434ZM90.1723 17.3171C90.2823 17.1683 90.6132 17.2215 90.8374 17.2392C90.7842 17.3505 90.3322 17.3103 90.1723 17.3171ZM8.09455 15.1813C7.90393 14.9625 6.99466 15.0986 7.21516 15.2455C7.24656 15.2647 7.96774 15.17 8.09455 15.1813ZM37.8341 16.0061C38.2108 15.847 37.4406 15.7756 37.1929 15.9341C37.3035 15.9261 37.8087 16.0166 37.8341 16.0061ZM63.2665 16.4922C63.2845 16.4858 63.6791 16.5119 63.6965 16.5206C64.0158 16.7045 62.8994 16.6317 63.2665 16.4922ZM53.4075 16.0982C53.5532 15.9632 54.486 16.0983 54.6922 16.2423C54.4854 16.44 53.2266 16.2669 53.4075 16.0982ZM111.493 17.5991C111.791 17.5993 112.073 17.6491 112.345 17.7158C112.285 17.8311 111.522 17.687 111.493 17.5991ZM64.7168 16.5138C64.7379 16.5153 64.7582 16.529 64.7784 16.5309C64.7574 16.5255 64.7369 16.5193 64.7168 16.5138ZM104.824 17.351C104.575 17.2987 104.622 17.5138 104.637 17.5207C104.823 17.5946 105.105 17.41 104.824 17.351ZM10.3906 15.144C10.3088 14.9489 9.88501 15.0881 9.6445 15.0361C9.71081 15.1903 10.1955 15.1594 10.3906 15.144ZM84.4431 17.0073C84.1345 16.7903 85.4173 16.579 85.683 16.7206C85.6997 16.8503 84.4883 17.0371 84.4431 17.0073ZM36.6846 15.6879C36.6633 15.5361 36.1227 15.7052 36.2348 15.7795C36.3058 15.8267 36.6972 15.7822 36.6846 15.6879ZM86.3229 16.8247C86.4439 16.7816 86.7199 16.9377 86.6191 17.0262C86.4899 17.1396 86.2915 16.8372 86.3229 16.8247ZM97.0885 16.9714C97.0366 16.947 96.3274 17.0847 96.6149 17.2461C96.8145 17.3583 96.8521 17.1406 96.8996 17.1411C96.9527 17.1431 98.0784 17.4388 97.0885 16.9714ZM77.2956 16.6974C77.5632 16.6459 77.8833 16.7214 78.1619 16.7242C78.0461 16.8149 77.4057 16.8244 77.2956 16.6974ZM38.753 15.6989C38.6899 15.6362 36.9302 15.5555 37.9257 15.7686C37.9837 15.7807 38.9447 15.889 38.753 15.6989ZM113.215 17.5434C113.162 17.5403 113.101 17.5316 113.031 17.5149C113.101 17.5225 113.162 17.5343 113.215 17.5434ZM108.47 17.4023C108.569 17.2947 108.085 17.2532 107.941 17.3082C107.894 17.4416 108.457 17.4174 108.47 17.4023ZM78.1869 16.5712C78.3489 16.5122 78.6385 16.5867 78.8374 16.5843C78.8012 16.6858 78.2537 16.6769 78.1869 16.5712ZM66.9204 16.1753C67.2375 16.2441 67.6304 16.2259 67.6396 16.1009C67.6457 16.1206 67.6606 16.1418 67.6858 16.1633C67.7112 16.1846 68.054 16.1349 68.2013 16.1813C69.0829 16.4572 64.7685 16.2449 67.2794 15.9539C67.1597 16.0277 67.0401 16.1015 66.9204 16.1753ZM52.1489 15.7721C51.9718 15.6152 51.4605 15.7935 51.5905 15.8568C51.681 15.9002 52.3261 15.93 52.1489 15.7721ZM59.111 15.8552C59.0576 15.8267 58.5604 15.9211 58.5457 16.001C58.8279 16.0926 59.3542 15.9877 59.111 15.8552ZM50.7629 15.5591C50.65 15.5332 50.499 15.7753 50.5121 15.7863C50.6252 15.8789 50.9502 15.7006 50.7629 15.5591ZM112.366 16.86C112.198 16.7854 111.656 16.9498 111.534 17.1092C111.513 17.0772 111.455 17.0349 111.349 16.9831C111.349 16.9831 111.35 16.9831 111.35 16.9831C111.206 16.914 106.856 16.734 109.767 17.1191C109.858 17.1314 109.737 16.9827 110.108 17.0176C110.133 17.0201 110.142 17.1393 110.218 17.147C110.392 17.1639 111.321 17.2619 111.51 17.1708C111.511 17.1929 111.523 17.2142 111.548 17.2341C111.773 17.4112 112.495 16.9175 112.366 16.86ZM60.0921 15.8579C59.9937 15.8113 59.6776 15.8453 59.6423 15.9494C59.7973 16.0047 60.3206 15.9664 60.0921 15.8579ZM38.7091 15.2671C38.5085 15.1758 37.9906 15.3243 38.1437 15.4139C38.2377 15.469 38.9405 15.372 38.7091 15.2671ZM56.935 15.8353C58.0947 15.9883 57.2128 15.8322 57.3947 15.6827C57.2415 15.7336 57.0882 15.7844 56.935 15.8353ZM117.737 17.3913C117.553 17.3513 117.778 17.0531 117.978 17.223C118.041 17.2769 117.841 17.4132 117.737 17.3913ZM126.112 17.5055C125.96 17.2323 126.729 17.4098 126.424 17.587C126.409 17.5928 126.123 17.516 126.112 17.5055ZM120.264 17.2498C120.134 17.43 120.051 17.4497 119.698 17.3955C120.224 17.357 119.741 17.1827 120.264 17.2498ZM67.6366 16.0811C67.6385 16.0885 67.64 16.0941 67.6396 16.1009C67.6374 16.0941 67.6366 16.0877 67.6366 16.0811ZM49.6685 15.5795C49.5268 15.4206 49.1186 15.4219 49.2362 15.5812C49.2476 15.596 49.606 15.6928 49.6685 15.5795ZM111.534 17.1092C111.553 17.1375 111.543 17.1552 111.51 17.1708C111.509 17.1501 111.518 17.1307 111.534 17.1092ZM51.862 15.5075C51.8446 15.623 52.4644 15.6836 52.4896 15.6706C52.851 15.4785 52.1186 15.507 51.862 15.5075ZM34.6079 15.002C34.5756 15.0133 34.7746 15.3175 34.9042 15.2035C35.0045 15.115 34.729 14.959 34.6079 15.002ZM121.47 17.2051C121.667 17.2102 121.944 17.217 121.991 17.3603C121.86 17.3352 121.463 17.3092 121.47 17.2051ZM125.814 17.3029C125.578 17.4642 125.047 17.4505 124.709 17.4145C124.708 17.1945 125.595 17.3492 125.814 17.3029ZM112.897 16.9552C112.881 16.9459 112.39 16.868 112.453 17.0168C112.546 17.2351 113.034 17.0387 112.897 16.9552ZM35.5614 15.1845C35.7844 15.0887 35.2847 14.7646 35.0461 14.9994C34.9236 15.1196 35.5238 15.2006 35.5614 15.1845ZM48.3998 15.3445C48.1067 15.4224 48.824 15.592 48.9286 15.4407C48.7949 15.425 48.5039 15.3169 48.3998 15.3445ZM58.3032 15.4355C57.3974 14.9689 57.8766 15.7909 58.041 15.7237C58.0642 15.7141 58.3254 15.4465 58.3032 15.4355ZM5.84161 14.2377C5.71028 14.2961 6.18861 14.5315 6.2549 14.386C6.29589 14.295 5.9256 14.2005 5.84161 14.2377ZM72.1022 16.0678C72.0634 16.0682 72.025 16.0687 71.9869 16.069C72.0156 16.0625 72.0532 16.0611 72.1022 16.0678ZM45.7735 14.6843C46.4033 15.3269 46.3475 14.8423 46.4035 14.8464C46.5246 14.8561 46.802 15.0326 47.0311 15.0104C46.7678 15.0745 46.5044 15.1385 46.2411 15.2025C46.4466 15.2529 48.2359 15.5282 48.2761 15.4276C48.3336 15.2842 47.7676 15.3156 47.7515 15.3024C47.7282 15.2836 47.65 14.8792 47.598 14.8626C47.5124 14.836 46.0116 14.7903 45.7735 14.6843ZM56.3842 15.4572C56.5304 15.5087 56.5683 15.6691 56.6378 15.6327C56.6614 15.6203 56.669 15.4684 56.7496 15.431C56.6278 15.4398 56.506 15.4485 56.3842 15.4572ZM44.6037 15.2188C44.4257 15.0285 45.2431 15.1194 45.2688 15.1409C45.4058 15.2703 44.7493 15.3742 44.6037 15.2188ZM51.5554 15.365C51.5258 15.3534 50.8982 15.2797 50.9007 15.3829C51.0652 15.4656 51.9057 15.5095 51.5554 15.365ZM56.8483 15.4231C57.0689 15.4464 57.4828 15.6098 57.4406 15.3797C57.4403 15.3797 57.44 15.3797 57.4396 15.3797C57.2425 15.3942 57.0454 15.4087 56.8483 15.4231ZM36.3281 14.72C35.9277 14.3452 36.1102 14.8107 36.4699 14.9373C36.5839 14.7764 36.3938 14.7809 36.3281 14.72ZM35.0242 14.4155C34.9119 14.3471 33.7359 14.3897 33.9103 14.5871C33.9722 14.6574 34.6518 14.5009 34.6825 14.515C34.7292 14.5359 34.5085 14.7439 34.8697 14.7106C34.8504 14.6378 35.0627 14.4384 35.0242 14.4155ZM35.995 14.4781C35.5949 14.1907 35.4907 14.6998 35.7967 14.7088C35.9163 14.7127 36.052 14.5196 35.995 14.4781ZM37.6564 14.5631C37.5111 14.511 37.1228 14.4305 36.8497 14.5939C37.2091 14.6173 37.5686 14.6408 37.9281 14.6643C37.9719 14.569 37.7834 14.6089 37.6554 14.5631C37.6557 14.5631 37.656 14.5631 37.6564 14.5631ZM128.293 16.0537C127.973 15.9007 128.719 15.8637 128.75 15.9001C128.841 16.0207 128.436 16.1221 128.293 16.0537ZM3.43137 9.52967C3.34295 9.46963 3.28895 9.27799 3.0887 9.3727C3.28413 9.51804 3.47957 9.66338 3.67501 9.80872C3.83761 9.49091 3.52799 9.59587 3.43137 9.52967ZM2.70099 8.33547C2.72928 8.32838 2.5881 7.82993 2.94292 8.16919C3.18266 8.39827 1.84334 8.58234 1.60802 8.35703C1.87661 8.26174 2.45751 8.39294 2.70099 8.33547ZM0.417799 6.13625C0.403405 6.09642 0.911617 6.05118 0.969591 6.08045C1.27394 6.2347 0.495746 6.34964 0.417799 6.13625ZM2.03217 6.27091C1.79689 6.16894 2.32495 6.12014 2.48048 6.17932C2.49341 6.27177 2.06854 6.28582 2.03217 6.27091ZM125.196 8.80847C124.948 8.4659 124.7 9.18383 125.099 9.04788C125.118 9.04149 125.207 8.8252 125.196 8.80847ZM0.925679 5.64964C1.16095 5.75161 0.632893 5.80041 0.477367 5.74123C0.46506 5.6489 0.889831 5.63469 0.925679 5.64964ZM125.035 8.00315C124.7 7.75274 124.8 8.5676 124.842 8.60138C125.014 8.73496 125.625 8.43133 125.75 8.35518C124.845 8.45454 125.193 8.12115 125.035 8.00315ZM123.448 8.45144C123.129 8.53016 123.934 8.71598 124.095 8.49351C123.937 8.50041 123.538 8.42865 123.448 8.45144ZM121.531 8.14317C121.361 8.10985 120.856 8.02761 120.768 8.15323C120.955 8.13474 121.456 8.27282 121.531 8.14317ZM121.155 7.75079C120.893 7.57059 120.816 8.07473 121.127 7.93175C121.139 7.92621 121.164 7.76069 121.155 7.75079ZM119.662 7.53093C119.492 7.32546 119.281 7.81027 119.564 7.83052C119.648 7.83564 119.68 7.55445 119.662 7.53093ZM124.629 7.11908C124.381 7.02648 124.05 7.3692 124.584 7.42102C124.395 7.46994 124.206 7.51886 124.017 7.56778C124.711 7.78181 124.672 7.29412 124.873 7.31923C125.153 7.35481 125.12 7.75564 125.061 7.88027C125.297 7.64009 126.275 7.66052 126.842 7.62777C126.347 7.51219 125.546 7.3132 125.057 7.23561C124.918 7.21319 124.779 7.31989 124.66 7.3046C124.469 7.27951 124.643 7.12524 124.63 7.1191C124.63 7.1191 124.63 7.11909 124.629 7.11908ZM117.694 7.47465C117.186 7.23403 117.499 7.73401 117.791 7.65352C117.804 7.64707 117.707 7.48053 117.694 7.47465ZM0.281972 4.13791C0.962932 4.3606 0.457443 4.62068 1.903 4.24264C1.29272 4.52056 1.8644 4.45248 1.74377 4.56771C1.64702 4.65884 1.29516 4.5726 1.49612 4.76601C1.23091 4.55435 0.0559433 4.5818 0.00445086 4.54722C0.00495425 4.54723 0.00544238 4.54724 0.00593051 4.54725C-0.0250018 4.52676 0.0646743 4.06707 0.281972 4.13791ZM121.561 6.85684C121.404 6.25573 121.313 7.20137 120.989 6.69833C120.523 7.40548 122.227 6.72928 122.416 7.34109C120.586 7.22496 123.612 7.97242 122.356 7.03234C123.401 7.38822 122.704 6.92845 122.869 6.81678C123.046 6.69783 123.639 6.84665 123.614 6.62359C123.614 6.62358 123.613 6.62357 123.613 6.62356C123.248 6.63004 122.883 6.63653 122.518 6.64301C122.863 7.13145 122.122 6.96911 121.879 6.57207C121.773 6.667 121.667 6.76192 121.561 6.85684ZM123.612 7.35841C123.576 7.34653 122.782 7.394 122.831 7.49153C122.935 7.55556 124.062 7.50997 123.612 7.35841ZM127.103 7.34053C126.818 7.33227 126.38 7.22776 126.221 7.40472C126.506 7.41302 126.943 7.5176 127.103 7.34053ZM112.449 6.94127C112.083 7.08062 113.199 7.15239 112.88 6.9686C112.864 6.95993 112.467 6.93479 112.449 6.94127ZM120.733 6.92653C120.369 6.73495 120.529 7.31986 120.806 7.17538C120.822 7.16685 120.75 6.93528 120.733 6.92653ZM0.839694 4.08122C0.867918 3.93959 1.86086 4.0643 2.03734 4.06746C1.93379 4.19718 0.807335 4.24358 0.839694 4.08122ZM127.617 6.82087C127.063 6.29529 126.28 6.86692 126.196 6.85191C126.113 6.83667 126.25 6.61636 126.231 6.60989C126.188 6.59626 125.295 6.5928 125.251 6.60728C125.22 6.61865 125.374 6.93686 125.187 7.03125C125.551 6.86167 127.179 7.01399 127.265 6.98128C127.331 6.95512 126.845 6.61286 127.616 6.82084C127.616 6.82085 127.617 6.82086 127.617 6.82087ZM125.987 6.7782C126.207 6.91545 125.581 6.91636 125.431 6.864C125.098 6.74686 125.959 6.76188 125.987 6.7782ZM124.487 6.61938C124.416 6.58806 123.773 6.54518 123.714 6.69044C124.014 6.88823 124.647 6.69225 124.487 6.61938ZM117.317 6.4605C117.149 6.47512 116.692 6.35099 116.662 6.47845C116.83 6.46393 117.287 6.58798 117.317 6.4605ZM4.26385 3.04759C3.98853 2.93346 4.63371 2.90571 4.82033 2.96181C4.82839 3.04753 4.28729 3.05739 4.26385 3.04759ZM120.701 5.69991C120.603 5.65848 118.579 5.70535 118.294 5.75828C118.569 5.86208 120.572 5.91943 120.664 5.8744C120.691 5.86091 120.714 5.70635 120.701 5.69991ZM125.074 5.74967C125.264 5.56562 125.38 5.79491 125.403 5.79834C125.631 5.83292 126.108 5.80222 125.999 5.98133C125.596 5.89795 124.696 6.11515 125.074 5.74967ZM117.194 5.60321C116.506 5.65613 117.82 5.88774 117.652 5.68622C117.641 5.67402 117.266 5.59763 117.194 5.60321ZM120.928 5.65056C121.084 5.50187 123.102 5.68372 123.427 5.69203C123.129 5.96598 122.9 5.74656 122.509 5.75117C122.404 5.75275 122.429 5.87043 122.418 5.87033C122.235 5.8712 122.375 5.7395 122.262 5.73464C122.191 5.73195 120.71 5.86004 120.928 5.65056ZM125.183 5.6216C125.299 5.51627 126.563 5.50161 126.613 5.53162C126.987 5.75485 125.28 5.6617 125.183 5.6216ZM120.749 5.39594C120.975 5.07456 121.973 5.31843 121.282 5.46423C121.216 5.47742 120.942 5.32883 120.749 5.39594ZM117.276 5.29385C117.242 5.28339 116.528 5.20025 116.513 5.30391C116.615 5.34689 117.657 5.40912 117.276 5.29385ZM117.655 4.95144C117.638 4.9535 117.801 5.15794 117.466 5.12421C117.438 5.12113 117.391 4.89451 116.968 4.96648C116.882 4.98134 116.745 5.12709 116.755 5.13659C117.185 5.50113 118.524 4.85685 117.655 4.95144ZM125.211 5.43961C125.145 5.34281 125.316 5.06462 125.461 5.21126C125.523 5.27456 125.4 5.44102 125.211 5.43961ZM115.009 5.14604C115.429 4.98521 114.124 4.92031 114.056 4.96247C114.095 5.07015 114.967 5.16172 115.009 5.14604ZM4.94769 1.74227C4.94736 1.74226 4.94704 1.74225 4.94671 1.74224C5.29567 1.78975 5.07537 1.92677 5.09165 1.93165C5.83179 2.15939 5.64213 1.83191 5.75963 1.79674C6.01161 1.72064 5.96156 2.1119 6.3872 1.95977C5.68435 2.18257 6.32118 2.09769 6.33745 2.23774C6.40136 2.80919 5.41627 1.94796 5.06585 2.05867C5.01702 2.074 5.36993 2.26466 5.24461 2.31327C4.83716 2.47077 3.60867 1.56048 4.94769 1.74227ZM125.576 5.18921C125.742 5.02597 126.969 5.21889 126.639 5.34856C126.586 5.36935 125.331 5.42709 125.576 5.18921ZM68.0615 3.50953C68.361 3.37213 67.6794 3.18486 67.5494 3.29437C67.485 3.34894 67.9299 3.56983 68.0615 3.50953ZM63.2681 2.77047C62.9157 2.7911 62.53 3.38556 62.9698 3.30278C63.0165 3.29369 63.3063 2.85521 63.2681 2.77047ZM86.3511 3.6558C85.9893 3.43091 86.0011 3.83231 86.2708 3.83337C86.3661 3.83381 86.3625 3.66292 86.3511 3.6558ZM72.3355 3.35858C72.2991 3.34367 71.874 3.35869 71.8872 3.45121C72.0427 3.51039 72.5708 3.46055 72.3355 3.35858ZM86.4691 3.60165C86.2496 3.66848 86.6171 3.96774 86.8903 3.69103C86.7545 3.7109 86.4917 3.59483 86.4691 3.60165ZM120.013 4.49118C119.826 4.65123 119.312 4.58865 119.015 4.60956C118.988 4.39551 119.8 4.52457 120.013 4.49118ZM64.7548 3.05038C64.4181 3.19239 65.1283 3.3332 65.0678 3.13291C65.059 3.1219 64.768 3.0443 64.7548 3.05038ZM98.1995 3.87205C97.9544 3.99323 98.7184 4.18344 98.5125 3.95458C98.5023 3.94521 98.213 3.86531 98.1995 3.87205ZM101.553 4.02927C101.37 3.98179 100.587 3.97549 100.889 4.10719C100.935 4.12744 101.536 4.14544 101.553 4.02927ZM5.78412 1.64374C5.69065 1.42221 6.26352 1.48866 6.34476 1.52899C6.37666 1.54572 5.90603 1.93196 5.78412 1.64374ZM83.9672 3.56217C83.7765 3.58484 83.2851 3.52049 83.1954 3.63325C83.4285 3.61525 84.024 3.79265 83.9672 3.56217ZM66.2726 3.08715C65.9887 2.84189 65.4928 2.85305 65.6075 3.16712C66.1551 3.1599 65.5469 2.88588 66.2726 3.08715ZM87.6991 3.37592C87.5472 3.35396 87.423 3.64974 87.4399 3.66424C87.6016 3.80223 87.8476 3.4959 87.6991 3.37592ZM76.2603 3.33698C76.2547 3.20912 75.7649 3.25489 75.828 3.33867C75.8487 3.36678 76.2648 3.44045 76.2603 3.33698ZM113.618 4.25924C113.397 4.13716 114.084 4.04028 114.282 4.18133C114.376 4.37976 113.646 4.27333 113.618 4.25924ZM91.9221 3.55584C91.9495 3.36698 91.1835 3.45506 91.4804 3.61957C91.5547 3.66073 91.9125 3.61898 91.9221 3.55584ZM99.2355 3.5107C98.7178 3.72384 100.864 3.93777 100.306 3.6422C100.266 3.62114 99.2805 3.49274 99.2355 3.5107ZM102.743 3.73924C102.656 3.71215 102.716 3.07672 103.075 3.33128C103.122 3.36431 102.894 3.52698 102.932 3.56645C102.954 3.58895 103.747 3.69815 103.784 3.6842C103.824 3.66831 103.783 3.46314 103.823 3.44126C103.869 3.4168 104.354 3.60821 104.61 3.61655C105.093 3.63194 105.149 3.46343 105.189 3.46386C105.304 3.4656 105.495 3.591 105.729 3.59668C106.908 3.62469 108.714 3.52566 109.64 3.90895C108.812 3.74367 108.015 3.87732 107.187 3.9039C107.438 3.55549 105.963 4.14668 106.827 3.75896C106.431 3.83788 103.031 3.82417 102.744 3.73927C102.744 3.73926 102.744 3.73925 102.743 3.73924ZM61.8846 2.55748C62.106 2.34553 60.9964 2.3668 60.8961 2.61589C61.0415 2.65443 61.8572 2.58144 61.8846 2.55748ZM67.0117 2.15479C67.1156 2.11984 67.2238 1.69747 67.7583 1.92636C67.7588 1.92637 67.7593 1.92638 67.7598 1.92639C67.916 1.99324 67.7336 2.09227 67.7616 2.12988C67.7718 2.1452 68.2587 2.36878 67.8491 2.39259C67.2243 2.42919 67.7982 2.07509 67.4659 2.06231C67.4253 2.06095 66.7904 2.27523 66.8257 2.32661C66.8294 2.33259 67.0199 2.28866 67.0506 2.31042C67.1667 2.39223 67.106 2.52345 67.1225 2.53018C67.1765 2.54771 68.1771 2.3465 68.3169 2.54748C68.3623 2.61229 66.7256 2.71844 66.6627 2.68376C66.623 2.66191 66.6491 2.2941 66.6084 2.25685C66.5874 2.23827 65.9271 2.3599 65.8427 2.32392C65.8181 2.31352 65.7995 2.30249 65.7858 2.29344C65.8824 2.40985 65.2877 2.38683 65.3091 2.25874C65.3207 2.20847 65.7295 2.24791 65.7439 2.25711C65.7502 2.26101 65.7557 2.2663 65.7608 2.26999C65.6795 2.12904 67.0656 2.16983 66.7715 1.95575C67.1761 1.85257 66.7069 2.25744 67.0117 2.15479ZM68.9489 1.97574C68.9065 2.01343 68.864 2.05112 68.8216 2.08881C69.5274 2.01155 70.3346 2.2182 71.145 2.23699C71.3507 2.24204 71.12 1.99931 71.3879 2.07074C71.6026 2.12799 71.8361 2.35362 71.7175 2.39968C71.6885 2.41119 71.2524 2.25715 71.032 2.26636C70.3813 2.29365 70.5404 2.50084 70.5023 2.50538C70.4602 2.51011 70.0549 2.35709 69.8315 2.35789C69.2697 2.36035 69.0102 2.47866 68.2473 2.29663C68.6932 2.1738 68.458 1.87696 68.9489 1.97574ZM95.1605 3.06148C95.1904 2.9343 95.648 3.0592 95.8157 3.04458C95.7862 3.17209 95.3283 3.04686 95.1605 3.06148ZM26.5616 1.18665C26.415 1.39291 27.4735 1.47126 27.1985 1.2897C27.1377 1.24941 26.6947 1.19146 26.5616 1.18665ZM31.3195 1.43283C31.4628 1.37836 30.8956 1.2131 30.8927 1.37549C30.8922 1.42758 31.3011 1.43992 31.3195 1.43283ZM78.0375 2.40868C78.0645 2.40278 78.4533 2.45922 78.4653 2.4702C78.7181 2.69939 77.4377 2.53866 78.0375 2.40868ZM37.1139 1.31872C36.6163 1.44391 38.1022 1.54056 37.6521 1.35392C37.6297 1.34482 37.1378 1.31263 37.1139 1.31872ZM39.1823 1.33183C39.0636 1.33625 38.5393 1.25488 38.5308 1.31872C38.5177 1.42173 39.1181 1.5073 39.1823 1.33183ZM87.8217 2.58597C87.7705 2.34817 88.4597 2.54446 88.7016 2.5207C88.753 2.75866 88.0635 2.56212 87.8217 2.58597ZM83.4477 2.30264C86.3766 2.18914 85.7194 2.67811 83.2706 2.41344C83.2709 2.26171 83.2628 2.30978 83.4477 2.30264ZM87.1916 2.42392C87.0816 2.57271 86.7506 2.51953 86.5265 2.50181C86.5695 2.39753 87.0291 2.44711 87.1916 2.42392ZM25.3077 0.830532C25.4958 0.643808 26.3022 0.899869 26.1558 0.975174C26.1217 0.991377 25.2377 0.934052 25.3077 0.830532ZM78.2876 2.21251C78.2252 1.98093 79.101 2.09657 79.1669 2.1493C79.4328 2.3614 78.3599 2.16354 78.2876 2.21251ZM91.9773 2.48708C92.1368 2.31088 92.5749 2.41446 92.8581 2.42391C92.7253 2.57466 92.2175 2.49631 91.9773 2.48708ZM89.936 2.29507C89.954 2.2886 90.3486 2.3147 90.3661 2.32343C90.6854 2.50736 89.569 2.43449 89.936 2.29507ZM4.50565 0.000977726C4.51895 -0.00449681 4.81784 0.0144369 4.8281 0.0214656C5.09082 0.200994 4.1938 0.143303 4.50565 0.000977726Z" fill="#333333"/>
</svg>
