<svg width="180" height="18" viewBox="0 0 180 18" fill="none" xmlns="http://www.w3.org/2000/svg">
<path d="M166.122 0.137008C166.011 0.158142 165.563 0.103973 165.369 0.11232C165.59 -0.114875 166.524 0.0602566 166.122 0.137008ZM146.166 16.62C146.327 16.5643 146.489 16.5085 146.65 16.4527C146.193 16.4144 145.578 16.4534 145.154 16.3982C145.084 16.389 145.265 16.2264 145.101 16.2185C144.937 16.2106 144.967 16.4338 144.728 16.4568C144.46 16.4818 143.234 16.3217 142.809 16.3238C141.22 16.3328 139.616 16.454 138.024 16.3552C139.669 16.1965 138.013 16.0222 137.552 16.0919C137.45 16.1081 137.465 16.5229 135.816 16.4121C134.768 16.3418 135.738 15.7527 133.988 16.0429C135.331 16.4629 134.009 16.4287 132.954 16.4385C132.772 16.4402 131.305 16.3722 130.656 16.3881C130.434 16.3937 130.095 16.6096 129.801 16.6142C129.599 16.6171 129.446 16.4978 129.145 16.5027C127.743 16.5241 126.364 16.528 124.96 16.4824C125.783 15.9274 124.317 16.242 124.251 16.2151C123.917 16.0623 125.43 16.0249 124.832 15.9278C123.996 15.9419 123.159 15.956 122.323 15.9701C123.009 16.0412 121.413 16.4366 121.12 16.2529C121.247 16.7466 117.309 15.8089 116.709 15.9713C116.584 16.0056 117.401 16.2526 115.504 16.1337C115.298 16.1205 115.377 15.972 115.269 15.9855C115.204 15.9936 114.812 16.4651 114.397 16.2021C114.245 16.1061 115.219 15.7992 113.083 15.9159C113.931 16.4006 110.121 16.1652 109.42 16.0418C109.56 16.1071 109.7 16.1723 109.84 16.2375C109.147 16.0604 109.022 16.2236 108.866 16.214C108.236 16.1758 107.372 16.0075 106.786 16.0203C106.1 16.035 106.096 16.3344 105.297 16.2148C105.486 16.2816 105.676 16.3484 105.865 16.4152C105.313 16.3972 104.761 16.3791 104.209 16.3611C105.489 15.9697 103.933 16.3411 103.83 16.3493C103.667 16.3631 103.902 16.2017 103.629 16.2209C103.601 16.2241 103.641 16.377 103.22 16.3926C102.34 16.4245 102.48 16.233 102.11 16.2337C102.076 16.2346 102.194 16.3727 101.556 16.4028C99.5276 16.4987 101.567 16.2973 101.644 16.2786C101.747 16.2539 101.054 15.676 102.775 15.8866C102.197 15.8194 102.14 15.5646 102.075 15.5581C102.017 15.5527 101.015 15.5847 100.96 15.5932C100.467 15.6778 100.9 15.8534 100.803 15.8842C100.725 15.909 99.5182 15.6777 99.2331 16.1998C98.6573 15.715 99.5673 15.7627 100.536 15.6922C100.678 15.5937 99.6145 15.4933 99.5586 15.4934C98.1863 15.489 98.9445 15.8889 98.6435 16.1415C98.4854 16.2737 97.9274 16.0007 98.4422 16.3586C97.1965 16.3914 97.9527 16.1881 97.8723 16.1572C97.7511 16.1119 97.3149 16.2123 97.2604 16.1985C97.1804 16.178 97.4592 16.0559 97.1437 16.0112C97.0912 16.0047 96.5817 16.2148 97.2373 16.3187C96.361 16.2852 96.4325 16.4663 96.1367 16.1007C95.5304 16.7879 95.7003 15.6915 95.4627 15.652C94.8311 15.5477 95.0124 16.0897 94.9789 16.116C94.7483 16.2843 92.9994 16.0916 92.5658 16.1679C92.7382 15.7787 93.9528 16.169 94.225 16.0944C95.1325 15.8463 92.948 15.8946 93.6083 15.4072C93.3317 15.5407 93.0552 15.6742 92.7786 15.8077C92.2738 15.4907 92.9923 15.3561 91.6298 15.466C91.406 15.737 92.593 15.4268 92.3543 15.64C92.2135 15.7652 91.4237 15.7891 91.4079 15.8553C91.392 15.935 92.1062 15.8432 91.9932 15.9655C91.7466 16.2293 89.144 15.9672 91.1264 15.8304C90.5736 15.8328 90.2908 15.3051 89.8108 15.4673C89.5005 15.5726 91.2416 16.3066 88.6257 16.1632C88.5709 15.9143 89.6721 16.0938 89.7007 16.075C89.741 16.0476 89.5438 15.4857 89.5094 15.4579C89.3878 15.3662 86.7148 15.6564 86.1513 15.3723C86.3735 15.6975 84.1321 15.4224 83.8875 15.5203C83.8223 15.5473 84.0646 15.7469 83.995 15.7677C83.5609 15.8911 82.3894 15.532 81.8453 15.5207C81.2365 15.508 81.313 15.6798 81.2789 15.6794C81.011 15.6688 81.2255 15.5533 81.0617 15.553C80.8143 15.5526 79.114 15.5223 79.0285 15.5462C79.0035 15.5537 79.2804 15.7507 78.9095 15.7865C78.8453 15.7927 78.8869 15.5605 77.7887 15.6566C76.4661 15.7723 78.7057 15.9491 78.1554 16.1903C77.3075 15.8406 77.3337 16.1841 77.1035 16.1562C77.0238 16.1461 76.4315 15.8519 75.7869 15.8679C76.2497 15.8223 76.7125 15.7767 77.1752 15.7311C76.7207 15.6781 75.8373 15.7381 75.4629 15.6788C75.2802 15.65 75.4318 15.4107 75.0347 15.4157C74.9504 15.418 74.6139 16.001 75.6549 15.7428C75.7372 15.9518 75.2429 15.814 75.0131 15.8722C74.9783 15.8812 74.84 16.2292 74.5477 16.0115C74.4775 15.9579 75.2478 14.9442 73.2683 15.6724C73.2046 15.6959 73.4254 15.8241 73.3631 15.8502C73.3205 15.868 72.8161 15.8145 72.7603 15.8324C72.7032 15.8515 72.9463 15.9915 72.8783 16.0186C72.5298 16.1582 72.0751 15.6051 72.7926 15.6499C72.553 15.5808 72.3133 15.5117 72.0737 15.4427C72.3288 15.8592 71.6965 15.5581 71.3646 15.5697C69.2372 15.6433 70.6605 15.919 70.2943 16.0574C69.7052 16.2796 70.1572 15.5703 69.2832 15.7806C69.2024 15.8003 70.2567 16.1061 68.1963 15.9279C68.5006 15.9173 68.8048 15.9067 69.109 15.8961C68.9352 15.4936 68.0105 15.9195 67.9395 15.9248C67.13 15.9769 67.6777 15.8341 66.4751 16.0365C66.3677 16.0546 66.1343 15.9546 65.9047 16.0031C64.9525 16.2033 67.1595 16.1317 67.2192 16.2946C67.2475 16.3744 64.8745 16.3452 64.7932 16.3071C64.4479 16.1379 65.8692 16.2373 65.599 16.0279C65.5004 15.9536 62.1175 16.0925 61.4393 16.0088C60.6566 15.9115 60.3062 15.3652 60.2988 15.9774C60.0802 15.3756 59.8834 15.7849 59.7832 15.7804C58.5725 15.7201 58.5704 15.714 57.5317 15.7676C57.3024 15.7792 57.1095 15.5961 57.0282 15.6266C56.981 15.645 57.0684 15.8405 56.837 15.8998C56.5155 15.9809 54.5859 15.7728 54.4428 15.6644C54.2998 15.556 55.2582 15.6207 55.0871 15.4427C54.3932 15.4221 53.7276 15.4634 53.0291 15.4421C52.739 15.4327 52.8886 15.3091 52.7632 15.3061C52.7099 15.3044 51.7076 15.4099 51.7498 15.4558C51.8489 15.5627 54.9429 15.503 54.1274 15.7171C53.9701 15.7585 53.4159 15.4703 53.5029 15.8185C50.7391 15.729 47.9755 15.6395 45.2117 15.55C46.8008 15.296 48.5871 15.5355 50.2506 15.5175C50.4786 15.5154 51.2492 15.5519 51.1562 15.3757C49.7419 15.3248 47.983 15.4096 46.6252 15.2898C46.5817 15.2858 46.7419 15.1285 46.5792 15.1029C46.2751 15.055 45.2832 15.3059 45.1168 15.2394C45.0884 15.2239 45.6531 15.0179 45.4821 14.8849C45.0432 14.5436 44.9286 15.2953 44.5501 15.2849C44.2575 15.2766 42.2921 14.9054 41.8013 15.1332C41.2795 15.3761 43.2503 15.281 43.104 15.4807C41.77 15.6768 40.421 15.4567 39.1612 15.4769C39.139 15.4775 39.331 15.6351 39.0499 15.656C38.5606 15.6923 38.4331 15.4693 38.1952 15.4327C37.9386 15.3939 37.0306 15.4223 36.9094 15.3406C36.894 15.3299 37.0788 15.1099 37.1067 15.1038C37.5026 15.0143 37.642 15.3014 37.6779 15.3052C37.8131 15.3166 37.9464 15.2073 38.0697 15.2144C38.2727 15.226 38.3842 15.328 38.6522 15.338C38.8371 15.3453 38.6594 15.1496 38.8376 15.1592C38.903 15.1635 39.6071 15.6115 39.6746 15.1572C39.6956 15.014 33.9246 14.8078 33.3473 14.9202C33.8419 14.9767 34.3366 15.0333 34.8312 15.0898C33.8268 14.9529 32.6182 15.3114 32.5348 14.7739C28.8085 14.7156 25.0822 14.6573 21.3559 14.5991C20.6907 14.5508 21.0569 14.2069 19.9618 14.3032C20.2443 14.4143 20.5267 14.5253 20.8092 14.6364C20.2484 14.5571 17.7627 14.3968 17.3601 14.4665C17.3079 14.4756 17.2344 14.7878 16.613 14.8122C16.0617 14.8338 15.974 14.5994 15.6795 14.5534C15.4322 14.5154 15.154 14.5757 15.0807 14.5625C15.0243 14.5519 15.0026 14.4087 14.8671 14.3832C14.4394 14.3044 14.7847 14.7088 14.3616 14.2443C14.4651 14.227 14.5686 14.2098 14.6721 14.1926C14.1558 14.1236 13.4508 13.9107 14.2122 13.81C14.3431 13.7926 14.2302 13.9306 14.3278 13.9308C18.1489 13.9197 15.0987 13.6388 13.7588 13.8487C13.4157 13.6422 11.4879 13.76 11.424 13.7194C11.3351 13.6604 11.6656 13.4977 11.2338 13.3544C11.143 13.3241 8.56554 13.4291 9.49456 13.1599C9.68623 13.1044 10.9216 13.1682 11.2194 13.1614C10.5203 12.7237 8.87518 13.3406 8.69053 13.3239C7.94567 13.2532 10.1235 12.9524 8.44499 12.8954C7.15431 12.8517 8.36504 13.1468 7.86812 13.2688C7.58886 13.3373 6.12928 13.0117 6.16734 13.4262C5.66576 13.4686 5.96003 13.2503 5.89822 13.2343C5.83773 13.2202 4.85139 13.3404 4.53168 13.2518C4.49294 13.2408 4.61595 13.0259 4.57588 13.0082C4.49793 12.9777 3.54698 13.0171 3.50871 13.0352C3.48435 13.0478 3.71033 13.2372 3.61693 13.2826C3.50817 13.3349 2.59338 13.287 2.54277 13.3407C2.4712 13.4219 3.60086 13.3726 3.41185 13.5827C2.8914 13.5276 2.04263 13.665 1.69834 13.8334C1.78273 13.7852 2.28756 13.7802 2.46273 13.798C2.37907 14.1065 1.29517 14.0981 1.66667 13.8551C1.43062 13.9855 1.5912 14.0557 1.45805 14.1791C1.42314 14.2103 1.08847 14.2155 1.02374 14.2687C1.01528 14.2794 1.36019 14.3972 1.29079 14.4597C1.16517 14.5725 0.150575 14.5431 0.067656 14.5131C-0.165729 14.4279 0.662001 14.3291 0.731491 14.1991C0.741344 14.1792 0.0386988 13.9212 0.0281329 13.8986C-0.0120978 13.6566 0.770243 13.8339 0.681549 13.6158C0.48809 13.569 0.294632 13.5223 0.101173 13.4755C0.848888 13.2579 2.2303 13.3766 2.58754 13.1271C1.47988 13.1975 0.320978 13.1842 0.32556 12.6193C0.327251 12.3814 0.805567 12.2438 0.787311 12.1832C0.717695 11.9665 0.0535242 12.1991 0.0292206 12.1875C0.00909385 12.1743 -3.83254e-05 12.1614 -6.94076e-06 12.1489C-6.91875e-06 12.1489 -6.89858e-06 12.1489 -6.8784e-06 12.1489C0.000525848 12.0221 0.946231 11.9345 0.993801 11.8768C1.07374 11.7744 0.65458 11.3497 0.655594 11.2561C0.670328 11.2373 1.34396 11.1398 1.11743 10.9756C0.888198 10.8098 0.298967 10.8039 0.278363 10.7866C0.166198 10.6875 1.19732 10.6015 1.22826 10.5433C1.24457 10.5139 0.69175 10.3308 0.675833 10.2787C0.662244 10.2264 1.08337 10.1141 1.24977 9.94989C1.37385 9.8279 1.01428 9.73263 1.07765 9.71368C1.12295 9.70113 2.09684 9.70696 2.14483 9.68562C2.21625 9.65405 1.9887 9.50682 2.02206 9.47035C2.06935 9.4179 2.38365 9.47194 2.34293 9.41763C2.31232 9.37715 1.09498 8.86794 1.1034 8.73321C1.11823 8.50341 2.40738 9.03724 1.20941 8.12555C1.20104 8.11956 0.908344 8.1829 0.900225 8.17729C0.72036 8.0097 1.65891 7.75659 0.512339 7.79705C2.64601 7.5154 0.779047 7.45254 1.09607 7.06672C1.21851 6.91843 2.0454 6.86026 2.04935 6.83795C1.96972 6.64892 1.70579 6.79428 1.6166 6.7014C1.56752 6.6495 2.30792 6.45281 2.14197 6.3226C2.05615 6.2555 1.27093 6.27624 1.23855 6.26309C0.928319 6.13905 1.30988 6.0082 1.24192 5.92068C1.19684 5.86201 0.723018 5.85555 0.71075 5.84497C0.690851 5.82298 1.33513 5.58908 1.46943 5.5065C1.57155 5.44296 1.18954 5.34133 1.26074 5.31373C1.68968 5.14872 2.59922 5.57729 1.72348 4.97828C1.66998 4.94155 1.33783 4.95502 1.32807 4.9477C1.12345 4.77806 1.73507 4.76582 1.84499 4.62802C2.0337 4.39056 1.15428 4.51997 1.88586 4.35528C1.33811 4.19741 1.03254 4.20274 0.390734 4.24369C2.16784 4.1294 2.79726 3.51522 0.824739 3.52316C1.45216 3.53518 1.38388 3.18692 1.57108 3.18153C1.6875 3.17858 2.59591 3.52807 2.18181 2.75014C2.12983 2.65297 1.57672 2.77406 1.75057 2.57624C3.07673 2.63199 1.77919 2.45005 1.77793 2.42381C1.79688 1.96658 5.03643 2.35359 5.59349 2.30359C6.23993 2.24559 6.8156 1.88746 6.95606 1.88755C7.41819 1.88916 7.03399 2.07065 7.13706 2.13831C7.24153 2.20537 8.55707 1.85993 8.62263 1.87943C8.87688 1.95773 8.61767 2.17353 8.64411 2.18458C8.95879 2.31864 10.7244 2.15567 11.2183 2.20797C11.2036 2.06727 10.2116 2.05229 10.8318 1.82878C11.554 1.56819 11.593 2.18835 11.6117 2.21571C14.9164 2.22254 18.2211 2.22937 21.5257 2.2362C21.4858 1.90618 19.3243 2.14663 19.2753 2.10303C18.9878 1.84479 22.6374 1.86356 23.0847 1.98175C22.7449 1.90919 22.405 1.83663 22.0652 1.76407C22.6474 1.38708 23.9308 1.88472 24.7715 1.72052C25.0431 1.66729 24.5225 1.51892 24.5333 1.50896C24.8389 1.36285 25.3279 1.47821 24.9612 1.67456C25.7065 1.48794 25.5969 1.69658 26.1682 1.71448C26.1976 1.71525 25.9529 1.56127 26.4052 1.49956C26.6171 1.47077 27.7469 1.47463 27.8986 1.34136C27.9611 1.28524 27.3903 0.689579 27.3176 1.20008C26.0898 0.946371 26.924 1.43132 26.4467 1.41775C26.3735 1.41479 26.5431 1.13034 25.3404 1.25992C25.5714 0.746679 26.9541 1.13644 27.1917 1.07508C27.6815 0.948952 25.666 0.6757 25.2945 1.07504C25.4689 0.674504 25.1516 1.02042 24.7022 1.0022C24.2102 0.982425 24.4251 0.863781 24.1588 0.862109C23.4307 0.85632 23.7315 1.14068 23.1322 0.883063C23.7144 1.67569 22.1042 0.983405 21.635 0.774578C22.3999 0.737398 23.1647 0.700217 23.9296 0.663037C23.886 0.621363 23.8425 0.57969 23.7989 0.538017C24.0003 0.544671 24.2017 0.551326 24.4031 0.557981C24.3707 0.597632 24.3383 0.637284 24.3058 0.676936C25.3454 0.422315 25.5977 0.713952 25.6824 0.71751C26.7725 0.75542 28.0318 0.757763 29.1341 0.762953C29.2995 0.763732 29.1869 0.504598 30.3916 0.711756C30.7758 0.777726 30.412 0.97758 30.848 0.949057C31.3952 0.404297 31.3833 0.840434 31.5454 0.841749C32.0105 0.843469 32.2953 0.709092 32.3383 0.70783C32.913 0.688901 33.7546 0.714757 34.3859 0.697028C34.3978 0.69501 34.07 0.525732 34.4798 0.577022C34.6238 0.595327 35.9126 1.3175 37.0425 1.08806C36.7491 1.03851 36.4556 0.988956 36.1621 0.939405C36.5072 1.0084 38.9274 0.83696 38.3365 0.6427C37.9743 0.523968 37.0872 0.982847 36.9918 0.537914C37.7964 0.674063 42.2441 0.492173 42.5899 0.596801C42.6377 0.611725 42.3425 0.754839 42.4086 0.773541C42.4598 0.787794 43.4785 0.757535 43.6136 0.813455C43.6939 0.846678 43.2435 0.933353 43.2799 0.985458C43.3118 1.02263 44.5836 1.08929 44.6569 0.908781C44.3443 0.980152 43.4665 0.913401 43.9276 0.76278C43.9869 0.744084 44.2934 0.861874 44.3654 0.838137C45.0339 0.619184 43.0385 0.664685 42.7297 0.661672C43.9839 0.43616 45.9213 0.715143 47.374 0.570582C47.9602 0.723318 46.5032 0.797433 47.1666 0.924659C48.5429 1.18838 47.5339 0.71798 47.5767 0.698992C47.9194 0.548492 49.0814 1.3666 49.0845 0.747335C49.5834 0.842475 49.4215 0.91993 50.1265 0.841618C50.0339 0.798372 49.9414 0.755127 49.8489 0.711882C50.6326 0.356177 52.2849 1.26754 52.1605 1.3361C51.8261 1.51957 50.9649 1.22806 50.8913 1.23471C50.7822 1.24455 50.4785 1.87178 49.2876 1.30533C48.7975 1.72492 51.1774 1.59707 50.0936 1.88017C50.825 1.83584 53.8318 2.14076 54.2655 1.95744C54.3172 1.93349 54.0782 1.51262 54.8205 1.72922C55.1729 1.83235 54.3222 1.83397 54.4833 1.93026C54.9788 2.22578 61.7354 2.06395 63.0187 2.05336C63.102 2.05322 63.0709 2.18343 63.1528 2.18255C63.4042 2.17988 64.3213 1.98905 64.7711 2.05077C63.8396 1.80594 65.6504 1.79414 66.111 1.82245C66.8099 1.86556 66.7658 2.09475 67.0676 2.14469C68.2309 2.33717 70.0367 1.79957 70.9391 2.31211C70.8915 1.80668 72.5023 2.56584 73.2363 2.57309C73.8113 2.57892 74.6468 2.24779 73.8715 2.04115C74.8639 2.06823 75.9091 1.97799 76.8403 1.95088C76.9942 1.94632 76.7817 2.0949 77.0444 2.08241C77.0682 2.08019 77.1017 1.93391 77.3272 1.91955C79.1891 1.79909 78.2822 2.10673 78.6301 2.19953C78.8248 2.2515 78.9685 2.27752 79.074 2.28633C77.989 2.31078 76.7373 2.36346 76.4026 2.36633C76.6868 2.69074 78.8076 2.31348 79.4279 2.40287C79.4494 2.40611 79.3738 2.58402 79.3956 2.58537C79.3961 2.58537 79.3966 2.58537 79.397 2.58537C79.6295 2.59992 81.1112 2.53985 80.807 2.3262C80.7254 2.26912 80.0435 2.2666 79.2347 2.2828C79.4538 2.24378 79.2911 2.04353 79.3298 2.03516C79.7986 1.93829 80.9452 2.13754 81.3522 2.16538C81.4452 2.17151 81.439 2.04359 81.4543 2.04333C81.8244 2.07381 81.6711 2.43841 82.0523 2.06327C82.7209 2.52098 80.7956 2.12601 80.9303 2.42213C81.0337 2.65012 85.3139 2.54434 85.3025 2.18577C85.3171 2.22417 85.3758 2.27199 85.4963 2.32659C85.7634 2.44793 86.9548 2.41488 87.1606 2.3496C87.1954 2.33673 87.1829 1.98868 87.2259 1.98563C87.3335 1.97805 88.7884 2.25649 89.333 2.05288C89.0395 2.00299 88.7461 1.95309 88.4526 1.90319C90.226 1.90699 89.9523 1.80237 89.3618 1.69605C89.3323 1.69499 89.3036 1.68167 89.2754 1.68015C88.8177 1.60145 88.2309 1.5251 88.2221 1.49762C88.1889 1.39274 91.1978 1.34602 90.6179 1.66663C90.537 1.71045 89.1455 1.56135 89.8339 1.79436C89.9543 1.83518 90.8486 1.77287 90.8954 1.79845C91.209 1.96846 89.2559 2.18522 89.4936 2.42602C89.9683 2.19946 90.5759 2.32208 91.1196 2.26521C91.367 2.23951 91.4284 2.06527 91.4589 2.0621C91.915 2.01831 91.6584 2.20025 91.8106 2.19627C91.8923 2.19344 92.7922 1.80756 92.6203 2.34362C95.582 1.96018 93.4407 1.95234 91.6247 1.97557C92.1992 1.78231 93.3238 1.88118 93.8287 1.83774C94.0099 1.82197 93.9033 1.64246 94.2093 1.60781C94.8393 1.53655 97.8449 1.75385 98.6279 1.80536C98.1467 1.86679 98.2866 2.06241 98.6579 2.05036C99.0293 2.03821 98.7184 1.77663 98.7909 1.74891C98.8686 1.72023 100.61 1.84984 100.9 1.81721C99.5883 1.90648 99.8834 2.10216 100.996 2.1268C100.835 2.18221 100.674 2.23762 100.513 2.29304C101.166 2.2168 102.536 2.51884 102.914 2.43198C102.973 2.41801 102.761 2.25362 102.794 2.24578C103.125 2.17755 104.25 2.34869 104.303 2.29309C104.347 2.2468 103.868 2.10782 104.046 2.04099C104.083 2.02692 104.545 2.24979 105.001 2.1972C105.171 2.17785 105.069 2.02277 105.112 2.01396C105.467 1.94092 105.257 2.20061 105.906 2.16125C106.381 2.1321 106.737 1.87878 107.393 1.96566C105.237 1.63271 107.05 1.77529 107.953 1.68039C108.097 1.66525 107.974 1.38394 108.838 1.52399C106.997 2.02471 109.361 1.79441 109.844 1.8018C109.87 1.80363 109.879 1.98886 110.116 1.99274C110.136 1.99265 110.107 1.86739 110.328 1.85866C112.417 1.77621 111.081 1.91246 111.477 2.0374C111.646 2.09064 112.663 1.91757 112.936 1.91435C112.999 1.91415 112.97 2.04408 113.213 2.03993C113.644 2.03225 114.03 1.89529 114.314 1.88541C114.348 1.88489 114.348 2.09009 114.887 2.02562C115.039 2.00759 115.209 1.93539 114.994 1.87557C114.281 1.67879 112.927 2.0094 112.121 1.81263C111.386 1.63343 113.705 1.62572 113.826 1.62515C113.87 1.62468 113.417 1.72482 113.877 1.74675C114.27 1.76505 114.989 1.41341 115.575 1.49283C115.619 1.49873 116.086 1.80102 116.064 1.81846C116.045 1.83119 115.326 1.89365 115.43 1.98101C115.442 1.99096 115.899 1.9907 115.958 2.05568C116.031 2.13477 116.225 2.90893 116.322 2.9287C116.572 2.97757 116.41 2.80055 116.572 2.81344C116.919 2.84065 118.122 3.074 118.162 2.80607C117.964 2.78939 117.765 2.77272 117.566 2.75604C118.673 2.73273 118.201 2.6168 118.358 2.56713C118.527 2.51339 118.479 2.74884 118.852 2.7724C118.933 2.77758 120.494 2.7344 120.466 2.63542C119.602 2.78946 119.923 2.49949 119.884 2.49413C119.733 2.47458 119.539 2.63718 119.336 2.63315C117.909 2.60209 119.349 2.34981 119.012 2.28221C118.897 2.25946 118.665 2.398 118.616 2.39068C118.456 2.36697 118.454 2.18436 118.347 2.19872C118.098 2.23204 118.388 2.49154 118.368 2.50491C118.145 2.66575 117.274 2.46121 117.818 2.18216C117.493 2.07959 117.453 2.42112 117.196 2.28353C116.683 2.01107 117.452 2.08351 117.661 2.0394C118.409 1.88026 118.63 2.01226 119.689 1.97145C120.07 1.95708 120.522 1.79284 120.699 1.78441C120.81 1.7791 121.86 2.36062 121.894 1.45696C122.303 1.54598 122.942 2.14402 123.363 2.1184C123.741 2.09501 123.622 1.77481 123.658 1.76258C123.712 1.74335 124.169 1.77031 124.324 1.72571C124.505 1.67303 124.415 1.55064 124.703 1.502C125.419 1.38131 125.399 1.70761 125.473 1.72909C126.326 1.97753 125.954 1.51189 126.143 1.47537C126.319 1.44184 128.79 1.63001 129.311 1.51454C129.099 1.57909 128.887 1.64365 128.675 1.70821C129.053 1.91323 129.456 1.58274 129.462 1.94782C129.541 1.35875 130.322 1.75571 130.557 1.74138C130.649 1.73547 130.642 1.63501 130.758 1.63113C131.211 1.61526 132.231 1.69913 132.477 1.64916C133.54 1.43399 130.826 1.05885 130.612 1.036C131.04 1.04415 133.461 0.921459 132.35 0.63385C132.178 0.589474 131.872 0.852045 131.775 0.861998C131.121 0.927389 131.636 0.693016 131.585 0.67034C131.498 0.633721 131.067 0.86055 130.954 0.832896C130.916 0.824027 131.161 0.610951 130.537 0.60405C130.844 0.397755 132.596 0.573531 132.827 0.525694C132.909 0.508612 132.397 0.0633028 133.895 0.499712C133.878 0.458486 133.861 0.41726 133.843 0.376034C134.679 0.362298 135.514 0.348563 136.349 0.334827C136.258 0.429304 135.788 0.617967 136.379 0.579826C136.719 0.557746 136.469 0.345565 136.5 0.339556C136.805 0.282594 142.205 0.373651 143.252 0.354113C143.608 0.347834 144.601 0.181906 144.677 0.179043C145.13 0.163792 146.731 0.28044 147.051 0.257697C147.251 0.243089 147.062 0.0657928 147.24 0.0747593C147.406 0.0833399 147.233 0.253334 147.283 0.260662C147.69 0.324071 150.788 0.112154 151.523 0.275935C151.074 0.225888 148.829 0.558216 148.874 0.678728C148.884 0.695265 149.428 0.827183 149.541 0.764305C149.726 0.912774 150.366 0.465364 150.713 0.555056C150.752 0.565242 150.596 0.816987 151.216 0.865171C151.429 0.881642 151.988 0.687097 152.55 0.909732C153.364 0.806926 157.642 1.15064 157.937 0.880644C157.945 0.866364 157.343 0.770689 157.751 0.660986C158.292 0.51517 157.804 1.01149 158.435 1.05689C158.53 1.06379 160.285 1.02012 160.343 0.989513C160.875 0.711961 159.342 0.592727 159.364 0.560314C159.418 0.478674 160.692 0.434056 160.744 0.453555C160.793 0.473825 159.752 0.840299 161.002 0.70462C160.859 0.659798 160.716 0.614976 160.573 0.570153C161.161 0.486189 161.216 0.742705 161.358 0.75891C161.8 0.810181 162.28 0.422712 162.987 0.906294C163.174 1.03463 162.862 1.17514 162.885 1.19437C163.11 1.367 163.399 0.908623 163.736 1.25264C163.761 1.2783 162.973 1.48058 164.35 1.48639C164.255 1.45317 164.16 1.41995 164.066 1.38672C164.26 1.31411 165.654 1.27588 165.842 1.29394C166.39 1.34673 165.911 1.58077 166.462 1.5547C166.11 1.23009 167.784 1.19434 167.687 1.47225C167.922 1.12364 169.344 1.39873 170.012 1.40959C170.434 1.41619 171.295 1.26699 171.429 1.28534C171.592 1.30783 171.542 1.54606 171.837 1.60027C171.921 1.61574 172.799 1.44433 173.569 1.6941C173.718 1.74223 174.03 2.14786 173.752 2.24787C173.276 2.41901 172.379 2.08974 172.389 2.32875C172.402 2.58444 173.613 2.43706 173.939 2.47168C175.442 2.63178 174.573 2.90019 174.611 2.98271C174.71 3.18301 175.532 3.17996 175.567 3.19807C175.708 3.27845 175.125 3.43442 175.116 3.5564C175.105 3.71521 175.896 4.00496 175.716 4.05781C175.458 4.13286 174.73 3.89111 174.684 3.90235C174.083 4.05416 174.905 4.42433 175.131 4.60551C175.2 4.66125 174.925 4.75136 174.982 4.76785C175.852 5.01807 175.168 4.25276 175.747 4.30593C176.264 4.35332 175.598 4.59193 175.617 4.60531C175.643 4.62002 176.261 4.63554 176.357 4.72126C176.405 4.76417 174.797 5.22711 174.863 5.43771C175.376 5.39333 175.888 5.34896 176.401 5.30458C176.44 5.57899 175.704 5.37427 175.627 5.40226C175.474 5.45841 175.901 5.59884 175.883 5.68548C175.872 5.7406 175.369 5.93546 175.823 6.01833C175.979 6.04695 176.307 5.85592 176.874 6.05454C174.896 6.29783 176.266 6.45727 176.323 6.55464C176.38 6.652 175.436 6.87702 176.581 6.84099C176.629 7.37491 176.556 7.0096 176.23 7.10216C175.831 7.21594 176.752 7.39523 175.295 7.25629C175.377 7.50649 176.548 7.49332 176.61 7.51349C176.664 7.53177 176.403 7.65368 176.496 7.69568C177.592 8.18275 176.838 7.95936 177.155 8.26892C177.183 8.29658 178.221 8.41489 177.431 8.45676C175.991 8.53286 175.39 8.17644 175.146 8.93255C176.209 9.26549 177.501 8.78179 177.825 8.77475C178.32 8.76473 177.807 8.91715 177.867 8.96066C177.889 8.97471 178.316 8.96361 178.321 8.97589C178.623 9.55446 176.421 8.97816 175.726 9.0759C175.912 9.16308 176.097 9.25027 176.283 9.33745C176.031 9.33994 175.778 9.34243 175.526 9.34492C176.728 9.52336 175.568 9.41089 175.266 9.87727C175.199 9.98206 175.989 9.80494 175.087 10.0934C175.751 10.1634 175.539 10.2581 176.141 10.1286C176.125 10.316 174.77 10.5222 174.235 10.6163C176.122 10.8341 175.048 10.1426 176.678 10.5125C176.982 10.2817 176.203 10.3239 176.267 10.2858C176.495 10.149 177.028 10.3697 177.674 9.88964C177.78 9.81082 177.337 9.56527 177.993 9.57958C178.066 9.58153 178.484 9.79152 178.478 9.80661C178.422 9.9696 178.008 9.90685 177.991 9.97491C177.974 10.0393 178.437 10.0023 178.438 10.0202C178.451 10.2247 178.052 10.0969 178.11 10.1611C178.235 10.3008 179.896 10.7472 177.726 10.61C179.529 10.3857 177.958 10.3851 177.256 10.4712C177.077 10.4928 177.031 10.6147 176.776 10.6561C176.448 10.7097 176.064 10.6496 175.894 10.6714C175.712 10.6954 176.748 10.9881 175.248 10.8962C176.01 11.1863 177.36 10.8853 178.109 11.0898C179.621 11.503 177.052 11.5806 176.785 11.6191C176.713 11.6295 176.952 11.7954 176.904 11.8053C176.826 11.8205 175.369 11.7386 175.225 11.8746C175.081 12.0104 175.759 11.8703 175.803 12.0127C175.833 12.1086 174.075 12.2717 175.026 12.3407C175.682 12.3881 176.893 12.008 177.095 12.4224C176.13 12.4529 175.165 12.4834 174.2 12.514C174.727 12.6734 175.255 12.8328 175.782 12.9922C174.699 13.0379 173.764 12.8567 172.735 13.078C175.204 13.5918 171.931 13.4774 171.894 13.5386C171.882 13.5753 172.853 13.9883 173.01 14.0638C172.147 14.2179 169.528 14.2848 171.058 14.7961C170.78 14.6809 170.106 14.96 170.115 14.9813C170.199 15.205 171.669 15.0658 171.428 15.2666C171.15 15.4995 170.762 15.1805 170.335 15.2042C168.142 15.328 168.739 16.496 166.542 16.3031C166.586 16.3447 166.629 16.3864 166.673 16.4281C164.284 16.3528 161.896 16.2776 159.507 16.2023C158.571 16.5547 156.083 16.7619 154.861 16.7178C154.615 16.7092 153.408 16.5177 153.317 16.4846C153.149 16.4212 154.077 16.4008 153.658 16.2815C153.569 16.257 151.525 16.1707 151.67 16.3704C151.899 16.3943 152.617 16.297 152.734 16.3444C153.557 16.6825 147.254 16.3907 146.941 16.5244C147.081 16.5896 147.22 16.6549 147.359 16.7201C146.962 16.6867 146.564 16.6534 146.166 16.62ZM164.507 0.695274C164.747 0.49636 165.345 0.648749 165.698 0.594016C166.187 0.517344 167.02 -0.248959 166.66 0.520929C165.942 0.579044 165.225 0.637159 164.507 0.695274ZM154.025 0.357153C154.505 0.466337 154.13 0.895652 153.737 0.715071C153.693 0.694552 153.374 0.210179 154.025 0.357153ZM159.067 0.580961C159.046 0.586588 158.631 0.573587 158.616 0.566777C158.244 0.392395 159.497 0.432564 159.067 0.580961ZM134.705 0.708282C135.235 0.691725 134.853 0.298665 134.523 0.458545C134.502 0.468698 134.67 0.709062 134.705 0.708282ZM135.082 0.720108C135.493 1.07235 136.324 0.364861 135.665 0.433884C135.601 0.440864 135.063 0.702958 135.082 0.720108ZM155.738 0.534956C155.684 0.669145 155.188 0.602342 154.976 0.569379C154.982 0.446699 155.531 0.549177 155.738 0.534956ZM143.158 0.523925C143.137 0.629501 144.861 0.630295 144.979 0.491499C144.707 0.54953 143.178 0.429054 143.158 0.523925ZM138.735 0.655296C138.778 0.673729 139.374 0.648251 139.357 0.554963C139.067 0.43155 138.538 0.571864 138.735 0.655296ZM129.944 0.61526C129.912 0.638554 130.356 1.23352 129.3 0.838988C129.145 0.781217 129.7 0.628343 129.645 0.606845C129.53 0.564885 129.438 0.545183 129.365 0.541435C129.858 0.494157 130.369 0.472992 130.419 0.509169C130.65 0.680024 129.959 0.605542 129.944 0.61526ZM125.328 1.03954C125.226 1.13591 124.578 1.08169 124.431 1.04128C124.406 1.03369 124.517 0.779783 124.225 0.797679C123.991 0.812479 124.34 1.07431 123.884 1.03087C123.423 0.987263 124.039 0.803988 123.999 0.790584C123.945 0.773009 123.232 0.887234 123.254 0.735837C123.271 0.623694 124.035 0.702501 124.224 0.679384C124.466 0.649667 124.174 0.461592 124.578 0.503307C124.832 0.529365 124.69 0.857567 124.743 0.874382C124.788 0.887939 125.677 0.702164 125.326 1.0385C125.327 1.03884 125.327 1.03919 125.328 1.03954ZM129.232 0.555449C129.269 0.544482 129.312 0.538745 129.365 0.541435C129.32 0.545725 129.276 0.550737 129.232 0.555449ZM163.117 0.83416C162.867 0.731807 163.61 0.604655 163.89 0.738559C163.895 0.845691 163.157 0.850096 163.117 0.83416ZM128.774 0.821401C128.043 0.736232 128.581 0.625037 129.232 0.555449C129.025 0.616534 129.02 0.849855 128.774 0.821401ZM149.541 0.764305C149.51 0.739668 149.491 0.701364 149.489 0.638549C149.57 0.707552 149.577 0.744473 149.541 0.764305ZM147.835 0.645678C147.25 0.83474 148.438 0.831591 148.431 0.694664C148.428 0.642972 147.859 0.63816 147.835 0.645678ZM134.026 0.68699C134.079 0.705918 133.246 1.28042 134.454 0.851548C133.81 0.780987 134.49 0.72069 134.48 0.670061C134.454 0.524552 133.372 0.660161 133.133 0.596393C132.944 0.855835 133.849 0.624628 134.024 0.686985C134.025 0.686987 134.025 0.686988 134.026 0.68699ZM117.011 0.86747C117.158 0.715584 117.623 0.766425 117.937 0.776606C117.79 0.928491 117.325 0.877651 117.011 0.86747ZM34.8783 0.529785C37.0294 0.39711 37.3057 1.019 35.3388 0.766064C35.3003 0.760762 34.7475 0.59221 34.8783 0.529785ZM53.3349 0.761607C53.5365 1.03297 52.8657 1.0739 52.4256 0.96045C52.3261 0.934934 51.9586 0.659447 52.3796 0.607474C52.3649 0.935391 53.0152 1.06318 53.3349 0.761607ZM128.36 0.993096C128.146 1.17272 127.491 1.04176 127.146 1.01333C127.357 0.865565 128.055 0.935442 128.36 0.993096ZM41.944 0.880706C42.1707 0.902067 42.3246 0.667248 42.2855 0.647512C42.1107 0.556997 41.6863 0.745701 41.944 0.880706ZM130.476 1.02925C130.506 1.1372 129.637 1.23765 129.578 0.9708C129.763 0.990805 130.455 0.961503 130.476 1.02925ZM117.602 0.950682C117.737 1.00603 117.038 1.1015 116.827 1.04628C116.845 0.931575 117.514 0.914704 117.602 0.950682ZM45.5939 0.814846C45.7968 0.836075 46.3039 0.84426 46.3605 0.74931C46.4307 0.630626 45.6869 0.668307 45.5939 0.814846ZM7.82309 0.875027C7.79763 0.832177 8.58427 0.527082 8.93308 0.606396C9.59555 0.758132 7.85075 0.905327 7.82309 0.875027ZM39.7978 0.993856C39.1585 0.767508 39.8684 0.987066 39.8413 0.751215C39.4106 0.741066 38.339 0.725318 39.0749 0.959946C39.2182 1.00534 39.597 0.977822 39.7978 0.993856ZM40.388 1.07499C40.4569 0.998881 40.9192 0.759902 40.5203 0.775616C40.3358 0.783246 40.0376 1.04962 40.388 1.07499ZM12.6898 0.788943C13.2628 0.999853 10.6329 0.877762 10.5575 0.840925C10.5176 0.821465 10.4916 0.803167 10.4767 0.787695C10.3799 0.853466 9.88296 0.863477 9.82608 0.695954C9.97502 0.710339 10.3818 0.697189 10.4289 0.715913C10.4493 0.723885 10.4644 0.731349 10.4748 0.738918C10.6507 0.59436 12.58 0.748949 12.6898 0.788943ZM17.0472 1.02049C16.3895 1.32585 16.2752 0.801941 16.3319 0.785311C17.0475 0.573816 16.5798 0.958071 16.6017 0.976238C16.6515 1.00651 17.1599 0.829339 17.0451 1.02049C17.0458 1.02049 17.0464 1.02049 17.0472 1.02049ZM13.5828 0.878502C13.5558 0.885217 13.0047 0.866901 12.9821 0.858551C12.531 0.680889 14.0905 0.731942 13.5828 0.878502ZM121.848 1.39244C121.453 1.33889 121.841 1.14779 122.103 1.21806C122.125 1.22497 122.196 1.43975 121.848 1.39244ZM40.7034 1.02432C40.7947 1.06106 43.1347 1.20729 42.9952 0.915879C42.7963 0.949442 40.1365 0.78949 40.7034 1.02432ZM58.1942 1.16215C57.7815 1.15831 58.2325 0.885713 58.4524 0.988819C58.5339 1.02712 58.2982 1.16294 58.1942 1.16215ZM131.646 1.28278C132.075 1.13372 131.985 1.63899 131.614 1.46425C131.599 1.45741 131.629 1.28861 131.646 1.28278ZM54.8975 0.991748C56.3216 0.830974 55.9811 1.69939 54.1317 1.39867C54.1898 1.36016 54.2478 1.32164 54.3059 1.28313C52.1704 1.14445 54.16 1.22127 54.6833 1.17459C54.8821 1.15684 54.716 1.01103 54.8961 0.990705C54.8966 0.991053 54.8971 0.991401 54.8975 0.991748ZM60.3647 1.1871C61.7331 1.80967 59.1177 1.39761 58.3667 1.47514C59.0954 1.22303 60.0427 1.26525 58.7551 0.999322C60.6393 0.956101 59.8541 1.19894 59.9292 1.21967C60.0181 1.24293 60.3063 1.16037 60.3647 1.1871ZM56.7487 1.17734C56.6694 1.19504 56.0729 1.06708 55.8578 1.08675C56.1593 0.877036 57.2753 1.0569 56.7487 1.17734ZM21.6167 0.894875C21.5665 1.05991 21.4434 1.18113 20.9724 1.11757C21.1183 1.03511 21.4196 0.964859 21.6167 0.894875ZM164.957 1.56655C165.282 1.57965 165.927 1.64439 165.73 1.46991C165.708 1.45502 164.958 1.46905 164.957 1.56655ZM47.5007 1.18432C47.5697 1.2049 49.3544 1.2254 48.7386 1.0407C48.5529 0.984998 46.929 1.0021 47.5007 1.18432ZM38.2585 1.12802C38.4078 1.13032 39.0147 1.10153 39.0278 1.06249C39.0693 0.927558 38.3242 0.998963 38.2585 1.12802ZM166.593 1.74198C166.636 1.75928 167.627 1.73273 167.519 1.65215C167.312 1.49976 166.447 1.68237 166.593 1.74198ZM120.41 1.77396C120.328 1.77975 120.219 1.59985 120.19 1.59775C120.123 1.59493 118.606 1.65812 119.186 1.42994C119.283 1.39169 121.465 1.48858 121.748 1.51243C121.857 1.75923 120.926 1.52127 120.699 1.54575C120.659 1.55041 120.633 1.75643 120.411 1.77292C120.411 1.77327 120.411 1.77361 120.41 1.77396ZM19.1612 1.05976C19.0937 1.21614 17.3103 1.313 17.3317 1.12328C17.9416 1.1021 18.5514 1.08093 19.1612 1.05976ZM20.0668 1.08918C20.4469 1.20145 19.5557 1.23468 19.2933 1.18478C19.2909 1.07939 20.0115 1.07276 20.0668 1.08918ZM41.638 1.72625C41.8173 1.68863 41.2672 1.45796 41.3906 1.414C41.4697 1.38664 41.8697 1.47384 41.9976 1.40285C42.034 1.38027 41.6264 1.16386 41.5083 1.17268C41.3404 1.18443 41.5025 1.35413 41.3194 1.35458C40.7116 1.35588 40.1731 1.23322 39.6032 1.23384C39.5518 1.23423 39.9504 1.35516 39.5114 1.35178C39.4436 1.35149 39.0368 1.17209 38.5116 1.19644C37.3498 1.74272 36.5004 1.19868 35.0281 1.39161C35.0834 1.44369 36.1834 1.58702 36.2482 1.59241C37.4779 1.68771 39.6815 1.70613 40.9699 1.71226C41.3005 1.71401 41.1404 1.59682 41.2828 1.5931C41.3953 1.59038 41.2607 1.80571 41.638 1.72625ZM164.784 1.68522C164.938 1.9014 165.481 1.76703 165.828 1.7795C165.706 1.58457 165.123 1.73429 164.784 1.68522ZM28.0712 1.28703C28.2449 1.27937 28.7832 1.34638 28.8279 1.28164C28.8856 1.19709 28.1085 1.14064 28.0712 1.28703ZM111.859 1.67985C111.842 1.68566 111.424 1.67251 111.409 1.66566C111.036 1.4912 112.289 1.53148 111.859 1.67985ZM101.864 1.5999C101.547 1.62529 101.227 1.69143 101.121 1.5161C101.323 1.54367 101.901 1.47821 101.864 1.5999ZM88.0735 1.55205C88.1381 1.78136 87.1849 1.62936 87.0049 1.60812C87.072 1.50657 88.0262 1.38681 88.0735 1.55205ZM21.6826 1.61422C21.0996 1.59842 21.2214 1.94588 20.8518 1.78742C20.7915 1.76065 20.5989 1.03738 21.2388 1.31055C21.354 1.35966 20.9021 1.52963 21.6826 1.61422ZM53.8303 1.39025C53.6814 1.54122 53.2181 1.49446 52.905 1.48112C52.9756 1.3688 53.6074 1.4002 53.8303 1.39025ZM168.383 1.92215C168.655 2.13714 169.92 1.9833 169.607 1.84074C169.563 1.82213 168.56 1.93092 168.383 1.92215ZM126.875 1.67845C126.354 1.84492 127.431 1.90124 127.772 1.73794C127.618 1.74813 126.91 1.6675 126.875 1.67845ZM91.3855 1.6893C91.3605 1.69611 90.8093 1.67774 90.7847 1.66935C90.3336 1.49169 91.8931 1.54274 91.3855 1.6893ZM105.15 1.89062C104.95 2.0285 103.645 1.91161 103.353 1.77165C103.635 1.57002 105.397 1.71842 105.15 1.89062ZM24.0821 1.52487C23.6662 1.53045 23.2716 1.48623 22.8898 1.42482C22.9706 1.30841 24.0385 1.43751 24.0821 1.52487ZM89.3618 1.69605C89.3323 1.69499 89.3036 1.68167 89.2754 1.68015C89.3048 1.68521 89.3337 1.69097 89.3618 1.69605ZM33.3921 1.64265C33.7406 1.6901 33.669 1.47594 33.6476 1.46931C33.3855 1.39904 32.9978 1.5891 33.3921 1.64265ZM165.181 2.00426C165.301 2.19773 165.888 2.05029 166.225 2.09751C166.128 1.9447 165.453 1.98506 165.181 2.00426ZM61.8312 1.58808C62.2684 1.79904 60.4856 2.03529 60.1106 1.89899C60.0834 1.76958 61.7672 1.5592 61.8312 1.58808ZM128.488 1.97416C128.523 2.12554 129.271 1.9459 129.113 1.87384C129.012 1.82798 128.468 1.88012 128.488 1.97416ZM59.2149 1.80734C59.0473 1.85285 58.6576 1.70211 58.7954 1.61169C58.9722 1.49578 59.2582 1.79429 59.2149 1.80734ZM44.1939 1.87097C44.267 1.89436 45.2519 1.74291 44.8459 1.58709C44.5641 1.4788 44.5184 1.69725 44.452 1.69764C44.3779 1.69666 42.7986 1.42304 44.1939 1.87097ZM71.8105 1.75825C71.4389 1.81497 70.9901 1.74573 70.6013 1.74841C70.76 1.65548 71.653 1.63341 71.8105 1.75825ZM125.603 2.00353C125.693 2.06504 128.15 2.11133 126.755 1.91769C126.673 1.90674 125.329 1.81724 125.603 2.00353ZM21.6826 1.61422C21.7561 1.61621 21.841 1.62375 21.9393 1.63907C21.8416 1.63281 21.7566 1.62224 21.6826 1.61422ZM28.3046 1.66251C28.1699 1.77209 28.8461 1.80413 29.0459 1.7463C29.1078 1.61203 28.3231 1.64719 28.3046 1.66251ZM70.5712 1.90186C70.347 1.964 69.9408 1.89521 69.6634 1.90148C69.7108 1.79932 70.4748 1.79752 70.5712 1.90186ZM86.2985 2.07753C85.8541 2.015 85.3066 2.04086 85.2977 2.16603C85.2886 2.14643 85.2671 2.12557 85.2314 2.10456C85.1953 2.08375 84.7186 2.14014 84.5118 2.0966C83.2735 1.838 89.298 1.96592 85.8046 2.30599C85.9693 2.22984 86.1339 2.15368 86.2985 2.07753ZM106.915 2.19211C107.167 2.34547 107.875 2.15723 107.691 2.09652C107.564 2.05491 106.663 2.0377 106.915 2.19211ZM97.2014 2.24502C97.2768 2.27251 97.9674 2.16843 97.9855 2.08824C97.589 2.00214 96.8582 2.11734 97.2014 2.24502ZM108.855 2.37804C109.013 2.40165 109.216 2.15668 109.198 2.14589C109.037 2.05556 108.589 2.24019 108.855 2.37804ZM22.8879 2.28087C23.1233 2.35215 23.8755 2.17717 24.0397 2.01551C24.0701 2.04701 24.152 2.08825 24.3023 2.13793C24.3018 2.13792 24.3013 2.13792 24.3009 2.13792C24.5038 2.20425 30.5771 2.29923 26.5043 1.97103C26.3768 1.96053 26.5505 2.10687 26.0315 2.07921C25.9972 2.0772 25.9806 1.9582 25.8747 1.95201C25.631 1.9385 24.3329 1.85867 24.0716 1.95338C24.0694 1.93132 24.0526 1.91029 24.0169 1.89091C23.6975 1.71815 22.7052 2.22591 22.8879 2.28087ZM95.8328 2.26155C95.9716 2.30615 96.4114 2.26599 96.4574 2.16122C96.2395 2.10894 95.5109 2.1575 95.8328 2.26155ZM125.677 2.43444C125.96 2.52185 126.678 2.36324 126.461 2.27662C126.329 2.22335 125.351 2.33409 125.677 2.43444ZM100.237 2.22245C98.6149 2.09215 99.8499 2.23099 99.6008 2.38395C99.8129 2.33012 100.025 2.27629 100.237 2.22245ZM15.3788 1.85457C15.6374 1.89098 15.3321 2.19351 15.0478 2.02762C14.9586 1.97494 15.2341 1.83477 15.3788 1.85457ZM3.69366 1.90405C3.9135 2.1742 2.83544 2.01182 3.25655 1.8287C3.27609 1.82255 3.67791 1.89374 3.69366 1.90405ZM11.8582 2.04545C12.0345 1.86276 12.149 1.84145 12.6437 1.88867C11.911 1.93751 12.5897 2.10229 11.8582 2.04545ZM85.3025 2.18577C85.2997 2.17835 85.2972 2.17286 85.2977 2.16603C85.3009 2.17279 85.3023 2.17918 85.3025 2.18577ZM110.381 2.33618C110.583 2.49229 111.153 2.48304 110.984 2.32605C110.967 2.31151 110.465 2.22173 110.381 2.33618ZM24.0397 2.01551C24.0128 1.98758 24.0267 1.96964 24.0716 1.95338C24.0736 1.97413 24.0619 1.99369 24.0397 2.01551ZM107.323 2.45101C107.344 2.3352 106.478 2.2868 106.443 2.30028C105.945 2.49934 106.966 2.45661 107.323 2.45101ZM131.406 2.61939C131.451 2.60746 131.164 2.30721 130.987 2.42373C130.849 2.51414 131.239 2.66477 131.406 2.61939ZM10.1777 2.11369C9.90332 2.11243 9.517 2.11108 9.44628 1.96872C9.63005 1.99124 10.1838 2.00945 10.1777 2.11369ZM4.11521 2.10075C4.44015 1.93495 5.18094 1.93828 5.65383 1.96762C5.66173 2.18754 4.41973 2.05022 4.11521 2.10075ZM22.1439 2.19603C22.1663 2.20506 22.8542 2.27332 22.7608 2.12577C22.6243 1.90941 21.9501 2.11525 22.1439 2.19603ZM130.07 2.45549C129.762 2.55567 130.469 2.86991 130.795 2.63052C130.962 2.50794 130.122 2.43871 130.07 2.45549ZM112.158 2.54639C112.564 2.46278 111.558 2.30718 111.417 2.46053C111.604 2.4736 112.013 2.57599 112.158 2.54639ZM98.3411 2.6489C99.619 3.09769 98.9252 2.28526 98.6979 2.35558C98.6659 2.36562 98.3099 2.63834 98.3411 2.6489ZM171.555 2.82153C171.736 2.76056 171.061 2.53454 170.973 2.68129C170.919 2.77313 171.439 2.8604 171.555 2.82153ZM79.074 2.28633C79.1281 2.28511 79.1817 2.28386 79.2347 2.2828C79.1949 2.28989 79.1426 2.29205 79.074 2.28633ZM115.842 3.15513C114.943 2.52497 115.036 3.00836 114.958 3.00542C114.789 2.99803 114.396 2.82706 114.077 2.85365C114.443 2.7845 114.808 2.71534 115.173 2.64619C114.885 2.59984 112.381 2.3595 112.328 2.46092C112.252 2.60535 113.04 2.56298 113.063 2.57582C113.096 2.59411 113.218 2.99692 113.291 3.0125C113.411 3.03742 115.506 3.05382 115.842 3.15513ZM101.017 2.58967C100.812 2.54105 100.754 2.38141 100.658 2.41915C100.625 2.43206 100.62 2.58409 100.508 2.62299C100.678 2.61188 100.848 2.60078 101.017 2.58967ZM117.457 2.5979C117.711 2.78467 116.568 2.70972 116.531 2.68877C116.336 2.56208 117.249 2.44532 117.457 2.5979ZM107.755 2.58757C107.797 2.59857 108.675 2.65996 108.668 2.55684C108.436 2.47735 107.263 2.44994 107.755 2.58757ZM100.371 2.63284C100.063 2.61392 99.4801 2.45856 99.546 2.68777C99.5465 2.68778 99.547 2.68778 99.5474 2.68778C99.8219 2.66947 100.096 2.65115 100.371 2.63284ZM129.015 2.93497C129.586 3.30181 129.316 2.84002 128.811 2.72043C128.657 2.88355 128.922 2.87528 129.015 2.93497ZM130.843 3.21387C131.002 3.28009 132.641 3.2145 132.392 3.0206C132.303 2.95149 131.36 3.12128 131.317 3.10777C131.251 3.08775 131.553 2.87546 131.05 2.91582C131.079 2.98826 130.789 3.19174 130.843 3.21387ZM129.487 3.17026C130.054 3.44975 130.184 2.93878 129.757 2.93575C129.59 2.93421 129.407 3.12994 129.487 3.17026ZM127.167 3.11776C127.372 3.16705 127.916 3.23989 128.292 3.07123C127.79 3.05478 127.287 3.03832 126.785 3.02186C126.727 3.118 126.989 3.07444 127.169 3.11776C127.168 3.11776 127.168 3.11776 127.167 3.11776ZM0.696804 3.39815C1.14757 3.54492 0.107598 3.59651 0.0637742 3.5607C-0.0663812 3.4419 0.495324 3.33259 0.696804 3.39815ZM175.062 7.4816C175.187 7.5399 175.268 7.73044 175.545 7.63184C175.268 7.49034 174.991 7.34885 174.713 7.20736C174.496 7.52829 174.925 7.4173 175.062 7.4816ZM176.118 8.66131C176.078 8.66895 176.291 9.16455 175.785 8.83228C175.444 8.60793 177.306 8.39773 177.641 8.6184C177.27 8.71892 176.455 8.59909 176.118 8.66131ZM179.37 10.8155C179.392 10.8551 178.684 10.9102 178.602 10.8821C178.173 10.7338 179.255 10.6037 179.37 10.8155ZM177.114 10.7124C177.446 10.8098 176.711 10.8689 176.492 10.8127C176.471 10.7206 177.063 10.6982 177.114 10.7124ZM5.23961 10.5816C5.59725 10.9192 5.92108 10.1966 5.36826 10.3403C5.34187 10.3471 5.22438 10.5651 5.23961 10.5816ZM178.677 11.312C178.346 11.2146 179.081 11.1555 179.299 11.2116C179.319 11.3037 178.727 11.3262 178.677 11.312ZM5.48921 11.3836C5.96497 11.6274 5.80024 10.8147 5.74078 10.7817C5.49593 10.6515 4.65329 10.967 4.48112 11.0456C5.74091 10.9286 5.26524 11.2687 5.48921 11.3836ZM7.68976 10.9044C8.13231 10.8194 7.00277 10.6494 6.78622 10.875C7.00605 10.865 7.56389 10.9289 7.68976 10.9044ZM10.3729 11.1752C10.6106 11.2052 11.3175 11.2775 11.4366 11.1502C11.1769 11.1723 10.4738 11.0441 10.3729 11.1752ZM10.9098 11.5601C11.2807 11.7352 11.3719 11.2296 10.9427 11.3787C10.926 11.3844 10.8961 11.5504 10.9098 11.5601ZM12.9985 11.7508C13.2416 11.9529 13.5218 11.464 13.1267 11.4493C13.0093 11.4458 12.9728 11.7276 12.9985 11.7508ZM6.08256 12.2596C6.43138 12.3473 6.8826 11.9982 6.13728 11.9568C6.39933 11.9042 6.66138 11.8516 6.92343 11.799C5.94773 11.5986 6.01751 12.0854 5.73722 12.0642C5.34559 12.0341 5.37799 11.6327 5.45715 11.507C5.135 11.7517 3.77023 11.7504 2.98132 11.7942C3.67413 11.9001 4.79833 12.0834 5.48214 12.1514C5.6774 12.1711 5.86732 12.0618 6.03383 12.0747C6.30075 12.0961 6.06301 12.2537 6.08119 12.2596C6.08162 12.2596 6.08208 12.2596 6.08256 12.2596ZM15.7451 11.7686C16.4609 11.9993 16.0096 11.5055 15.6043 11.5917C15.587 11.5983 15.7273 11.763 15.7451 11.7686ZM179.621 12.8108C178.665 12.6015 179.362 12.3316 177.357 12.7378C178.2 12.448 177.404 12.5272 177.569 12.4097C177.701 12.3167 178.195 12.396 177.908 12.2066C178.285 12.413 179.923 12.3626 179.996 12.3962C179.995 12.3962 179.995 12.3962 179.994 12.3962C180.038 12.4161 179.927 12.8774 179.621 12.8108ZM10.3714 12.4618C10.6081 13.0598 10.7055 12.1125 11.1735 12.6091C11.8019 11.893 9.44521 12.6024 9.16258 11.9944C11.7187 12.0747 7.47592 11.3865 9.25684 12.3019C7.7881 11.9665 8.77468 12.4126 8.54734 12.5274C8.30412 12.6498 7.4731 12.5126 7.51449 12.7352C7.51493 12.7352 7.51539 12.7352 7.51586 12.7352C8.02451 12.7216 8.53313 12.7079 9.04177 12.6943C8.54583 12.2127 9.58456 12.3606 9.93558 12.7528C10.0809 12.6558 10.2261 12.5588 10.3714 12.4618ZM7.49466 12.0004C7.54471 12.0116 8.6512 11.9486 8.58015 11.8521C8.43262 11.7901 6.86243 11.8577 7.49466 12.0004ZM2.62588 12.0865C3.02302 12.0892 3.63683 12.1851 3.85394 12.0051C3.45671 12.0024 2.84278 11.9064 2.62588 12.0865ZM23.0777 12.1994C23.5846 12.0529 22.026 12.003 22.4762 12.1805C22.4985 12.1889 23.0528 12.2062 23.0777 12.1994ZM11.5232 12.376C12.0373 12.5604 11.7962 11.9787 11.4143 12.1286C11.3922 12.1374 11.4995 12.3676 11.5232 12.376ZM178.845 12.8784C178.81 13.0206 177.421 12.9153 177.175 12.9156C177.316 12.7838 178.885 12.7154 178.845 12.8784ZM1.92482 12.6161C2.71314 13.1308 3.78784 12.544 3.90537 12.5573C4.02226 12.5709 3.83799 12.7939 3.86461 12.8C3.92538 12.8128 5.17079 12.7988 5.23114 12.7834C5.27434 12.7715 5.05017 12.4563 5.30763 12.3583C4.80551 12.535 2.52916 12.4145 2.41094 12.4489C2.31929 12.4763 3.00793 12.809 1.92619 12.6161C1.92571 12.6161 1.92526 12.6161 1.92482 12.6161ZM4.19901 12.6269C3.88837 12.494 4.76093 12.4809 4.97187 12.5303C5.44059 12.6409 4.23885 12.6427 4.19901 12.6269ZM6.29695 12.7564C6.39645 12.7863 7.29556 12.8166 7.37259 12.6703C6.94769 12.4784 6.07117 12.6867 6.29695 12.7564ZM16.3029 12.7752C16.5366 12.7573 17.1783 12.8725 17.2156 12.7445C16.9818 12.7622 16.3401 12.6472 16.3029 12.7752ZM174.101 13.9787C174.489 14.0875 173.589 14.1278 173.327 14.0754C173.314 13.9898 174.068 13.9694 174.101 13.9787ZM11.6057 13.6018C11.7438 13.6413 14.5653 13.5549 14.9611 13.4964C14.5745 13.398 11.7788 13.3798 11.6517 13.4266C11.6146 13.4406 11.5881 13.5956 11.6057 13.6018ZM5.50457 13.6374C5.24522 13.8252 5.07728 13.5982 5.04468 13.5952C4.72496 13.5651 4.06145 13.6051 4.20762 13.4239C4.77177 13.4994 6.02092 13.2646 5.50457 13.6374ZM16.5001 13.6299C17.4583 13.5636 15.6192 13.3577 15.8598 13.5559C15.8753 13.5679 16.4011 13.6369 16.5001 13.6299ZM11.2903 13.6555C11.0785 13.8072 8.25713 13.6649 7.80412 13.6629C8.21098 13.3832 8.53719 13.5981 9.08229 13.5858C9.22939 13.5822 9.19057 13.465 9.20636 13.4649C9.46106 13.4605 9.26992 13.5949 9.42696 13.5975C9.52616 13.5988 11.5885 13.4418 11.2903 13.6555ZM5.35645 13.7676C5.19829 13.8752 3.43612 13.9145 3.36537 13.8855C2.8359 13.6696 5.21969 13.7294 5.35645 13.7676ZM11.5482 13.9066C11.2436 14.2323 9.843 14.008 10.8027 13.8487C10.8944 13.8343 11.2817 13.9775 11.5482 13.9066ZM16.3966 13.9408C16.4437 13.9506 17.442 14.0198 17.4604 13.9159C17.3162 13.8749 15.8608 13.833 16.3966 13.9408ZM15.8775 14.2906C15.9016 14.2882 15.6683 14.087 16.1364 14.1141C16.1754 14.1167 16.2473 14.3423 16.8362 14.2621C16.9557 14.2456 17.1414 14.0972 17.1281 14.0879C16.5165 13.7318 14.668 14.4021 15.8775 14.2906ZM5.32348 13.9501C5.41805 14.0456 5.18797 14.3271 4.982 14.1833C4.89369 14.1212 5.05952 13.9524 5.32348 13.9501ZM19.5631 14.0443C18.982 14.2133 20.8043 14.2527 20.8974 14.2092C20.8393 14.1023 19.6212 14.0278 19.5631 14.0443ZM173.187 15.2972C173.188 15.2972 173.188 15.2972 173.189 15.2972C172.701 15.2565 173.004 15.1152 172.981 15.1107C171.941 14.8974 172.216 15.2211 172.053 15.2586C171.704 15.3396 171.762 14.9474 171.173 15.1079C172.146 14.8714 171.261 14.9687 171.234 14.829C171.127 14.2589 172.528 15.1007 173.013 14.9832C173.081 14.9669 172.582 14.7831 172.756 14.7321C173.319 14.5667 175.061 15.4528 173.187 15.2972ZM4.82259 14.2076C4.59545 14.3741 2.8776 14.2052 3.33376 14.0691C3.40708 14.0472 5.15653 13.965 4.82259 14.2076ZM85.0982 14.7633C84.6847 14.9065 85.6412 15.0805 85.8191 14.9684C85.9074 14.9126 85.2799 14.7005 85.0982 14.7633ZM91.8072 15.4086C92.2981 15.3811 92.8178 14.7792 92.2068 14.8705C92.1419 14.8805 91.7513 15.3246 91.8072 15.4086ZM59.5824 14.9744C60.094 15.1922 60.065 14.7911 59.6888 14.7953C59.556 14.7967 59.5663 14.9675 59.5824 14.9744ZM79.1412 14.9977C79.1925 15.0119 79.785 14.9886 79.7637 14.8964C79.5449 14.8402 78.8099 14.9004 79.1412 14.9977ZM59.4194 15.0308C59.7236 14.9597 59.2017 14.6677 58.8292 14.9497C59.0179 14.9272 59.3881 15.0381 59.4194 15.0308ZM12.6037 14.7968C12.8587 14.6331 13.5783 14.6857 13.9919 14.659C14.0357 14.8724 12.8992 14.7593 12.6037 14.7968ZM89.7248 15.1578C90.19 15.0092 89.1951 14.8823 89.2856 15.0814C89.2983 15.0922 89.7065 15.1641 89.7248 15.1578ZM43.0489 14.9897C43.3871 14.8637 42.3154 14.6885 42.6097 14.9133C42.6242 14.9224 43.0303 14.9967 43.0489 14.9897ZM38.3669 14.898C38.6228 14.9419 39.7155 14.9329 39.2908 14.8071C39.2248 14.7878 38.3865 14.7815 38.3669 14.898ZM172.024 15.412C172.161 15.6317 171.36 15.5765 171.245 15.5377C171.2 15.5216 171.845 15.1263 172.024 15.412ZM62.9105 15.0214C63.1757 14.995 63.8632 15.0498 63.9847 14.9353C63.6603 14.9578 62.8241 14.7921 62.9105 15.0214ZM87.6065 15.1507C88.0102 15.3903 88.7015 15.3695 88.5318 15.0577C87.7681 15.0756 88.6251 15.3377 87.6065 15.1507ZM57.7107 15.2806C57.9233 15.2995 58.0874 15.0014 58.0634 14.9872C57.8336 14.8524 57.4999 15.1635 57.7107 15.2806ZM73.6674 15.096C73.6792 15.2237 74.361 15.1684 74.2704 15.0859C74.2406 15.0582 73.6579 14.9926 73.6674 15.096ZM21.5299 14.9038C21.8417 15.0215 20.8875 15.1318 20.6059 14.9947C20.4695 14.7981 21.4905 14.8902 21.5299 14.9038ZM51.8147 15.1832C51.7823 15.3725 52.8481 15.2695 52.4289 15.1108C52.324 15.0711 51.8261 15.1199 51.8147 15.1832ZM41.615 15.3712C42.3305 15.148 39.3304 14.976 40.1178 15.2606C40.1742 15.2809 41.5527 15.39 41.615 15.3712ZM36.7149 15.2112C36.8381 15.2366 36.7742 15.8731 36.2649 15.6256C36.1981 15.5935 36.512 15.4264 36.4574 15.3877C36.4253 15.3656 35.3163 15.2719 35.2651 15.2866C35.21 15.3032 35.274 15.5076 35.2181 15.5302C35.1552 15.5556 34.473 15.3737 34.1153 15.3704C33.4413 15.3644 33.3679 15.534 33.3126 15.5343C33.1516 15.5348 32.8814 15.4132 32.555 15.4121C30.9098 15.4071 28.3929 15.5414 27.0901 15.1763C28.2502 15.3254 29.3568 15.1762 30.5119 15.1334C30.1723 15.4867 32.212 14.8668 31.0188 15.2713C31.5678 15.1847 36.3111 15.1319 36.7135 15.2112C36.714 15.2112 36.7145 15.2112 36.7149 15.2112ZM93.7435 15.5945C93.4412 15.8107 94.9884 15.7678 95.1206 15.5168C94.9165 15.4811 93.781 15.57 93.7435 15.5945ZM86.6044 16.0973C86.4606 16.1343 86.3226 16.5587 85.5701 16.3403C85.5694 16.3403 85.5687 16.3403 85.568 16.3403C85.348 16.2765 85.5994 16.1739 85.5592 16.1368C85.5445 16.1217 84.8584 15.9077 85.429 15.8759C86.2994 15.8271 85.5098 16.1923 85.9737 16.1986C86.0304 16.1992 86.9094 15.9726 86.8585 15.9219C86.8532 15.916 86.5889 15.9636 86.5453 15.9425C86.3808 15.8629 86.4615 15.7305 86.4383 15.7241C86.3624 15.7077 84.9729 15.9284 84.7718 15.7302C84.7064 15.6663 86.9861 15.5282 87.0748 15.5616C87.1309 15.5827 87.1058 15.9509 87.1638 15.9874C87.1937 16.0055 88.1109 15.871 88.2298 15.9053C88.2644 15.9153 88.2907 15.9259 88.3101 15.9347C88.1718 15.8202 89.002 15.8316 88.976 15.9601C88.9614 16.0106 88.3901 15.9791 88.3697 15.9702C88.3607 15.9664 88.3529 15.9613 88.3457 15.9577C88.4634 16.097 86.5288 16.0833 86.9457 16.2916C86.3844 16.4027 87.0264 15.9887 86.6044 16.0973ZM83.9078 16.3142C83.9658 16.2756 84.0239 16.2371 84.0819 16.1986C83.0997 16.2897 81.9675 16.0988 80.8365 16.0959C80.5495 16.0948 80.8787 16.333 80.5028 16.2668C80.2016 16.2138 79.8689 15.9927 80.033 15.9444C80.073 15.9323 80.686 16.0778 80.9932 16.0643C81.8999 16.0243 81.6717 15.8202 81.7247 15.815C81.7832 15.8094 82.3533 15.9545 82.6649 15.9493C83.4484 15.9359 83.8068 15.8125 84.8766 15.9796C84.2583 16.1111 84.5956 16.4033 83.9078 16.3142ZM47.3129 15.7407C47.2751 15.8684 46.633 15.7525 46.3995 15.7704C46.4367 15.6423 47.0793 15.7586 47.3129 15.7407ZM143.056 16.275C143.255 16.0659 141.776 16.0082 142.165 16.1844C142.251 16.2235 142.871 16.2728 143.056 16.275ZM136.412 16.1218C136.214 16.1791 137.01 16.3332 137.009 16.1708C137.008 16.1187 136.438 16.1143 136.412 16.1218ZM71.2172 16.0589C71.1797 16.0653 70.6356 16.0165 70.6186 16.0057C70.2589 15.7815 72.0498 15.9172 71.2172 16.0589ZM128.333 16.3491C129.024 16.2142 126.948 16.1466 127.582 16.3244C127.613 16.3331 128.3 16.3557 128.333 16.3491ZM125.448 16.3764C125.613 16.3697 126.347 16.4408 126.357 16.3768C126.372 16.2735 125.532 16.1997 125.448 16.3764ZM57.5642 16.0728C57.6429 16.3095 56.6756 16.1267 56.3389 16.1552C56.2599 15.9183 57.2276 16.1013 57.5642 16.0728ZM63.674 16.2706C59.5921 16.4413 60.4938 15.9396 63.9176 16.1563C63.9219 16.308 63.9317 16.2598 63.674 16.2706ZM58.448 16.2225C58.5969 16.0716 59.0602 16.1183 59.3733 16.1316C59.3166 16.2367 58.674 16.1961 58.448 16.2225ZM144.816 16.6065C144.56 16.7969 143.427 16.5566 143.629 16.4785C143.676 16.4616 144.911 16.5017 144.816 16.6065ZM70.8744 16.2599C70.9686 16.4902 69.7434 16.3917 69.6498 16.3403C69.2724 16.1334 70.775 16.3103 70.8744 16.2599ZM51.7708 16.2528C51.5537 16.4321 50.9394 16.3371 50.5441 16.3332C50.7247 16.1799 51.4354 16.2483 51.7708 16.2528ZM54.624 16.4049C54.5991 16.4117 54.0479 16.3933 54.0232 16.385C53.5722 16.2073 55.1316 16.2583 54.624 16.4049ZM173.858 17.0295C173.839 17.0353 173.422 17.0222 173.407 17.0153C173.035 16.841 174.288 16.8811 173.858 17.0295Z" fill="#333333"/>
</svg>
