<svg width="80" height="17" viewBox="0 0 80 17" fill="none" xmlns="http://www.w3.org/2000/svg">
<path d="M6.15105 16.8536C6.19987 16.8318 6.39666 16.8837 6.48174 16.8743C6.38596 17.1027 5.97497 16.9324 6.15105 16.8536ZM14.8309 0.266933C14.7604 0.32353 14.69 0.380127 14.6195 0.436724C14.8203 0.472735 15.09 0.430519 15.2764 0.483458C15.3069 0.492351 15.2284 0.65583 15.3004 0.662896C15.3726 0.669915 15.358 0.446884 15.4628 0.422697C15.5803 0.396246 16.1193 0.549988 16.3058 0.545641C17.0033 0.528421 17.7065 0.398847 18.4057 0.489329C17.6846 0.656602 18.4123 0.822319 18.6142 0.750169C18.6589 0.73347 18.6505 0.318777 19.3748 0.420956C19.8351 0.485795 19.4119 1.08 20.1788 0.780602C19.5871 0.367662 20.1678 0.394932 20.6305 0.37971C20.7103 0.377021 21.3548 0.437341 21.6394 0.418091C21.7367 0.411401 21.8844 0.193713 22.0136 0.187613C22.1025 0.183577 22.1701 0.302128 22.3021 0.295672C22.9173 0.266997 23.5224 0.255888 24.139 0.294132C23.7805 0.853473 24.4225 0.531165 24.4515 0.557763C24.5988 0.708871 23.9347 0.75407 24.1977 0.848051C24.5647 0.82962 24.9317 0.811189 25.2988 0.792758C24.9973 0.725152 25.6962 0.321444 25.8256 0.503699C25.7673 0.0106076 27.5 0.927838 27.7628 0.762297C27.8176 0.727333 27.4578 0.484655 28.2909 0.593601C28.3812 0.605713 28.3475 0.754644 28.3948 0.740624C28.4231 0.732195 28.5931 0.258643 28.7765 0.519462C28.8436 0.614656 28.4177 0.926649 29.3546 0.798872C28.9798 0.318587 30.6533 0.534116 30.9614 0.653813C30.8997 0.589324 30.8381 0.524836 30.7764 0.460347C31.0811 0.633886 31.1355 0.470028 31.2041 0.478737C31.4804 0.513712 31.8606 0.677496 32.1179 0.661644C32.4189 0.643392 32.419 0.343979 32.7703 0.459358C32.6869 0.393554 32.6034 0.327749 32.5199 0.261944C32.7623 0.277104 33.0048 0.292264 33.2473 0.307423C32.6871 0.705499 33.3684 0.325956 33.4134 0.317284C33.485 0.302638 33.3825 0.465215 33.5024 0.444639C33.5148 0.441275 33.4964 0.288532 33.6812 0.270799C34.0673 0.234269 34.0068 0.426571 34.169 0.423897C34.1838 0.42286 34.1314 0.285367 34.4114 0.251935C35.3012 0.145507 34.4073 0.357437 34.3732 0.37657C34.3284 0.401805 34.6354 0.976117 33.8786 0.774481C34.1327 0.838631 34.159 1.09311 34.1876 1.09934C34.213 1.10446 34.6527 1.06724 34.677 1.0584C34.893 0.971284 34.7021 0.797916 34.7442 0.766612C34.7786 0.741375 35.3093 0.966433 35.4319 0.442812C35.6869 0.924651 35.2873 0.881672 34.8623 0.957172C34.8006 1.0564 35.2678 1.15126 35.2924 1.15092C35.8947 1.14817 35.56 0.752217 35.6909 0.498043C35.7597 0.365053 36.0059 0.63513 35.7782 0.279867C36.3248 0.240599 35.9939 0.4479 36.0293 0.478317C36.0827 0.523002 36.2737 0.420389 36.2977 0.433905C36.3329 0.453914 36.2111 0.577537 36.3498 0.620519C36.3729 0.626759 36.5955 0.413986 36.3073 0.313509C36.692 0.342467 36.6598 0.161722 36.7914 0.525763C37.0542 -0.164543 36.9849 0.932716 37.0893 0.971026C37.367 1.072 37.2849 0.530917 37.2994 0.504474C37.3999 0.334997 38.1684 0.518578 38.3583 0.439973C38.2845 0.830108 37.7495 0.446116 37.6304 0.522126C37.2333 0.775013 38.1919 0.715326 37.9044 1.20612C38.0251 1.0712 38.1459 0.936278 38.2666 0.801357C38.4897 1.11565 38.175 1.25398 38.7725 1.13702C38.8694 0.864845 38.3499 1.18127 38.4537 0.9668C38.5148 0.840925 38.8614 0.812857 38.868 0.746574C38.8746 0.66679 38.5616 0.76229 38.6106 0.639457C38.7176 0.374379 39.8611 0.622874 38.9916 0.770057C39.2343 0.76478 39.3609 1.29097 39.5708 1.12625C39.7065 1.01933 38.9388 0.294434 40.0876 0.42424C40.1129 0.672819 39.6287 0.499088 39.6162 0.51805C39.5987 0.54565 39.6879 1.10649 39.7031 1.13414C39.757 1.22516 40.9288 0.921064 41.1774 1.20221C41.0783 0.87821 42.0634 1.14159 42.1703 1.04245C42.1988 1.01508 42.0915 0.816761 42.1219 0.79564C42.3119 0.669908 42.8278 1.02292 43.0666 1.03137C43.3339 1.04095 43.2995 0.86949 43.3145 0.869769C43.4321 0.878974 43.3385 0.995577 43.4104 0.995026C43.519 0.994132 44.2654 1.01561 44.3028 0.991224C44.3137 0.983628 44.1913 0.788014 44.3539 0.750333C44.382 0.743804 44.3649 0.976228 44.8464 0.874362C45.4263 0.751843 44.4426 0.586646 44.6829 0.342558C45.0567 0.687882 45.0436 0.344573 45.1447 0.371219C45.1798 0.380931 45.4411 0.672045 45.724 0.652701C45.5211 0.700715 45.3182 0.748729 45.1153 0.796744C45.3151 0.847312 45.7025 0.782754 45.8671 0.840071C45.9474 0.867971 45.882 1.10799 46.0563 1.10097C46.0933 1.09818 46.2382 0.513463 45.7825 0.777036C45.7454 0.568529 45.963 0.703708 46.0636 0.644385C46.0788 0.635143 46.1378 0.286431 46.2672 0.502636C46.2983 0.55583 45.965 1.57355 46.8303 0.835012C46.8582 0.811209 46.7607 0.684185 46.7879 0.657706C46.8065 0.639774 47.0281 0.690591 47.0526 0.672451C47.0775 0.652991 46.9701 0.51432 46.9998 0.486877C47.1522 0.345464 47.3544 0.896148 47.0393 0.855117C47.1447 0.922929 47.2502 0.990741 47.3557 1.05855C47.2418 0.6434 47.5207 0.941134 47.6664 0.927885C48.5997 0.843213 47.9737 0.574912 48.1338 0.434595C48.3913 0.2093 48.1963 0.920957 48.5789 0.706116C48.6143 0.68603 48.1501 0.385637 49.0552 0.553144C48.9217 0.565318 48.7882 0.577491 48.6548 0.589665C48.733 0.991309 49.1368 0.560604 49.1679 0.554871C49.523 0.498589 49.2833 0.644211 49.8101 0.435628C49.8572 0.416901 49.9601 0.515767 50.0607 0.465981C50.4776 0.260865 49.5093 0.344005 49.4823 0.181383C49.4695 0.101699 50.5112 0.11855 50.547 0.156294C50.6994 0.32363 50.0751 0.231667 50.1947 0.439625C50.2383 0.513461 51.7224 0.356937 52.0205 0.437082C52.3645 0.530353 52.5209 1.07475 52.5212 0.462509C52.62 1.06317 52.7044 0.65288 52.7484 0.656882C53.2801 0.710867 53.2811 0.716928 53.7367 0.657972C53.8373 0.645152 53.9228 0.827228 53.9583 0.796329C53.979 0.777669 53.9397 0.582656 54.041 0.522135C54.1817 0.439335 55.0296 0.637411 55.0929 0.745083C55.1562 0.852756 54.7352 0.79297 54.8112 0.970086C55.1158 0.987071 55.4078 0.942284 55.7144 0.960025C55.8418 0.967926 55.7767 1.09226 55.8318 1.09455C55.8552 1.09601 56.2946 0.985337 56.2758 0.939608C56.2319 0.833275 54.8742 0.909049 55.2311 0.690697C55.2999 0.648507 55.5445 0.933795 55.5047 0.586086C56.7181 0.661188 57.9315 0.736289 59.1449 0.811392C58.4487 1.07371 57.6636 0.84347 56.9335 0.870124C56.8335 0.873445 56.4951 0.840945 56.5368 1.01662C57.1578 1.06021 57.9293 0.966223 58.5258 1.07895C58.5449 1.08268 58.4754 1.24085 58.5469 1.26566C58.6806 1.31196 59.1148 1.05586 59.1881 1.12151C59.2007 1.13682 58.9538 1.34582 59.0295 1.47792C59.2237 1.81691 59.2704 1.06461 59.4366 1.07301C59.5651 1.07982 60.4295 1.44082 60.6438 1.21039C60.8716 0.964778 60.0071 1.07018 60.0704 0.869745C60.6549 0.666705 61.2481 0.879752 61.8009 0.852971C61.8106 0.852302 61.7256 0.695648 61.8489 0.67331C62.0634 0.634437 62.1205 0.856842 62.2251 0.892125C62.3379 0.929681 62.7363 0.896549 62.7898 0.977538C62.7967 0.988158 62.7166 1.20918 62.7044 1.21542C62.5311 1.30695 62.4685 1.0206 62.4527 1.01697C62.3933 1.00629 62.3354 1.11623 62.2812 1.10986C62.192 1.09923 62.1426 0.997845 62.025 0.989245C61.9438 0.982936 62.0227 1.17768 61.9444 1.16901C61.9157 1.16503 61.6045 0.720752 61.5771 1.17533C61.5686 1.31866 64.1024 1.49484 64.3553 1.37944C64.1379 1.32547 63.9205 1.27149 63.7032 1.21752C64.1447 1.34918 64.6734 0.984391 64.7126 1.52153C66.3483 1.56039 67.9841 1.59925 69.6198 1.63811C69.912 1.68298 69.7529 2.02872 70.2331 1.92675C70.1086 1.81715 69.9841 1.70754 69.8596 1.59794C70.1061 1.67433 71.1978 1.8217 71.3742 1.74993C71.3971 1.74052 71.4279 1.42796 71.7005 1.40027C71.9424 1.37582 71.9819 1.60981 72.1114 1.65426C72.2202 1.69092 72.3419 1.62921 72.3742 1.64203C72.399 1.6523 72.4092 1.79543 72.4688 1.82021C72.6569 1.89681 72.5034 1.4942 72.6913 1.95649C72.646 1.97427 72.6006 1.99205 72.5553 2.00983C72.7822 2.07612 73.0927 2.2853 72.759 2.39002C72.7016 2.40809 72.7505 2.26944 72.7077 2.26981C71.0306 2.30074 72.3707 2.56583 72.9578 2.34893C73.1094 2.55369 73.9549 2.42577 73.9832 2.46612C74.0224 2.52458 73.8782 2.68904 74.0684 2.83007C74.1084 2.85993 75.2391 2.74151 74.8327 3.01552C74.7488 3.07204 74.2063 3.01461 74.0756 3.02305C74.3845 3.45706 75.1037 2.83165 75.1848 2.84737C75.512 2.91414 74.5576 3.22627 75.2946 3.27453C75.8613 3.31156 75.3285 3.02278 75.546 2.89813C75.6682 2.82819 76.3104 3.14616 76.2917 2.73187C76.5117 2.68694 76.3835 2.90673 76.4107 2.92243C76.4374 2.93622 76.8697 2.81084 77.0104 2.89774C77.0275 2.90855 76.9745 3.12408 76.9922 3.14165C77.0265 3.17171 77.4437 3.12736 77.4605 3.10906C77.4711 3.09635 77.371 2.90811 77.4118 2.86226C77.4593 2.80938 77.861 2.85251 77.8829 2.79854C77.914 2.71695 77.4184 2.77217 77.5003 2.56107C77.729 2.61345 78.1009 2.47161 78.2512 2.30141C78.2144 2.35005 77.9929 2.35771 77.9159 2.34084C77.9511 2.03192 78.4269 2.03465 78.265 2.27957C78.368 2.14799 78.2972 2.07857 78.355 1.95451C78.3702 1.92308 78.5171 1.91617 78.5452 1.86261C78.5489 1.85195 78.3969 1.7359 78.4271 1.67309C78.4817 1.55958 78.9271 1.58369 78.9637 1.61332C79.0665 1.69726 78.7037 1.80035 78.6738 1.9307C78.6696 1.95071 78.9792 2.20501 78.9839 2.22754C79.0028 2.46935 78.6585 2.29611 78.6985 2.51377C78.7836 2.55951 78.8688 2.60525 78.9539 2.65099C78.6268 2.87254 78.0199 2.76102 77.8643 3.01235C78.3501 2.9362 78.8588 2.94345 78.8595 3.50837C78.8599 3.74629 78.6507 3.88641 78.659 3.94688C78.6906 4.16323 78.9809 3.92719 78.9917 3.93859C79.0006 3.95175 79.0046 3.96458 79.0047 3.97708C79.0047 3.97709 79.0047 3.97709 79.0047 3.9771C79.005 4.10383 78.5904 4.19637 78.5698 4.2543C78.5352 4.3572 78.7212 4.77972 78.7212 4.8733C78.7148 4.89212 78.4196 4.99316 78.5198 5.15616C78.6212 5.32081 78.8799 5.32365 78.889 5.34076C78.9387 5.43928 78.4866 5.53069 78.4733 5.589C78.4662 5.61849 78.7098 5.79876 78.717 5.85077C78.7232 5.90298 78.5389 6.0175 78.4667 6.18256C78.4128 6.30519 78.571 6.39858 78.5433 6.41786C78.5235 6.43065 78.096 6.42989 78.0751 6.45148C78.0439 6.48342 78.1445 6.62947 78.13 6.6661C78.1095 6.7188 77.9713 6.6664 77.9894 6.7205C78.0031 6.76081 78.5398 7.26368 78.5367 7.39846C78.5313 7.62833 77.963 7.10122 78.4931 8.00665C78.4968 8.0126 78.625 7.94773 78.6286 7.95331C78.7083 8.11995 78.2976 8.37795 78.8006 8.33152C77.8655 8.62428 78.6852 8.67741 78.5479 9.06487C78.4949 9.2138 78.1322 9.27627 78.1306 9.2986C78.1665 9.48721 78.2816 9.34049 78.3212 9.4329C78.343 9.48455 78.019 9.68509 78.0924 9.81443C78.1304 9.88108 78.475 9.85625 78.4892 9.86923C78.626 9.99165 78.4592 10.1245 78.4894 10.2117C78.5095 10.2701 78.7174 10.2741 78.7229 10.2846C78.7317 10.3065 78.4501 10.5437 78.3915 10.627C78.347 10.6911 78.5152 10.7907 78.484 10.8187C78.2966 10.9859 77.8953 10.5621 78.2826 11.1565C78.3062 11.193 78.4519 11.1778 78.4562 11.1851C78.5468 11.3536 78.2785 11.3691 78.2309 11.5074C78.1492 11.7459 78.5346 11.6119 78.2143 11.7804C78.4554 11.9354 78.5895 11.9285 78.871 11.8842C78.0916 12.0077 77.8183 12.6252 78.684 12.607C78.4085 12.5982 78.4402 12.9461 78.358 12.9525C78.3069 12.956 77.9066 12.6113 78.0921 13.387C78.1153 13.4839 78.3575 13.36 78.2822 13.5587C77.6998 13.5098 78.2702 13.685 78.2709 13.7113C78.2648 14.1686 76.8411 13.7984 76.5968 13.8513C76.3134 13.9127 76.0624 14.2738 76.0008 14.2745C75.7979 14.2753 75.9657 14.0918 75.9201 14.0246C75.8739 13.9581 75.2982 14.3104 75.2693 14.2913C75.1574 14.2143 75.2701 13.9971 75.2585 13.9862C75.1197 13.8538 74.3456 14.026 74.1285 13.9762C74.1357 14.1169 74.5711 14.1267 74.3 14.3534C73.9842 14.6178 73.9642 13.9978 73.9558 13.9705C72.5054 13.9809 71.0549 13.9913 69.6045 14.0017C69.6236 14.3315 70.5711 14.0798 70.5928 14.1231C70.7203 14.3799 69.1183 14.3801 68.9214 14.2642C69.0709 14.335 69.2205 14.4058 69.37 14.4766C69.1162 14.8566 68.5505 14.3657 68.1824 14.5342C68.0634 14.5889 68.2926 14.7345 68.2879 14.7445C68.1545 14.8922 67.9393 14.7794 68.0993 14.5812C67.7731 14.7717 67.8202 14.5625 67.5694 14.5475C67.5565 14.5469 67.6646 14.6996 67.4664 14.7637C67.3735 14.7936 66.8776 14.7956 66.8117 14.9297C66.7845 14.9861 67.0379 15.5788 67.0674 15.0679C67.6075 15.3152 67.239 14.8346 67.4486 14.8457C67.4807 14.8483 67.4077 15.1336 67.9349 14.9978C67.836 15.5122 67.2272 15.1297 67.1232 15.1923C66.9088 15.3209 67.7948 15.5837 67.9559 15.1824C67.8813 15.5839 68.0189 15.2363 68.2162 15.2522C68.4323 15.2694 68.3385 15.3892 68.4554 15.3894C68.775 15.3914 68.6416 15.1086 68.9059 15.3631C68.6465 14.5736 69.3566 15.2574 69.5635 15.4638C69.228 15.505 68.8925 15.5462 68.5569 15.5873C68.5763 15.6288 68.5956 15.6702 68.6149 15.7116C68.5265 15.706 68.438 15.7004 68.3496 15.6948C68.3637 15.655 68.3777 15.6152 68.3917 15.5754C67.9367 15.8354 67.8245 15.5451 67.7874 15.542C67.3087 15.5097 66.756 15.5139 66.2722 15.5145C66.1996 15.5146 66.2502 15.7731 65.7205 15.5722C65.5516 15.5083 65.7103 15.3065 65.5191 15.3373C65.2815 15.8849 65.2847 15.4487 65.2135 15.4482C65.0094 15.449 64.885 15.5848 64.8661 15.5863C64.614 15.6082 64.2445 15.5867 63.9675 15.6078C63.9623 15.6098 64.107 15.7774 63.9269 15.7282C63.8636 15.7107 63.2945 14.9952 62.7996 15.2306C62.9287 15.2786 63.0577 15.3266 63.1868 15.3746C63.035 15.3074 61.9735 15.4915 62.2338 15.6826C62.3934 15.7995 62.7805 15.336 62.8245 15.7804C62.4707 15.6485 60.5195 15.8535 60.3672 15.7507C60.3462 15.736 60.475 15.5914 60.446 15.573C60.4234 15.559 59.9765 15.5946 59.9169 15.5394C59.8815 15.5066 60.0788 15.4175 60.0626 15.3656C60.0484 15.3286 59.4898 15.2686 59.4585 15.4495C59.5954 15.3765 59.981 15.4387 59.7793 15.5917C59.7534 15.6107 59.6183 15.4945 59.5868 15.5186C59.2945 15.741 60.17 15.6851 60.3056 15.6865C59.7562 15.9186 58.9045 15.6497 58.2676 15.8018C58.0096 15.6521 58.6487 15.5704 58.3569 15.4467C57.7516 15.1901 58.1967 15.6552 58.178 15.6745C58.0284 15.8267 57.5144 15.0147 57.5161 15.634C57.2966 15.5414 57.3673 15.4631 57.0583 15.5451C57.0991 15.5879 57.1399 15.6306 57.1807 15.6734C56.8385 16.0332 56.1089 15.1304 56.1632 15.0612C56.3091 14.876 56.6884 15.163 56.7207 15.156C56.7685 15.1456 56.8989 14.5168 57.4242 15.077C57.6373 14.6549 56.5934 14.7951 57.0677 14.5064C56.7469 14.5545 55.4258 14.2653 55.2363 14.4509C55.2137 14.4751 55.3206 14.8947 54.9938 14.682C54.8386 14.5807 55.212 14.5746 55.1409 14.4792C54.9219 14.1862 51.9573 14.3832 51.3941 14.4005C51.3575 14.4011 51.3705 14.2707 51.3346 14.272C51.2243 14.276 50.8227 14.4716 50.625 14.4122C51.0349 14.6522 50.2402 14.6734 50.038 14.6475C49.731 14.608 49.7493 14.3786 49.6166 14.3303C49.1051 14.1438 48.3151 14.6908 47.9166 14.183C47.9399 14.6882 47.2293 13.9374 46.9071 13.934C46.6547 13.9311 46.2896 14.2666 46.6309 14.4692C46.1951 14.4473 45.7369 14.543 45.3283 14.5749C45.2608 14.5803 45.3533 14.4306 45.2381 14.4445C45.2276 14.4468 45.2136 14.5933 45.1147 14.6088C44.2981 14.7389 44.6947 14.4266 44.5415 14.3356C44.4558 14.2846 44.3926 14.2594 44.3463 14.2511C44.8224 14.221 45.3715 14.1618 45.5184 14.1572C45.3921 13.8343 44.4631 14.2226 44.1904 14.1364C44.1809 14.1333 44.2133 13.955 44.2037 13.9538C44.2035 13.9538 44.2033 13.9538 44.2031 13.9538C44.101 13.9404 43.451 14.0082 43.5855 14.2203C43.6216 14.2769 43.9209 14.2759 44.2757 14.2555C44.1798 14.2956 44.2522 14.495 44.2352 14.5036C44.03 14.6029 43.5257 14.4096 43.347 14.3839C43.3061 14.3783 43.3094 14.5062 43.3027 14.5065C43.1402 14.478 43.2057 14.1126 43.0402 14.4897C42.7445 14.0355 43.5914 14.4204 43.5309 14.125C43.4844 13.8975 41.6064 14.0256 41.6131 14.3841C41.6065 14.3458 41.5805 14.2983 41.5274 14.2443C41.4095 14.1243 40.8868 14.1636 40.7968 14.2299C40.7816 14.243 40.7887 14.591 40.7699 14.5942C40.7227 14.6024 40.0828 14.3315 39.8447 14.538C39.9738 14.5863 40.1028 14.6347 40.2319 14.6831C39.4535 14.6885 39.5741 14.7917 39.8338 14.8949C39.8467 14.8958 39.8594 14.909 39.8718 14.9104C40.073 14.9867 40.331 15.06 40.335 15.0874C40.35 15.1921 39.0296 15.2545 39.2827 14.9309C39.3179 14.8867 39.9294 15.0285 39.6261 14.7991C39.5731 14.7589 39.1809 14.8259 39.1602 14.8005C39.0218 14.6321 39.8779 14.4052 39.7724 14.1657C39.5652 14.3947 39.2979 14.2752 39.0596 14.3349C38.9511 14.3619 38.925 14.5365 38.9116 14.5398C38.7117 14.586 38.8234 14.4027 38.7566 14.4075C38.7208 14.4107 38.3277 14.8013 38.4005 14.2643C37.1025 14.6632 38.0423 14.6599 38.8393 14.6272C38.588 14.8235 38.094 14.7304 37.8726 14.7765C37.7931 14.7932 37.8408 14.9722 37.7066 15.0084C37.4305 15.0829 36.1103 14.8813 35.7664 14.8339C35.9773 14.7699 35.915 14.575 35.752 14.589C35.5891 14.6031 35.7268 14.8631 35.6951 14.8912C35.6611 14.9202 34.8962 14.7997 34.7691 14.8338C35.3444 14.7378 35.2139 14.5436 34.7253 14.5248C34.7958 14.4685 34.8662 14.4123 34.9367 14.356C34.6506 14.4356 34.0476 14.1407 33.8823 14.2296C33.8564 14.2438 33.9502 14.4071 33.9356 14.4151C33.7907 14.4851 33.2962 14.3198 33.2734 14.3757C33.254 14.4222 33.4652 14.5587 33.3872 14.6264C33.3709 14.6407 33.1671 14.4202 32.9672 14.4752C32.893 14.4954 32.9382 14.65 32.9195 14.659C32.7639 14.7339 32.8551 14.4731 32.5704 14.5159C32.3618 14.5475 32.2071 14.8027 31.9185 14.7192C32.8664 15.0409 32.07 14.9078 31.6744 15.0074C31.611 15.0233 31.6662 15.3039 31.2867 15.1684C32.0919 14.6581 31.0558 14.9007 30.8437 14.8958C30.8321 14.8941 30.8275 14.7089 30.7235 14.7063C30.7147 14.7065 30.7277 14.8316 30.631 14.8415C29.7144 14.9348 30.3003 14.7916 30.1257 14.6687C30.0514 14.6164 29.606 14.7947 29.4859 14.7994C29.4583 14.7999 29.4706 14.6698 29.3638 14.6752C29.1748 14.6852 29.0059 14.8241 28.8812 14.8355C28.8666 14.8362 28.8654 14.631 28.6291 14.6983C28.5627 14.7171 28.4882 14.7902 28.5828 14.8489C28.8966 15.0419 29.4897 14.7043 29.8443 14.8968C30.1676 15.0722 29.1498 15.092 29.0969 15.0932C29.0774 15.0939 29.2759 14.9914 29.0739 14.9719C28.9014 14.9556 28.5872 15.311 28.33 15.2346C28.3104 15.2289 28.104 14.9291 28.1135 14.9115C28.122 14.8987 28.4372 14.8325 28.3911 14.7457C28.3856 14.7358 28.1852 14.7384 28.1588 14.6738C28.1266 14.5951 28.0378 13.8219 27.9949 13.8027C27.8849 13.7551 27.957 13.9313 27.8859 13.9192C27.7334 13.8938 27.2043 13.6667 27.1879 13.9349C27.2753 13.9505 27.3626 13.9661 27.45 13.9818C26.9643 14.0109 27.1717 14.1243 27.103 14.1748C27.0291 14.2294 27.0492 13.9937 26.8854 13.9721C26.8498 13.9674 26.1648 14.0187 26.1776 14.1175C26.556 13.959 26.4164 14.2506 26.4339 14.2558C26.5004 14.2745 26.5846 14.1109 26.6737 14.1139C27.3001 14.1375 26.6692 14.3973 26.8173 14.4631C26.8683 14.4853 26.9693 14.3455 26.9909 14.3526C27.0611 14.3755 27.0628 14.5581 27.1096 14.5432C27.2188 14.5086 27.0904 14.2506 27.099 14.2371C27.1961 14.0751 27.5793 14.2751 27.342 14.557C27.4853 14.6579 27.501 14.3161 27.6148 14.4524C27.841 14.7222 27.5031 14.6537 27.4118 14.6989C27.0841 14.8619 26.9864 14.7311 26.522 14.7774C26.3548 14.7938 26.1572 14.9604 26.0796 14.9697C26.0307 14.9756 25.5673 14.3996 25.5565 15.3034C25.3768 15.2165 25.0934 14.6218 24.9086 14.6496C24.7427 14.675 24.7965 14.9945 24.781 15.0069C24.7573 15.0265 24.5566 15.0019 24.4888 15.0473C24.4094 15.1009 24.4495 15.2228 24.3234 15.273C24.0097 15.3974 24.0169 15.071 23.9846 15.0499C23.609 14.8059 23.7746 15.2696 23.6915 15.3071C23.6143 15.3415 22.5289 15.1662 22.3009 15.2844C22.3936 15.2188 22.4863 15.1531 22.579 15.0874C22.4121 14.8844 22.2368 15.217 22.2326 14.8519C22.2007 15.4414 21.8562 15.0485 21.7532 15.0641C21.7125 15.0704 21.7161 15.1709 21.6652 15.1754C21.4666 15.1936 21.0184 15.115 20.9108 15.1663C20.4455 15.387 21.6382 15.748 21.7321 15.7697C21.5443 15.7638 20.4823 15.8991 20.9715 16.1809C21.0471 16.2244 21.1801 15.9602 21.2225 15.9498C21.5092 15.881 21.2843 16.118 21.3068 16.1404C21.3452 16.1766 21.5334 15.9475 21.5833 15.9746C21.5999 15.9833 21.4935 16.1976 21.7672 16.2013C21.6333 16.4092 20.8635 16.2425 20.7627 16.2915C20.7268 16.3091 20.9535 16.7517 20.2938 16.3231C20.3016 16.3642 20.3093 16.4054 20.3171 16.4465C19.9506 16.4646 19.5841 16.4827 19.2175 16.5007C19.2571 16.4058 19.4623 16.2147 19.2032 16.2559C19.054 16.2798 19.1651 16.4906 19.1515 16.4968C19.0178 16.5553 16.647 16.4924 16.1877 16.5174C16.0315 16.5255 15.5964 16.6966 15.5632 16.6999C15.3647 16.7175 14.661 16.6092 14.5208 16.6336C14.4332 16.6492 14.5171 16.8255 14.4388 16.8175C14.366 16.8098 14.4409 16.6389 14.4192 16.6318C14.2401 16.5705 12.8812 16.7986 12.5579 16.6386C12.7553 16.6863 13.7389 16.3423 13.7187 16.222C13.7144 16.2056 13.4747 16.0765 13.4255 16.1399C13.3435 15.9924 13.0649 16.4432 12.9123 16.3553C12.8951 16.3453 12.9621 16.0928 12.6902 16.0478C12.5965 16.0324 12.3519 16.2299 12.1045 16.0102C11.7475 16.1172 9.86828 15.7958 9.74025 16.0673C9.73648 16.0816 10.0013 16.1742 9.82291 16.286C9.58581 16.4346 9.79761 15.9358 9.52061 15.8937C9.47886 15.8873 8.70872 15.9401 8.68359 15.971C8.45116 16.2513 9.12461 16.3625 9.11528 16.3951C9.09207 16.477 8.53294 16.5282 8.51015 16.509C8.48845 16.489 8.94342 16.1171 8.39575 16.2593C8.45868 16.3034 8.52161 16.3474 8.58453 16.3915C8.32703 16.4785 8.30167 16.2223 8.23917 16.2069C8.04489 16.1579 7.83608 16.5478 7.52355 16.068C7.44091 15.9406 7.57701 15.7985 7.56666 15.7794C7.46733 15.6079 7.3427 16.0678 7.19307 15.7255C7.18181 15.7 7.52692 15.4936 6.92262 15.495C6.96431 15.5277 7.006 15.5604 7.04769 15.5932C6.96271 15.6668 6.35099 15.7123 6.26862 15.6952C6.028 15.6452 6.23698 15.4087 5.99537 15.4377C6.15139 15.7604 5.41656 15.8049 5.45797 15.5265C5.3564 15.8763 4.73122 15.6086 4.4377 15.6012C4.2525 15.5968 3.87524 15.7505 3.81635 15.7329C3.7446 15.7112 3.76565 15.4727 3.63606 15.4201C3.5991 15.405 3.21435 15.581 2.87539 15.3353C2.8097 15.2879 2.6708 14.8839 2.7923 14.7824C3.00029 14.6088 3.39576 14.9334 3.38998 14.6945C3.38328 14.4388 2.85245 14.5925 2.70934 14.5596C2.04863 14.4073 2.42904 14.1344 2.4118 14.0521C2.36715 13.8523 2.00642 13.8596 1.99132 13.8417C1.92868 13.7621 2.18383 13.6031 2.18731 13.481C2.19147 13.3222 1.84286 13.0365 1.92175 12.9828C2.03467 12.9064 2.35497 13.1443 2.3752 13.1328C2.63846 12.9779 2.27581 12.612 2.17562 12.432C2.14524 12.3766 2.2653 12.2851 2.24021 12.2689C1.85718 12.0232 2.16123 12.785 1.90681 12.7348C1.67982 12.6901 1.97095 12.448 1.96224 12.4348C1.951 12.4202 1.67973 12.4079 1.637 12.3227C1.61594 12.28 2.31946 11.8087 2.28937 11.5984C2.06458 11.6455 1.83979 11.6925 1.615 11.7396C1.59652 11.4654 1.92067 11.6663 1.95405 11.6379C2.02124 11.5809 1.83296 11.4427 1.84076 11.356C1.84491 11.3008 2.06477 11.1033 1.86534 11.0228C1.79681 10.995 1.65375 11.1878 1.40383 10.9921C2.27069 10.7385 1.66895 10.5862 1.64308 10.4891C1.61772 10.3921 2.03123 10.1621 1.52857 10.2041C1.50512 9.67047 1.53889 10.0354 1.68146 9.94114C1.85612 9.82528 1.45108 9.65079 2.09116 9.78214C2.05399 9.53237 1.5399 9.55164 1.51262 9.53179C1.48906 9.51379 1.60297 9.39053 1.56209 9.34901C1.0786 8.86766 1.41034 9.08712 1.26978 8.77921C1.25728 8.7517 0.80137 8.63879 1.14805 8.59282C1.77965 8.50922 2.04482 8.86251 2.14865 8.10514C1.68027 7.77773 1.11552 8.26815 0.973472 8.27688C0.756052 8.28947 0.980839 8.13439 0.953909 8.0912C0.944558 8.07725 0.757207 8.09058 0.754652 8.07833C0.619243 7.50134 1.58884 8.06616 1.89324 7.96481C1.8113 7.87859 1.72936 7.79238 1.64741 7.70616C1.75821 7.70236 1.86901 7.69856 1.97981 7.69475C1.45138 7.52257 1.96099 7.629 2.09118 7.16106C2.1204 7.05592 1.77415 7.23715 2.16886 6.94395C1.87687 6.87746 1.96964 6.78165 1.70584 6.91426C1.71208 6.72684 2.30588 6.5136 2.54005 6.41672C1.71109 6.20869 2.18557 6.8946 1.46837 6.53314C1.3363 6.7656 1.67796 6.71936 1.6502 6.75775C1.55063 6.89577 1.31554 6.67783 1.03421 7.16122C0.988406 7.24059 1.18402 7.48383 0.895635 7.47294C0.863737 7.47137 0.679357 7.26355 0.681858 7.24844C0.70571 7.08515 0.887718 7.14575 0.895013 7.0776C0.901857 7.01309 0.699131 7.0525 0.698375 7.03463C0.691509 6.83019 0.86738 6.95596 0.841695 6.89203C0.786222 6.75299 0.0552216 6.31526 1.00787 6.44118C0.217642 6.67479 0.907304 6.66726 1.21504 6.57751C1.29352 6.555 1.31304 6.43281 1.42483 6.39008C1.56863 6.33474 1.73732 6.39285 1.81175 6.37021C1.8918 6.34525 1.43565 6.05798 2.09435 6.14209C1.75836 5.85597 1.16741 6.16395 0.837613 5.96335C0.172241 5.55799 1.29913 5.46702 1.41642 5.42718C1.44767 5.41638 1.34228 5.25177 1.36311 5.2416C1.39716 5.226 2.0371 5.30026 2.09976 5.16357C2.16224 5.02701 1.86547 5.17058 1.84527 5.02843C1.83158 4.93273 2.60277 4.76051 2.18481 4.69637C1.89673 4.6524 1.36719 5.03886 1.27651 4.62551C1.69985 4.58996 2.12319 4.5544 2.54653 4.51885C2.31427 4.36219 2.08202 4.20554 1.84977 4.04888C2.32489 3.9975 2.73631 4.1739 3.18701 3.9472C2.10076 3.44628 3.53795 3.54366 3.55357 3.48224C3.55874 3.44552 3.13053 3.03752 3.0616 2.96287C3.43943 2.80423 4.58877 2.72373 3.91464 2.22039C4.03707 2.33413 4.33182 2.05151 4.32785 2.03026C4.28962 1.80709 3.6453 1.95388 3.74983 1.75188C3.87097 1.51748 4.04272 1.83444 4.23012 1.8085C5.19174 1.67334 4.9242 0.508512 5.88941 0.689973C5.87009 0.648527 5.85078 0.607081 5.83146 0.565636C6.88018 0.62845 7.9289 0.691265 8.97762 0.75408C9.38675 0.396842 10.4779 0.176701 11.0142 0.214423C11.1222 0.221758 11.653 0.406935 11.6931 0.439564C11.7673 0.502104 11.3601 0.527317 11.5445 0.644439C11.5834 0.668475 12.4812 0.744193 12.4164 0.545237C12.3158 0.522458 12.0013 0.623542 11.9497 0.576775C11.5868 0.242951 14.3546 0.501964 14.4912 0.366562C14.4297 0.302073 14.3682 0.237584 14.3068 0.173094C14.4815 0.204374 14.6562 0.235654 14.8309 0.266933ZM6.85726 16.2869C6.75309 16.487 6.48999 16.3378 6.33498 16.3943C6.12083 16.4736 5.75875 17.2442 5.91328 16.4724C6.22794 16.4106 6.5426 16.3487 6.85726 16.2869ZM11.4597 16.5704C11.2483 16.4638 11.4107 16.0325 11.5843 16.211C11.6035 16.2313 11.7458 16.714 11.4597 16.5704ZM9.24572 16.3729C9.25459 16.3671 9.43707 16.378 9.44347 16.3847C9.60762 16.5572 9.05744 16.5235 9.24572 16.3729ZM19.9373 16.1187C19.7047 16.1381 19.8744 16.5291 20.0185 16.3675C20.0276 16.3573 19.9526 16.1178 19.9373 16.1187ZM19.7718 16.1089C19.59 15.7588 19.2283 16.4706 19.5174 16.3981C19.5454 16.3908 19.7802 16.1259 19.7718 16.1089ZM10.7066 16.4016C10.73 16.2671 10.948 16.3313 11.0411 16.3632C11.0389 16.4859 10.7978 16.3863 10.7066 16.4016ZM16.2282 16.3471C16.2371 16.2414 15.4802 16.2496 15.429 16.389C15.5483 16.3296 16.2198 16.4421 16.2282 16.3471ZM18.1689 16.1927C18.1497 16.1745 17.8883 16.2031 17.8962 16.2963C18.0242 16.4182 18.2556 16.2751 18.1689 16.1927ZM22.0273 16.187C22.0414 16.1635 21.8437 15.5709 22.309 15.9599C22.3773 16.0169 22.1345 16.1726 22.1587 16.1938C22.2095 16.2352 22.2497 16.2544 22.2819 16.2578C22.0659 16.3076 21.8415 16.3315 21.8197 16.2955C21.7172 16.1259 22.021 16.1968 22.0273 16.187ZM24.0515 15.7387C24.0958 15.6418 24.3803 15.6926 24.4451 15.7323C24.4563 15.7397 24.4086 15.9942 24.5366 15.9748C24.6393 15.9588 24.485 15.6988 24.6853 15.7398C24.8879 15.781 24.618 15.9675 24.6358 15.9807C24.6595 15.998 24.9722 15.8801 24.9629 16.0316C24.956 16.1438 24.6204 16.069 24.5376 16.0931C24.4315 16.124 24.5608 16.3106 24.3832 16.271C24.2716 16.2463 24.3324 15.9173 24.3088 15.9008C24.289 15.8875 23.8998 16.0779 24.0521 15.7397C24.0519 15.7394 24.0517 15.739 24.0515 15.7387ZM22.3403 16.2431C22.3241 16.2542 22.305 16.2602 22.2819 16.2578C22.3015 16.2533 22.321 16.248 22.3403 16.2431ZM7.46681 16.1408C7.57687 16.2418 7.25153 16.3728 7.12776 16.2404C7.12529 16.1333 7.44929 16.125 7.46681 16.1408ZM22.5399 15.9747C22.8612 16.0561 22.6254 16.1701 22.3403 16.2431C22.4307 16.1809 22.432 15.9476 22.5399 15.9747ZM13.4255 16.1399C13.4392 16.1644 13.4479 16.2026 13.4491 16.2654C13.4133 16.1968 13.41 16.16 13.4255 16.1399ZM14.1748 16.2497C14.431 16.0576 13.9094 16.0669 13.9131 16.2038C13.9148 16.2555 14.1646 16.2573 14.1748 16.2497ZM20.2357 16.1365C20.2121 16.1178 20.5752 15.539 20.0468 15.9742C20.3298 16.0414 20.0317 16.1052 20.0362 16.1558C20.0482 16.3012 20.5227 16.1599 20.6281 16.2224C20.7096 15.962 20.3134 16.1979 20.2363 16.1365C20.2361 16.1365 20.2359 16.1365 20.2357 16.1365ZM27.7026 15.8674C27.6387 16.0201 27.4344 15.9717 27.2967 15.9631C27.3605 15.8105 27.5648 15.8589 27.7026 15.8674ZM63.7522 15.7776C62.8087 15.9214 62.6845 15.301 63.5489 15.5437C63.5659 15.5488 63.8093 15.7145 63.7522 15.7776ZM55.6505 15.6418C55.5607 15.3715 55.8549 15.3271 56.0486 15.4382C56.0924 15.4632 56.255 15.7368 56.0705 15.791C56.0754 15.463 55.7893 15.3386 55.6505 15.6418ZM22.7208 15.8009C22.8137 15.6202 23.1019 15.7477 23.2536 15.7743C23.1615 15.9232 22.855 15.857 22.7208 15.8009ZM60.6494 15.4634C60.5498 15.4432 60.4834 15.6789 60.5006 15.6984C60.5778 15.788 60.7631 15.5971 60.6494 15.4634ZM21.7918 15.7758C21.7783 15.668 22.1592 15.563 22.1865 15.8295C22.105 15.8105 21.8015 15.8434 21.7918 15.7758ZM27.4426 15.7873C27.3832 15.7327 27.6894 15.6336 27.7822 15.6877C27.7751 15.8025 27.4815 15.8228 27.4426 15.7873ZM59.0477 15.5483C58.9586 15.5281 58.736 15.5226 58.7116 15.6178C58.6814 15.7369 59.0076 15.6953 59.0477 15.5483ZM75.6251 15.2915C75.6364 15.3342 75.2927 15.6434 75.1392 15.5659C74.8477 15.4176 75.6128 15.2613 75.6251 15.2915ZM61.5908 15.3391C61.8725 15.5621 61.5598 15.3463 61.5729 15.582C61.762 15.5899 62.2323 15.6 61.9083 15.3693C61.8451 15.3246 61.679 15.3541 61.5908 15.3391ZM61.3314 15.261C61.3015 15.3375 61.0997 15.5789 61.2747 15.5611C61.3556 15.5525 61.4853 15.2846 61.3314 15.261ZM73.4895 15.4029C73.237 15.195 74.3918 15.3034 74.4251 15.3398C74.4427 15.3591 74.4542 15.3772 74.4608 15.3926C74.503 15.3264 74.721 15.3138 74.7468 15.481C74.6814 15.4674 74.5029 15.4826 74.4821 15.4642C74.4732 15.4563 74.4665 15.4489 74.4619 15.4414C74.3854 15.5869 73.5379 15.4423 73.4895 15.4029ZM71.5759 15.194C71.8631 14.8853 71.9158 15.4086 71.891 15.4255C71.5779 15.6407 71.7813 15.254 71.7717 15.236C71.7496 15.206 71.5274 15.3858 71.5768 15.194C71.5765 15.194 71.5762 15.194 71.5759 15.194ZM73.0971 15.318C73.1089 15.3111 73.3509 15.3266 73.3609 15.3348C73.5597 15.5101 72.875 15.4672 73.0971 15.318ZM25.5772 15.3677C25.7506 15.4192 25.5813 15.6123 25.4659 15.5434C25.4565 15.5366 25.4243 15.3222 25.5772 15.3677ZM61.1932 15.3134C61.1529 15.2771 60.1252 15.143 60.1878 15.4337C60.275 15.3991 61.4431 15.5452 61.1932 15.3134ZM53.5158 15.2666C53.697 15.2683 53.5003 15.5432 53.4033 15.4413C53.3674 15.4034 53.4701 15.2663 53.5158 15.2666ZM21.2772 15.5283C21.0896 15.6796 21.1269 15.1739 21.2905 15.3467C21.2969 15.3535 21.2846 15.5224 21.2772 15.5283ZM54.9635 15.4198C54.3393 15.588 54.4846 14.7178 55.2977 15.0089C55.2724 15.0477 55.2471 15.0865 55.2218 15.1254C56.1598 15.2529 55.2861 15.1865 55.0567 15.2359C54.9695 15.2546 55.0431 15.3996 54.9642 15.4209C54.9639 15.4205 54.9637 15.4202 54.9635 15.4198ZM52.5631 15.2529C51.9595 14.6375 53.1094 15.0359 53.4386 14.9545C53.12 15.2104 52.704 15.1731 53.2704 15.4323C52.4437 15.4854 52.7871 15.2384 52.754 15.2181C52.7149 15.1953 52.5888 15.2794 52.5631 15.2529ZM54.1502 15.2439C54.1849 15.2257 54.4473 15.3506 54.5416 15.3298C54.4103 15.5411 53.9196 15.367 54.1502 15.2439ZM69.571 15.3434C69.5922 15.1781 69.6456 15.0563 69.8527 15.1174C69.789 15.2006 69.6571 15.2724 69.571 15.3434ZM6.65565 15.418C6.51319 15.4066 6.22939 15.3452 6.3169 15.5186C6.32646 15.5334 6.65552 15.5155 6.65565 15.418ZM58.2091 15.1887C58.1787 15.1685 57.3953 15.1573 57.6664 15.3388C57.7482 15.3935 58.4609 15.368 58.2091 15.1887ZM62.2658 15.1969C62.2002 15.1954 61.934 15.2274 61.9284 15.2665C61.9108 15.4016 62.2375 15.3263 62.2658 15.1969ZM5.93662 15.2511C5.91782 15.234 5.48288 15.2657 5.53095 15.3457C5.62219 15.497 6.0011 15.3099 5.93662 15.2511ZM26.2062 14.9787C26.2425 14.9724 26.2912 15.1518 26.3038 15.1537C26.3334 15.1562 26.9988 15.0851 26.7452 15.3163C26.7029 15.3551 25.7449 15.2695 25.6202 15.2472C25.5713 15.0009 25.9811 15.234 26.0806 15.2084C26.0981 15.2035 26.1087 14.9973 26.2059 14.9797C26.206 14.9794 26.2061 14.979 26.2062 14.9787ZM70.6479 15.1658C70.6767 15.009 71.459 14.9029 71.4505 15.0927C71.183 15.1171 70.9154 15.1414 70.6479 15.1658ZM70.2503 15.1411C70.0829 15.0308 70.4739 14.9929 70.5893 15.0414C70.5909 15.1468 70.2746 15.1572 70.2503 15.1411ZM60.7796 14.6163C60.7011 14.6549 60.9437 14.8827 60.8897 14.9273C60.8551 14.955 60.6791 14.8699 60.6233 14.9416C60.6075 14.9643 60.7874 15.1786 60.8392 15.1692C60.9128 15.1566 60.8409 14.9877 60.9212 14.9863C61.188 14.9818 61.4249 15.1017 61.675 15.0981C61.6976 15.0975 61.5221 14.9786 61.7148 14.9797C61.7445 14.9796 61.924 15.1569 62.1544 15.1298C62.6616 14.5775 63.037 15.1171 63.6823 14.9165C63.6578 14.8647 63.1743 14.7271 63.1459 14.7221C62.6057 14.6332 61.6384 14.6262 61.0729 14.6268C60.9278 14.6268 60.9987 14.7431 60.9362 14.7476C60.8868 14.7509 60.9448 14.5349 60.7796 14.6163ZM6.73093 15.2984C6.66238 15.083 6.42468 15.2202 6.27254 15.2095C6.32668 15.4039 6.58215 15.2511 6.73093 15.2984ZM66.7362 14.9849C66.66 14.9935 66.4234 14.9293 66.4041 14.9942C66.3792 15.0791 66.7205 15.1315 66.7362 14.9849ZM29.9598 15.0283C29.9672 15.0224 30.1506 15.0333 30.1576 15.0401C30.322 15.2126 29.7718 15.1789 29.9598 15.0283ZM34.3472 15.0562C34.4862 15.0291 34.6263 14.9613 34.6736 15.1361C34.5849 15.1096 34.3313 15.1781 34.3472 15.0562ZM40.3999 15.0322C40.3705 14.8033 40.7895 14.9503 40.8687 14.9706C40.8397 15.0725 40.4215 15.1972 40.3999 15.0322ZM69.5386 14.6245C69.7946 14.6372 69.7394 14.2904 69.9024 14.4469C69.929 14.4734 70.0169 15.1956 69.7348 14.9258C69.684 14.8773 69.8816 14.705 69.5386 14.6245ZM55.43 15.0158C55.4947 14.864 55.6982 14.9084 55.8357 14.9201C55.8052 15.0328 55.5278 15.0047 55.43 15.0158ZM5.15038 15.0802C5.02969 14.8666 4.47561 15.0271 4.61328 15.168C4.63285 15.1864 5.07256 15.0724 5.15038 15.0802ZM23.3693 15.1078C23.597 14.9386 23.1242 14.8879 22.9756 15.053C23.0431 15.042 23.354 15.119 23.3693 15.1078ZM38.9456 14.9122C38.9566 14.9053 39.1986 14.9208 39.2094 14.929C39.4082 15.1044 38.7235 15.0614 38.9456 14.9122ZM32.9036 14.7826C32.9904 14.6436 33.5638 14.7537 33.6927 14.8922C33.5697 15.0953 32.796 14.956 32.9036 14.7826ZM68.4859 14.7263C68.6684 14.7185 68.8418 14.7607 69.0097 14.8201C68.9747 14.937 68.5054 14.8134 68.4859 14.7263ZM39.8338 14.8949C39.8467 14.8958 39.8594 14.909 39.8718 14.9104C39.8589 14.9055 39.8462 14.8999 39.8338 14.8949ZM64.3991 14.657C64.246 14.6113 64.2784 14.8251 64.2879 14.8316C64.4032 14.9006 64.5725 14.7085 64.3991 14.657ZM6.55514 14.9814C6.5015 14.7886 6.24463 14.9391 6.09646 14.8936C6.13988 15.0459 6.43596 15.002 6.55514 14.9814ZM51.9175 14.8596C51.7246 14.6509 52.506 14.4054 52.6712 14.5397C52.6838 14.669 51.9457 14.8881 51.9175 14.8596ZM22.6599 14.8205C22.6441 14.6693 22.3163 14.8529 22.3862 14.9241C22.4306 14.9694 22.6694 14.9144 22.6599 14.8205ZM53.0648 14.6267C53.1381 14.5803 53.3098 14.729 53.2498 14.8202C53.1727 14.937 53.0458 14.64 53.0648 14.6267ZM59.6572 14.4849C59.625 14.4619 59.1934 14.6185 59.3723 14.7722C59.4965 14.879 59.5156 14.6603 59.5447 14.6596C59.5772 14.6602 60.2717 14.9256 59.6572 14.4849ZM47.5368 14.7414C47.6996 14.6827 47.8969 14.7496 48.0675 14.7449C47.9983 14.8387 47.6065 14.8654 47.5368 14.7414ZM23.9262 14.7761C23.8864 14.7151 22.8078 14.6816 23.421 14.868C23.4568 14.8785 24.047 14.961 23.9262 14.7761ZM69.5386 14.6245C69.5063 14.6228 69.469 14.6157 69.4258 14.6009C69.4687 14.6067 69.5061 14.6168 69.5386 14.6245ZM66.632 14.6106C66.6906 14.5003 66.3936 14.4718 66.3062 14.5307C66.2797 14.6653 66.6239 14.626 66.632 14.6106ZM48.08 14.5913C48.1781 14.528 48.3567 14.5947 48.4784 14.587C48.4581 14.6894 48.1228 14.6952 48.08 14.5913ZM41.1764 14.4975C41.3718 14.5577 41.612 14.529 41.6153 14.4038C41.6194 14.4234 41.6289 14.4441 41.6447 14.4649C41.6606 14.4856 41.8696 14.4267 41.9606 14.4691C42.5053 14.7213 39.8605 14.6247 41.3921 14.2665C41.3202 14.3435 41.2483 14.4205 41.1764 14.4975ZM32.1273 14.4903C32.016 14.3382 31.7063 14.5301 31.787 14.5899C31.8432 14.6308 32.2386 14.6434 32.1273 14.4903ZM36.3904 14.3868C36.3572 14.3597 36.0545 14.4674 36.047 14.5477C36.2214 14.6317 36.5416 14.5127 36.3904 14.3868ZM31.275 14.3144C31.2054 14.2917 31.1174 14.5377 31.1256 14.5484C31.1966 14.6379 31.3922 14.4509 31.275 14.3144ZM69.0064 13.9641C68.9027 13.894 68.5734 14.0729 68.5021 14.2354C68.4887 14.2041 68.4525 14.1633 68.3863 14.1144C68.3865 14.1144 68.3867 14.1144 68.3869 14.1144C68.2975 14.0491 65.6315 13.9858 67.4206 14.2927C67.4766 14.3026 67.3997 14.1571 67.6276 14.1821C67.6427 14.1839 67.6505 14.3028 67.697 14.3085C67.8041 14.3207 68.3742 14.3938 68.4884 14.2977C68.4895 14.3198 68.497 14.3407 68.5128 14.3599C68.6538 14.531 69.0869 14.0181 69.0064 13.9641ZM36.9909 14.3631C36.9299 14.3193 36.737 14.3617 36.7173 14.4667C36.8132 14.5179 37.1328 14.4655 36.9909 14.3631ZM23.8914 14.3456C23.7669 14.2597 23.4526 14.422 23.548 14.5075C23.6065 14.5601 24.035 14.4443 23.8914 14.3456ZM35.058 14.4252C35.7707 14.547 35.228 14.4146 35.3366 14.2603C35.2438 14.3153 35.1509 14.3702 35.058 14.4252ZM72.3042 14.3513C72.1905 14.3162 72.323 14.0121 72.4486 14.1765C72.488 14.2287 72.3678 14.3703 72.3042 14.3513ZM77.4325 14.241C77.3348 13.972 77.8087 14.1287 77.6248 14.3141C77.6162 14.3203 77.4395 14.2512 77.4325 14.241ZM73.8484 14.1421C73.7719 14.3257 73.7218 14.3476 73.5045 14.3029C73.8258 14.2503 73.5271 14.0891 73.8484 14.1421ZM41.6131 14.3841C41.6144 14.3915 41.6154 14.397 41.6153 14.4038C41.6138 14.3971 41.6132 14.3907 41.6131 14.3841ZM30.6055 14.3642C30.5158 14.2092 30.266 14.2214 30.3409 14.3775C30.3481 14.392 30.5693 14.4791 30.6055 14.3642ZM68.5021 14.2354C68.5141 14.2632 68.5081 14.2812 68.4884 14.2977C68.4875 14.277 68.4925 14.2574 68.5021 14.2354ZM31.9468 14.2335C31.9383 14.3494 32.3187 14.3933 32.334 14.3796C32.5516 14.178 32.1039 14.226 31.9468 14.2335ZM21.3761 14.1905C21.3565 14.2026 21.484 14.5014 21.5612 14.384C21.6209 14.2928 21.4495 14.1442 21.3761 14.1905ZM74.5857 14.0651C74.7061 14.0649 74.8757 14.0643 74.9074 14.2063C74.8266 14.1847 74.5835 14.1694 74.5857 14.0651ZM77.2466 14.0465C77.1048 14.214 76.7796 14.2145 76.5719 14.1876C76.5674 13.9677 77.1132 14.0986 77.2466 14.0465ZM69.3334 14.045C69.3234 14.0361 69.0212 13.9715 69.0629 14.1185C69.1239 14.3342 69.4188 14.1248 69.3334 14.045ZM21.9631 14.3474C22.0979 14.2457 21.7861 13.9351 21.6443 14.1762C21.5715 14.2996 21.9404 14.3645 21.9631 14.3474ZM29.8245 14.1633C29.6466 14.249 30.0888 14.3994 30.15 14.2453C30.0679 14.2332 29.8878 14.1329 29.8245 14.1633ZM35.8882 13.9889C35.3252 13.5467 35.6336 14.3555 35.733 14.284C35.747 14.2738 35.902 13.9993 35.8882 13.9889ZM3.75403 14.1973C3.67471 14.2593 3.97182 14.4818 4.00973 14.3346C4.03314 14.2424 3.80475 14.1579 3.75403 14.1973ZM44.3463 14.2511C44.3226 14.2526 44.299 14.2541 44.2757 14.2555C44.2932 14.2482 44.3161 14.2458 44.3463 14.2511ZM28.2049 13.5737C28.6022 14.1992 28.5591 13.7163 28.5935 13.7188C28.6678 13.7254 28.8408 13.8943 28.9806 13.866C28.8206 13.9371 28.6606 14.0081 28.5006 14.0792C28.6273 14.124 29.7276 14.3513 29.7504 14.2496C29.7829 14.1048 29.4371 14.1513 29.4269 14.1386C29.4124 14.1205 29.3571 13.7183 29.3249 13.7031C29.272 13.6788 28.3525 13.6733 28.2049 13.5737ZM34.7139 14.062C34.8044 14.1096 34.8306 14.2689 34.8724 14.2307C34.8866 14.2176 34.8885 14.0655 34.9372 14.026C34.8627 14.038 34.7883 14.05 34.7139 14.062ZM27.4987 14.1394C27.3862 13.9539 27.8882 14.0229 27.9043 14.0437C27.9906 14.1693 27.5906 14.2909 27.4987 14.1394ZM31.7565 14.0992C31.7382 14.0884 31.3527 14.0316 31.3561 14.1347C31.4583 14.213 31.9736 14.2342 31.7565 14.0992ZM34.9974 14.0155C35.1328 14.0328 35.3892 14.1851 35.3592 13.9562C35.359 13.9563 35.3588 13.9563 35.3586 13.9563C35.2382 13.976 35.1178 13.9957 34.9974 14.0155ZM22.4239 13.8625C22.1719 13.4986 22.2922 13.959 22.5147 14.0759C22.5815 13.912 22.4653 13.9217 22.4239 13.8625ZM21.6202 13.5931C21.5502 13.5277 20.8312 13.6018 20.9415 13.7944C20.9807 13.8631 21.3938 13.6884 21.4129 13.7016C21.4418 13.7213 21.3106 13.9352 21.531 13.8922C21.5179 13.8199 21.6442 13.6149 21.6202 13.5931ZM22.2156 13.6296C21.9654 13.3531 21.911 13.8647 22.0985 13.8655C22.1717 13.8662 22.2513 13.6695 22.2156 13.6296ZM23.2341 13.6701C23.1442 13.6218 22.9051 13.5518 22.7409 13.7224C22.9613 13.7363 23.1818 13.7501 23.4022 13.764C23.4274 13.6675 23.3127 13.7125 23.2335 13.6701C23.2337 13.6701 23.2339 13.6701 23.2341 13.6701ZM78.7407 12.7313C78.5422 12.5869 78.9984 12.5299 79.0178 12.5655C79.0755 12.6836 78.8295 12.7958 78.7407 12.7313ZM2.19233 9.55563C2.1371 9.49798 2.10053 9.30786 1.97969 9.4079C2.10199 9.54795 2.22428 9.688 2.34658 9.82805C2.44028 9.50599 2.25268 9.61921 2.19233 9.55563ZM1.72335 8.38143C1.74054 8.37358 1.64497 7.8791 1.86838 8.20873C2.01933 8.4313 1.2029 8.6512 1.05472 8.43227C1.21738 8.32982 1.57536 8.44541 1.72335 8.38143ZM0.285437 6.24419C0.275893 6.20476 0.586151 6.14593 0.622169 6.17363C0.811298 6.31966 0.337064 6.45542 0.285437 6.24419ZM1.27608 6.33555C1.13019 6.23992 1.45253 6.17698 1.54881 6.23198C1.55842 6.32404 1.29861 6.34947 1.27608 6.33555ZM76.7125 5.57163C76.5539 5.23585 76.4152 5.96017 76.6572 5.81357C76.6687 5.80668 76.7193 5.58808 76.7125 5.57163ZM0.587385 5.74415C0.733271 5.83978 0.410939 5.90271 0.314649 5.84772C0.305425 5.75575 0.565174 5.73017 0.587385 5.74415ZM76.5991 4.77092C76.3891 4.5296 76.4653 5.34148 76.4916 5.37413C76.5997 5.50304 76.968 5.18314 77.0432 5.10367C76.4908 5.22725 76.698 4.88464 76.5991 4.77092ZM75.6356 5.2616C75.4417 5.34884 75.9383 5.513 76.0323 5.28631C75.9358 5.29744 75.6907 5.23638 75.6356 5.2616ZM74.4567 5.0048C74.3522 4.97604 74.0416 4.90736 73.9899 5.0353C74.1038 5.01182 74.413 5.13642 74.4567 5.0048ZM74.2192 4.62265C74.0555 4.44953 74.018 4.95554 74.2056 4.80428C74.2129 4.79842 74.2252 4.63228 74.2192 4.62265ZM73.3015 4.44287C73.1939 4.24201 73.0732 4.73232 73.2467 4.74499C73.2982 4.74785 73.3129 4.4659 73.3015 4.44287ZM76.3345 3.89805C76.181 3.81213 75.9846 4.16359 76.3119 4.20111C76.1972 4.25508 76.0824 4.30904 75.9677 4.36301C76.3968 4.55834 76.3639 4.07188 76.487 4.09161C76.659 4.11967 76.6467 4.52122 76.6126 4.6474C76.7528 4.40098 77.3518 4.39519 77.6979 4.34727C77.3933 4.24498 76.899 4.06754 76.5985 4.00307C76.5127 3.9844 76.4299 4.09477 76.3568 4.08268C76.2395 4.06271 76.3431 3.90384 76.3351 3.89805C76.3349 3.89805 76.3347 3.89805 76.3345 3.89805ZM72.096 4.43934C71.7807 4.21241 71.9811 4.70384 72.1586 4.61554C72.1662 4.60876 72.1038 4.44488 72.096 4.43934ZM0.165637 4.25021C0.58654 4.45458 0.281903 4.72811 1.1598 4.31147C0.791345 4.60564 1.14003 4.52226 1.0683 4.64068C1.01075 4.73438 0.79379 4.6576 0.920347 4.84556C0.75413 4.64107 0.0354259 4.7 0.00327387 4.66681C0.00357525 4.66681 0.00387664 4.66681 0.00417802 4.66681C-0.015132 4.64715 0.0313281 4.18522 0.165637 4.25021ZM74.4512 3.71814C74.3444 3.12144 74.3062 4.06918 74.0984 3.575C73.826 4.29439 74.857 3.57276 74.984 4.17928C73.8617 4.11224 75.7271 4.77836 74.9411 3.87227C75.5873 4.20002 75.1522 3.7591 75.2514 3.64303C75.3576 3.51939 75.723 3.65227 75.7038 3.42995C75.7036 3.42995 75.7033 3.42995 75.7032 3.42995C75.48 3.44621 75.2568 3.46246 75.0336 3.47872C75.2536 3.95775 74.797 3.81532 74.641 3.42494C74.5778 3.52268 74.5145 3.62041 74.4512 3.71814ZM75.716 4.16456C75.6939 4.15365 75.2086 4.22238 75.2403 4.31857C75.3053 4.37978 75.9942 4.30401 75.716 4.16456ZM77.8525 4.05314C77.6781 4.05251 77.4083 3.95976 77.3139 4.14094C77.4882 4.14161 77.7581 4.23441 77.8525 4.05314ZM68.8756 4.04671C68.6539 4.19583 69.3382 4.23768 69.1397 4.06249C69.1299 4.05425 68.8865 4.03974 68.8756 4.04671ZM73.946 3.80998C73.7195 3.62823 73.8281 4.20865 73.995 4.05679C74.0047 4.04784 73.9565 3.81827 73.946 3.80998ZM0.505983 4.1786C0.520655 4.03627 1.13073 4.13432 1.23882 4.13275C1.17781 4.2652 0.489151 4.34177 0.505983 4.1786ZM78.1576 3.51989C77.8092 3.00934 77.3403 3.60174 77.2886 3.58899C77.2373 3.57599 77.3171 3.35209 77.3054 3.34613C77.2787 3.33367 76.7321 3.35413 76.7057 3.36978C76.6868 3.38197 76.7867 3.69595 76.6741 3.79531C76.8937 3.61604 77.8933 3.72467 77.9451 3.68968C77.9852 3.66175 77.6813 3.33264 78.157 3.51989C78.1572 3.51989 78.1574 3.51989 78.1576 3.51989ZM77.1594 3.5209C77.2964 3.65222 76.9135 3.6699 76.8207 3.62157C76.6144 3.51341 77.1419 3.50535 77.1594 3.5209ZM76.238 3.40235C76.1942 3.37294 75.7994 3.34732 75.7663 3.49409C75.9538 3.68377 76.3374 3.4709 76.238 3.40235ZM71.8463 3.43567C71.7439 3.45478 71.4616 3.34295 71.4459 3.47116C71.5484 3.45215 71.8306 3.56389 71.8463 3.43567ZM2.58298 3.05359C2.41235 2.94688 2.80676 2.90185 2.92203 2.95292C2.92854 3.0384 2.5975 3.06275 2.58298 3.05359ZM73.904 2.58466C73.8431 2.54587 72.6053 2.64696 72.4318 2.70751C72.602 2.8039 73.8291 2.80755 73.8846 2.76008C73.9008 2.74587 73.9117 2.59077 73.904 2.58466ZM76.5816 2.51722C76.6945 2.32814 76.7693 2.55426 76.7836 2.55706C76.9241 2.5855 77.2151 2.54205 77.1518 2.72402C76.9039 2.65145 76.3567 2.8927 76.5816 2.51722ZM71.7557 2.58197C71.3354 2.65331 72.1436 2.84964 72.0371 2.6527C72.0302 2.64079 71.7991 2.57449 71.7557 2.58197ZM74.0421 2.52924C74.1344 2.37645 75.3734 2.50413 75.5722 2.50374C75.395 2.78557 75.2508 2.57237 75.0116 2.58745C74.947 2.59186 74.9646 2.70882 74.9577 2.70902C74.8459 2.71479 74.9292 2.57938 74.8602 2.57755C74.8167 2.57675 73.9123 2.7445 74.0421 2.52924ZM76.646 2.38628C76.7149 2.27787 77.4881 2.22936 77.5193 2.25802C77.7527 2.47112 76.7062 2.42375 76.646 2.38628ZM73.9277 2.27952C74.0599 1.95221 74.6757 2.16923 74.2552 2.3335C74.215 2.34845 74.0444 2.20727 73.9277 2.27952ZM71.7996 2.27055C71.7789 2.261 71.3404 2.19701 71.3329 2.30105C71.3963 2.34127 72.0353 2.37555 71.7996 2.27055ZM72.0258 1.91808C72.0152 1.92061 72.1186 2.12062 71.913 2.09587C71.8959 2.09354 71.8632 1.86825 71.6051 1.95156C71.5527 1.96871 71.472 2.11806 71.4779 2.12731C71.748 2.48018 72.5561 1.80024 72.0258 1.91808ZM76.6596 2.20361C76.6176 2.1086 76.7173 1.82593 76.8083 1.96864C76.8474 2.03027 76.7754 2.19995 76.6596 2.20361ZM70.4093 2.18354C70.6636 2.0115 69.8636 1.98161 69.823 2.02556C69.849 2.13215 70.3839 2.20034 70.4093 2.18354ZM2.97761 1.73041C2.97741 1.73041 2.97721 1.73041 2.97701 1.73041C3.19148 1.76855 3.05915 1.91142 3.06921 1.91586C3.52643 2.12369 3.40433 1.80141 3.47561 1.76311C3.62845 1.68028 3.605 2.07274 3.86274 1.90925C3.43661 2.15081 3.82486 2.0489 3.83738 2.18846C3.88699 2.75799 3.26821 1.92347 3.05574 2.04354C3.02613 2.06016 3.24565 2.2413 3.16983 2.29325C2.92332 2.46161 2.15465 1.58457 2.97761 1.73041ZM76.8782 1.94352C76.9771 1.77588 77.7318 1.93584 77.5323 2.07431C77.5002 2.09651 76.7328 2.18787 76.8782 1.94352ZM41.6425 1.80571C41.8234 1.66034 41.4027 1.4914 41.3252 1.60436C41.2867 1.66063 41.5631 1.86951 41.6425 1.80571ZM38.6949 1.19537C38.4796 1.22544 38.2544 1.83003 38.5221 1.73548C38.5505 1.72515 38.7198 1.27906 38.6949 1.19537ZM52.8404 1.46181C52.6148 1.24669 52.6295 1.64763 52.7946 1.64146C52.8529 1.63935 52.8475 1.46861 52.8404 1.46181ZM44.256 1.54028C44.2334 1.52635 43.9734 1.55276 43.9832 1.64489C44.0795 1.69988 44.4018 1.63591 44.256 1.54028ZM52.9117 1.40452C52.7785 1.4772 53.009 1.7665 53.1711 1.48257C53.0884 1.50608 52.9254 1.39709 52.9117 1.40452ZM73.4603 1.39482C73.3491 1.55982 73.033 1.51104 72.8516 1.5399C72.8314 1.32665 73.3307 1.4339 73.4603 1.39482ZM39.61 1.43534C39.4066 1.58632 39.8438 1.70805 39.8032 1.50946C39.7976 1.49868 39.6181 1.42891 39.61 1.43534ZM60.0969 1.36047C59.9491 1.48817 60.4203 1.65784 60.29 1.43458C60.2836 1.42548 60.105 1.35336 60.0969 1.36047ZM62.1523 1.42777C62.0397 1.3852 61.5602 1.39989 61.7472 1.52345C61.7763 1.54244 62.1442 1.54435 62.1523 1.42777ZM3.48779 1.6095C3.42651 1.39056 3.77839 1.44163 3.82886 1.47978C3.84869 1.49564 3.5677 1.89435 3.48779 1.6095ZM51.3795 1.43209C51.2632 1.45987 50.9612 1.4087 50.9084 1.52382C51.0507 1.49959 51.4185 1.66097 51.3795 1.43209ZM40.5398 1.43143C40.3615 1.19387 40.0582 1.21831 40.1341 1.52918C40.4692 1.5073 40.0918 1.24968 40.5398 1.43143ZM53.6604 1.1459C53.567 1.12802 53.4965 1.42702 53.507 1.44106C53.6086 1.57467 53.7535 1.26186 53.6604 1.1459ZM46.6579 1.41351C46.6521 1.28585 46.3532 1.34473 46.3933 1.42678C46.4065 1.45433 46.6626 1.51683 46.6579 1.41351ZM69.542 1.33432C69.4046 1.21821 69.8229 1.10297 69.9471 1.23864C70.0079 1.4345 69.5594 1.34766 69.542 1.33432ZM56.2487 1.21259C56.262 1.02306 55.7947 1.13164 55.9794 1.28814C56.0257 1.32729 56.244 1.27596 56.2487 1.21259ZM60.7244 0.971484C60.4115 1.19842 61.729 1.35476 61.3821 1.07425C61.3573 1.05426 60.7517 0.952317 60.7244 0.971484ZM62.8758 1.10594C62.8216 1.08121 62.8466 0.444405 63.0713 0.689239C63.1008 0.72099 62.9639 0.889731 62.988 0.928155C63.0022 0.95005 63.4894 1.03797 63.5118 1.02303C63.5359 1.00608 63.5068 0.802092 63.5312 0.779126C63.5587 0.753458 63.8591 0.931799 64.0161 0.933271C64.3119 0.935716 64.3433 0.765759 64.3676 0.765122C64.4382 0.763777 64.5574 0.884012 64.7006 0.883419C65.4228 0.879827 66.5268 0.732426 67.1003 1.09078C66.5904 0.947738 66.1055 1.10268 65.5987 1.15146C65.7461 0.796447 64.8538 1.42696 65.3756 1.01622C65.135 1.10571 63.0534 1.18313 62.8764 1.10594C62.8762 1.10594 62.876 1.10594 62.8758 1.10594ZM37.8441 1.01953C37.9758 0.801725 37.297 0.85273 37.2401 1.10441C37.3299 1.13904 37.8278 1.04422 37.8441 1.01953ZM40.9751 0.479599C41.038 0.441878 41.0966 0.0167512 41.4279 0.231237C41.4282 0.231236 41.4285 0.231235 41.4288 0.231234C41.5257 0.293872 41.4158 0.397756 41.4337 0.434597C41.4402 0.449643 41.7423 0.660094 41.492 0.694865C41.1103 0.748203 41.4551 0.378846 41.2514 0.374979C41.2265 0.374708 40.8418 0.60592 40.8644 0.656341C40.8667 0.662215 40.9826 0.613197 41.0018 0.634125C41.0744 0.71279 41.0396 0.845596 41.0498 0.851881C41.0832 0.86796 41.6919 0.640001 41.7812 0.837163C41.8102 0.90074 40.8103 1.05071 40.7712 1.01773C40.7465 0.996946 40.7557 0.628571 40.7301 0.592423C40.7169 0.574419 40.315 0.713695 40.2626 0.679995C40.2474 0.670248 40.2358 0.659726 40.2273 0.651051C40.2885 0.764823 39.9241 0.757746 39.9348 0.629128C39.941 0.57857 40.1919 0.607046 40.2009 0.615852C40.2049 0.61958 40.2083 0.624725 40.2115 0.628271C40.1592 0.489551 41.0083 0.493185 40.8244 0.287064C41.0702 0.173075 40.7904 0.590377 40.9751 0.479599ZM42.1576 0.248692C42.1323 0.287509 42.107 0.326326 42.0817 0.365142C42.5124 0.268991 43.0102 0.453931 43.5066 0.451004C43.6326 0.450543 43.487 0.214075 43.6523 0.278304C43.7847 0.329778 43.9318 0.549072 43.86 0.598292C43.8425 0.610571 43.5728 0.468277 43.438 0.483383C43.0402 0.528101 43.1414 0.73096 43.1181 0.736521C43.0925 0.742376 42.8416 0.600272 42.7048 0.607058C42.361 0.624569 42.2043 0.749793 41.734 0.588275C42.0047 0.453534 41.8553 0.163103 42.1576 0.248692ZM58.2218 0.631626C58.2378 0.503694 58.5202 0.61628 58.6226 0.59718C58.6069 0.725426 58.3243 0.612516 58.2218 0.631626ZM16.1975 0.595783C16.1115 0.805903 16.7609 0.855853 16.5892 0.681732C16.5513 0.643088 16.279 0.597024 16.1975 0.595783ZM19.1144 0.714377C19.201 0.65609 18.8509 0.506083 18.852 0.668496C18.8527 0.720577 19.1032 0.721957 19.1144 0.714377ZM47.7287 0.437925C47.7452 0.431303 47.9842 0.477302 47.9917 0.487955C48.1507 0.710286 47.364 0.583936 47.7287 0.437925ZM22.6591 0.445024C22.3568 0.58351 23.2681 0.640304 22.9891 0.465792C22.9752 0.457293 22.6736 0.438294 22.6591 0.445024ZM23.9254 0.402709C23.8528 0.410306 23.5304 0.343009 23.5263 0.407058C23.5202 0.510386 23.8893 0.579833 23.9254 0.402709ZM53.721 0.352954C53.6853 0.116614 54.1107 0.29436 54.2584 0.264127C54.2942 0.50063 53.8685 0.322636 53.721 0.352954ZM51.0384 0.186939C52.8292 -0.0050038 52.4358 0.501402 50.9321 0.302447C50.9294 0.150765 50.9254 0.199029 51.0384 0.186939ZM53.3323 0.20785C53.2677 0.359528 53.0641 0.315241 52.9267 0.303532C52.951 0.19814 53.2333 0.235381 53.3323 0.20785ZM15.4234 0.273399C15.5352 0.0817005 16.0334 0.316061 15.9452 0.395262C15.9247 0.41237 15.3825 0.378756 15.4234 0.273399ZM47.8782 0.235122C47.8358 0.00529823 48.374 0.0974301 48.4153 0.148372C48.582 0.353269 47.9216 0.184233 47.8782 0.235122ZM56.2628 0.142739C56.3572 -0.0376739 56.6273 0.0541328 56.8008 0.0559861C56.7223 0.210246 56.4101 0.145524 56.2628 0.142739ZM55.0098 0.0055017C55.0207 -0.00144613 55.2627 0.0140662 55.2736 0.0223239C55.4724 0.197635 54.7877 0.154701 55.0098 0.0055017ZM2.67509 0.00159714C2.68313 -0.00423188 2.86643 0.00668549 2.87284 0.0134368C3.03694 0.18586 2.48681 0.152228 2.67509 0.00159714Z" fill="#333333"/>
</svg>
