<svg width="95" height="18" viewBox="0 0 95 18" fill="none" xmlns="http://www.w3.org/2000/svg">
<path d="M7.23535 16.902C7.29432 16.881 7.53026 16.9357 7.63268 16.9275C7.51453 17.1545 7.0226 16.9783 7.23535 16.902ZM17.8892 0.44179C17.8038 0.497367 17.7183 0.552945 17.6329 0.608522C17.8738 0.647422 18.1986 0.609094 18.422 0.664713C18.4586 0.674044 18.362 0.836379 18.4486 0.844482C18.5352 0.852539 18.5206 0.629317 18.6469 0.606641C18.7886 0.581885 19.4347 0.743378 19.659 0.741716C20.4978 0.734544 21.345 0.615107 22.1845 0.715653C21.3153 0.872526 22.188 1.04871 22.4317 0.979473C22.4857 0.963419 22.481 0.54864 23.3505 0.661242C23.9031 0.732705 23.3866 1.32077 24.3125 1.03244C23.6066 0.61101 24.3043 0.646641 24.8609 0.638085C24.9569 0.636545 25.731 0.706143 26.0734 0.690993C26.1906 0.685705 26.371 0.470163 26.5264 0.465923C26.6333 0.463168 26.713 0.582682 26.8718 0.578127C27.6119 0.558316 28.3397 0.555923 29.0805 0.603044C28.6421 1.15717 29.4182 0.844139 29.4527 0.871153C29.6278 1.02437 28.8288 1.06 29.1437 1.15776C29.5853 1.14462 30.0268 1.13147 30.4684 1.11833C30.1068 1.04639 30.9524 0.652781 31.1056 0.836885C31.042 0.342995 33.1133 1.2851 33.4314 1.12336C33.4977 1.08919 33.0683 0.841349 34.0686 0.962285C34.1769 0.975695 34.1345 1.12413 34.1915 1.11079C34.2257 1.10277 34.4363 0.631706 34.6535 0.895146C34.7328 0.991297 34.2167 1.29713 35.3448 1.18286C34.9005 0.697216 36.9098 0.936828 37.2787 1.06095C37.2053 0.995581 37.132 0.930209 37.0587 0.864838C37.4229 1.04275 37.4904 0.879691 37.5727 0.889386C37.9045 0.928338 38.3595 1.09758 38.669 1.08544C39.0312 1.07152 39.0352 0.772136 39.4562 0.892567C39.3567 0.825565 39.2571 0.758564 39.1576 0.691562C39.449 0.710212 39.7403 0.728863 40.0316 0.747513C39.3529 1.13749 40.177 0.76779 40.2312 0.759766C40.3175 0.746153 40.1921 0.90724 40.3365 0.888392C40.3515 0.885206 40.3313 0.732211 40.5538 0.717141C41.0185 0.686176 40.9433 0.877591 41.1383 0.877252C41.1562 0.876429 41.0949 0.738192 41.432 0.708795C42.5033 0.615191 41.4257 0.814229 41.3844 0.83287C41.3302 0.857458 41.6918 1.43614 40.7846 1.22362C41.0892 1.29143 41.1175 1.54627 41.1519 1.55291C41.1822 1.55839 41.7115 1.52751 41.7407 1.51902C42.0016 1.43502 41.7744 1.25892 41.8254 1.22822C41.8671 1.20348 42.5022 1.43617 42.6564 0.914354C42.9568 1.39983 42.4769 1.35109 41.9649 1.42047C41.8894 1.5188 42.45 1.62038 42.4795 1.62039C43.2037 1.62632 42.8065 1.22558 42.9672 0.973311C43.0516 0.841322 43.3441 1.11492 43.0751 0.756411C43.7328 0.725018 43.3322 0.927536 43.3743 0.95846C43.438 1.00391 43.669 0.904057 43.6976 0.917917C43.7397 0.938432 43.5916 1.06029 43.7578 1.10527C43.7855 1.11184 44.0559 0.902289 43.7107 0.797669C44.1729 0.832166 44.1365 0.650972 44.29 1.01688C44.615 0.330414 44.5173 1.42658 44.6424 1.46639C44.975 1.57136 44.8833 1.02914 44.9011 1.00291C45.0241 0.834891 45.9457 1.02953 46.1751 0.953662C46.0812 1.3427 45.4431 0.951037 45.2988 1.02533C44.818 1.27247 45.9713 1.22659 45.6193 1.71321C45.7662 1.58004 45.9132 1.44687 46.0601 1.31369C46.3242 1.63118 45.944 1.76496 46.6639 1.65662C46.784 1.38586 46.1553 1.69478 46.2828 1.48182C46.358 1.35683 46.7751 1.33376 46.7839 1.26758C46.7929 1.1879 46.4153 1.27888 46.4758 1.15676C46.6079 0.893248 47.9796 1.15819 46.9323 1.29284C47.224 1.29106 47.3694 1.81903 47.6239 1.65734C47.7885 1.55239 46.875 0.816495 48.2545 0.962836C48.2816 1.21176 47.7018 1.03107 47.6866 1.04985C47.6651 1.07719 47.765 1.63927 47.7829 1.66714C47.8465 1.75893 49.2594 1.47173 49.5547 1.75643C49.4398 1.43104 50.6207 1.70859 50.7506 1.61099C50.7851 1.58403 50.6587 1.38418 50.6956 1.3635C50.9256 1.24052 51.5413 1.60093 51.8284 1.61282C52.1496 1.62625 52.1105 1.45431 52.1285 1.4548C52.2698 1.4657 52.1557 1.58094 52.2422 1.58143C52.3727 1.5821 53.2699 1.61432 53.3152 1.59048C53.3284 1.58304 53.1838 1.38568 53.3798 1.35035C53.4137 1.34422 53.39 1.57638 53.9704 1.48146C54.6692 1.3673 53.4885 1.18795 53.7808 0.947344C54.2257 1.29802 54.2144 0.954553 54.3357 0.982654C54.3777 0.992869 54.6881 1.28772 55.0284 1.27245C54.7838 1.31754 54.5393 1.36263 54.2947 1.40772C54.5342 1.46116 55.0008 1.40219 55.198 1.46187C55.2942 1.49092 55.2125 1.72998 55.4221 1.72547C55.4666 1.72321 55.6485 1.14063 55.0972 1.39762C55.0553 1.1886 55.3151 1.3269 55.4369 1.26903C55.4553 1.26001 55.5308 0.912176 55.6835 1.13023C55.7202 1.18386 55.3061 2.19669 56.3562 1.47068C56.39 1.44728 56.2744 1.31887 56.3075 1.29278C56.3301 1.27512 56.596 1.32912 56.6256 1.31134C56.6558 1.29224 56.5285 1.15203 56.5646 1.12502C56.7496 0.985811 56.9855 1.53936 56.6072 1.4938C56.7331 1.56312 56.8591 1.63245 56.985 1.70177C56.8534 1.28501 57.185 1.58674 57.3602 1.57559C58.4836 1.50437 57.7344 1.22707 57.9287 1.08907C58.2413 0.867506 57.9975 1.57629 58.4603 1.36698C58.5031 1.34741 57.9489 1.04035 59.035 1.22088C58.8744 1.23113 58.7137 1.24138 58.5531 1.25163C58.6419 1.65437 59.133 1.22952 59.1705 1.22423C59.5981 1.17307 59.308 1.31523 59.9442 1.11425C60.001 1.0962 60.1235 1.19654 60.2451 1.14821C60.749 0.949114 59.5837 1.0183 59.5534 0.855305C59.5391 0.775443 60.7913 0.807294 60.8339 0.845552C61.0149 1.01507 60.2655 0.914121 60.4066 1.12378C60.458 1.19824 62.2445 1.06311 62.6018 1.14754C63.0142 1.24575 63.1951 1.79236 63.2035 1.18017C63.3145 1.78221 63.4213 1.37317 63.4742 1.3778C64.1127 1.43944 64.1138 1.44552 64.6624 1.39312C64.7835 1.38176 64.884 1.56505 64.9271 1.53466C64.9521 1.5163 64.9074 1.32074 65.03 1.26168C65.2003 1.18092 66.2172 1.39119 66.2919 1.49976C66.3666 1.60834 65.8612 1.54249 65.9502 1.72069C66.3163 1.74206 66.6679 1.70148 67.0363 1.72364C67.1894 1.73337 67.1096 1.85675 67.1757 1.85985C67.2038 1.86164 67.7336 1.7573 67.7116 1.71131C67.6601 1.60435 66.0267 1.66056 66.4587 1.44737C66.542 1.40618 66.8324 1.69496 66.7891 1.34671C68.2471 1.43928 69.705 1.53185 71.163 1.62442C70.3224 1.87669 69.3814 1.63516 68.5033 1.6513C68.383 1.65318 67.9766 1.61581 68.0244 1.79207C68.7704 1.8446 69.6994 1.76173 70.4151 1.88304C70.438 1.88704 70.3523 2.0442 70.438 2.07004C70.5981 2.11826 71.1235 1.86844 71.2108 1.93514C71.2257 1.95063 70.9261 2.15605 71.0154 2.28923C71.2445 2.63099 71.3106 1.87943 71.5102 1.89022C71.6646 1.89888 72.6992 2.2723 72.9599 2.04498C73.237 1.80266 72.1962 1.89561 72.2749 1.6961C72.9804 1.5015 73.6908 1.72307 74.3558 1.70425C74.3675 1.70372 74.2673 1.54586 74.4159 1.5253C74.6743 1.48952 74.74 1.71272 74.8653 1.74951C75.0004 1.78869 75.4799 1.7613 75.5432 1.84305C75.5513 1.85377 75.4521 2.07362 75.4374 2.07968C75.2278 2.16871 75.1563 1.88148 75.1374 1.87763C75.0661 1.86609 74.995 1.97518 74.9299 1.96803C74.8229 1.95612 74.7648 1.85403 74.6234 1.84374C74.5259 1.83626 74.6182 2.03213 74.5243 2.02233C74.4898 2.01794 74.1215 1.56921 74.0825 2.02336C74.0703 2.16655 77.1146 2.37921 77.4202 2.26747C77.1595 2.21037 76.8989 2.15326 76.6382 2.09616C77.1673 2.23417 77.8078 1.87703 77.8479 2.41469C79.8141 2.4771 81.7803 2.53952 83.7466 2.60193C84.0973 2.65101 83.9015 2.99443 84.4802 2.89938C84.3319 2.78799 84.1837 2.67661 84.0354 2.56522C84.3308 2.64516 85.6415 2.80823 85.8545 2.73901C85.8821 2.72994 85.9232 2.41784 86.2513 2.39408C86.5425 2.37311 86.587 2.60766 86.7421 2.65397C86.8724 2.69219 87.0196 2.63223 87.0583 2.64552C87.0879 2.65615 87.0983 2.79942 87.1696 2.82505C87.3948 2.90436 87.2155 2.49956 87.4354 2.96452C87.3807 2.98165 87.3259 2.99878 87.2711 3.0159C87.5431 3.08546 87.9137 3.29909 87.5111 3.39899C87.4419 3.41624 87.5025 3.2783 87.451 3.27805C85.4341 3.28483 87.0419 3.56919 87.7506 3.36077C87.9302 3.56769 88.9485 3.45196 88.9819 3.49272C89.0284 3.55173 88.8528 3.71411 89.0796 3.85786C89.1274 3.88829 90.4884 3.78617 89.9961 4.0543C89.8946 4.10961 89.2431 4.04437 89.0858 4.05093C89.4515 4.48936 90.3244 3.87435 90.4217 3.89123C90.8143 3.96272 89.6626 4.26108 90.5481 4.31995C91.229 4.36514 90.5922 4.0687 90.8553 3.9472C91.0032 3.87902 91.7712 4.20621 91.7541 3.79169C92.0192 3.74994 91.8622 3.96786 91.8948 3.98395C91.9266 3.99812 92.448 3.87898 92.6161 3.9679C92.6365 3.97895 92.57 4.1937 92.591 4.21152C92.6319 4.24208 93.1341 4.20374 93.1544 4.18569C93.1673 4.17313 93.0495 3.98346 93.0991 3.9382C93.1569 3.88601 93.6394 3.93492 93.6665 3.88127C93.7048 3.80014 93.1083 3.84822 93.2096 3.63831C93.4839 3.69398 93.9328 3.55751 94.1158 3.38948C94.0709 3.4376 93.8044 3.44206 93.7121 3.42408C93.7585 3.1157 94.3305 3.12528 94.1327 3.36785C94.2582 3.23776 94.174 3.16733 94.2451 3.04411C94.2638 3.01291 94.4405 3.00811 94.475 2.95496C94.4796 2.94435 94.2984 2.82613 94.3355 2.76375C94.4026 2.65104 94.9379 2.68157 94.9814 2.71171C95.104 2.79713 94.6664 2.89498 94.6288 3.02489C94.6234 3.04485 94.9923 3.30358 94.9978 3.32618C95.0172 3.56824 94.6056 3.39006 94.6508 3.60828C94.7526 3.65524 94.8543 3.7022 94.9561 3.74916C94.5598 3.96598 93.8317 3.84573 93.6413 4.0948C94.2264 4.02565 94.8379 4.04023 94.8313 4.60511C94.8287 4.84302 94.5753 4.98011 94.5844 5.04069C94.6196 5.25748 94.9718 5.02564 94.9846 5.03719C94.9951 5.05048 94.9998 5.06337 94.9997 5.07587C94.9997 5.07588 94.9997 5.07588 94.9997 5.07589C94.9985 5.20261 94.4987 5.28918 94.4732 5.3468C94.4302 5.44919 94.6483 5.87436 94.6471 5.96793C94.6392 5.98666 94.283 6.08344 94.4013 6.24787C94.5211 6.41396 94.832 6.42053 94.8428 6.43777C94.9012 6.537 94.3564 6.62188 94.3396 6.68001C94.3308 6.70939 94.6212 6.89315 94.6292 6.94526C94.636 6.99755 94.4129 7.10941 94.3239 7.27341C94.2575 7.39526 94.4466 7.49092 94.413 7.5098C94.389 7.5223 93.875 7.51538 93.8495 7.53667C93.8116 7.56816 93.9306 7.71564 93.9128 7.75207C93.8874 7.80447 93.7219 7.75008 93.743 7.80443C93.7589 7.84494 94.3976 8.3555 94.3922 8.49022C94.3827 8.71999 93.7062 8.18474 94.3317 9.09773C94.3361 9.10373 94.4911 9.04072 94.4953 9.04635C94.589 9.21413 94.0918 9.46619 94.6972 9.427C93.569 9.70627 94.5539 9.77121 94.3838 10.1567C94.3181 10.3048 93.8812 10.362 93.879 10.3844C93.9196 10.5735 94.0599 10.4284 94.1064 10.5214C94.1318 10.5733 93.7396 10.7692 93.8263 10.8996C93.8711 10.9668 94.2857 10.9469 94.3026 10.9601C94.4655 11.0845 94.2631 11.2149 94.2983 11.3025C94.3217 11.3612 94.5717 11.3682 94.5781 11.3788C94.5884 11.4008 94.2467 11.634 94.1752 11.7164C94.1208 11.7798 94.3217 11.8819 94.2839 11.9094C94.0563 12.0739 93.5795 11.6444 94.0372 12.2443C94.0652 12.2811 94.2406 12.268 94.2457 12.2753C94.3524 12.4452 94.0296 12.4568 93.9705 12.5944C93.8692 12.8317 94.3343 12.7033 93.9469 12.8671C94.2349 13.0256 94.3962 13.0206 94.7352 12.9804C93.7965 13.0927 93.4597 13.7061 94.5008 13.7004C94.1698 13.6877 94.2033 14.036 94.1044 14.0412C94.043 14.044 93.5661 13.6935 93.7789 14.4719C93.8056 14.5691 94.0984 14.4486 94.0052 14.6463C93.3057 14.589 93.9892 14.7724 93.9897 14.7987C93.9763 15.2559 92.2694 14.8652 91.975 14.9146C91.6334 14.9719 91.3269 15.3294 91.2528 15.3291C91.0089 15.327 91.213 15.1459 91.1591 15.0782C91.1045 15.011 90.4076 15.355 90.3732 15.3354C90.2396 15.2568 90.3779 15.0413 90.3641 15.0302C90.199 14.8958 89.2659 15.0568 89.0056 15.004C89.0124 15.1447 89.5359 15.1608 89.2068 15.3836C88.8237 15.6433 88.8078 15.0232 88.798 14.9958C87.054 14.9853 85.3099 14.9747 83.5658 14.9642C83.5845 15.2943 84.727 15.0562 84.7525 15.0999C84.9024 15.3585 82.9763 15.3356 82.7411 15.2169C82.92 15.2899 83.0988 15.3628 83.2776 15.4357C82.9676 15.8121 82.2939 15.313 81.849 15.4763C81.7052 15.5292 81.9789 15.6781 81.9731 15.6881C81.8108 15.8338 81.5535 15.718 81.7485 15.522C81.3538 15.7078 81.4132 15.4993 81.1118 15.4807C81.0962 15.4799 81.2243 15.6342 80.9851 15.6954C80.873 15.7239 80.2768 15.7188 80.1957 15.8519C80.1624 15.908 80.4592 16.5043 80.5014 15.9939C81.1475 16.2489 80.7108 15.7631 80.9626 15.7772C81.0012 15.7802 80.9096 16.0645 81.5453 15.9362C81.4196 16.4492 80.6927 16.0579 80.5669 16.119C80.3074 16.2446 81.3692 16.5201 81.5682 16.1211C81.4732 16.5215 81.6432 16.1759 81.8803 16.1946C82.1398 16.215 82.0255 16.3334 82.166 16.3353C82.5502 16.3419 82.3936 16.0572 82.708 16.3155C82.4066 15.5223 83.2513 16.2163 83.4974 16.4257C83.0934 16.462 82.6895 16.4983 82.2855 16.5347C82.3082 16.5764 82.3309 16.6181 82.3536 16.6598C82.2473 16.6529 82.1411 16.6461 82.0348 16.6392C82.0522 16.5996 82.0696 16.56 82.087 16.5203C81.5365 16.7738 81.4055 16.4819 81.3608 16.4782C80.7857 16.4391 80.1211 16.4354 79.5394 16.4289C79.4522 16.428 79.5096 16.6872 78.8754 16.4787C78.6731 16.4123 78.8665 16.2129 78.6362 16.2409C78.3434 16.7851 78.3529 16.3489 78.2674 16.3475C78.0219 16.3452 77.8706 16.4793 77.8479 16.4805C77.5444 16.4988 77.1005 16.472 76.7671 16.489C76.7609 16.491 76.9326 16.6606 76.7167 16.6089C76.6409 16.5904 75.966 15.8668 75.3679 16.095C75.5225 16.1449 75.677 16.1948 75.8315 16.2446C75.6499 16.1753 74.3712 16.344 74.6817 16.5389C74.872 16.658 75.3436 16.2002 75.3907 16.6452C74.967 16.5082 72.6183 16.6851 72.4365 16.5801C72.4114 16.5651 72.5682 16.4223 72.5335 16.4035C72.5066 16.3892 71.9687 16.4183 71.8978 16.3623C71.8557 16.329 72.094 16.2428 72.0752 16.1907C72.0587 16.1534 71.3879 16.0854 71.3479 16.2658C71.5134 16.1948 71.9762 16.2625 71.7317 16.4126C71.7003 16.4312 71.5394 16.3131 71.5012 16.3368C71.1468 16.555 72.2003 16.5117 72.3632 16.515C71.6996 16.7391 70.6792 16.458 69.9114 16.6009C69.6031 16.4476 70.3727 16.3751 70.0234 16.2471C69.299 15.9819 69.8281 16.4534 69.8053 16.4723C69.6234 16.6224 69.0161 15.803 69.0099 16.4223C68.7473 16.3266 68.8333 16.2493 68.4607 16.3268C68.5092 16.3702 68.5577 16.4135 68.6062 16.4569C68.19 16.8117 67.3247 15.8985 67.3908 15.8301C67.5687 15.647 68.021 15.9395 68.0599 15.9329C68.1176 15.9232 68.2825 15.2963 68.9068 15.8641C69.1686 15.4451 67.9116 15.5703 68.4857 15.2884C68.0994 15.3319 66.5147 15.0236 66.2844 15.2064C66.2569 15.2303 66.38 15.6515 65.9898 15.434C65.8046 15.3305 66.2536 15.3298 66.1693 15.2334C65.9099 14.9373 62.3428 15.0916 61.6654 15.1008C61.6214 15.1008 61.6388 14.9706 61.5955 14.9714C61.4628 14.9738 60.9774 15.1636 60.7405 15.1014C61.2303 15.3473 60.2745 15.357 60.0316 15.3282C59.6631 15.2843 59.688 15.0552 59.5291 15.0049C58.9165 14.8111 57.9596 15.3467 57.4871 14.8332C57.5084 15.3386 56.6639 14.5777 56.2766 14.5696C55.9732 14.5632 55.5297 14.8934 55.9374 15.1009C55.4138 15.0727 54.8615 15.1617 54.3699 15.1878C54.2886 15.1922 54.4019 15.0439 54.2631 15.0561C54.2505 15.0583 54.2318 15.2045 54.1127 15.2186C53.1291 15.337 53.61 15.0304 53.4271 14.9372C53.3247 14.885 53.249 14.8588 53.1934 14.8499C53.7663 14.8266 54.4273 14.7754 54.6039 14.7729C54.4563 14.4482 53.3342 14.823 53.0075 14.733C52.9962 14.7297 53.0374 14.5519 53.0259 14.5505C53.0257 14.5505 53.0254 14.5505 53.0252 14.5505C52.9025 14.5357 52.1201 14.5941 52.2791 14.8081C52.3217 14.8653 52.6816 14.8685 53.1086 14.8532C52.9927 14.892 53.0771 15.0924 53.0566 15.1008C52.8085 15.1971 52.2047 14.9966 51.9902 14.9683C51.9411 14.9621 51.9435 15.09 51.9354 15.0902C51.7403 15.0593 51.8239 14.6949 51.6199 15.0696C51.2704 14.6112 52.2836 15.0083 52.2147 14.712C52.1618 14.4839 49.9021 14.5849 49.9054 14.9435C49.898 14.9051 49.8674 14.8572 49.8042 14.8025C49.6641 14.6808 49.0351 14.7125 48.926 14.7776C48.9075 14.7904 48.9116 15.1385 48.8888 15.1415C48.832 15.1489 48.0662 14.8689 47.7772 15.0719C47.9318 15.1221 48.0863 15.1723 48.2408 15.2225C47.3049 15.2168 47.4485 15.3217 47.7594 15.4287C47.775 15.4298 47.79 15.4431 47.8049 15.4447C48.0459 15.5239 48.355 15.6009 48.3595 15.6284C48.3762 15.7333 46.7878 15.7766 47.0963 15.4567C47.1392 15.413 47.8726 15.5636 47.511 15.3298C47.4477 15.2889 46.9753 15.3502 46.9507 15.3246C46.7865 15.1542 47.8189 14.9396 47.6952 14.6986C47.443 14.9246 47.1232 14.8013 46.8359 14.8576C46.7051 14.883 46.6715 15.0572 46.6553 15.0603C46.4143 15.1036 46.551 14.9219 46.4707 14.9257C46.4275 14.9285 45.9497 15.3133 46.0444 14.7775C44.4785 15.1576 45.6085 15.1678 46.5672 15.1466C46.2625 15.3392 45.6697 15.2391 45.4029 15.282C45.3072 15.2976 45.3621 15.4772 45.2003 15.5115C44.8673 15.582 43.2826 15.3614 42.8697 15.309C43.1242 15.2481 43.0518 15.0524 42.8557 15.064C42.6596 15.0757 42.8218 15.3376 42.7833 15.3653C42.7421 15.3939 41.8239 15.2623 41.6707 15.2946C42.3637 15.2068 42.2093 15.0108 41.6221 14.9849C41.7076 14.9297 41.793 14.8745 41.8784 14.8193C41.5334 14.8948 40.8123 14.5912 40.6124 14.6776C40.5811 14.6915 40.6917 14.8562 40.6741 14.864C40.4989 14.9318 39.9065 14.7594 39.8783 14.815C39.8545 14.8612 40.1065 15.0007 40.0119 15.0674C39.9921 15.0814 39.7499 14.858 39.5089 14.9101C39.4194 14.9292 39.4717 15.0844 39.4491 15.0932C39.2611 15.1658 39.3741 14.9064 39.0312 14.945C38.78 14.9736 38.5907 15.2266 38.2448 15.1389C39.3803 15.4743 38.4245 15.3297 37.9475 15.4236C37.871 15.4386 37.9338 15.72 37.4792 15.579C38.4541 15.0803 37.2051 15.308 36.9502 15.3001C36.9362 15.2982 36.9331 15.113 36.8081 15.1088C36.7975 15.1089 36.8116 15.2342 36.6952 15.2427C35.5919 15.3228 36.2982 15.188 36.0899 15.0626C36.0012 15.0092 35.4634 15.1812 35.319 15.1841C35.2857 15.1842 35.3022 15.0543 35.1737 15.0582C34.9464 15.0654 34.7415 15.2019 34.5913 15.2115C34.5738 15.2119 34.575 15.0068 34.29 15.0706C34.2099 15.0885 34.1195 15.1605 34.2325 15.2206C34.6072 15.4181 35.3247 15.089 35.7485 15.2867C36.135 15.4667 34.9109 15.4718 34.8473 15.4723C34.8239 15.4727 35.0639 15.3731 34.8212 15.3506C34.614 15.3319 34.2317 15.6827 33.9234 15.6026C33.8998 15.5967 33.6557 15.2939 33.6673 15.2765C33.6777 15.2638 34.0576 15.2021 34.0033 15.1146C33.9968 15.1047 33.7558 15.1044 33.725 15.0394C33.6872 14.9602 33.5906 14.1859 33.5393 14.166C33.4077 14.1168 33.492 14.294 33.4067 14.2809C33.2237 14.2534 32.5904 14.0187 32.5673 14.2865C32.6721 14.3034 32.7769 14.3203 32.8817 14.3372C32.2974 14.3593 32.5453 14.4758 32.4621 14.5253C32.3725 14.5788 32.3997 14.3434 32.2031 14.3194C32.1603 14.3142 31.3361 14.3556 31.3501 14.4546C31.8072 14.3016 31.6355 14.5912 31.6565 14.5966C31.7361 14.6163 31.8396 14.4539 31.9466 14.4582C32.6995 14.4908 31.9376 14.7415 32.1148 14.8094C32.1757 14.8323 32.299 14.694 32.3249 14.7014C32.4091 14.7253 32.4087 14.9079 32.4651 14.8937C32.5968 14.8606 32.4459 14.6008 32.4564 14.5875C32.5753 14.4269 33.0334 14.6324 32.7444 14.9108C32.9153 15.0138 32.9387 14.6723 33.0737 14.8101C33.3421 15.0832 32.9368 15.0099 32.8264 15.0538C32.4303 15.212 32.3145 15.0798 31.7556 15.1194C31.5543 15.1334 31.3145 15.2971 31.2211 15.3053C31.1622 15.3105 30.6126 14.7278 30.5878 15.6314C30.3728 15.542 30.0399 14.9432 29.8174 14.9684C29.6176 14.9914 29.678 15.3117 29.6593 15.3239C29.6306 15.343 29.3895 15.3156 29.3074 15.36C29.2113 15.4125 29.2578 15.535 29.1056 15.5833C28.7268 15.7032 28.7397 15.3769 28.7011 15.3553C28.2528 15.1059 28.4457 15.572 28.3454 15.6083C28.2521 15.6416 26.9493 15.4507 26.6736 15.5656C26.786 15.5013 26.8983 15.437 27.0107 15.3726C26.8126 15.1672 26.5975 15.4972 26.5972 15.1322C26.5511 15.7211 26.1421 15.3233 26.018 15.3374C25.9691 15.3432 25.972 15.4436 25.9108 15.4474C25.6717 15.4628 25.1339 15.3777 25.0038 15.4274C24.4414 15.6414 25.8708 16.0196 25.9835 16.0427C25.7577 16.034 24.479 16.154 25.0635 16.4429C25.1539 16.4874 25.3172 16.2252 25.3683 16.2154C25.714 16.1507 25.4404 16.3845 25.4672 16.4072C25.5129 16.4439 25.7421 16.2176 25.8018 16.2454C25.8217 16.2543 25.691 16.4671 26.02 16.4747C25.8562 16.6806 24.9328 16.5029 24.811 16.5505C24.7676 16.5675 25.0344 17.0133 24.2468 16.5753C24.2556 16.6165 24.2644 16.6578 24.2732 16.699C23.8323 16.7118 23.3913 16.7246 22.9504 16.7374C22.9992 16.643 23.2485 16.4549 22.9364 16.4924C22.7567 16.5141 22.8875 16.7265 22.8711 16.7325C22.7095 16.7891 19.8599 16.6921 19.3073 16.7104C19.1194 16.7163 18.594 16.8811 18.554 16.8839C18.3151 16.8986 17.4705 16.7802 17.3016 16.8026C17.1961 16.817 17.2946 16.9945 17.2006 16.9853C17.1132 16.9766 17.2054 16.8068 17.1795 16.7994C16.9649 16.7355 15.3281 16.944 14.9414 16.7794C15.1782 16.8299 16.3653 16.5001 16.3426 16.3795C16.3376 16.363 16.0511 16.2305 15.9912 16.2932C15.8945 16.1446 15.5536 16.5912 15.3713 16.5012C15.3507 16.4909 15.4346 16.2394 15.1082 16.1905C14.9958 16.1738 14.6991 16.3677 14.4045 16.1445C13.9739 16.2463 11.7186 15.8979 11.5611 16.1675C11.5564 16.1818 11.8736 16.2781 11.6576 16.3874C11.3706 16.5326 11.6318 16.0368 11.2993 15.9907C11.2492 15.9837 10.3225 16.0254 10.2919 16.056C10.0088 16.3329 10.817 16.4539 10.8054 16.4863C10.7764 16.5678 10.1035 16.611 10.0763 16.5915C10.0505 16.5711 10.6024 16.2058 9.94206 16.3401C10.0171 16.3851 10.0922 16.4301 10.1673 16.4751C9.85655 16.5584 9.82941 16.3018 9.75448 16.2854C9.52152 16.2337 9.26535 16.6206 8.89588 16.1362C8.79819 16.0077 8.96369 15.8675 8.9515 15.8483C8.83431 15.6754 8.67843 16.1335 8.50302 15.7891C8.48981 15.7634 8.90747 15.562 8.18087 15.5546C8.23057 15.588 8.28027 15.6213 8.32997 15.6546C8.22682 15.727 7.49073 15.7637 7.39191 15.7454C7.10326 15.692 7.35763 15.4585 7.06675 15.484C7.2501 15.809 6.36599 15.8429 6.41944 15.5651C6.29273 15.9134 5.54456 15.6367 5.19175 15.6251C4.96913 15.6181 4.51351 15.7663 4.44294 15.7478C4.35696 15.7251 4.38539 15.487 4.23026 15.4324C4.18603 15.4169 3.72112 15.5873 3.31679 15.3367C3.23843 15.2884 3.07673 14.8824 3.22415 14.7827C3.4765 14.6121 3.94773 14.9424 3.94393 14.7033C3.93921 14.4476 3.29896 14.5937 3.12732 14.5587C2.33493 14.3969 2.79588 14.1295 2.77624 14.0469C2.72518 13.8465 2.29137 13.8486 2.27343 13.8305C2.19918 13.75 2.50803 13.5946 2.51382 13.4727C2.52091 13.3139 2.10551 13.0233 2.20106 12.9706C2.33783 12.8959 2.71983 13.1384 2.7443 13.1272C3.06287 12.9761 2.63164 12.605 2.51353 12.4236C2.47774 12.3678 2.6233 12.278 2.59334 12.2614C2.13603 12.0102 2.4916 12.7763 2.18637 12.7225C1.91403 12.6745 2.26724 12.4366 2.25695 12.4233C2.24362 12.4085 1.91762 12.3923 1.86736 12.3065C1.84261 12.2635 2.69467 11.8024 2.66124 11.5917C2.39035 11.6355 2.11946 11.6793 1.84856 11.7231C1.82994 11.4487 2.21705 11.6542 2.25756 11.6263C2.33909 11.5703 2.11453 11.4294 2.12504 11.3428C2.13076 11.2877 2.3977 11.0934 2.15898 11.01C2.07693 10.9813 1.90239 11.1719 1.60447 10.9727C2.65007 10.7316 1.92857 10.5706 1.89873 10.4732C1.86953 10.3758 2.36973 10.1518 1.7648 10.1866C1.7436 9.65261 1.77942 10.018 1.95208 9.9258C2.16361 9.81247 1.67889 9.63215 2.44677 9.77272C2.40536 9.52243 1.78699 9.5343 1.75445 9.51406C1.72636 9.49572 1.86493 9.37411 1.81632 9.33201C1.24132 8.84373 1.6373 9.06795 1.47236 8.75805C1.45768 8.73035 0.911 8.61089 1.32843 8.56991C2.08893 8.49542 2.40312 8.8525 2.53791 8.09668C1.97905 7.76256 1.29358 8.2448 1.12268 8.25148C0.861096 8.26095 1.1334 8.10911 1.10159 8.06554C1.09053 8.05146 0.865094 8.06209 0.862189 8.0498C0.706949 7.47091 1.86533 8.04964 2.23266 7.95269C2.13527 7.8653 2.03787 7.77791 1.94048 7.69052C2.07375 7.68831 2.20701 7.68611 2.34029 7.6839C1.70718 7.50412 2.31852 7.61788 2.48119 7.15186C2.51771 7.04715 2.09902 7.22338 2.57745 6.93589C2.22725 6.86519 2.34005 6.77073 2.02113 6.89953C2.03109 6.71221 2.74783 6.50755 3.03066 6.41404C2.03669 6.1941 2.59818 6.88678 1.74061 6.51502C1.57877 6.74556 1.99015 6.70424 1.95628 6.74223C1.83475 6.87881 1.55495 6.65749 1.21035 7.1368C1.15423 7.21549 1.38624 7.46154 1.03964 7.4465C1.00131 7.44447 0.782353 7.23401 0.785555 7.21893C0.816377 7.056 1.03442 7.11922 1.04409 7.05118C1.05316 6.98677 0.808895 7.02326 0.808224 7.00538C0.802647 6.80085 1.01246 6.92915 0.982412 6.86486C0.917538 6.72503 0.0443715 6.2768 1.18813 6.41644C0.234933 6.63865 1.06425 6.64105 1.43543 6.55574C1.53009 6.53436 1.55516 6.41246 1.69013 6.37135C1.86376 6.31809 2.06582 6.37861 2.15561 6.35705C2.25218 6.33325 1.7075 6.03943 2.49838 6.13302C2.09816 5.84209 1.38359 6.14153 0.989693 5.9362C0.195005 5.52128 1.55111 5.44656 1.69266 5.4084C1.73038 5.39806 1.60582 5.23194 1.63099 5.22208C1.67214 5.20696 2.4406 5.29043 2.51773 5.15466C2.59465 5.01901 2.23594 5.1583 2.21352 5.01587C2.19831 4.91997 3.12781 4.75888 2.62612 4.68872C2.28033 4.64061 1.63856 5.01941 1.53496 4.60479C2.04443 4.57534 2.5539 4.54588 3.06336 4.51643C2.78617 4.35644 2.50898 4.19645 2.23179 4.03646C2.80371 3.99193 3.29608 4.17424 3.84095 3.95405C2.54147 3.43752 4.2682 3.5556 4.28778 3.49441C4.29448 3.45777 3.78498 3.04364 3.70308 2.96799C4.15945 2.81481 5.54241 2.75087 4.73847 2.23786C4.88418 2.35336 5.24229 2.075 5.2378 2.0537C5.19476 1.83 4.41813 1.96749 4.54647 1.76702C4.6952 1.53438 4.89754 1.85379 5.1232 1.83056C6.28119 1.70925 5.97479 0.54067 7.13292 0.736018C7.11024 0.694297 7.08756 0.652576 7.06488 0.610856C8.32499 0.688769 9.58508 0.766682 10.8452 0.844596C11.3418 0.49328 12.6566 0.288873 13.301 0.334316C13.4308 0.343206 14.0664 0.536011 14.1142 0.569214C14.2027 0.632819 13.7127 0.652164 13.9329 0.771933C13.9794 0.796528 15.0578 0.885169 14.9825 0.685297C14.8618 0.66107 14.4824 0.757617 14.4209 0.710109C13.989 0.371087 17.3134 0.669941 17.4795 0.536518C17.4064 0.471149 17.3334 0.40578 17.2603 0.34041C17.4699 0.374203 17.6796 0.407997 17.8892 0.44179ZM8.09189 16.3456C7.96402 16.5442 7.64965 16.3911 7.46253 16.4455C7.20399 16.5216 6.75854 17.287 6.95447 16.5175C7.33361 16.4602 7.71275 16.4029 8.09189 16.3456ZM13.6219 16.6954C13.3691 16.5856 13.57 16.1568 13.7764 16.3378C13.7993 16.3583 13.964 16.8431 13.6219 16.6954ZM10.9625 16.4659C10.9733 16.4603 11.1925 16.4738 11.2001 16.4806C11.3952 16.6554 10.7342 16.6139 10.9625 16.4659ZM23.8208 16.3658C23.5409 16.3818 23.7398 16.7752 23.9152 16.6157C23.9262 16.6056 23.8392 16.3651 23.8208 16.3658ZM23.6219 16.3536C23.408 16.0009 22.9638 16.7074 23.3123 16.6391C23.3461 16.6322 23.6318 16.3707 23.6219 16.3536ZM12.7187 16.5157C12.7485 16.3815 13.0098 16.4489 13.1213 16.4821C13.1171 16.6048 12.8285 16.5017 12.7187 16.5157ZM19.3582 16.5407C19.3703 16.4352 18.4601 16.4325 18.3968 16.5711C18.541 16.5134 19.3469 16.6356 19.3582 16.5407ZM21.6937 16.4143C21.6708 16.3958 21.3561 16.4206 21.3644 16.5139C21.5167 16.6377 21.7968 16.4979 21.6937 16.4143ZM26.3328 16.4641C26.3501 16.4409 26.1202 15.8454 26.6745 16.2411C26.7559 16.2991 26.4619 16.4513 26.4908 16.4729C26.5513 16.515 26.5993 16.5348 26.638 16.5386C26.3777 16.5853 26.1076 16.6059 26.0818 16.5697C25.9608 16.3986 26.3252 16.4738 26.3328 16.4641ZM28.7726 16.045C28.827 15.9488 29.1685 16.0037 29.2459 16.0443C29.2592 16.0519 29.1985 16.3057 29.3527 16.2881C29.4764 16.2736 29.2942 16.0114 29.5346 16.0553C29.7776 16.0994 29.4507 16.282 29.4718 16.2955C29.5002 16.3131 29.8777 16.1997 29.8645 16.351C29.8548 16.4631 29.4522 16.3835 29.3523 16.4064C29.2243 16.4358 29.3774 16.6242 29.1644 16.5821C29.0305 16.5557 29.1079 16.2277 29.0798 16.2108C29.0562 16.1972 28.5857 16.382 28.7733 16.0461C28.773 16.0457 28.7728 16.0454 28.7726 16.045ZM26.7085 16.5247C26.6888 16.5357 26.6658 16.5414 26.638 16.5386C26.6616 16.5344 26.6852 16.5294 26.7085 16.5247ZM8.8267 16.2082C8.95771 16.3109 8.56481 16.4372 8.41774 16.303C8.41618 16.1958 8.80584 16.1922 8.8267 16.2082ZM26.952 16.2593C27.3372 16.3453 27.0522 16.4559 26.7085 16.5247C26.818 16.4639 26.8226 16.2306 26.952 16.2593ZM15.9912 16.2932C16.0072 16.3179 16.0172 16.3562 16.0179 16.419C15.9757 16.3499 15.9723 16.313 15.9912 16.2932ZM16.8906 16.4138C17.2011 16.2254 16.5739 16.2272 16.5765 16.3641C16.5779 16.4158 16.8782 16.4212 16.8906 16.4138ZM24.1794 16.3879C24.1513 16.3689 24.5954 15.7953 23.9544 16.2228C24.2937 16.2941 23.9345 16.3536 23.9393 16.4043C23.9518 16.5498 24.5242 16.4154 24.65 16.4794C24.7515 16.2202 24.272 16.4504 24.1801 16.3879C24.1799 16.3879 24.1796 16.3879 24.1794 16.3879ZM33.1608 16.2264C33.082 16.3781 32.8369 16.3267 32.6714 16.3162C32.7502 16.1645 32.9952 16.2158 33.1608 16.2264ZM76.5061 16.6557C75.3697 16.786 75.2286 16.1638 76.2647 16.4189C76.285 16.4242 76.5755 16.5934 76.5061 16.6557ZM66.7668 16.4033C66.6624 16.1317 67.0167 16.0915 67.2481 16.2055C67.3005 16.2311 67.4924 16.507 67.2698 16.5585C67.2799 16.2306 66.9377 16.1021 66.7668 16.4033ZM27.1717 16.0881C27.2858 15.9087 27.6306 16.0404 27.8127 16.0692C27.7 16.2167 27.3324 16.1461 27.1717 16.0881ZM72.7795 16.2969C72.6601 16.2753 72.577 16.5099 72.5975 16.5297C72.6891 16.6204 72.9145 16.4322 72.7795 16.2969ZM26.0551 16.0496C26.0403 15.9416 26.4996 15.8421 26.529 16.109C26.4312 16.0888 26.0659 16.1173 26.0551 16.0496ZM32.8492 16.1425C32.7785 16.087 33.1479 15.9923 33.2588 16.0478C33.2488 16.1624 32.8955 16.1786 32.8492 16.1425ZM70.8527 16.3587C70.7457 16.3372 70.4782 16.3285 70.4476 16.4234C70.4097 16.542 70.8025 16.5051 70.8527 16.3587ZM90.7877 16.3406C90.8009 16.3835 90.3834 16.6877 90.1999 16.608C89.8514 16.4556 90.7734 16.3103 90.7877 16.3406ZM73.9131 16.1861C74.2488 16.4132 73.8757 16.1929 73.8883 16.4287C74.1156 16.4394 74.681 16.4563 74.2944 16.2209C74.219 16.1753 74.0189 16.2024 73.9131 16.1861ZM73.6022 16.1044C73.5652 16.1804 73.3195 16.4188 73.5301 16.4036C73.6275 16.3961 73.7869 16.1301 73.6022 16.1044ZM88.2186 16.4213C87.9177 16.2098 89.3048 16.3348 89.3443 16.3717C89.3652 16.3912 89.3789 16.4095 89.3866 16.425C89.4382 16.3594 89.7005 16.3499 89.7293 16.5175C89.6508 16.5029 89.436 16.5156 89.4113 16.4968C89.4006 16.4889 89.3927 16.4814 89.3872 16.4738C89.2933 16.6181 88.2762 16.4614 88.2186 16.4213ZM85.9205 16.1849C86.2699 15.8803 86.3263 16.4043 86.2963 16.4209C85.9171 16.6316 86.1667 16.2478 86.1553 16.2296C86.1293 16.1993 85.8597 16.3759 85.9216 16.1849C85.9213 16.1849 85.9209 16.1849 85.9205 16.1849ZM87.7479 16.3307C87.7622 16.3241 88.0529 16.343 88.0648 16.3514C88.3016 16.5295 87.4789 16.4767 87.7479 16.3307ZM30.6118 15.696C30.8196 15.75 30.6135 15.9407 30.4757 15.8701C30.4644 15.8632 30.4285 15.6483 30.6118 15.696ZM73.4353 16.1547C73.3874 16.1178 72.1535 15.969 72.225 16.2605C72.3302 16.2272 73.7328 16.3901 73.4353 16.1547ZM64.2051 15.9973C64.4229 16.0016 64.1828 16.2737 64.0675 16.1704C64.0248 16.132 64.1502 15.9964 64.2051 15.9973ZM25.4396 15.7947C25.2121 15.9433 25.2636 15.4382 25.458 15.6133C25.4656 15.6202 25.4486 15.7889 25.4396 15.7947ZM65.9437 16.1714C65.191 16.3306 65.377 15.4626 66.3509 15.7653C66.32 15.8038 66.2891 15.8422 66.2581 15.8807C67.3842 16.0217 66.3347 15.9427 66.0582 15.9888C65.9531 16.0063 66.0397 16.1523 65.9444 16.1724C65.9442 16.1721 65.944 16.1717 65.9437 16.1714ZM63.0597 15.97C62.3421 15.3459 63.7194 15.7608 64.1163 15.6841C63.7299 15.9354 63.2303 15.8922 63.9078 16.1595C62.9131 16.2006 63.3293 15.9587 63.2898 15.9379C63.243 15.9145 63.0903 15.9967 63.0597 15.97ZM64.9681 15.9837C65.01 15.9661 65.3239 16.0948 65.4376 16.0753C65.2769 16.2847 64.6893 16.1036 64.9681 15.9837ZM83.5079 16.3054C83.5356 16.1404 83.6015 16.0193 83.8496 16.0834C83.772 16.1657 83.6125 16.2356 83.5079 16.3054ZM7.86089 15.4738C7.68975 15.4604 7.34934 15.3949 7.45227 15.5696C7.46359 15.5845 7.85946 15.5713 7.86089 15.4738ZM69.849 15.9871C69.8128 15.9664 68.871 15.9439 69.1946 16.1293C69.2922 16.1852 70.1494 16.1699 69.849 15.9871ZM74.7265 16.0537C74.6477 16.0512 74.3271 16.0793 74.32 16.1184C74.297 16.2532 74.6908 16.1827 74.7265 16.0537ZM6.99857 15.2966C6.97618 15.2792 6.45281 15.3047 6.50956 15.3854C6.61728 15.538 7.07531 15.3563 6.99857 15.2966ZM31.3732 15.3161C31.417 15.3104 31.4731 15.4904 31.4882 15.4926C31.5238 15.4955 32.3248 15.434 32.0169 15.6615C31.9655 15.6996 30.8147 15.6003 30.6651 15.5761C30.6095 15.3292 31.0993 15.5682 31.2192 15.544C31.2403 15.5394 31.2558 15.3334 31.3728 15.3171C31.373 15.3168 31.3731 15.3165 31.3732 15.3161ZM84.8051 16.1433C84.8419 15.987 85.7838 15.8921 85.7711 16.0818C85.4491 16.1023 85.1271 16.1228 84.8051 16.1433ZM84.3273 16.1128C84.1276 16.0001 84.5982 15.9679 84.7363 16.0181C84.7368 16.1235 84.3564 16.1293 84.3273 16.1128ZM72.9472 15.4517C72.8524 15.4891 73.141 15.7204 73.0755 15.7642C73.0336 15.7915 72.8231 15.7039 72.755 15.7747C72.7357 15.7972 72.9492 16.0141 73.0116 16.0054C73.1003 15.9938 73.016 15.824 73.1126 15.8237C73.4335 15.8231 73.7168 15.9464 74.0175 15.9464C74.0447 15.9461 73.8352 15.8247 74.0668 15.8285C74.1026 15.8289 74.316 16.0088 74.5934 15.985C75.2106 15.44 75.6548 15.985 76.4334 15.7937C76.4045 15.7416 75.825 15.597 75.7909 15.5916C75.1426 15.4949 73.9796 15.474 73.2997 15.4664C73.1253 15.4643 73.2089 15.5817 73.1337 15.5853C73.0743 15.5879 73.1469 15.3727 72.9472 15.4517ZM7.95298 15.3553C7.87338 15.139 7.58578 15.2727 7.403 15.2599C7.46554 15.455 7.77471 15.3059 7.95298 15.3553ZM80.1043 15.9061C80.0125 15.9135 79.7289 15.8459 79.7048 15.9106C79.6738 15.9951 80.0835 16.0524 80.1043 15.9061ZM35.8857 15.4198C35.8946 15.414 36.1151 15.4276 36.1233 15.4345C36.3187 15.6093 35.6576 15.5677 35.8857 15.4198ZM41.1605 15.5109C41.328 15.4858 41.4973 15.42 41.5519 15.5955C41.4455 15.5677 41.1398 15.6325 41.1605 15.5109ZM48.4383 15.5741C48.4059 15.3447 48.9078 15.4978 49.0027 15.5192C48.9665 15.6207 48.462 15.7394 48.4383 15.5741ZM83.4784 15.586C83.786 15.6025 83.7243 15.2549 83.9182 15.4137C83.9499 15.4406 84.0461 16.164 83.7104 15.8902C83.65 15.8409 83.8897 15.6715 83.4784 15.586ZM66.5099 15.7741C66.5896 15.6233 66.8338 15.6706 66.999 15.6843C66.9608 15.7965 66.6276 15.7644 66.5099 15.7741ZM6.05547 15.1144C5.91316 14.8991 5.24486 15.0515 5.40853 15.1944C5.43182 15.2131 5.962 15.1054 6.05547 15.1144ZM27.9606 15.4044C28.2366 15.2385 27.6688 15.181 27.4879 15.3439C27.5692 15.3339 27.942 15.4153 27.9606 15.4044ZM46.6913 15.4332C46.7046 15.4264 46.9953 15.4454 47.0082 15.4538C47.245 15.6319 46.4223 15.5791 46.6913 15.4332ZM39.4284 15.2165C39.5345 15.0788 40.2226 15.1972 40.3757 15.3375C40.2252 15.5388 39.2967 15.3884 39.4284 15.2165ZM82.2114 15.6727C82.4309 15.6676 82.6388 15.7122 82.8399 15.7741C82.7964 15.8904 82.2337 15.7601 82.2114 15.6727ZM47.7594 15.4287C47.775 15.4298 47.79 15.4431 47.8049 15.4447C47.7894 15.4396 47.7742 15.4338 47.7594 15.4287ZM77.2986 15.5445C77.1151 15.4967 77.1512 15.7109 77.1625 15.7176C77.3003 15.7881 77.5064 15.5985 77.2986 15.5445ZM7.74577 15.0359C7.68382 14.8423 7.373 14.989 7.19544 14.9414C7.24564 15.0944 7.60221 15.0548 7.74577 15.0359ZM62.2887 15.5673C62.0595 15.3559 63.0022 15.1217 63.1991 15.2584C63.2125 15.3878 62.3222 15.5963 62.2887 15.5673ZM27.1114 15.1069C27.0944 14.9555 26.6978 15.1343 26.781 15.2065C26.8337 15.2525 27.1215 15.201 27.1114 15.1069ZM63.6711 15.351C63.7599 15.3057 63.9645 15.4569 63.8911 15.5471C63.7969 15.6628 63.6482 15.364 63.6711 15.351ZM71.5994 15.3041C71.561 15.2807 71.04 15.431 71.2531 15.5873C71.4011 15.6959 71.4268 15.4775 71.4618 15.4772C71.501 15.4783 72.3325 15.7536 71.5994 15.3041ZM57.0231 15.3861C57.2196 15.3297 57.456 15.3995 57.6612 15.3972C57.5767 15.49 57.1053 15.5111 57.0231 15.3861ZM28.6345 15.0808C28.5875 15.0191 27.291 14.9701 28.0259 15.1653C28.0688 15.1764 28.7773 15.2673 28.6345 15.0808ZM83.4784 15.586C83.4396 15.5839 83.3949 15.5763 83.3431 15.5609C83.3947 15.5672 83.4394 15.5779 83.4784 15.586ZM79.9839 15.5303C80.0557 15.4209 79.6991 15.3881 79.5932 15.4457C79.5595 15.5799 79.974 15.5456 79.9839 15.5303ZM57.6782 15.2438C57.797 15.1819 58.0109 15.2512 58.1573 15.2452C58.1316 15.3473 57.7283 15.3483 57.6782 15.2438ZM49.3789 15.0506C49.6131 15.1136 49.9022 15.0884 49.9078 14.9632C49.9125 14.9828 49.9237 15.0037 49.9424 15.0248C49.9613 15.0456 50.2132 14.9898 50.3221 15.0335C50.9737 15.2935 47.7951 15.1589 49.6413 14.8227C49.5538 14.8987 49.4664 14.9746 49.3789 15.0506ZM38.4988 14.913C38.367 14.7594 37.9921 14.9468 38.0884 15.0078C38.1554 15.0495 38.6307 15.0677 38.4988 14.913ZM43.6259 14.871C43.5863 14.8434 43.221 14.9467 43.2109 15.0269C43.4195 15.1134 43.8061 14.999 43.6259 14.871ZM37.4764 14.7249C37.393 14.7012 37.284 14.9459 37.2937 14.9567C37.3778 15.0472 37.6155 14.8631 37.4764 14.7249ZM82.8472 14.918C82.7235 14.8465 82.3252 15.0206 82.2373 15.1821C82.2216 15.1506 82.1786 15.1092 82.0997 15.0594C82.0999 15.0594 82.1002 15.0594 82.1004 15.0594C81.9938 14.9928 78.7892 14.8911 80.9363 15.2238C81.0035 15.2345 80.9129 15.0879 81.1866 15.1162C81.2047 15.1182 81.2126 15.2372 81.2684 15.2436C81.397 15.2573 82.0815 15.3386 82.2201 15.2442C82.2211 15.2663 82.2297 15.2873 82.2485 15.3067C82.4158 15.4798 82.9432 14.9732 82.8472 14.918ZM44.3483 14.856C44.2754 14.8112 44.043 14.8509 44.0179 14.9556C44.1325 15.0081 44.5175 14.9604 44.3483 14.856ZM28.5983 14.6498C28.4498 14.5621 28.0697 14.7199 28.1833 14.8067C28.253 14.8601 28.7696 14.7505 28.5983 14.6498ZM42.0235 14.8901C42.8787 15.0222 42.228 14.882 42.3606 14.7294C42.2482 14.783 42.1358 14.8365 42.0235 14.8901ZM86.8072 15.3527C86.671 15.316 86.8344 15.0138 86.9832 15.18C87.0299 15.2328 86.8834 15.3727 86.8072 15.3527ZM92.9747 15.3163C92.8607 15.0459 93.4285 15.2095 93.2049 15.3921C93.1945 15.3982 92.983 15.3266 92.9747 15.3163ZM88.6667 15.1658C88.5723 15.3482 88.5117 15.3694 88.251 15.3217C88.6381 15.2736 88.2811 15.1081 88.6667 15.1658ZM49.9054 14.9435C49.9069 14.9509 49.9081 14.9564 49.9078 14.9632C49.9062 14.9565 49.9055 14.9501 49.9054 14.9435ZM36.6707 14.7651C36.565 14.6088 36.2644 14.6174 36.3524 14.7746C36.3609 14.7891 36.6257 14.8795 36.6707 14.7651ZM82.2373 15.1821C82.2513 15.2101 82.2439 15.228 82.2201 15.2442C82.2192 15.2234 82.2255 15.2039 82.2373 15.1821ZM38.2852 14.6537C38.2734 14.7695 38.7303 14.8188 38.7488 14.8054C39.0131 14.6069 38.4741 14.6485 38.2852 14.6537ZM25.5761 14.4584C25.5524 14.4703 25.7017 14.7709 25.7961 14.6546C25.8691 14.5643 25.6649 14.4133 25.5761 14.4584ZM89.5542 15.0994C89.699 15.101 89.9029 15.1027 89.9391 15.2452C89.8423 15.2225 89.5502 15.2036 89.5542 15.0994ZM92.7537 15.1191C92.581 15.2845 92.19 15.2804 91.9407 15.2505C91.9381 15.0306 92.5926 15.1693 92.7537 15.1191ZM83.2393 15.0037C83.2275 14.9946 82.865 14.9256 82.9132 15.0733C82.9836 15.2898 83.341 15.0847 83.2393 15.0037ZM26.2798 14.6238C26.4432 14.524 26.0724 14.209 25.8988 14.448C25.8096 14.5704 26.2523 14.6406 26.2798 14.6238ZM35.7344 14.5529C35.5193 14.6361 36.049 14.7928 36.1246 14.6396C36.0261 14.6263 35.8108 14.5235 35.7344 14.5529ZM43.0274 14.4658C42.3562 14.0156 42.7164 14.8288 42.8369 14.7587C42.8538 14.7487 43.0438 14.4764 43.0274 14.4658ZM4.38816 14.2115C4.29198 14.2723 4.64629 14.499 4.6938 14.3524C4.72316 14.2606 4.44966 14.1728 4.38816 14.2115ZM53.1934 14.8499C53.1649 14.851 53.1366 14.8522 53.1086 14.8532C53.1296 14.8462 53.1573 14.8441 53.1934 14.8499ZM33.7947 13.9401C34.2642 14.5712 34.2188 14.0878 34.2601 14.0908C34.3493 14.0984 34.5552 14.2698 34.7237 14.2435C34.5303 14.3123 34.337 14.381 34.1437 14.4498C34.2954 14.4964 35.6154 14.7395 35.6441 14.6382C35.6851 14.4939 35.2687 14.5353 35.2567 14.5225C35.2394 14.5042 35.1782 14.1012 35.1397 14.0856C35.0765 14.0605 33.971 14.0418 33.7947 13.9401ZM41.6145 14.5221C41.7226 14.5709 41.752 14.7306 41.8028 14.693C41.8201 14.6801 41.8243 14.5281 41.8834 14.4893C41.7937 14.5002 41.7041 14.5112 41.6145 14.5221ZM32.9382 14.4955C32.8054 14.3084 33.4081 14.3847 33.4272 14.4057C33.5292 14.5326 33.0468 14.6483 32.9382 14.4955ZM38.0582 14.5167C38.0363 14.5056 37.5735 14.4432 37.5763 14.5464C37.6981 14.6261 38.3174 14.6548 38.0582 14.5167ZM41.9559 14.4796C42.1185 14.4989 42.4248 14.6549 42.3917 14.4256C42.3915 14.4256 42.3912 14.4256 42.391 14.4256C42.2459 14.4436 42.1009 14.4616 41.9559 14.4796ZM26.8403 14.1455C26.542 13.7781 26.6806 14.2402 26.9466 14.3603C27.0291 14.1974 26.8892 14.2053 26.8403 14.1455ZM25.8775 13.8646C25.7942 13.7982 24.9286 13.862 25.0588 14.0561C25.105 14.1253 25.604 13.9566 25.6268 13.9702C25.6613 13.9903 25.5006 14.2022 25.7663 14.1624C25.7515 14.0899 25.906 13.8868 25.8775 13.8646ZM26.5928 13.9097C26.2956 13.6296 26.2235 14.1404 26.4489 14.1439C26.537 14.1457 26.6352 13.9501 26.5928 13.9097ZM27.8169 13.9648C27.7094 13.9153 27.4228 13.8419 27.2232 14.0101C27.4881 14.0271 27.7529 14.0441 28.0178 14.0611C28.0493 13.9651 27.9108 14.0083 27.8161 13.9648C27.8164 13.9648 27.8166 13.9648 27.8169 13.9648ZM94.5674 13.8256C94.3306 13.6783 94.8799 13.6279 94.9027 13.6637C94.9705 13.7827 94.6733 13.8913 94.5674 13.8256ZM2.57138 9.54768C2.50574 9.48924 2.46427 9.29861 2.31766 9.3969C2.46286 9.5387 2.60806 9.6805 2.75326 9.8223C2.87016 9.50162 2.64311 9.61213 2.57138 9.54768ZM2.02291 8.36683C2.04369 8.35923 1.93528 7.86341 2.19956 8.19623C2.37814 8.42096 1.39362 8.62908 1.21833 8.40803C1.41524 8.30794 1.84415 8.42867 2.02291 8.36683ZM0.322097 6.20906C0.311139 6.1695 0.68495 6.11513 0.7279 6.14335C0.953379 6.2921 0.381402 6.42102 0.322097 6.20906ZM1.512 6.31467C1.33785 6.21695 1.72623 6.15866 1.84128 6.21504C1.85162 6.30723 1.53891 6.32893 1.512 6.31467ZM92.2228 6.63727C92.0365 6.29924 91.8603 7.0215 92.1531 6.8784C92.1671 6.87167 92.2307 6.65382 92.2228 6.63727ZM0.69171 5.71341C0.865863 5.81113 0.477481 5.86942 0.362428 5.81304C0.352544 5.72095 0.665187 5.69911 0.69171 5.71341ZM92.097 5.835C91.8477 5.59067 91.9286 6.40359 91.9598 6.4366C92.0881 6.56706 92.5351 6.2525 92.6265 6.17411C91.9608 6.28973 92.2144 5.95013 92.097 5.835ZM90.932 6.31176C90.6979 6.3962 91.2927 6.5675 91.4087 6.34218C91.2926 6.35192 90.9987 6.28734 90.932 6.31176ZM89.5179 6.038C89.3928 6.00774 89.0201 5.93459 88.9563 6.06178C89.0936 6.03993 89.4638 6.16898 89.5179 6.038ZM89.2374 5.65246C89.0429 5.477 88.9911 5.98242 89.2187 5.83388C89.2275 5.82813 89.2446 5.66218 89.2374 5.65246ZM88.1364 5.45948C88.0096 5.25709 87.8581 5.74562 88.0665 5.76079C88.1285 5.76439 88.1498 5.48267 88.1364 5.45948ZM91.7903 4.95839C91.6068 4.87027 91.3661 5.21887 91.7592 5.2611C91.6205 5.31341 91.4818 5.36572 91.3431 5.41803C91.8566 5.61952 91.8233 5.13263 91.9711 5.15413C92.1776 5.18466 92.1575 5.586 92.1148 5.71168C92.2866 5.4673 93.0069 5.47013 93.4236 5.42721C93.0587 5.32054 92.4668 5.136 92.1064 5.0672C92.0035 5.0473 91.9024 5.15647 91.8146 5.14332C91.6739 5.12167 91.8006 4.9643 91.791 4.95839C91.7908 4.95839 91.7905 4.95839 91.7903 4.95839ZM86.687 5.43859C86.3109 5.20714 86.5454 5.70141 86.76 5.61568C86.7692 5.60901 86.6963 5.44424 86.687 5.43859ZM0.204234 4.21352C0.707618 4.42393 0.337755 4.69305 1.39876 4.28909C0.951886 4.57793 1.37222 4.49959 1.28442 4.61696C1.21399 4.70982 0.954144 4.62992 1.10384 4.81969C0.906672 4.61283 0.0417669 4.6614 0.00354548 4.62775C0.00391168 4.62775 0.00427024 4.62775 0.00463644 4.62776C-0.0183247 4.60782 0.0436008 4.1466 0.204234 4.21352ZM89.5282 4.75137C89.4077 4.15319 89.3493 5.10029 89.106 4.60317C88.769 5.31857 90.018 4.61185 90.1628 5.22015C88.8143 5.13695 91.0484 5.82988 90.1153 4.91255C90.888 5.24957 90.3706 4.80242 90.4914 4.68779C90.6207 4.56569 91.0582 4.70382 91.038 4.48124C91.0378 4.48124 91.0376 4.48124 91.0373 4.48124C90.7688 4.49428 90.5002 4.50732 90.2317 4.52036C90.4899 5.00251 89.9427 4.85352 89.7604 4.46093C89.683 4.55775 89.6056 4.65456 89.5282 4.75137ZM91.0431 5.21597C91.0168 5.20474 90.4323 5.26648 90.4691 5.36311C90.5465 5.42525 91.3757 5.35942 91.0431 5.21597ZM93.6134 5.13533C93.4038 5.13219 93.0805 5.03556 92.9646 5.21536C93.1743 5.21855 93.4976 5.31523 93.6134 5.13533ZM82.8202 4.99961C82.5516 5.14552 83.3738 5.19722 83.1375 5.0192C83.1258 5.01081 82.8334 4.9928 82.8202 4.99961ZM88.9197 4.83593C88.6497 4.65093 88.7727 5.23286 88.9753 5.08342C88.9871 5.07461 88.9321 4.84437 88.9197 4.83593ZM0.614387 4.14682C0.633897 4.00471 1.36613 4.11154 1.49611 4.11153C1.42103 4.24308 0.592011 4.30973 0.614387 4.14682ZM93.9873 4.60652C93.575 4.09099 93.0035 4.67659 92.9415 4.6631C92.88 4.64936 92.9789 4.42663 92.9648 4.4205C92.9329 4.40765 92.2754 4.42024 92.2435 4.43551C92.2206 4.44743 92.3366 4.76282 92.2 4.86055C92.4663 4.68446 93.6668 4.80748 93.7295 4.77323C93.7781 4.74588 93.417 4.41243 93.9866 4.60651C93.9868 4.60651 93.987 4.60651 93.9873 4.60652ZM92.7871 4.59316C92.9501 4.72644 92.4894 4.73859 92.3785 4.68893C92.1319 4.57782 92.7662 4.57735 92.7871 4.59316ZM91.6808 4.46135C91.6285 4.4313 91.1542 4.4 91.1125 4.54628C91.3353 4.73864 91.7994 4.53132 91.6808 4.46135ZM86.4 4.43141C86.2765 4.44904 85.9387 4.33316 85.9181 4.46112C86.0416 4.44359 86.3794 4.55939 86.4 4.43141ZM3.12642 3.05181C2.92267 2.94266 3.39749 2.90331 3.5354 2.95604C3.54211 3.0416 3.14376 3.06119 3.12642 3.05181ZM88.8852 3.6101C88.8126 3.57045 87.3228 3.65369 87.1135 3.71174C87.3168 3.81058 88.7922 3.8319 88.8596 3.78523C88.8793 3.77125 88.8944 3.61632 88.8852 3.6101ZM92.1055 3.58123C92.2438 3.3938 92.3307 3.62098 92.3479 3.62398C92.5164 3.65445 92.8669 3.61519 92.7884 3.79623C92.4912 3.72009 91.8302 3.95344 92.1055 3.58123ZM86.3022 3.57648C85.796 3.64176 86.7652 3.84971 86.6396 3.65125C86.6315 3.63925 86.3546 3.56962 86.3022 3.57648ZM89.052 3.55668C89.165 3.40523 90.653 3.55074 90.892 3.55322C90.6752 3.83247 90.5046 3.61721 90.2169 3.62885C90.1392 3.63232 90.1588 3.74953 90.1505 3.74964C90.016 3.75379 90.1179 3.61959 90.035 3.61676C89.9827 3.61535 88.8931 3.77005 89.052 3.55668ZM92.1846 3.45123C92.2689 3.34383 93.1992 3.30646 93.2363 3.33556C93.5142 3.55201 92.2565 3.48957 92.1846 3.45123ZM88.9178 3.30533C89.081 2.97995 89.8185 3.20582 89.3108 3.36402C89.2623 3.37839 89.0589 3.23477 88.9178 3.30533ZM86.3591 3.26571C86.3344 3.25586 85.808 3.18557 85.7975 3.28948C85.8733 3.33062 86.6412 3.3741 86.3591 3.26571ZM86.6357 2.91654C86.6229 2.91891 86.7446 3.12039 86.4977 3.09268C86.4772 3.0901 86.4409 2.86436 86.1295 2.94394C86.0663 2.96034 85.9672 3.10852 85.9742 3.11785C86.2943 3.47459 87.2749 2.80633 86.6357 2.91654ZM92.2034 3.26877C92.1542 3.17317 92.2777 2.89195 92.3853 3.03597C92.4315 3.09815 92.3427 3.26678 92.2034 3.26877ZM84.6887 3.15869C84.9966 2.99033 84.0351 2.94891 83.9857 2.99228C84.0156 3.09923 84.6579 3.17513 84.6887 3.15869ZM3.61828 1.73443C3.61803 1.73443 3.6178 1.73443 3.61755 1.73442C3.87492 1.77565 3.71394 1.9166 3.72597 1.92119C4.27299 2.13559 4.13041 1.81157 4.21661 1.7743C4.40146 1.69368 4.36811 2.08576 4.68016 1.92601C4.16463 2.16141 4.63279 2.0651 4.64601 2.20482C4.69817 2.77502 3.96514 1.93166 3.7081 2.04865C3.67229 2.06485 3.93385 2.24913 3.84201 2.3C3.5434 2.46479 2.6307 1.57675 3.61828 1.73443ZM92.4696 3.01186C92.5907 2.84565 93.4961 3.01647 93.2544 3.15206C93.2155 3.17379 92.2916 3.25409 92.4696 3.01186ZM50.106 2.36659C50.3253 2.22383 49.8217 2.04885 49.727 2.16068C49.68 2.21639 50.0096 2.42924 50.106 2.36659ZM46.5699 1.71384C46.3106 1.7408 46.0319 2.3421 46.355 2.25142C46.3893 2.2415 46.5988 1.79789 46.5699 1.71384ZM63.5742 2.18399C63.3058 1.96564 63.3181 2.36675 63.5167 2.36296C63.5869 2.36169 63.5827 2.19089 63.5742 2.18399ZM53.2517 2.13882C53.2247 2.12457 52.9118 2.14723 52.9224 2.23949C53.0374 2.29587 53.4258 2.23654 53.2517 2.13882ZM63.6606 2.12773C63.4996 2.19848 63.7729 2.49108 63.9716 2.20951C63.8718 2.23182 63.6772 2.1205 63.6606 2.12773ZM88.3673 2.41397C88.2315 2.57736 87.8521 2.52403 87.6336 2.55028C87.6121 2.33675 88.211 2.45118 88.3673 2.41397ZM47.6671 1.96698C47.4205 2.11501 47.9446 2.24303 47.8983 2.04387C47.8917 2.03301 47.6768 1.96066 47.6671 1.96698ZM72.3004 2.18716C72.121 2.31273 72.6852 2.48916 72.5316 2.26405C72.524 2.25486 72.3102 2.18018 72.3004 2.18716ZM74.7708 2.28407C74.636 2.23987 74.0592 2.24766 74.2825 2.3739C74.3172 2.39331 74.7595 2.40051 74.7708 2.28407ZM4.23327 1.62088C4.16248 1.40108 4.58488 1.45721 4.64506 1.49608C4.66869 1.51223 4.32562 1.90686 4.23327 1.62088ZM61.8181 2.13323C61.6779 2.15933 61.3155 2.10382 61.2505 2.21817C61.4219 2.19599 61.862 2.36265 61.8181 2.13323ZM48.785 1.97645C48.5737 1.73634 48.2087 1.75641 48.296 2.06836C48.6991 2.0513 48.2488 1.78827 48.785 1.97645ZM64.5643 1.87991C64.4523 1.8607 64.3635 2.15865 64.376 2.17285C64.4963 2.3079 64.6747 1.9972 64.5643 1.87991ZM56.1413 2.04665C56.1361 1.91892 55.7758 1.97348 55.8231 2.05611C55.8385 2.08385 56.1456 2.15003 56.1413 2.04665ZM83.657 2.29705C83.4933 2.17896 83.9977 2.06976 84.1453 2.20721C84.2159 2.40393 83.6777 2.31063 83.657 2.29705ZM67.6754 1.98388C67.6939 1.79456 67.1306 1.8964 67.3507 2.05554C67.4058 2.09536 67.6689 2.04718 67.6754 1.98388ZM73.06 1.80725C72.6807 2.02966 74.2628 2.20496 73.8493 1.91948C73.8198 1.89914 73.093 1.78848 73.06 1.80725ZM75.6449 1.97268C75.5801 1.94717 75.6185 1.31078 75.8855 1.55883C75.9205 1.591 75.7536 1.75776 75.7821 1.79652C75.7989 1.81862 76.3836 1.91355 76.4107 1.89894C76.4399 1.88233 76.4076 1.67795 76.4373 1.65533C76.4707 1.63006 76.8294 1.81271 77.0181 1.81645C77.3738 1.82315 77.4138 1.65366 77.443 1.65337C77.528 1.65305 77.6697 1.77499 77.8419 1.77646C78.7102 1.78327 80.0395 1.65178 80.7244 2.01836C80.1133 1.86799 79.5281 2.01593 78.9182 2.05741C79.1 1.70455 78.0189 2.32216 78.6517 1.91897C78.3613 2.00499 75.8575 2.05242 75.6457 1.97269C75.6454 1.97268 75.6452 1.97268 75.6449 1.97268ZM45.5493 1.52577C45.7104 1.30987 44.8936 1.3511 44.8219 1.60194C44.9294 1.63786 45.5293 1.55022 45.5493 1.52577ZM49.3208 1.03097C49.397 0.994161 49.473 0.569913 49.8686 0.789153C49.8689 0.789156 49.8693 0.789159 49.8696 0.789163C49.9853 0.853191 49.8519 0.955484 49.8728 0.992578C49.8804 1.00772 50.241 1.2225 49.9396 1.25366C49.4799 1.3015 49.8993 0.937141 49.6545 0.930341C49.6246 0.929711 49.159 1.15536 49.1855 1.20611C49.1882 1.21201 49.3281 1.16467 49.3509 1.18587C49.4371 1.26557 49.3936 1.39787 49.4058 1.4043C49.4457 1.42086 50.1807 1.20168 50.2854 1.40012C50.3194 1.46411 49.1152 1.59966 49.0686 1.56612C49.0392 1.54498 49.0552 1.17677 49.0248 1.14026C49.0092 1.12207 48.5241 1.25554 48.4616 1.22109C48.4434 1.21112 48.4296 1.20044 48.4195 1.19164C48.4916 1.30628 48.0535 1.29396 48.0682 1.16551C48.0763 1.11504 48.3776 1.14713 48.3883 1.15606C48.393 1.15985 48.397 1.16504 48.4008 1.16863C48.3397 1.02917 49.3607 1.04504 49.1422 0.836283C49.4393 0.725844 49.0973 1.13908 49.3208 1.03097ZM50.7457 0.817116C50.7148 0.855565 50.6838 0.894014 50.6529 0.932463C51.172 0.842522 51.7681 1.03462 52.365 1.03884C52.5165 1.04019 52.3445 0.801647 52.5424 0.868251C52.701 0.921628 52.8749 1.14302 52.788 1.1912C52.7668 1.20323 52.4443 1.05706 52.2821 1.07023C51.8032 1.10921 51.9222 1.31351 51.8942 1.31874C51.8632 1.32422 51.5634 1.17852 51.3989 1.18333C50.9853 1.19589 50.7953 1.31885 50.2319 1.15057C50.5592 1.01974 50.3833 0.72718 50.7457 0.817116ZM70.0555 1.43138C70.0764 1.30369 70.4144 1.42033 70.5377 1.40271C70.5171 1.53072 70.1789 1.41375 70.0555 1.43138ZM19.528 0.790294C19.4219 0.999158 20.202 1.05846 19.998 0.881878C19.9528 0.84269 19.6261 0.792709 19.528 0.790294ZM23.0336 0.950888C23.1386 0.893854 22.7195 0.738817 22.7188 0.901232C22.7189 0.953318 23.0201 0.958306 23.0336 0.950888ZM57.4416 1.08657C57.4615 1.08018 57.7483 1.12962 57.7572 1.14038C57.9454 1.36498 57.0011 1.22731 57.4416 1.08657ZM27.2991 0.732609C26.9338 0.86673 28.0288 0.936644 27.6957 0.758129C27.6791 0.74943 27.3166 0.726089 27.2991 0.732609ZM28.8222 0.708535C28.7348 0.715086 28.348 0.643151 28.3423 0.707137C28.3336 0.810368 28.7765 0.885124 28.8222 0.708535ZM64.6475 1.08791C64.6077 0.851073 65.1169 1.03493 65.2948 1.00683C65.3348 1.24383 64.8253 1.05972 64.6475 1.08791ZM61.4243 0.883271C63.5799 0.717135 63.1003 1.21783 61.2949 0.997238C61.2938 0.84553 61.2883 0.893732 61.4243 0.883271ZM64.1821 0.937218C64.1024 1.08795 63.8582 1.04074 63.6931 1.02705C63.7238 0.922017 64.0627 0.963319 64.1821 0.937218ZM18.6016 0.456789C18.7385 0.266716 19.3344 0.508233 19.2273 0.586156C19.2024 0.602968 18.551 0.561548 18.6016 0.456789ZM57.624 0.885935C57.576 0.65552 58.2219 0.755396 58.2709 0.806928C58.4686 1.01421 57.6769 0.835677 57.624 0.885935ZM67.7064 0.914318C67.8223 0.73528 68.1459 0.830968 68.3545 0.835321C68.258 0.988436 67.8834 0.919223 67.7064 0.914318ZM66.2017 0.759046C66.2149 0.752255 66.5057 0.771252 66.5186 0.779666C66.7554 0.957825 65.9327 0.905034 66.2017 0.759046ZM3.27723 0.00140586C3.28699 -0.00430678 3.50722 0.00924945 3.51484 0.0160925C3.70989 0.190865 3.04888 0.149313 3.27723 0.00140586Z" fill="#333333"/>
</svg>
