<svg width="264" height="19" viewBox="0 0 264 19" fill="none" xmlns="http://www.w3.org/2000/svg">
<path d="M243.681 1.10792C243.517 1.12794 242.861 1.06932 242.576 1.07574C242.901 0.850737 244.271 1.03516 243.681 1.10792ZM214.351 17.3925C214.588 17.3384 214.824 17.2842 215.061 17.2301C214.391 17.1871 213.489 17.22 212.867 17.1607C212.765 17.1507 213.031 16.99 212.79 16.9804C212.549 16.9709 212.594 17.1944 212.243 17.215C211.85 17.2374 210.052 17.0651 209.429 17.063C207.098 17.0561 204.746 17.1614 202.411 17.0468C204.824 16.9044 202.396 16.7136 201.72 16.7788C201.57 16.794 201.59 17.2089 199.172 17.0817C197.635 17.001 199.061 16.4215 196.493 16.6944C198.461 17.1277 196.522 17.0804 194.975 17.0796C194.709 17.0796 192.556 16.997 191.605 17.0064C191.28 17.0098 190.782 17.2223 190.35 17.224C190.053 17.2249 189.83 17.1041 189.388 17.106C187.332 17.1134 185.31 17.1036 183.251 17.0441C184.459 16.4972 182.308 16.7973 182.212 16.7697C181.722 16.6136 183.942 16.5913 183.065 16.4882C181.839 16.494 180.612 16.4998 179.385 16.5055C180.391 16.5835 178.048 16.9631 177.619 16.7764C177.804 17.2714 172.033 16.2945 171.151 16.4509C170.968 16.484 172.165 16.7391 169.384 16.6014C169.082 16.5862 169.198 16.4384 169.04 16.4508C168.945 16.4582 168.367 16.9259 167.76 16.6588C167.537 16.5613 168.966 16.264 165.834 16.3594C167.076 16.8526 161.489 16.5793 160.462 16.449C160.667 16.5156 160.871 16.5822 161.076 16.6488C160.061 16.4648 159.876 16.6268 159.648 16.6157C158.725 16.5712 157.458 16.3943 156.598 16.4013C155.592 16.4091 155.586 16.7085 154.414 16.581C154.691 16.6497 154.969 16.7184 155.247 16.787C154.437 16.7635 153.627 16.74 152.817 16.7165C154.697 16.3378 152.413 16.6937 152.262 16.7009C152.023 16.713 152.369 16.554 151.968 16.5705C151.926 16.5734 151.985 16.7268 151.367 16.7381C150.076 16.7613 150.282 16.5711 149.74 16.5682C149.69 16.5687 149.863 16.708 148.927 16.7318C145.951 16.8075 148.942 16.6264 149.057 16.6085C149.207 16.5848 148.192 16 150.717 16.2277C149.869 16.1548 149.786 15.8994 149.691 15.8922C149.606 15.8862 148.136 15.9082 148.055 15.9163C147.332 15.9959 147.966 16.1758 147.825 16.2057C147.709 16.2297 145.941 15.9864 145.521 16.5057C144.678 16.0151 146.012 16.0719 147.434 16.0111C147.642 15.914 146.083 15.803 146.001 15.8025C143.988 15.7845 145.098 16.1919 144.656 16.4415C144.424 16.5721 143.606 16.2936 144.36 16.6567C142.533 16.6771 143.643 16.4812 143.525 16.4496C143.347 16.4031 142.707 16.4991 142.627 16.4847C142.51 16.4635 142.919 16.3441 142.457 16.2963C142.38 16.2893 141.632 16.4944 142.593 16.6048C141.308 16.5625 141.412 16.7444 140.98 16.3758C140.088 17.057 140.341 15.9623 139.993 15.9204C139.067 15.8098 139.331 16.3537 139.282 16.3796C138.943 16.5456 136.378 16.3355 135.742 16.4075C135.997 16.02 137.777 16.4224 138.176 16.3505C139.508 16.1114 136.304 16.138 137.274 15.6572C136.868 15.7879 136.462 15.9186 136.056 16.0494C135.317 15.7274 136.371 15.6 134.372 15.6963C134.043 15.9651 135.785 15.6666 135.434 15.8775C135.227 16.0012 134.069 16.0173 134.045 16.0834C134.022 16.1629 135.069 16.0783 134.903 16.1994C134.541 16.4607 130.725 16.1728 133.633 16.0556C132.822 16.0525 132.409 15.5221 131.704 15.6795C131.249 15.7817 133.8 16.533 129.964 16.3636C129.884 16.1142 131.499 16.3046 131.541 16.2861C131.6 16.2591 131.313 15.6952 131.262 15.6671C131.084 15.5742 127.163 15.8378 126.338 15.5481C126.662 15.8755 123.376 15.5781 123.017 15.6736C122.921 15.7 123.276 15.902 123.174 15.922C122.537 16.0412 120.82 15.6704 120.022 15.6537C119.129 15.6349 119.241 15.8075 119.191 15.8068C118.798 15.7935 119.113 15.6801 118.873 15.6782C118.51 15.6754 116.016 15.6281 115.891 15.6512C115.854 15.6584 116.259 15.8582 115.715 15.8903C115.621 15.8959 115.683 15.6641 114.072 15.7493C112.132 15.8518 115.416 16.0509 114.608 16.2867C113.366 15.9285 113.403 16.2722 113.065 16.2421C112.948 16.2311 112.081 15.9311 111.136 15.9406C111.814 15.8996 112.493 15.8586 113.172 15.8176C112.506 15.7602 111.21 15.8113 110.661 15.7483C110.393 15.7177 110.616 15.48 110.034 15.481C109.91 15.4825 109.415 16.0621 110.942 15.8143C111.062 16.0241 110.338 15.8814 110.001 15.9372C109.949 15.9459 109.745 16.2926 109.317 16.0719C109.215 16.0177 110.348 15.0116 107.442 15.7202C107.349 15.743 107.672 15.8734 107.581 15.8989C107.518 15.9162 106.779 15.8577 106.697 15.875C106.613 15.8936 106.969 16.036 106.869 16.0624C106.357 16.1985 105.693 15.641 106.745 15.6929C106.394 15.6214 106.042 15.55 105.691 15.4785C106.064 15.8975 105.138 15.5902 104.651 15.5985C101.53 15.6509 103.617 15.9408 103.079 16.0755C102.214 16.2919 102.88 15.5871 101.597 15.7887C101.479 15.8076 103.024 16.1239 100.003 15.9252C100.449 15.9176 100.895 15.9101 101.342 15.9025C101.088 15.4982 99.7304 15.9149 99.6263 15.9196C98.4388 15.9636 99.2425 15.8263 97.4782 16.0166C97.3206 16.0337 96.9786 15.9313 96.6416 15.9777C95.2445 16.1684 98.4814 16.1186 98.5684 16.2822C98.6095 16.3623 95.1294 16.3095 95.0103 16.2705C94.5046 16.0979 96.5887 16.2114 96.1932 15.9994C96.0489 15.924 91.087 16.0293 90.0926 15.9389C88.9451 15.8338 88.4332 15.2841 88.4202 15.8962C88.1017 15.2922 87.8116 15.6995 87.6647 15.694C85.8893 15.6217 85.8861 15.6156 84.3627 15.6588C84.0263 15.6682 83.744 15.4832 83.6248 15.5128C83.5555 15.5308 83.683 15.7271 83.3433 15.7841C82.8715 15.8621 80.0422 15.6348 79.8329 15.5249C79.6235 15.4151 81.0289 15.4894 80.7786 15.3097C79.761 15.2822 78.7847 15.3169 77.7604 15.2886C77.3349 15.2763 77.5548 15.1542 77.3709 15.15C77.2927 15.1477 75.8223 15.2432 75.8841 15.2896C76.029 15.3974 80.567 15.3685 79.3701 15.5745C79.1392 15.6143 78.3275 15.3206 78.4537 15.6697C74.4008 15.5527 70.3479 15.4357 66.295 15.3188C68.6265 15.0805 71.2454 15.3378 73.6851 15.3364C74.0195 15.3365 75.1495 15.3807 75.0138 15.2036C72.9397 15.1386 70.3598 15.2059 68.369 15.0726C68.3052 15.0682 68.5408 14.9125 68.3022 14.8852C67.8563 14.8343 66.4007 15.0754 66.1569 15.0072C66.1153 14.9915 66.9443 14.791 66.694 14.6563C66.0516 14.3107 65.8807 15.0613 65.3257 15.0471C64.8964 15.0359 62.0154 14.6451 61.2948 14.8681C60.5286 15.1058 63.4193 15.0303 63.204 15.2285C61.2469 15.4113 59.2691 15.1778 57.4214 15.1855C57.3889 15.1859 57.67 15.3454 57.2576 15.3635C56.5399 15.395 56.3537 15.1706 56.0049 15.1317C55.6288 15.0903 54.2968 15.1097 54.1195 15.0269C54.097 15.016 54.3688 14.7978 54.4098 14.792C54.9907 14.7064 55.1941 14.9949 55.2468 14.9991C55.445 15.0118 55.6408 14.9039 55.8217 14.9121C56.1194 14.9258 56.2825 15.0289 56.6755 15.0415C56.9467 15.0507 56.6867 14.8532 56.9481 14.8646C57.044 14.8696 58.0749 15.3245 58.1757 14.8709C58.207 14.7279 49.744 14.4643 48.8968 14.571C49.622 14.6324 50.3473 14.6939 51.0725 14.7554C49.6 14.6085 47.8262 14.955 47.7059 14.4166C42.2411 14.3213 36.7763 14.226 31.3115 14.1307C30.3361 14.0757 30.8744 13.7355 29.2679 13.8209C29.6818 13.9348 30.0957 14.0487 30.5095 14.1626C29.6874 14.0777 26.0425 13.8926 25.4516 13.9583C25.3752 13.9669 25.2661 14.2784 24.3547 14.2967C23.546 14.3128 23.4184 14.0774 22.9865 14.0285C22.624 13.9881 22.2159 14.0456 22.1083 14.0317C22.0257 14.0206 21.9944 13.8771 21.7958 13.8503C21.1688 13.7672 21.6737 14.175 21.0549 13.7063C21.2068 13.6901 21.3587 13.6739 21.5106 13.6577C20.7535 13.5836 19.7204 13.3637 20.8374 13.2705C21.0295 13.2544 20.8634 13.3914 21.0065 13.3925C26.6107 13.4194 22.1383 13.1081 20.1724 13.3047C19.67 13.0948 16.8422 13.1935 16.7486 13.1522C16.6185 13.0924 17.1037 12.9329 16.471 12.7853C16.3379 12.7541 12.5575 12.8335 13.921 12.5735C14.2023 12.5199 16.0137 12.5961 16.4507 12.5921C15.427 12.1475 13.012 12.748 12.7412 12.7295C11.649 12.6515 14.8442 12.3723 12.3826 12.2986C10.4899 12.242 12.2645 12.5492 11.5352 12.6663C11.1254 12.732 8.98601 12.3919 9.04024 12.8068C8.30445 12.8441 8.73691 12.6288 8.64627 12.6122C8.55766 12.5975 7.11064 12.7079 6.64206 12.6161C6.58525 12.6047 6.76646 12.3911 6.7078 12.3729C6.59361 12.3417 5.1988 12.3716 5.14257 12.3893C5.10681 12.4017 5.43748 12.5933 5.30037 12.6378C5.14064 12.689 3.79926 12.632 3.72478 12.6852C3.61949 12.7657 5.27651 12.7276 4.99845 12.9359C4.23543 12.8756 2.99002 13.0046 2.48448 13.1696C2.60847 13.1222 3.34883 13.1222 3.60567 13.1417C3.48183 13.4494 1.89216 13.4302 2.43795 13.1909C2.09134 13.3189 2.32642 13.3908 2.13077 13.5128C2.07949 13.5437 1.58854 13.5456 1.49347 13.5982C1.48107 13.6087 1.98642 13.73 1.88443 13.7917C1.69975 13.9033 0.211832 13.8638 0.0903212 13.833C-0.251553 13.7455 0.962669 13.6549 1.06512 13.5256C1.07968 13.5058 0.0501405 13.2408 0.0346671 13.2181C-0.023359 12.9757 1.12327 13.1608 0.994064 12.9418C0.710482 12.8931 0.426961 12.8445 0.143379 12.7958C1.24095 12.5856 3.26629 12.718 3.79124 12.4721C2.1664 12.5315 0.466943 12.5066 0.475702 11.9418C0.47916 11.7039 1.18109 11.571 1.15456 11.5103C1.0533 11.2929 0.078355 11.5188 0.0426974 11.5071C0.0133122 11.4936 -0.000146719 11.4806 1.30964e-06 11.4681C1.36344e-06 11.4681 1.41275e-06 11.4681 1.46207e-06 11.4681C0.00128448 11.3414 1.38859 11.2632 1.45855 11.206C1.57612 11.1043 0.963033 10.6754 0.964889 10.5818C0.986549 10.5632 1.9749 10.4724 1.64326 10.306C1.30773 10.1378 0.443547 10.1261 0.413375 10.1086C0.24927 10.0084 1.7618 9.93264 1.80745 9.87479C1.83147 9.84555 1.02138 9.6569 0.998247 9.60465C0.978537 9.55223 1.59652 9.44409 1.84123 9.28155C2.02368 9.1608 1.49663 9.06195 1.58967 9.04363C1.65613 9.03153 3.08448 9.04705 3.1549 9.02618C3.25981 8.99532 2.92658 8.84583 2.97566 8.80969C3.04521 8.75771 3.506 8.81487 3.44645 8.76016C3.4017 8.71938 1.61828 8.19806 1.63111 8.06341C1.65372 7.83376 3.54243 8.38041 1.78889 7.45681C1.77662 7.45074 1.34708 7.51117 1.33523 7.50547C1.07216 7.3361 2.44945 7.09231 0.767799 7.12138C3.89804 6.86094 1.16022 6.77952 1.62664 6.39685C1.80674 6.24977 3.0197 6.19983 3.02558 6.17756C2.9095 5.98774 2.52188 6.13047 2.39141 6.0367C2.31963 5.98431 3.40624 5.79498 3.16336 5.66313C3.03774 5.59517 1.88608 5.60811 1.83863 5.59464C1.38408 5.46751 1.94414 5.34045 1.84487 5.25226C1.77892 5.19313 1.08408 5.18197 1.06611 5.17126C1.03709 5.14908 1.98272 4.92158 2.18008 4.84034C2.33006 4.77782 1.77027 4.67239 1.87474 4.6455C2.5044 4.48474 3.8368 4.92236 2.55464 4.31464C2.47638 4.27738 1.98905 4.28755 1.97486 4.28014C1.67541 4.10846 2.57242 4.1023 2.73417 3.9656C3.01188 3.73001 1.72156 3.85068 2.79514 3.69326C1.99238 3.52994 1.54425 3.53223 0.602785 3.5668C3.20961 3.47018 4.13489 2.86226 1.24202 2.85058C2.16215 2.86885 2.06331 2.5199 2.3379 2.51638C2.50857 2.51458 3.83964 2.87311 3.23521 2.09106C3.15932 1.99337 2.34771 2.10896 2.60341 1.91287C4.54816 1.9818 2.64585 1.78697 2.64412 1.76071C2.67356 1.30367 7.42328 1.72289 8.24047 1.67843C9.1888 1.62686 10.0344 1.27445 10.2404 1.27593C10.9182 1.28214 10.354 1.45981 10.5049 1.5285C10.6579 1.59659 12.5886 1.26423 12.6846 1.28438C13.0572 1.36521 12.6763 1.57844 12.715 1.58975C13.176 1.72694 15.766 1.58152 16.4902 1.63873C16.4691 1.49788 15.0143 1.47304 15.9248 1.2557C16.9851 1.00229 17.0398 1.62284 17.0672 1.65038C21.9138 1.69007 26.7604 1.72976 31.607 1.76944C31.5497 1.43903 28.3787 1.65799 28.3071 1.6139C27.8862 1.3528 33.2389 1.40786 33.8944 1.53049C33.3963 1.45455 32.8981 1.37862 32.4 1.30268C33.2553 0.931475 35.1357 1.44188 36.3692 1.28604C36.7677 1.23551 36.0048 1.08196 36.0207 1.07211C36.4695 0.929039 37.1861 1.04926 36.6476 1.24196C37.7413 1.06275 37.5799 1.27031 38.4176 1.29388C38.4608 1.29495 38.1025 1.13854 38.7661 1.08132C39.077 1.05464 40.7338 1.06973 40.9569 0.937965C41.0487 0.88247 40.2138 0.281131 40.1053 0.790908C38.3056 0.524994 39.5272 1.01824 38.8273 0.999919C38.72 0.996236 38.9696 0.713471 37.2054 0.831093C37.546 0.320147 39.5725 0.723661 39.9211 0.664655C40.64 0.543401 37.685 0.250108 37.1386 0.645758C37.396 0.246953 36.9294 0.58972 36.2702 0.567031C35.5488 0.54236 35.8644 0.425852 35.4739 0.421532C34.4061 0.408504 34.8462 0.695856 33.9682 0.43228C34.819 1.2307 32.4602 0.522401 31.7728 0.308908C32.8947 0.279333 34.0166 0.249756 35.1384 0.220181C35.0747 0.178074 35.011 0.135968 34.9473 0.0938615C35.2426 0.102518 35.538 0.111175 35.8333 0.119832C35.7856 0.159162 35.7379 0.198491 35.6902 0.237821C37.2158 -0.00646368 37.5848 0.287681 37.709 0.292082C39.3076 0.34083 41.1544 0.355694 42.771 0.371843C43.0136 0.374267 42.8496 0.114014 44.6154 0.333149C45.1787 0.40294 44.6444 0.599177 45.2839 0.574988C46.0886 0.0356683 46.0693 0.471687 46.3071 0.474614C46.9892 0.480958 47.4075 0.349413 47.4705 0.348578C48.3135 0.335364 49.5477 0.369588 50.4737 0.358135C50.4911 0.356235 50.0109 0.183698 50.6118 0.239062C50.8228 0.258799 52.7103 0.993784 54.3683 0.775582C53.9382 0.723112 53.5079 0.670642 53.0777 0.618172C53.5835 0.690599 57.1337 0.543222 56.2678 0.343087C55.7371 0.220753 54.4342 0.670812 54.296 0.22493C55.4756 0.36908 61.9992 0.231411 62.506 0.339477C62.5761 0.354877 62.1426 0.495056 62.2395 0.514414C62.3144 0.529176 63.8087 0.509046 64.0065 0.566309C64.1242 0.600331 63.4633 0.682527 63.5165 0.734994C63.5631 0.772485 65.4282 0.851791 65.5363 0.672008C65.0775 0.740271 63.7905 0.664793 64.4672 0.518756C64.5542 0.500649 65.0033 0.621486 65.109 0.598466C66.0903 0.386159 63.1637 0.411821 62.7108 0.405739C64.551 0.192695 67.3914 0.490942 69.5225 0.360824C70.3816 0.519388 68.2445 0.579017 69.217 0.71284C71.2345 0.990241 69.7564 0.509812 69.8193 0.49125C70.3225 0.344156 72.0237 1.17382 72.0304 0.554584C72.7618 0.654685 72.5241 0.730531 73.5582 0.659226C73.4227 0.615061 73.2872 0.570896 73.1516 0.52673C74.3023 0.178817 76.7222 1.10661 76.5395 1.17393C76.0484 1.35408 74.7865 1.05401 74.6784 1.05993C74.5184 1.06868 74.0706 1.69289 72.3263 1.1146C71.6059 1.52931 75.0967 1.42512 73.5062 1.69746C74.5789 1.6604 78.9876 1.99521 79.6244 1.8162C79.7004 1.79277 79.3513 1.36952 80.4392 1.5935C80.9556 1.70014 79.708 1.6933 79.9439 1.79119C80.6696 2.09164 90.5793 1.99698 92.4615 1.99916C92.5836 1.99984 92.5376 2.12974 92.6577 2.12968C93.0264 2.12951 94.3721 1.94779 95.0315 2.01398C93.6664 1.75989 96.3222 1.7661 96.9975 1.79899C98.0224 1.84905 97.9568 2.0778 98.3993 2.13074C100.105 2.33479 102.755 1.81514 104.077 2.33665C104.009 1.83075 106.368 2.60592 107.445 2.62048C108.288 2.63202 109.515 2.3092 108.378 2.09485C109.834 2.1318 111.367 2.05195 112.733 2.03409C112.958 2.03106 112.646 2.17754 113.031 2.16765C113.066 2.16567 113.116 2.01973 113.447 2.0076C116.178 1.90565 114.847 2.20428 115.357 2.30054C115.642 2.35445 115.853 2.3819 116.007 2.39175C114.416 2.40541 112.58 2.44565 112.089 2.44519C112.505 2.77243 115.617 2.41626 116.526 2.51181C116.558 2.51527 116.446 2.69243 116.478 2.69399C116.479 2.694 116.479 2.694 116.48 2.69401C116.821 2.71087 118.994 2.66553 118.549 2.44885C118.429 2.39096 117.429 2.38167 116.243 2.38982C116.565 2.35298 116.327 2.15111 116.383 2.14313C117.071 2.05092 118.752 2.26157 119.349 2.29346C119.485 2.30051 119.477 2.17252 119.499 2.17243C120.042 2.20658 119.816 2.56966 120.376 2.19831C121.355 2.66267 118.533 2.24856 118.729 2.54602C118.88 2.77503 125.158 2.71181 125.142 2.35312C125.164 2.39167 125.25 2.44007 125.426 2.49587C125.818 2.61987 127.565 2.59866 127.867 2.53542C127.918 2.5229 127.901 2.17473 127.964 2.17211C128.122 2.1656 130.255 2.4585 131.054 2.26031C130.624 2.20749 130.194 2.15468 129.764 2.10186C132.364 2.12329 131.963 2.01595 131.098 1.90376C131.054 1.90241 131.012 1.88881 130.971 1.887C130.3 1.80375 129.44 1.72157 129.427 1.694C129.379 1.58879 133.792 1.57198 132.94 1.88683C132.821 1.92985 130.781 1.76691 131.79 2.00677C131.966 2.04879 133.278 1.99537 133.347 2.0214C133.806 2.19454 130.941 2.39188 131.288 2.63504C131.985 2.4132 132.876 2.54186 133.674 2.4904C134.037 2.46716 134.127 2.29353 134.172 2.29066C134.841 2.2514 134.464 2.43079 134.687 2.42833C134.807 2.42631 136.128 2.04938 135.874 2.58373C140.219 2.22974 137.079 2.20061 134.415 2.20578C135.259 2.01823 136.908 2.12828 137.648 2.08987C137.914 2.07589 137.758 1.89533 138.208 1.86372C139.132 1.79873 143.539 2.0459 144.687 2.1052C143.981 2.16184 144.186 2.35886 144.73 2.3505C145.275 2.34204 144.82 2.07737 144.926 2.05037C145.04 2.02246 147.594 2.16938 148.019 2.13964C146.095 2.21587 146.527 2.41448 148.159 2.45019C147.923 2.504 147.686 2.55781 147.45 2.61162C148.407 2.54188 150.416 2.85754 150.97 2.77443C151.057 2.76105 150.747 2.59456 150.796 2.58704C151.282 2.52211 152.931 2.70444 153.008 2.64935C153.073 2.6035 152.371 2.45976 152.633 2.3947C152.687 2.381 153.364 2.60847 154.033 2.56041C154.281 2.54274 154.133 2.38665 154.196 2.37827C154.717 2.30876 154.407 2.56636 155.36 2.53345C156.057 2.50903 156.579 2.25924 157.542 2.35265C154.381 1.99827 157.039 2.15887 158.363 2.07294C158.575 2.05924 158.396 1.77671 159.662 1.92534C156.961 2.40777 160.428 2.20096 161.136 2.21316C161.175 2.21525 161.187 2.40056 161.535 2.4068C161.564 2.40691 161.523 2.28136 161.846 2.27483C164.911 2.21315 162.95 2.33611 163.531 2.465C163.778 2.51992 165.27 2.35695 165.671 2.35645C165.764 2.35688 165.72 2.48652 166.077 2.48479C166.709 2.48139 167.276 2.34827 167.693 2.34121C167.741 2.34103 167.741 2.54623 168.532 2.48712C168.755 2.4706 169.005 2.40009 168.69 2.33813C167.645 2.13427 165.657 2.45141 164.476 2.24663C163.399 2.06012 166.8 2.07547 166.977 2.0761C167.042 2.07607 166.377 2.1717 167.051 2.19821C167.628 2.22041 168.684 1.87592 169.542 1.96117C169.608 1.96751 170.291 2.27444 170.259 2.29167C170.23 2.30419 169.176 2.35951 169.328 2.4479C169.346 2.45798 170.016 2.46226 170.103 2.52783C170.209 2.60764 170.491 3.38373 170.634 3.40447C171 3.45582 170.763 3.27719 171 3.29169C171.509 3.32235 173.273 3.56766 173.333 3.30013C173.041 3.28148 172.75 3.26283 172.458 3.24418C174.081 3.23187 173.391 3.11126 173.621 3.06314C173.869 3.01108 173.797 3.24605 174.344 3.27332C174.463 3.27931 176.753 3.25165 176.712 3.15239C175.445 3.29784 175.917 3.01106 175.858 3.00531C175.637 2.98426 175.352 3.14493 175.054 3.13888C172.962 3.09364 175.075 2.85567 174.581 2.78473C174.411 2.76082 174.071 2.89707 173.999 2.88925C173.765 2.86395 173.763 2.68133 173.606 2.69462C173.241 2.72546 173.665 2.98784 173.636 3.00102C173.308 3.15964 172.032 2.94644 172.83 2.6728C172.353 2.56699 172.294 2.90814 171.917 2.76798C171.166 2.49043 172.294 2.57051 172.6 2.52847C173.698 2.37678 174.022 2.51097 175.574 2.48069C176.133 2.47011 176.797 2.31036 177.056 2.30369C177.22 2.29949 178.757 2.89145 178.811 1.98812C179.409 2.08121 180.345 2.6856 180.963 2.66417C181.517 2.64454 181.344 2.32316 181.396 2.31128C181.475 2.29259 182.146 2.32409 182.373 2.28104C182.639 2.23016 182.508 2.10687 182.93 2.0611C183.981 1.94752 183.95 2.27362 184.058 2.29584C185.308 2.55276 184.764 2.08341 185.042 2.04879C185.301 2.017 188.924 2.22975 189.688 2.11945C189.377 2.1819 189.066 2.24435 188.755 2.3068C189.309 2.51558 189.901 2.1891 189.908 2.55423C190.026 1.96595 191.169 2.37067 191.514 2.35868C191.65 2.35369 191.64 2.25316 191.81 2.25043C192.474 2.23906 193.97 2.33308 194.331 2.28554C195.89 2.08095 191.912 1.67882 191.598 1.65385C192.226 1.66625 195.777 1.56763 194.148 1.26897C193.896 1.22289 193.447 1.48242 193.305 1.49141C192.345 1.5503 193.102 1.32105 193.027 1.29786C192.899 1.26038 192.266 1.48292 192.1 1.45414C192.044 1.44489 192.404 1.23425 191.49 1.22115C191.941 1.01791 194.51 1.2111 194.848 1.16556C194.968 1.14929 194.219 0.698891 196.415 1.1502C196.39 1.1088 196.365 1.0674 196.34 1.02601C197.565 1.02057 198.79 1.01514 200.015 1.00971C199.881 1.10328 199.191 1.28728 200.058 1.25501C200.557 1.23631 200.19 1.02164 200.235 1.01594C200.683 0.962011 208.603 1.10676 210.139 1.09763C210.661 1.09489 212.118 0.938839 212.229 0.936728C212.893 0.925977 215.242 1.05855 215.711 1.03899C216.004 1.02637 215.727 0.847189 215.988 0.857928C216.231 0.868156 215.978 1.03644 216.05 1.04425C216.647 1.11171 221.192 0.930603 222.269 1.10169C221.611 1.04718 218.317 1.35719 218.382 1.47814C218.397 1.49478 219.195 1.63211 219.361 1.57035C219.632 1.72066 220.572 1.27961 221.08 1.37275C221.137 1.38333 220.908 1.63353 221.816 1.68787C222.129 1.70646 222.95 1.51747 223.772 1.74569C224.967 1.65098 231.24 2.03723 231.673 1.77016C231.686 1.75597 230.803 1.65431 231.401 1.54866C232.196 1.40823 231.479 1.89969 232.403 1.95136C232.543 1.95921 235.117 1.933 235.202 1.90296C235.984 1.6307 233.736 1.49622 233.767 1.46403C233.847 1.38292 235.716 1.35097 235.792 1.37099C235.864 1.39175 234.336 1.74787 236.169 1.62462C235.96 1.57837 235.75 1.53213 235.541 1.48589C236.403 1.40777 236.483 1.66483 236.691 1.68245C237.339 1.73811 238.045 1.35542 239.08 1.84603C239.353 1.97622 238.896 2.11364 238.93 2.1331C239.258 2.30795 239.684 1.85245 240.177 2.19982C240.214 2.22573 239.057 2.42017 241.076 2.43968C240.937 2.40551 240.799 2.37135 240.66 2.33718C240.946 2.26651 242.99 2.24214 243.265 2.26206C244.068 2.3203 243.365 2.54958 244.173 2.52898C243.658 2.20087 246.114 2.18177 245.971 2.45871C246.317 2.11245 248.4 2.40166 249.381 2.41918C250 2.42997 251.263 2.28933 251.46 2.30901C251.699 2.33312 251.624 2.57085 252.056 2.628C252.179 2.6443 253.468 2.48163 254.596 2.73904C254.815 2.78866 255.271 3.19739 254.863 3.29464C254.164 3.46105 252.849 3.12286 252.864 3.36197C252.881 3.61779 254.658 3.48245 255.136 3.5203C257.34 3.69535 256.064 3.95512 256.12 4.03802C256.265 4.23931 257.47 4.24443 257.52 4.26288C257.728 4.34467 256.873 4.49485 256.858 4.61673C256.841 4.77543 258.001 5.07305 257.736 5.12411C257.357 5.19659 256.292 4.94761 256.224 4.95839C255.341 5.10422 256.546 5.48257 256.877 5.666C256.977 5.72242 256.574 5.8098 256.658 5.82686C257.933 6.08573 256.932 5.31361 257.781 5.37254C258.538 5.42506 257.561 5.65706 257.59 5.67063C257.627 5.68559 258.533 5.70726 258.674 5.79393C258.744 5.83732 256.384 6.28427 256.48 6.49553C257.232 6.45625 257.984 6.41697 258.736 6.37769C258.793 6.65249 257.714 6.44045 257.601 6.46768C257.376 6.5223 258.002 6.66698 257.974 6.75343C257.959 6.80845 257.221 6.99832 257.886 7.0857C258.114 7.11587 258.596 6.92809 259.427 7.13236C256.526 7.35599 258.533 7.52903 258.618 7.62699C258.701 7.72491 257.314 7.94053 258.995 7.91589C259.063 8.45029 258.957 8.08426 258.479 8.17358C257.893 8.28338 259.243 8.47183 257.107 8.3184C257.226 8.56942 258.944 8.5679 259.035 8.58869C259.113 8.6075 258.73 8.72681 258.866 8.76973C260.472 9.2677 259.368 9.03682 259.831 9.34954C259.873 9.37748 261.394 9.5061 260.234 9.54011C258.122 9.60189 257.243 9.2395 256.881 9.99318C258.44 10.3367 260.337 9.86585 260.811 9.86203C261.538 9.85693 260.784 10.0042 260.873 10.0484C260.904 10.0626 261.53 10.0558 261.539 10.0681C261.98 10.6497 258.751 10.0515 257.732 10.1423C258.004 10.2313 258.276 10.3204 258.548 10.4094C258.178 10.4094 257.808 10.4094 257.437 10.4093C259.2 10.5997 257.499 10.4757 257.055 10.9391C256.955 11.0432 258.116 10.874 256.791 11.1535C257.765 11.2301 257.453 11.3227 258.337 11.1992C258.313 11.3863 256.325 11.5791 255.54 11.6678C258.306 11.9045 256.734 11.2023 259.123 11.5884C259.569 11.3606 258.427 11.395 258.52 11.3576C258.856 11.223 259.637 11.449 260.586 10.9754C260.741 10.8976 260.092 10.6477 261.056 10.6685C261.162 10.6712 261.774 10.8854 261.766 10.9004C261.683 11.0628 261.076 10.9959 261.05 11.0638C261.026 11.1281 261.704 11.0957 261.706 11.1136C261.725 11.3182 261.14 11.1864 261.224 11.2512C261.407 11.3922 263.841 11.8551 260.66 11.6963C263.305 11.49 261.001 11.4737 259.971 11.5528C259.708 11.5726 259.64 11.6941 259.266 11.733C258.784 11.7833 258.222 11.7194 257.973 11.7395C257.705 11.7617 259.223 12.0646 257.024 11.9578C258.141 12.2555 260.122 11.9679 261.22 12.1799C263.435 12.6082 259.668 12.6602 259.275 12.696C259.171 12.7057 259.519 12.874 259.45 12.8834C259.336 12.8978 257.199 12.8015 256.987 12.936C256.775 13.0704 257.77 12.9371 257.834 13.0799C257.878 13.1761 255.298 13.3216 256.693 13.4002C257.655 13.4541 259.432 13.086 259.727 13.5024C258.312 13.5233 256.896 13.5443 255.481 13.5652C256.254 13.7299 257.027 13.8945 257.8 14.0592C256.211 14.0941 254.84 13.9036 253.33 14.1147C256.949 14.653 252.149 14.506 252.096 14.5669C252.078 14.6035 253.501 15.0262 253.729 15.1032C252.464 15.2488 248.622 15.2896 250.864 15.8161C250.458 15.6982 249.467 15.9706 249.48 15.992C249.603 16.2164 251.759 16.0919 251.406 16.2902C250.997 16.5204 250.429 16.1976 249.802 16.2171C246.586 16.319 247.457 17.4929 244.236 17.2782C244.3 17.3203 244.363 17.3624 244.427 17.4045C240.924 17.3055 237.421 17.2065 233.919 17.1075C232.544 17.4505 228.894 17.633 227.103 17.5768C226.742 17.5657 224.973 17.3622 224.839 17.3282C224.592 17.2631 225.954 17.252 225.34 17.1285C225.21 17.1031 222.212 16.9964 222.424 17.1976C222.76 17.2239 223.813 17.1336 223.985 17.1822C225.19 17.5285 215.948 17.174 215.488 17.3047C215.692 17.3713 215.897 17.4379 216.101 17.5045C215.518 17.4672 214.934 17.4298 214.351 17.3925ZM241.31 1.65012C241.662 1.45359 242.538 1.61192 243.057 1.56071C243.774 1.4889 244.999 0.730877 244.468 1.49718C243.415 1.54816 242.363 1.59914 241.31 1.65012ZM225.937 1.20778C226.642 1.32174 226.091 1.74733 225.514 1.56284C225.45 1.54188 224.984 1.05434 225.937 1.20778ZM233.331 1.48172C233.301 1.48714 232.692 1.47001 232.671 1.46305C232.126 1.28497 233.963 1.3376 233.331 1.48172ZM197.602 1.36682C198.38 1.35554 197.821 0.958675 197.336 1.11527C197.305 1.12522 197.551 1.36726 197.602 1.36682ZM198.155 1.3824C198.756 1.73872 199.978 1.0395 199.011 1.10197C198.917 1.10831 198.127 1.36506 198.155 1.3824ZM228.45 1.40262C228.37 1.53627 227.643 1.46453 227.332 1.42946C227.342 1.30685 228.146 1.41478 228.45 1.40262ZM210 1.26651C209.968 1.37187 212.498 1.38981 212.671 1.25219C212.271 1.30751 210.03 1.17184 210 1.26651ZM203.512 1.3539C203.576 1.37277 204.45 1.35322 204.426 1.25976C204 1.13346 203.225 1.26852 203.512 1.3539ZM190.62 1.22647C190.573 1.24944 191.221 1.84882 189.675 1.44379C189.448 1.38448 190.262 1.23712 190.181 1.21507C190.012 1.17197 189.879 1.15136 189.771 1.14688C190.494 1.1045 191.244 1.08842 191.316 1.12509C191.655 1.29825 190.641 1.21689 190.62 1.22647ZM183.848 1.60484C183.698 1.70021 182.749 1.63954 182.533 1.59767C182.496 1.58982 182.66 1.33703 182.232 1.35202C181.888 1.36449 182.399 1.62979 181.73 1.58182C181.054 1.53363 181.959 1.35648 181.901 1.34268C181.822 1.32457 180.774 1.4317 180.808 1.28053C180.834 1.16855 181.954 1.25495 182.231 1.23372C182.586 1.20641 182.158 1.01542 182.75 1.06115C183.123 1.08974 182.913 1.41653 182.991 1.43388C183.057 1.44788 184.362 1.27094 183.846 1.60379C183.847 1.60414 183.847 1.60449 183.848 1.60484ZM189.576 1.15957C189.63 1.14897 189.694 1.14367 189.771 1.14688C189.706 1.15073 189.64 1.1553 189.576 1.15957ZM239.271 1.77519C238.905 1.67035 239.994 1.55058 240.405 1.68728C240.411 1.79445 239.329 1.79152 239.271 1.77519ZM188.903 1.42097C187.831 1.32853 188.622 1.22269 189.576 1.15957C189.272 1.2186 189.263 1.45187 188.903 1.42097ZM219.361 1.57035C219.316 1.54541 219.287 1.50691 219.284 1.44408C219.402 1.51388 219.413 1.55087 219.361 1.57035ZM216.859 1.43477C215.999 1.618 217.743 1.62667 217.733 1.48968C217.728 1.43795 216.894 1.42748 216.859 1.43477ZM196.606 1.33877C196.684 1.35823 195.459 1.92444 197.234 1.50759C196.289 1.43063 197.287 1.37709 197.272 1.32636C197.235 1.1806 195.647 1.30545 195.296 1.2393C195.019 1.49686 196.347 1.27466 196.604 1.33875C196.604 1.33876 196.605 1.33877 196.606 1.33877ZM171.651 1.35008C171.867 1.19966 172.549 1.25512 173.009 1.26842C172.793 1.41885 172.111 1.36338 171.651 1.35008ZM51.1963 0.195787C54.3517 0.0845 54.7545 0.70914 51.8708 0.436645C51.8144 0.430961 51.0042 0.256912 51.1963 0.195787ZM78.264 0.611115C78.5587 0.884479 77.5747 0.91874 76.9298 0.800919C76.7838 0.774413 76.2459 0.495272 76.8636 0.447485C76.8408 0.775256 77.7941 0.909508 78.264 0.611115ZM188.296 1.58855C187.981 1.76605 187.021 1.62857 186.515 1.59671C186.825 1.45105 187.848 1.52786 188.296 1.58855ZM61.5577 0.616961C61.89 0.640575 62.1166 0.407286 62.0594 0.387162C61.8033 0.294908 61.1801 0.479392 61.5577 0.616961ZM191.399 1.64575C191.442 1.75399 190.167 1.8458 190.081 1.57836C190.353 1.60021 191.368 1.57779 191.399 1.64575ZM172.518 1.43918C172.715 1.49586 171.691 1.58439 171.381 1.52707C171.407 1.41254 172.389 1.40232 172.518 1.43918ZM66.9109 0.587389C67.2084 0.610636 67.9521 0.623863 68.0354 0.529475C68.1388 0.411489 67.0478 0.441775 66.9109 0.587389ZM11.5158 0.272031C11.4786 0.228928 12.6334 -0.0683468 13.1447 0.0144354C14.1157 0.172759 11.5562 0.302606 11.5158 0.272031ZM58.4096 0.708771C57.4728 0.476067 58.5132 0.702683 58.4743 0.466562C57.8426 0.452131 56.2711 0.425729 57.3495 0.667674C57.5595 0.714494 58.1152 0.690741 58.4096 0.708771ZM59.2749 0.795771C59.3762 0.72035 60.0552 0.485968 59.47 0.497715C59.1995 0.503511 58.7611 0.766917 59.2749 0.795771ZM18.6537 0.234334C19.4932 0.450942 15.6368 0.302703 15.5262 0.265116C15.4678 0.24526 15.4296 0.226702 15.4079 0.211082C15.2656 0.27589 14.5369 0.280962 14.4541 0.112873C14.6724 0.128738 15.269 0.119632 15.3381 0.138825C15.3679 0.147 15.3901 0.154614 15.4053 0.162287C15.6638 0.019477 18.4928 0.193249 18.6537 0.234334ZM25.0433 0.50921C24.0776 0.808031 23.912 0.282982 23.9951 0.266914C25.0454 0.0625335 24.3582 0.44214 24.3901 0.460524C24.4631 0.491292 25.2094 0.319175 25.0403 0.509181C25.0413 0.509191 25.0423 0.5092 25.0433 0.50921ZM19.963 0.332773C19.9234 0.339219 19.1152 0.315423 19.082 0.306849C18.4211 0.124701 20.7081 0.19126 19.963 0.332773ZM178.743 1.92315C178.165 1.86567 178.734 1.67843 179.118 1.75131C179.15 1.75843 179.253 1.97392 178.743 1.92315ZM59.7376 0.748237C59.8714 0.785886 63.3027 0.955387 63.0992 0.662584C62.8074 0.69417 58.9071 0.507773 59.7376 0.748237ZM85.3892 1.05997C84.7839 1.05203 85.4465 0.783918 85.7685 0.889209C85.8878 0.928321 85.5418 1.0618 85.3892 1.05997ZM193.114 1.91091C193.743 1.76611 193.609 2.27048 193.066 2.09205C193.044 2.08507 193.089 1.91657 193.114 1.91091ZM80.5549 0.856794C82.644 0.710178 82.1415 1.57521 79.4302 1.2561C79.5155 1.21817 79.6008 1.18023 79.6861 1.14229C76.5547 0.982377 79.4724 1.07898 80.24 1.0375C80.5317 1.02174 80.2886 0.874272 80.5529 0.855738C80.5536 0.85609 80.5542 0.856442 80.5549 0.856794ZM88.5723 1.1065C90.5769 1.74268 86.7427 1.30462 85.6411 1.37468C86.7106 1.12982 88.0998 1.18146 86.2125 0.902723C88.9759 0.878235 87.8234 1.11327 87.9335 1.13474C88.0639 1.15889 88.4868 1.07919 88.5723 1.1065ZM83.2692 1.0608C83.1529 1.07771 82.2785 0.943817 81.9629 0.961348C82.4059 0.754628 84.0419 0.945586 83.2692 1.0608ZM31.7455 0.429023C31.6712 0.593555 31.4903 0.71356 30.7998 0.645309C31.014 0.564299 31.4561 0.497047 31.7455 0.429023ZM241.967 2.52587C242.442 2.5422 243.389 2.61336 243.1 2.43692C243.069 2.42181 241.969 2.42839 241.967 2.52587ZM69.706 0.975821C69.8071 0.997085 72.4245 1.03533 71.5221 0.844506C71.2499 0.786963 68.8681 0.78792 69.706 0.975821ZM56.1515 0.827628C56.3705 0.831414 57.2607 0.808658 57.28 0.769752C57.3415 0.635231 56.2484 0.699227 56.1515 0.827628ZM244.366 2.71757C244.428 2.7353 245.882 2.71861 245.723 2.63694C245.421 2.4825 244.152 2.65651 244.366 2.71757ZM176.633 2.29037C176.512 2.29534 176.353 2.11436 176.311 2.11197C176.212 2.10848 173.987 2.15659 174.839 1.93418C174.981 1.8969 178.181 2.01547 178.597 2.04215C178.755 2.29003 177.39 2.04281 177.058 2.06503C176.999 2.0693 176.959 2.27506 176.634 2.28934C176.634 2.28969 176.634 2.29003 176.633 2.29037ZM28.1437 0.56949C28.0441 0.7252 25.4282 0.804329 25.4603 0.614823C26.3547 0.599712 27.2492 0.584601 28.1437 0.56949ZM29.4717 0.607918C30.0286 0.723966 28.7216 0.748336 28.3369 0.695828C28.3338 0.590417 29.3906 0.590947 29.4717 0.607918ZM61.1056 1.45946C61.3688 1.42363 60.5628 1.18748 60.744 1.14476C60.8601 1.11818 61.4465 1.20936 61.6344 1.13964C61.6877 1.11742 61.0908 0.896955 60.9175 0.904606C60.6713 0.914687 60.9083 1.08599 60.6398 1.08463C59.7483 1.07988 58.9591 0.95187 58.1233 0.946822C58.0479 0.946696 58.632 1.07159 57.9883 1.06385C57.8888 1.06289 57.2927 0.879438 56.5224 0.898566C54.8165 1.43329 53.5729 0.880816 51.4128 1.0591C51.4937 1.11173 53.1065 1.266 53.2015 1.27204C55.0046 1.37956 58.2364 1.41989 60.1259 1.43883C60.6107 1.44387 60.3764 1.32509 60.5852 1.32278C60.7503 1.32118 60.5521 1.53518 61.1056 1.45946ZM241.713 2.64282C241.938 2.86053 242.734 2.73157 243.243 2.74748C243.065 2.55134 242.209 2.69526 241.713 2.64282ZM41.2102 0.885349C41.4651 0.879423 42.2542 0.951778 42.32 0.887482C42.4049 0.803511 41.2655 0.739331 41.2102 0.885349ZM164.092 2.11124C164.068 2.11689 163.455 2.09958 163.432 2.09258C162.886 1.91441 164.724 1.96714 164.092 2.11124ZM149.433 1.93191C148.968 1.95415 148.499 2.01711 148.344 1.84073C148.64 1.8703 149.489 1.81059 149.433 1.93191ZM129.209 1.74695C129.303 1.97691 127.905 1.81542 127.641 1.7924C127.74 1.69152 129.14 1.58124 129.209 1.74695ZM31.8394 1.14902C30.9845 1.12743 31.1617 1.4761 30.6203 1.31396C30.5319 1.28659 30.2523 0.561407 31.1897 0.840946C31.3584 0.891198 30.6951 1.05667 31.8394 1.14902ZM78.9882 1.24468C78.7693 1.39417 78.09 1.34281 77.6308 1.32635C77.7349 1.21474 78.6614 1.25242 78.9882 1.24468ZM246.99 2.91554C247.389 3.13323 249.243 2.99196 248.786 2.8463C248.721 2.82725 247.249 2.92606 246.99 2.91554ZM186.115 2.25914C185.351 2.42044 186.929 2.48746 187.429 2.32754C187.204 2.3362 186.166 2.24854 186.115 2.25914ZM134.066 1.91713C134.029 1.9237 133.221 1.89984 133.185 1.89121C132.524 1.70906 134.811 1.77562 134.066 1.91713ZM154.251 2.25531C153.959 2.3912 152.045 2.26134 151.617 2.11847C152.032 1.91964 154.614 2.08556 154.251 2.25531ZM35.3589 1.08353C34.7489 1.08498 34.1704 1.03683 33.6106 0.971626C33.7296 0.856017 35.2953 0.995741 35.3589 1.08353ZM131.098 1.90376C131.054 1.90241 131.012 1.88881 130.971 1.887C131.014 1.89235 131.057 1.8984 131.098 1.90376ZM49.0126 1.29388C49.5234 1.34479 49.4193 1.12992 49.3879 1.12308C49.0039 1.0502 48.4344 1.2364 49.0126 1.29388ZM242.294 2.96582C242.469 3.16048 243.33 3.01887 243.825 3.06945C243.683 2.91567 242.692 2.94931 242.294 2.96582ZM90.7216 1.52207C91.362 1.73737 88.7464 1.95589 88.197 1.81586C88.1576 1.68619 90.6279 1.49255 90.7216 1.52207ZM188.48 2.57089C188.53 2.72261 189.628 2.55042 189.396 2.47678C189.249 2.42992 188.45 2.47664 188.48 2.57089ZM86.8837 1.71531C86.6377 1.75916 86.0668 1.60454 86.2692 1.51549C86.529 1.40134 86.9473 1.7027 86.8837 1.71531ZM64.8536 1.6296C64.9607 1.65371 66.4059 1.51206 65.8109 1.3522C65.3981 1.24111 65.3301 1.4591 65.2329 1.45883C65.1241 1.45711 62.809 1.16779 64.8536 1.6296ZM105.357 1.79145C104.811 1.84448 104.154 1.77078 103.583 1.76959C103.816 1.67825 105.126 1.66505 105.357 1.79145ZM184.248 2.57157C184.379 2.63398 187.983 2.70469 185.937 2.49718C185.818 2.48542 183.848 2.38257 184.248 2.57157ZM31.8394 1.14902C31.9473 1.15174 32.0717 1.16013 32.2158 1.17643C32.0726 1.1692 31.948 1.15778 31.8394 1.14902ZM41.5511 1.26316C41.3532 1.3714 42.3448 1.41015 42.6379 1.35432C42.7293 1.22066 41.5783 1.24802 41.5511 1.26316ZM103.539 1.92275C103.21 1.98266 102.614 1.90982 102.207 1.91334C102.277 1.81165 103.398 1.81744 103.539 1.92275ZM126.604 2.25479C125.952 2.18783 125.149 2.20826 125.136 2.33334C125.122 2.31364 125.091 2.29257 125.038 2.2712C124.986 2.25003 124.286 2.30168 123.983 2.25609C122.168 1.98518 131.003 2.17299 125.879 2.47833C126.12 2.40382 126.362 2.3293 126.604 2.25479ZM156.84 2.57434C157.208 2.73022 158.247 2.54901 157.979 2.48647C157.792 2.4436 156.471 2.41743 156.84 2.57434ZM142.593 2.53068C142.704 2.55892 143.717 2.46171 143.744 2.38169C143.163 2.29165 142.09 2.39959 142.593 2.53068ZM159.684 2.77957C159.916 2.80474 160.215 2.5618 160.188 2.55082C159.952 2.4589 159.295 2.63908 159.684 2.77957ZM33.6046 1.82766C33.9496 1.90128 35.0535 1.73378 35.2949 1.57375C35.3393 1.60555 35.4593 1.6476 35.6795 1.69878C35.6788 1.69877 35.6781 1.69876 35.6775 1.69876C35.9747 1.76711 44.8816 1.92247 38.9097 1.55378C38.7226 1.54201 38.977 1.69007 38.2158 1.65725C38.1655 1.65491 38.1417 1.53574 37.9864 1.5285C37.6289 1.51257 35.7255 1.41982 35.3418 1.51193C35.3388 1.48986 35.3143 1.46866 35.2618 1.44892C34.7941 1.27299 33.3369 1.77088 33.6046 1.82766ZM140.586 2.5336C140.789 2.57958 141.435 2.5438 141.502 2.43948C141.183 2.38504 140.114 2.42635 140.586 2.5336ZM184.355 3.00322C184.77 3.09344 185.823 2.94197 185.506 2.8532C185.312 2.7986 183.878 2.89963 184.355 3.00322ZM147.046 2.5383C144.667 2.39187 146.478 2.54298 146.112 2.69347C146.423 2.64174 146.734 2.59002 147.046 2.5383ZM22.5933 1.3267C22.9725 1.36568 22.5237 1.66517 22.1073 1.49646C21.9766 1.4429 22.3812 1.30546 22.5933 1.3267ZM5.45568 1.26C5.77705 1.53233 4.19661 1.35923 4.81489 1.1803C4.84354 1.17434 5.43262 1.24954 5.45568 1.26ZM17.4293 1.48257C17.6886 1.30164 17.8566 1.28147 18.5819 1.3336C17.5071 1.37516 18.5019 1.54668 17.4293 1.48257ZM125.142 2.35312C125.138 2.34567 125.135 2.34016 125.136 2.33334C125.14 2.34012 125.142 2.34653 125.142 2.35312ZM161.922 2.75287C162.218 2.91099 163.054 2.90741 162.806 2.74874C162.782 2.73403 162.045 2.63926 161.922 2.75287ZM35.2949 1.57375C35.2556 1.54556 35.276 1.52776 35.3418 1.51193C35.3447 1.53271 35.3275 1.55215 35.2949 1.57375ZM157.437 2.83731C157.468 2.72171 156.198 2.66469 156.147 2.67782C155.416 2.87193 156.913 2.83935 157.437 2.83731ZM192.757 3.24513C192.822 3.23365 192.402 2.93054 192.142 3.0453C191.941 3.13435 192.511 3.28884 192.757 3.24513ZM14.9644 1.53411C14.562 1.53012 13.9954 1.52493 13.8922 1.38187C14.1617 1.40621 14.9737 1.42993 14.9644 1.53411ZM6.07317 1.46089C6.5504 1.29832 7.63684 1.30901 8.33024 1.34306C8.34098 1.56306 6.52005 1.41338 6.07317 1.46089ZM32.5137 1.73542C32.5467 1.74468 33.5552 1.81977 33.4187 1.6713C33.2194 1.45357 32.2298 1.65271 32.5137 1.73542ZM190.798 3.06795C190.346 3.16507 191.382 3.48633 191.86 3.25019C192.106 3.12927 190.875 3.05168 190.798 3.06795ZM164.527 2.98076C165.124 2.90118 163.649 2.73558 163.442 2.88753C163.716 2.90246 164.315 3.00892 164.527 2.98076ZM144.263 2.94589C146.136 3.40738 145.121 2.58806 144.788 2.65612C144.741 2.66584 144.217 2.93502 144.263 2.94589ZM251.638 3.84646C251.904 3.78728 250.916 3.55456 250.786 3.70044C250.706 3.79173 251.467 3.88416 251.638 3.84646ZM116.007 2.39175C116.087 2.39107 116.165 2.39035 116.243 2.38982C116.185 2.39651 116.108 2.39815 116.007 2.39175ZM169.928 3.62612C168.612 2.98702 168.747 3.47134 168.632 3.46762C168.384 3.45855 167.809 3.28368 167.341 3.3071C167.877 3.24158 168.413 3.17606 168.949 3.11053C168.527 3.06132 164.855 2.79608 164.777 2.89697C164.665 3.04065 165.822 3.00612 165.855 3.01918C165.904 3.0378 166.081 3.44183 166.188 3.45813C166.364 3.48424 169.436 3.52148 169.928 3.62612ZM148.188 2.91327C147.887 2.8626 147.803 2.70239 147.662 2.73918C147.614 2.75176 147.605 2.90373 147.442 2.94153C147.691 2.93211 147.939 2.92269 148.188 2.91327ZM172.298 3.08495C172.671 3.27425 170.995 3.18794 170.941 3.16662C170.655 3.03799 171.994 2.93031 172.298 3.08495ZM158.071 2.97816C158.132 2.98958 159.419 3.05969 159.409 2.9565C159.069 2.87471 157.348 2.83563 158.071 2.97816ZM147.24 2.95001C146.788 2.92803 145.934 2.76688 146.03 2.99674C146.031 2.99675 146.032 2.99676 146.032 2.99676C146.435 2.98118 146.838 2.96559 147.24 2.95001ZM189.249 3.53694C190.084 3.90945 189.691 3.44498 188.95 3.32037C188.724 3.48196 189.112 3.47632 189.249 3.53694ZM191.929 3.83402C192.162 3.90182 194.566 3.85253 194.201 3.65614C194.071 3.58615 192.688 3.74657 192.624 3.73263C192.528 3.71195 192.971 3.50266 192.233 3.53802C192.276 3.61075 191.85 3.81135 191.929 3.83402ZM189.941 3.77693C190.771 4.06206 190.963 3.55237 190.337 3.5451C190.092 3.54189 189.822 3.7358 189.941 3.77693ZM186.538 3.70135C186.838 3.75268 187.635 3.83093 188.187 3.66601C187.451 3.64456 186.715 3.62311 185.978 3.60166C185.893 3.69722 186.277 3.65626 186.54 3.70137C186.54 3.70137 186.539 3.70136 186.538 3.70135ZM1.05488 2.7243C1.71538 2.87556 0.190024 2.9168 0.125817 2.88056C-0.0645293 2.76047 0.759541 2.65674 1.05488 2.7243ZM256.764 8.5414C256.948 8.60094 257.066 8.7923 257.472 8.69644C257.066 8.55219 256.66 8.40794 256.254 8.26369C255.935 8.58247 256.564 8.47574 256.764 8.5414ZM258.308 9.73161C258.25 9.73886 258.56 10.2366 257.82 9.89927C257.32 9.67153 260.052 9.47984 260.543 9.70385C259.998 9.80067 258.804 9.67274 258.308 9.73161ZM263.07 11.9182C263.101 11.9579 262.064 12.006 261.944 11.9771C261.315 11.8245 262.902 11.7052 263.07 11.9182ZM259.762 11.7926C260.248 11.8933 259.169 11.9451 258.849 11.8868C258.818 11.7944 259.687 11.7779 259.762 11.7926ZM7.69034 9.95293C8.2136 10.2941 8.69125 9.5747 7.87992 9.71293C7.84119 9.71943 7.66809 9.93625 7.69034 9.95293ZM262.051 12.4077C261.566 12.3071 262.644 12.2553 262.965 12.3136C262.994 12.4058 262.125 12.4225 262.051 12.4077ZM8.0534 10.7574C8.75026 11.006 8.51168 10.1916 8.42462 10.158C8.06598 10.0254 6.82903 10.3325 6.57619 10.4094C8.42429 10.3049 7.72532 10.6403 8.0534 10.7574ZM11.2825 10.3001C11.9319 10.2195 10.2759 10.0383 9.95751 10.2617C10.28 10.2539 11.0978 10.3234 11.2825 10.3001ZM15.2166 10.5975C15.5651 10.6299 16.6016 10.7093 16.7768 10.5831C16.3958 10.6027 15.365 10.4674 15.2166 10.5975ZM16.0025 10.9878C16.546 11.1666 16.6815 10.6619 16.0515 10.8067C16.027 10.8123 15.9826 10.978 16.0025 10.9878ZM19.0652 11.1992C19.4209 11.4038 19.8337 10.9177 19.2543 10.8991C19.0822 10.8944 19.0276 11.1758 19.0652 11.1992ZM8.9203 11.6393C9.43158 11.7305 10.0947 11.3859 9.00169 11.3371C9.3862 11.2871 9.77075 11.2371 10.1553 11.1871C8.72505 10.977 8.82556 11.4645 8.41457 11.4405C7.84025 11.4065 7.8894 11.0055 8.00591 10.8805C7.53252 11.122 5.53098 11.1071 4.37376 11.1431C5.38944 11.2559 7.03753 11.4504 8.04013 11.5252C8.32641 11.5468 8.60545 11.4393 8.84953 11.4539C9.24095 11.478 8.89163 11.6332 8.91828 11.6393C8.91895 11.6393 8.91962 11.6393 8.9203 11.6393ZM23.0933 11.2444C24.1422 11.4822 23.4822 10.9839 22.8875 11.066C22.862 11.0726 23.0672 11.2386 23.0933 11.2444ZM263.431 13.916C262.029 13.6971 263.052 13.4341 260.111 13.8204C261.347 13.539 260.181 13.6103 260.423 13.4944C260.617 13.4027 261.34 13.487 260.921 13.2947C261.473 13.5049 263.875 13.4708 263.982 13.505C263.981 13.505 263.98 13.505 263.979 13.505C264.043 13.5253 263.879 13.9856 263.431 13.916ZM15.2095 11.8842C15.5545 12.4845 15.7009 11.5382 16.3854 12.0395C17.3097 11.3296 13.8508 12.0155 13.4385 11.4047C17.187 11.5105 10.9671 10.7801 13.5756 11.7132C11.4227 11.3632 12.868 11.819 12.5341 11.9317C12.177 12.0516 10.9587 11.9062 11.0186 12.1291C11.0193 12.1291 11.0199 12.1291 11.0206 12.1291C11.7666 12.1206 12.5126 12.112 13.2587 12.1035C12.5331 11.6169 14.056 11.7751 14.5693 12.1708C14.7827 12.0753 14.9961 11.9797 15.2095 11.8842ZM10.9923 11.3942C11.0657 11.4059 12.6887 11.3539 12.5848 11.2566C12.3687 11.1932 10.0656 11.2452 10.9923 11.3942ZM3.85137 11.4319C4.43383 11.4385 5.33366 11.5405 5.65276 11.3627C5.07013 11.356 4.17026 11.2539 3.85137 11.4319ZM33.8457 11.7481C34.5896 11.6067 32.304 11.5412 32.9637 11.7232C32.9962 11.7318 33.8091 11.7547 33.8457 11.7481ZM16.8992 11.8098C17.6524 11.9993 17.301 11.4153 16.7404 11.5613C16.7079 11.5699 16.8644 11.8011 16.8992 11.8098ZM262.293 13.9758C262.241 14.1176 260.204 13.9985 259.843 13.9964C260.049 13.8661 262.352 13.8133 262.293 13.9758ZM2.82121 11.9545C3.97543 12.477 5.55377 11.9009 5.72612 11.9154C5.89747 11.9302 5.62643 12.1513 5.66543 12.1576C5.75448 12.171 7.58108 12.1694 7.66964 12.1547C7.73298 12.1432 7.40554 11.8258 7.7834 11.7303C7.04637 11.902 3.70828 11.7589 3.53477 11.7921C3.40021 11.8186 4.40902 12.1581 2.82322 11.9545C2.82252 11.9545 2.82185 11.9545 2.82121 11.9545ZM6.15649 11.9879C5.70148 11.8519 6.98118 11.8474 7.29034 11.899C7.97737 12.0142 6.21493 12.0041 6.15649 11.9879ZM9.23285 12.1383C9.37874 12.1692 10.6972 12.2084 10.8107 12.0628C10.1883 11.8667 8.90201 12.0663 9.23285 12.1383ZM23.9076 12.2565C24.2503 12.2409 25.1911 12.3625 25.2463 12.2349C24.9033 12.2503 23.9626 12.1289 23.9076 12.2565ZM255.33 15.029C255.898 15.1416 254.58 15.173 254.196 15.1179C254.176 15.0323 255.282 15.0193 255.33 15.029ZM17.0156 13.0364C17.218 13.0773 21.3562 13.0189 21.9371 12.9644C21.3703 12.8621 17.2702 12.8161 17.0837 12.8617C17.0292 12.8753 16.9897 13.03 17.0156 13.0364ZM8.06745 13.0114C7.68636 13.1966 7.44094 12.9679 7.39312 12.9646C6.92436 12.9313 5.9511 12.9647 6.16612 12.785C6.99321 12.8661 8.82613 12.6437 8.06745 13.0114ZM24.1936 13.1132C25.5992 13.0564 22.9026 12.8322 23.2547 13.0328C23.2774 13.0449 24.0483 13.1192 24.1936 13.1132ZM16.5528 13.087C16.2415 13.2366 12.1043 13.0662 11.4399 13.0597C12.0376 12.7841 12.5152 13.0022 13.3147 12.9954C13.5305 12.9932 13.474 12.8756 13.4971 12.8757C13.8707 12.8738 13.5899 13.0063 13.8202 13.0105C13.9657 13.0128 16.9909 12.8763 16.5528 13.087ZM7.84971 13.1401C7.61738 13.2461 5.03283 13.2679 4.92913 13.2382C4.15344 13.0171 7.64927 13.1006 7.84971 13.1401ZM16.9301 13.3407C16.482 13.6634 14.4288 13.4251 15.837 13.2754C15.9715 13.2618 16.539 13.4089 16.9301 13.3407ZM24.0407 13.4231C24.1097 13.4333 25.5736 13.5125 25.6008 13.4087C25.3896 13.3663 23.2551 13.31 24.0407 13.4231ZM23.278 13.7677C23.3134 13.7655 22.9719 13.562 23.6584 13.5938C23.7156 13.5967 23.8202 13.8231 24.6842 13.7487C24.8595 13.7334 25.1323 13.5869 25.1128 13.5774C24.2172 13.2153 21.5037 13.8672 23.278 13.7677ZM7.80066 13.3223C7.93898 13.4187 7.60059 13.6979 7.29897 13.5521C7.16973 13.4891 7.41356 13.3219 7.80066 13.3223ZM28.6843 13.5581C27.8313 13.7213 30.5039 13.7788 30.6404 13.7363C30.5556 13.6288 28.7696 13.5421 28.6843 13.5581ZM253.986 16.3384C253.986 16.3384 253.987 16.3384 253.988 16.3384C253.272 16.2929 253.717 16.1546 253.683 16.1498C252.16 15.9262 252.561 16.2527 252.322 16.2885C251.81 16.366 251.896 15.9744 251.032 16.129C252.46 15.9022 251.161 15.9907 251.122 15.8507C250.967 15.2796 253.019 16.1353 253.731 16.0226C253.83 16.007 253.1 15.8183 253.355 15.769C254.182 15.6091 256.733 16.5126 253.986 16.3384ZM7.0651 13.5748C6.73139 13.739 4.21255 13.553 4.88209 13.4214C4.98978 13.4004 7.55572 13.3355 7.0651 13.5748ZM124.796 14.9286C124.189 15.0678 125.591 15.2512 125.852 15.1409C125.982 15.086 125.062 14.8676 124.796 14.9286ZM134.633 15.6406C135.353 15.618 136.117 15.0213 135.221 15.1066C135.125 15.1159 134.551 15.5561 134.633 15.6406ZM87.3732 14.886C88.1227 15.1089 88.0817 14.7075 87.53 14.708C87.3351 14.7081 87.3496 14.879 87.3732 14.886ZM116.058 15.1038C116.133 15.1185 117.002 15.1011 116.972 15.0087C116.651 14.9504 115.573 15.0032 116.058 15.1038ZM87.134 14.9409C87.5803 14.8728 86.816 14.5756 86.2687 14.8539C86.5455 14.8332 87.0881 14.9478 87.134 14.9409ZM18.4746 14.2414C18.8493 14.0802 19.9046 14.1399 20.5112 14.1173C20.5745 14.3312 18.9083 14.2068 18.4746 14.2414ZM131.58 15.3691C132.262 15.2252 130.804 15.0884 130.936 15.2883C130.954 15.2993 131.553 15.3753 131.58 15.3691ZM63.125 14.7369C63.6215 14.6143 62.0504 14.4284 62.4812 14.6562C62.5024 14.6655 63.0977 14.7437 63.125 14.7369ZM56.2587 14.5987C56.634 14.6451 58.2365 14.647 57.614 14.517C57.5174 14.497 56.288 14.4824 56.2587 14.5987ZM252.279 16.4417C252.479 16.6627 251.304 16.5995 251.136 16.5596C251.071 16.543 252.017 16.1541 252.279 16.4417ZM92.254 14.9662C92.6431 14.9424 93.6511 15.004 93.8298 14.8907C93.3539 14.91 92.1282 14.736 92.254 14.9662ZM128.473 15.3409C129.064 15.5846 130.078 15.5706 129.83 15.2572C128.71 15.2675 129.966 15.5381 128.473 15.3409ZM84.6271 15.1736C84.9388 15.1947 85.1805 14.8982 85.1454 14.8838C84.8088 14.7467 84.3183 15.0544 84.6271 15.1736ZM108.03 15.1477C108.047 15.2755 109.047 15.227 108.914 15.1436C108.871 15.1156 108.016 15.0442 108.03 15.1477ZM31.5654 14.4371C32.0224 14.5579 30.6225 14.6587 30.2101 14.5188C30.0108 14.3208 31.5077 14.4232 31.5654 14.4371ZM75.9803 15.0176C75.932 15.2066 77.4955 15.1142 76.8813 14.9513C76.7276 14.9106 75.9972 14.9544 75.9803 15.0176ZM61.0207 15.1042C62.0709 14.8881 57.6715 14.6863 58.8253 14.9787C58.9078 14.9996 60.9292 15.1224 61.0207 15.1042ZM53.8348 14.8955C54.0154 14.9221 53.9192 15.5579 53.1732 15.3054C53.0753 15.2726 53.5364 15.1086 53.4565 15.0694C53.4095 15.047 51.7832 14.9423 51.7081 14.9565C51.6274 14.9726 51.7204 15.1775 51.6384 15.1996C51.546 15.2244 50.5461 15.0357 50.0215 15.0288C49.0331 15.0161 48.9247 15.185 48.8437 15.1848C48.6075 15.1837 48.2118 15.0594 47.7331 15.055C45.3202 15.0337 41.6285 15.143 39.7191 14.7649C41.42 14.9255 43.0434 14.7873 44.7377 14.756C44.2383 15.1059 47.232 14.5063 45.4806 14.8989C46.2861 14.8178 53.2429 14.8122 53.8327 14.8955C53.8334 14.8955 53.8341 14.8955 53.8348 14.8955ZM137.472 15.8458C137.028 16.059 139.297 16.0315 139.492 15.7818C139.192 15.7441 137.527 15.8217 137.472 15.8458ZM127 16.2776C126.789 16.3131 126.585 16.7362 125.482 16.5103C125.481 16.5103 125.48 16.5103 125.479 16.5103C125.156 16.4443 125.525 16.3442 125.466 16.3068C125.445 16.2915 124.44 16.0707 125.277 16.0445C126.553 16.0044 125.394 16.3618 126.074 16.3727C126.157 16.3738 127.447 16.1559 127.373 16.1047C127.365 16.0988 126.977 16.1438 126.913 16.1222C126.673 16.041 126.791 15.9094 126.757 15.9028C126.646 15.8856 124.607 16.0925 124.313 15.8923C124.218 15.8277 127.562 15.7123 127.691 15.7466C127.774 15.7682 127.735 16.1362 127.82 16.1733C127.864 16.1917 129.21 16.0663 129.384 16.1018C129.435 16.1121 129.473 16.123 129.502 16.132C129.299 16.0161 130.517 16.0358 130.478 16.164C130.457 16.2143 129.619 16.1772 129.589 16.1681C129.576 16.1642 129.565 16.159 129.554 16.1553C129.726 16.2958 126.889 16.2629 127.499 16.4753C126.676 16.5808 127.619 16.1732 127 16.2776ZM123.044 16.4677C123.129 16.4297 123.214 16.3918 123.3 16.3539C121.859 16.4351 120.199 16.233 118.54 16.2188C118.119 16.2149 118.601 16.4564 118.05 16.3865C117.609 16.3304 117.122 16.1061 117.362 16.0594C117.421 16.0477 118.32 16.1993 118.77 16.1888C120.1 16.1578 119.766 15.9515 119.844 15.9468C119.93 15.9418 120.765 16.0925 121.222 16.0905C122.372 16.0848 122.898 15.965 124.466 16.1428C123.559 16.2681 124.052 16.5637 123.044 16.4677ZM69.3758 15.5304C69.3199 15.6577 68.3787 15.5354 68.0361 15.551C68.0912 15.4233 69.0331 15.5459 69.3758 15.5304ZM209.792 17.0166C210.083 16.8095 207.914 16.7371 208.484 16.9171C208.61 16.9571 209.519 17.0125 209.792 17.0166ZM200.048 16.7973C199.757 16.8526 200.924 17.0147 200.923 16.8523C200.922 16.8002 200.085 16.7901 200.048 16.7973ZM104.433 16.0862C104.378 16.0922 103.58 16.038 103.555 16.0271C103.028 15.7993 105.654 15.9528 104.433 16.0862ZM188.198 16.9443C189.211 16.8163 186.167 16.728 187.096 16.9122C187.142 16.9211 188.15 16.9505 188.198 16.9443ZM183.967 16.9429C184.209 16.9378 185.285 17.0162 185.3 16.9523C185.322 16.8492 184.091 16.7671 183.967 16.9429ZM84.4091 15.9643C84.5237 16.2019 83.1057 16.0095 82.6118 16.0346C82.4968 15.7969 83.9154 15.9896 84.4091 15.9643ZM93.3691 16.2229C87.3819 16.353 88.7061 15.8603 93.7267 16.1111C93.7325 16.2628 93.747 16.2147 93.3691 16.2229ZM85.7048 16.1228C85.9238 15.9734 86.6031 16.0247 87.0622 16.0412C86.9786 16.1457 86.0364 16.0987 85.7048 16.1228ZM212.372 17.3656C211.994 17.5534 210.334 17.3019 210.631 17.2258C210.7 17.2094 212.51 17.2617 212.372 17.3656ZM103.929 16.2838C104.067 16.5151 102.27 16.4044 102.133 16.352C101.58 16.1414 103.783 16.3332 103.929 16.2838ZM75.9119 16.0868C75.5928 16.2639 74.6922 16.1628 74.1125 16.155C74.3779 16.0034 75.4199 16.0789 75.9119 16.0868ZM80.0958 16.2673C80.0593 16.2738 79.2509 16.25 79.2148 16.2413C78.554 16.0592 80.8409 16.1257 80.0958 16.2673ZM254.962 18.0774C254.935 18.0829 254.323 18.0657 254.302 18.0587C253.757 17.8806 255.594 17.9333 254.962 18.0774Z" fill="#333333"/>
</svg>
