<svg width="316" height="18" viewBox="0 0 316 18" fill="none" xmlns="http://www.w3.org/2000/svg">
<path d="M24.3741 16.9489C24.5697 16.9286 25.3558 16.9859 25.6963 16.979C25.309 17.2046 23.6684 17.0228 24.3741 16.9489ZM59.3987 0.607421C59.1158 0.662036 58.833 0.716652 58.5502 0.771267C59.3527 0.812906 60.4319 0.778256 61.1765 0.836418C61.2983 0.846164 60.9812 1.00743 61.2694 1.01651C61.5578 1.02555 61.5035 0.802135 61.9231 0.780889C62.3937 0.757737 64.5467 0.92658 65.2927 0.927463C68.0827 0.929806 70.8974 0.819964 73.6924 0.930046C70.8053 1.07708 73.7125 1.26319 74.5213 1.19671C74.7006 1.18126 74.6745 0.766376 77.5695 0.888856C79.4093 0.966597 77.7059 1.54888 80.7785 1.27101C78.4198 0.841522 80.7416 0.885073 82.5928 0.882831C82.9119 0.882379 85.4886 0.960768 86.6271 0.9495C87.0166 0.945541 87.6114 0.732017 88.1281 0.72954C88.4837 0.727997 88.7518 0.848431 89.2798 0.845677C91.7411 0.83426 94.1616 0.840122 96.6268 0.895652C95.1826 1.44488 97.7563 1.14061 97.8716 1.16802C98.458 1.32324 95.8012 1.34981 96.8512 1.45116C98.3195 1.44303 99.7879 1.43489 101.256 1.42675C100.052 1.3507 102.854 0.966631 103.369 1.1525C103.145 0.657822 110.058 1.62355 111.112 1.4654C111.331 1.43197 109.897 1.17923 113.227 1.31153C113.588 1.32617 113.451 1.47414 113.64 1.46145C113.753 1.45381 114.442 0.985076 115.171 1.25101C115.437 1.34808 113.728 1.6481 117.478 1.54661C115.988 1.05586 122.677 1.3183 123.907 1.44662C123.661 1.38041 123.416 1.3142 123.17 1.24799C124.386 1.43006 124.607 1.26774 124.881 1.27837C125.985 1.32109 127.503 1.49552 128.532 1.48689C129.736 1.47708 129.742 1.1777 131.146 1.30292C130.813 1.23478 130.48 1.16664 130.147 1.0985C131.117 1.12046 132.086 1.14242 133.056 1.16437C130.808 1.5467 133.54 1.1863 133.72 1.17889C134.007 1.16626 133.594 1.32594 134.074 1.30873C134.123 1.30571 134.052 1.15247 134.792 1.13992C136.337 1.11422 136.092 1.30481 136.74 1.30668C136.8 1.30606 136.592 1.16711 137.713 1.14154C141.274 1.06007 137.694 1.24691 137.558 1.26509C137.378 1.28906 138.595 1.87193 135.572 1.64909C136.587 1.72036 136.688 1.97555 136.802 1.98259C136.903 1.98841 138.663 1.96353 138.76 1.95537C139.626 1.87432 138.866 1.69562 139.034 1.66549C139.172 1.64122 141.291 1.88114 141.791 1.36101C142.802 1.84996 141.204 1.79577 139.503 1.85935C139.255 1.95684 141.122 2.06479 141.22 2.06513C143.629 2.07928 142.298 1.67398 142.826 1.4235C143.103 1.29245 144.083 1.56941 143.179 1.2078C145.366 1.18386 144.039 1.38186 144.18 1.41327C144.393 1.45945 145.158 1.3622 145.254 1.37639C145.394 1.39738 144.905 1.51758 145.459 1.56444C145.551 1.57133 146.445 1.36482 145.295 1.25627C146.833 1.29602 146.707 1.11439 147.227 1.48208C148.291 0.799215 147.993 1.89442 148.41 1.93565C149.519 2.04441 149.2 1.50107 149.259 1.47504C149.664 1.3084 152.734 1.51351 153.495 1.44024C153.193 1.82827 151.06 1.42931 150.583 1.50197C148.99 1.7437 152.825 1.7109 151.666 2.19358C152.151 2.06206 152.637 1.93054 153.122 1.79902C154.008 2.11954 152.747 2.24903 155.139 2.14884C155.532 1.8794 153.448 2.18123 153.867 1.96969C154.114 1.84554 155.501 1.8272 155.528 1.76111C155.556 1.68152 154.302 1.76823 154.501 1.64678C154.934 1.38473 159.502 1.66527 156.022 1.78805C156.993 1.78958 157.49 2.31927 158.332 2.16045C158.877 2.05735 155.82 1.311 160.412 1.47301C160.509 1.72227 158.575 1.53498 158.525 1.55359C158.454 1.58069 158.801 2.14398 158.861 2.17205C159.075 2.26457 163.767 1.99337 164.757 2.28146C164.366 1.95472 168.301 2.2457 168.731 2.14956C168.845 2.12299 168.42 1.92169 168.542 1.90142C169.304 1.78103 171.361 2.14847 172.316 2.16362C173.385 2.1807 173.25 2.00829 173.31 2.00898C173.78 2.02149 173.404 2.13545 173.691 2.13692C174.126 2.13907 177.111 2.18148 177.261 2.15814C177.304 2.15085 176.818 1.95183 177.469 1.91871C177.582 1.91297 177.509 2.14489 179.437 2.05654C181.759 1.9503 177.827 1.75753 178.793 1.5202C180.282 1.87598 180.236 1.53233 180.64 1.56181C180.78 1.57251 181.819 1.87092 182.951 1.85951C182.139 1.90183 181.326 1.94415 180.514 1.98647C181.312 2.04263 182.863 1.98895 183.52 2.05088C183.841 2.08102 183.575 2.31919 184.272 2.31705C184.42 2.3153 185.01 1.73471 183.183 1.98548C183.038 1.77595 183.906 1.91722 184.31 1.86072C184.371 1.85191 184.613 1.50489 185.127 1.7247C185.25 1.77876 183.898 2.78702 187.373 2.07283C187.484 2.04981 187.097 1.92006 187.206 1.89435C187.281 1.87694 188.166 1.93397 188.264 1.91652C188.365 1.89776 187.938 1.75609 188.057 1.72948C188.669 1.59236 189.467 2.14866 188.208 2.09879C188.629 2.16956 189.049 2.24032 189.47 2.31108C189.022 1.89278 190.132 2.1983 190.715 2.18914C194.449 2.13065 191.951 1.84482 192.593 1.70901C193.627 1.49096 192.834 2.19707 194.369 1.99298C194.51 1.97389 192.659 1.66051 196.276 1.85338C195.742 1.86181 195.208 1.87024 194.674 1.87867C194.98 2.28247 196.603 1.86313 196.727 1.85827C198.148 1.81195 197.187 1.95084 199.298 1.75705C199.487 1.73965 199.896 1.84139 200.299 1.79443C201.971 1.60102 198.097 1.657 197.992 1.49364C197.942 1.4136 202.108 1.45967 202.251 1.49841C202.857 1.67 200.362 1.56054 200.836 1.77183C201.009 1.84689 206.948 1.732 208.139 1.82049C209.513 1.9234 210.128 2.47213 210.141 1.85996C210.525 2.46333 210.87 2.05545 211.046 2.06068C213.171 2.12957 213.175 2.13566 214.998 2.08949C215.401 2.07949 215.74 2.26395 215.882 2.23405C215.965 2.21597 215.812 2.01987 216.218 1.9622C216.782 1.88335 220.17 2.10519 220.421 2.21462C220.672 2.32406 218.99 2.25248 219.29 2.4317C220.508 2.45723 221.677 2.42064 222.903 2.44697C223.412 2.45845 223.15 2.58094 223.37 2.58478C223.463 2.58689 225.223 2.48855 225.149 2.4423C224.975 2.33475 219.543 2.37244 220.975 2.16412C221.251 2.12386 222.224 2.41598 222.071 2.06719C226.923 2.17631 231.775 2.28544 236.626 2.39456C233.837 2.63733 230.701 2.38509 227.781 2.39127C227.38 2.39179 226.028 2.3498 226.191 2.52663C228.674 2.58763 231.762 2.51529 234.145 2.64473C234.222 2.64899 233.94 2.8052 234.226 2.83201C234.76 2.88206 236.501 2.63816 236.793 2.70586C236.843 2.72152 235.852 2.92357 236.152 3.05778C236.923 3.40219 237.124 2.65128 237.788 2.66433C238.302 2.67475 241.752 3.05995 242.614 2.83555C243.53 2.59636 240.07 2.6775 240.327 2.47886C242.668 2.29223 245.037 2.52189 247.248 2.51062C247.287 2.51022 246.95 2.3512 247.444 2.33232C248.302 2.29947 248.526 2.52345 248.944 2.56167C249.395 2.60238 250.989 2.58043 251.201 2.66291C251.228 2.67372 250.904 2.89247 250.855 2.89837C250.16 2.98503 249.915 2.69696 249.852 2.69289C249.615 2.68054 249.381 2.78884 249.165 2.78095C248.808 2.76782 248.612 2.66506 248.142 2.65316C247.817 2.64458 248.129 2.84152 247.817 2.83065C247.702 2.82587 246.465 2.37291 246.347 2.82667C246.31 2.96975 256.442 3.21696 257.455 3.10867C256.587 3.04861 255.718 2.98854 254.85 2.92848C256.613 3.0725 258.735 2.72258 258.881 3.26077C265.423 3.3455 271.965 3.43022 278.506 3.51495C279.674 3.56801 279.031 3.90926 280.954 3.82076C280.458 3.70768 279.962 3.59459 279.466 3.48151C280.45 3.56481 284.814 3.74277 285.521 3.67596C285.612 3.6672 285.741 3.35553 286.832 3.33549C287.8 3.31782 287.954 3.5529 288.471 3.60097C288.905 3.64068 289.394 3.58239 289.522 3.59611C289.621 3.60708 289.66 3.75048 289.897 3.77693C290.648 3.8588 290.042 3.45192 290.785 3.91944C290.603 3.93594 290.422 3.95245 290.24 3.96896C291.146 4.04161 292.384 4.25947 291.047 4.35482C290.818 4.37128 291.016 4.23401 290.845 4.23318C284.136 4.21708 289.491 4.51972 291.843 4.31931C292.446 4.52829 295.83 4.4241 295.942 4.46524C296.098 4.52479 295.518 4.6852 296.276 4.83155C296.436 4.86252 300.96 4.77582 299.33 5.03841C298.993 5.09257 296.825 5.01993 296.302 5.02471C297.529 5.46734 300.417 4.86215 300.741 4.88015C302.049 4.95609 298.226 5.24143 301.172 5.31035C303.438 5.36327 301.313 5.05957 302.185 4.94103C302.675 4.87453 305.238 5.21047 305.171 4.79571C306.051 4.75695 305.534 4.97313 305.643 4.98958C305.749 5.00412 307.481 4.89088 308.042 4.98172C308.11 4.993 307.894 5.20702 307.965 5.22508C308.101 5.25611 309.771 5.22347 309.838 5.20564C309.881 5.19323 309.484 5.0022 309.648 4.95749C309.839 4.90595 311.445 4.96034 311.534 4.90699C311.659 4.82628 309.676 4.8676 310.008 4.65881C310.921 4.7176 312.411 4.58621 313.016 4.42024C312.868 4.46785 311.981 4.46929 311.674 4.45026C311.821 4.14236 313.723 4.15844 313.071 4.39879C313.486 4.27011 313.204 4.19871 313.437 4.07629C313.499 4.04529 314.086 4.04249 314.2 3.98973C314.215 3.97917 313.609 3.85888 313.731 3.79691C313.951 3.68495 315.732 3.72155 315.878 3.7522C316.288 3.83902 314.835 3.93192 314.713 4.06142C314.696 4.08131 315.929 4.34426 315.948 4.36693C316.018 4.60924 314.645 4.42637 314.801 4.64513C315.14 4.69325 315.48 4.74137 315.82 4.78949C314.507 5.00185 312.082 4.87332 311.455 5.12026C313.4 5.05774 315.434 5.07926 315.426 5.64414C315.423 5.88205 314.584 6.01628 314.616 6.07698C314.738 6.2942 315.904 6.06632 315.947 6.07802C315.982 6.09143 315.998 6.10437 315.998 6.11687C315.998 6.11688 315.998 6.11688 315.998 6.11689C315.997 6.24362 314.337 6.32452 314.254 6.38187C314.113 6.48378 314.849 6.91148 314.848 7.00505C314.822 7.02369 313.639 7.11644 314.037 7.28224C314.439 7.44971 315.474 7.4598 315.51 7.47717C315.707 7.57708 313.897 7.65579 313.843 7.71373C313.814 7.74302 314.785 7.93009 314.813 7.98231C314.836 8.03468 314.097 8.14402 313.805 8.30704C313.587 8.42814 314.219 8.52597 314.107 8.54447C314.028 8.5567 312.318 8.54395 312.234 8.56495C312.109 8.59601 312.508 8.74487 312.45 8.78109C312.367 8.83321 311.815 8.77694 311.886 8.83154C311.94 8.87223 314.077 9.3901 314.063 9.52478C314.037 9.75448 311.773 9.21148 313.877 10.1317C313.892 10.1377 314.405 10.0765 314.42 10.0821C314.736 10.251 313.088 10.4975 315.101 10.4651C311.355 10.7316 314.633 10.8078 314.076 11.1913C313.862 11.3388 312.41 11.3911 312.403 11.4133C312.543 11.6029 313.006 11.4595 313.163 11.553C313.249 11.6052 311.949 11.7967 312.241 11.928C312.391 11.9958 313.77 11.9806 313.827 11.994C314.371 12.1202 313.702 12.2484 313.821 12.3364C313.9 12.3954 314.732 12.4052 314.754 12.4158C314.788 12.438 313.658 12.6673 313.422 12.7489C313.243 12.8117 313.913 12.9161 313.788 12.9432C313.035 13.1052 311.438 12.6701 312.976 13.2754C313.07 13.3125 313.653 13.3014 313.67 13.3087C314.03 13.4798 312.956 13.4877 312.763 13.6248C312.432 13.8609 313.976 13.7377 312.691 13.8972C313.653 14.059 314.19 14.0558 315.316 14.0194C312.196 14.1211 311.092 14.7308 314.555 14.7369C313.453 14.7204 313.573 15.0692 313.245 15.0732C313.04 15.0753 311.445 14.7194 312.173 15.5003C312.264 15.5978 313.235 15.4807 312.93 15.6772C310.602 15.6121 312.88 15.8032 312.882 15.8295C312.849 16.2866 307.162 15.8766 306.184 15.9226C305.049 15.976 304.038 16.3301 303.792 16.329C302.98 16.3241 303.655 16.1453 303.474 16.0769C303.29 16.0091 300.981 16.3452 300.866 16.3252C300.42 16.2451 300.875 16.0312 300.828 16.0199C300.276 15.8836 297.176 16.0341 296.309 15.9783C296.335 16.1191 298.077 16.1411 296.988 16.3602C295.72 16.6157 295.652 15.9952 295.619 15.9677C289.817 15.9374 284.016 15.9071 278.214 15.8768C278.285 16.2071 282.079 15.982 282.165 16.026C282.67 16.2863 276.263 16.2416 275.478 16.1202C276.074 16.1952 276.671 16.2701 277.268 16.3451C276.246 16.718 273.992 16.2112 272.517 16.3694C272.04 16.4208 272.954 16.5728 272.935 16.5827C272.399 16.7266 271.54 16.6078 272.184 16.4141C270.875 16.5954 271.068 16.3875 270.065 16.3656C270.013 16.3646 270.443 16.5203 269.649 16.5788C269.277 16.6061 267.294 16.5942 267.027 16.7264C266.917 16.7821 267.92 17.3818 268.047 16.8718C270.203 17.1342 268.738 16.6434 269.576 16.6603C269.704 16.6638 269.407 16.9471 271.518 16.826C271.113 17.3376 268.685 16.938 268.268 16.9977C267.408 17.1204 270.947 17.4079 271.599 17.0112C271.293 17.4105 271.85 17.0669 272.639 17.0883C273.502 17.1115 273.125 17.2287 273.593 17.2322C274.871 17.2432 274.343 16.9567 275.395 17.2186C274.373 16.4218 277.2 17.1255 278.023 17.3377C276.681 17.3694 275.338 17.4012 273.995 17.4329C274.072 17.4749 274.148 17.5169 274.225 17.5589C273.871 17.5508 273.518 17.5427 273.164 17.5346C273.221 17.4952 273.278 17.4558 273.335 17.4164C271.51 17.6636 271.067 17.3702 270.918 17.366C269.004 17.3204 266.794 17.3091 264.859 17.296C264.568 17.2941 264.766 17.554 262.651 17.3383C261.976 17.2696 262.615 17.0723 261.85 17.0978C260.889 17.6386 260.91 17.2026 260.626 17.2001C259.809 17.1951 259.309 17.3275 259.234 17.3284C258.225 17.3433 256.747 17.3114 255.639 17.3247C255.618 17.3266 256.194 17.4982 255.474 17.444C255.221 17.4247 252.959 16.6933 250.975 16.9148C251.49 16.9664 252.005 17.018 252.521 17.0697C251.915 16.9982 247.666 17.1525 248.704 17.3509C249.34 17.4722 250.897 17.0197 251.064 17.4653C249.652 17.3234 241.844 17.4737 241.237 17.3666C241.153 17.3514 241.671 17.2103 241.555 17.1912C241.465 17.1765 239.677 17.1996 239.44 17.1427C239.299 17.1089 240.089 17.0254 240.025 16.9731C239.969 16.9357 237.737 16.86 237.608 17.04C238.157 16.9708 239.698 17.0438 238.888 17.1911C238.784 17.2094 238.246 17.0894 238.12 17.1127C236.946 17.3269 240.449 17.2955 240.991 17.3008C238.79 17.5174 235.388 17.2246 232.838 17.3589C231.809 17.202 234.367 17.1382 233.202 17.0062C230.786 16.7327 232.558 17.2103 232.482 17.229C231.881 17.3771 229.84 16.5507 229.835 17.1699C228.959 17.0713 229.244 16.995 228.006 17.0683C228.169 17.1122 228.331 17.1561 228.494 17.2C227.118 17.5501 224.217 16.627 224.435 16.5593C225.022 16.3782 226.534 16.6759 226.663 16.6697C226.855 16.6607 227.388 16.0356 229.478 16.6105C230.339 16.1944 226.161 16.3053 228.063 16.0299C226.779 16.0691 221.501 15.7428 220.739 15.923C220.649 15.9466 221.068 16.3692 219.765 16.1473C219.147 16.0417 220.64 16.0461 220.357 15.9487C219.487 15.6496 207.626 15.7635 205.373 15.7649C205.227 15.7645 205.281 15.6345 205.138 15.6348C204.696 15.6357 203.086 15.82 202.297 15.7551C203.932 16.0065 200.753 16.0055 199.945 15.9739C198.718 15.9258 198.795 15.6969 198.265 15.6448C196.223 15.4441 193.053 15.9689 191.469 15.4499C191.552 15.9557 188.724 15.1851 187.436 15.1726C186.426 15.1627 184.96 15.4879 186.321 15.7C184.579 15.6659 182.744 15.7487 181.109 15.7692C180.839 15.7727 181.212 15.6256 180.751 15.6363C180.709 15.6383 180.65 15.7843 180.254 15.7971C176.986 15.9043 178.578 15.6031 177.967 15.5079C177.625 15.4545 177.373 15.4275 177.187 15.4179C179.092 15.4012 181.29 15.3574 181.877 15.3569C181.378 15.0305 177.655 15.3926 176.566 15.2989C176.528 15.2955 176.661 15.1181 176.623 15.1166C176.622 15.1166 176.621 15.1166 176.62 15.1166C176.212 15.1004 173.611 15.1499 174.145 15.3657C174.289 15.4234 175.486 15.4307 176.905 15.4203C176.521 15.4578 176.807 15.6592 176.739 15.6673C175.916 15.7608 173.903 15.5534 173.188 15.5227C173.025 15.5159 173.036 15.6439 173.009 15.644C172.359 15.6109 172.628 15.2474 171.959 15.6198C170.785 15.1573 174.165 15.566 173.929 15.2689C173.747 15.0402 166.233 15.1156 166.253 15.4742C166.228 15.4357 166.125 15.3875 165.913 15.332C165.444 15.2088 163.353 15.2334 162.991 15.2972C162.93 15.3098 162.953 15.658 162.877 15.6607C162.688 15.6675 160.134 15.3787 159.178 15.5785C159.693 15.6305 160.208 15.6825 160.724 15.7344C157.61 15.718 158.091 15.8246 159.127 15.9351C159.179 15.9364 159.23 15.9499 159.279 15.9516C160.083 16.0336 161.113 16.1141 161.128 16.1416C161.187 16.2468 155.905 16.2721 156.922 15.9556C157.064 15.9124 159.507 16.0714 158.299 15.8335C158.087 15.7918 156.517 15.8477 156.435 15.8218C155.885 15.6496 159.313 15.4467 158.896 15.2042C158.062 15.4274 156.996 15.3005 156.041 15.3535C155.607 15.3774 155.499 15.5512 155.446 15.5542C154.645 15.5947 155.096 15.4146 154.828 15.4175C154.685 15.4197 153.105 15.7992 153.407 15.2644C148.208 15.6268 151.967 15.6499 155.155 15.6395C154.146 15.8287 152.172 15.7218 151.286 15.7617C150.968 15.7762 151.155 15.9565 150.618 15.9889C149.512 16.0557 144.235 15.8171 142.861 15.76C143.705 15.702 143.46 15.5054 142.808 15.5148C142.156 15.5243 142.702 15.7881 142.575 15.8153C142.438 15.8434 139.381 15.7014 138.872 15.732C141.175 15.652 140.656 15.4543 138.703 15.4217C138.985 15.3675 139.268 15.3132 139.551 15.2589C138.405 15.3305 135.999 15.0187 135.336 15.1029C135.233 15.1165 135.605 15.2824 135.546 15.29C134.965 15.3558 132.991 15.1767 132.898 15.2319C132.82 15.2779 133.662 15.4203 133.349 15.4859C133.283 15.4997 132.472 15.2735 131.672 15.3229C131.375 15.341 131.552 15.4968 131.478 15.5053C130.854 15.5758 131.223 15.3176 130.084 15.3524C129.249 15.3782 128.626 15.629 127.473 15.5374C131.258 15.8857 128.075 15.7302 126.491 15.8187C126.237 15.8328 126.453 16.115 124.937 15.9688C128.168 15.4812 124.019 15.6947 123.171 15.6839C123.124 15.6819 123.109 15.4966 122.693 15.491C122.658 15.491 122.708 15.6164 122.321 15.6236C118.653 15.6912 120.999 15.5644 120.303 15.4367C120.007 15.3822 118.223 15.5481 117.742 15.5494C117.632 15.5491 117.683 15.4194 117.256 15.4218C116.5 15.4264 115.822 15.5607 115.323 15.5685C115.264 15.5688 115.263 15.3636 114.317 15.4242C114.051 15.4412 113.752 15.5122 114.129 15.5735C115.381 15.7754 117.759 15.4544 119.174 15.6569C120.464 15.8413 116.392 15.8325 116.181 15.8322C116.103 15.8324 116.899 15.7355 116.091 15.7103C115.401 15.6892 114.138 16.0357 113.111 15.9521C113.032 15.9459 112.213 15.6403 112.251 15.623C112.285 15.6104 113.547 15.5531 113.364 15.465C113.343 15.4549 112.541 15.452 112.437 15.3866C112.309 15.307 111.968 14.5314 111.797 14.5109C111.358 14.4603 111.643 14.6385 111.359 14.6244C110.75 14.5948 108.637 14.3529 108.567 14.6205C108.916 14.6386 109.265 14.6567 109.614 14.6748C107.671 14.6902 108.499 14.8095 108.223 14.8581C107.926 14.9106 108.011 14.6755 107.357 14.6493C107.214 14.6435 104.474 14.6756 104.523 14.7748C106.039 14.6269 105.476 14.9146 105.545 14.9202C105.811 14.9408 106.151 14.7796 106.507 14.7851C109.012 14.8263 106.484 15.0683 107.075 15.1383C107.279 15.1619 107.685 15.025 107.771 15.0327C108.052 15.0575 108.055 15.2402 108.243 15.2266C108.68 15.195 108.171 14.9334 108.206 14.9202C108.597 14.761 110.126 14.9717 109.172 15.2469C109.743 15.3518 109.812 15.0105 110.265 15.1499C111.164 15.426 109.814 15.3481 109.448 15.3908C108.135 15.5446 107.746 15.411 105.888 15.4443C105.219 15.456 104.425 15.617 104.115 15.6242C103.919 15.6287 102.077 15.0397 102.017 15.9431C101.299 15.8512 100.177 15.2486 99.4375 15.2712C98.7735 15.292 98.9826 15.613 98.9206 15.625C98.8255 15.6438 98.0229 15.6136 97.7511 15.6571C97.4326 15.7085 97.5907 15.8315 97.0855 15.8781C95.8284 15.9937 95.8634 15.6676 95.7344 15.6456C94.2369 15.3911 94.8904 15.8594 94.5575 15.8945C94.248 15.9268 89.9099 15.7211 88.9958 15.8329C89.3679 15.7698 89.74 15.7068 90.1121 15.6437C89.4482 15.436 88.7411 15.7636 88.7309 15.3985C88.5923 15.987 87.2218 15.5845 86.8094 15.5972C86.6468 15.6024 86.6589 15.7029 86.4555 15.706C85.6607 15.7186 83.8696 15.6275 83.4383 15.6758C81.573 15.8834 86.337 16.2778 86.7121 16.3022C85.9611 16.291 81.7107 16.3965 83.6622 16.692C83.9639 16.7376 84.5006 16.4772 84.6702 16.4679C85.8185 16.4072 84.9143 16.6379 85.0042 16.6609C85.1569 16.6982 85.9138 16.4744 86.113 16.5029C86.1794 16.512 85.7498 16.7233 86.8444 16.7347C86.3048 16.9388 83.229 16.7506 82.825 16.7968C82.6811 16.8133 83.5797 17.2622 80.9492 16.8151C80.9794 16.8565 81.0097 16.8978 81.04 16.9392C79.5737 16.947 78.1074 16.9548 76.6411 16.9626C76.801 16.8688 77.6254 16.6834 76.5884 16.7174C75.9913 16.737 76.4316 16.951 76.3771 16.9568C75.8411 17.0116 66.3604 16.8822 64.5228 16.8943C63.8978 16.898 62.1545 17.0569 62.0216 17.0592C61.2272 17.0713 58.415 16.9432 57.8537 16.9637C57.5032 16.9769 57.8352 17.1555 57.5223 17.1453C57.2314 17.1356 57.5338 16.9668 57.4475 16.9591C56.732 16.8928 51.293 17.0827 50.0027 16.9137C50.7916 16.9669 54.7319 16.6506 54.6535 16.5297C54.6364 16.5131 53.6801 16.3773 53.4823 16.4394C53.157 16.2896 52.0343 16.7325 51.4257 16.6403C51.3569 16.6299 51.6297 16.3792 50.5428 16.3267C50.1684 16.3087 49.1865 16.4992 48.2009 16.2726C46.7714 16.3696 39.2611 15.9955 38.744 16.2634C38.7287 16.2777 39.786 16.3776 39.0705 16.4844C38.1195 16.6264 38.9759 16.1335 37.8688 16.0837C37.7019 16.0761 34.6207 16.1073 34.5196 16.1375C33.5848 16.4112 36.2762 16.5414 36.2383 16.5736C36.1439 16.6549 33.9067 16.6905 33.8159 16.6706C33.7295 16.65 35.5561 16.2909 33.363 16.4177C33.6139 16.4635 33.8647 16.5094 34.1156 16.5552C33.0841 16.635 32.9874 16.3781 32.7377 16.3609C31.9616 16.3065 31.1192 16.6905 29.8781 16.2019C29.55 16.0722 30.097 15.9339 30.0559 15.9146C29.6618 15.7403 29.1548 16.1967 28.5627 15.8502C28.5182 15.8244 29.9023 15.6277 27.4853 15.6121C27.6515 15.646 27.8176 15.6799 27.9838 15.7138C27.6425 15.785 25.195 15.8134 24.8659 15.794C23.9044 15.7373 24.7446 15.5067 23.7778 15.5288C24.3958 15.8559 21.4559 15.8798 21.6268 15.6026C21.214 15.9495 18.7185 15.6643 17.5447 15.6487C16.8041 15.6391 15.2923 15.7822 15.0571 15.7629C14.7706 15.7392 14.8592 15.5014 14.3418 15.4451C14.1943 15.429 12.6522 15.5942 11.3011 15.3389C11.0392 15.2897 10.4912 14.8819 10.9791 14.7839C11.8141 14.6161 13.3898 14.9517 13.3712 14.7126C13.3491 14.4569 11.2231 14.5956 10.6514 14.5587C8.01168 14.3879 9.53822 14.1257 9.47081 14.0429C9.29596 13.8419 7.85306 13.8391 7.79297 13.8207C7.54395 13.7394 8.56737 13.5875 8.58357 13.4656C8.60319 13.3069 7.21421 13.0115 7.53072 12.9599C7.98378 12.8867 9.26042 13.1336 9.34154 13.1227C10.3974 12.9752 8.95373 12.5992 8.55636 12.4164C8.4359 12.3601 8.9178 12.272 8.81775 12.2551C7.29037 11.9987 8.49224 12.7689 7.47561 12.7116C6.56858 12.6605 7.73748 12.4266 7.7029 12.4131C7.65819 12.3982 6.57345 12.3783 6.40415 12.2919C6.32072 12.2487 9.14329 11.7971 9.02685 11.5861C8.12691 11.6268 7.22697 11.6675 6.32702 11.7083C6.25821 11.4336 7.55095 11.6435 7.68497 11.6161C7.95476 11.561 7.20431 11.4176 7.2371 11.3311C7.25475 11.276 8.13776 11.0847 7.34164 10.9986C7.06803 10.9689 6.49226 11.1576 5.49633 10.9549C8.96814 10.7257 6.56428 10.5565 6.4626 10.4587C6.363 10.361 8.02116 10.1427 6.00993 10.1706C5.92607 9.6363 6.05433 10.0021 6.62634 9.91188C7.32706 9.80094 5.71031 9.6151 8.26791 9.7644C8.12392 9.5136 6.06742 9.51846 5.95868 9.49784C5.86478 9.47918 6.32264 9.35913 6.15992 9.31647C4.23513 8.8216 5.55786 9.05035 5.00144 8.73853C4.95196 8.71067 3.13059 8.58499 4.51802 8.54874C7.04571 8.48286 8.0997 8.84355 8.5291 8.08917C6.66188 7.74867 4.39395 8.22319 3.82567 8.22793C2.95584 8.23444 3.85779 8.08567 3.75089 8.04173C3.71375 8.02752 2.96417 8.03559 2.95418 8.02327C2.42335 7.44254 6.29082 8.0345 7.51019 7.94169C7.18406 7.85319 6.85792 7.76468 6.53179 7.67618C6.97501 7.67548 7.41823 7.67479 7.86144 7.67409C5.75114 7.48711 7.78742 7.60782 8.31681 7.14358C8.43565 7.03927 7.04743 7.21077 8.63157 6.92867C7.46495 6.85399 7.83779 6.7608 6.78022 6.88599C6.80867 6.69877 9.18759 6.50221 10.126 6.4119C6.81434 6.18065 8.6993 6.8798 5.83755 6.49826C5.305 6.72699 6.67232 6.69033 6.56061 6.72794C6.1598 6.86316 5.22359 6.63864 4.08938 7.1141C3.9047 7.19217 4.68255 7.44088 3.52933 7.4219C3.40178 7.41944 2.66821 7.20647 2.67849 7.19142C2.77693 7.02883 3.50376 7.09452 3.5342 7.02658C3.56278 6.96227 2.75122 6.99599 2.74854 6.9781C2.72488 6.77349 3.42595 6.90418 3.32441 6.83954C3.10513 6.69895 0.189589 6.24076 3.99744 6.39339C0.832504 6.60482 3.59101 6.61663 4.82351 6.53551C5.13782 6.51521 5.21815 6.39358 5.66607 6.35399C6.24224 6.30269 6.91585 6.36552 7.21395 6.34497C7.53457 6.32226 5.71552 6.02223 8.34848 6.1248C7.01 5.82929 4.64068 6.12067 3.32538 5.91084C0.671725 5.48685 5.18048 5.4275 5.65037 5.39095C5.77556 5.38103 5.35711 5.21348 5.44058 5.2039C5.57707 5.18925 8.13519 5.28145 8.38833 5.14653C8.64079 5.01174 7.45113 5.14697 7.373 5.00427C7.32003 4.90819 10.4077 4.75762 8.7372 4.68176C7.58585 4.62972 5.46068 5.00129 5.1057 4.58544C6.79954 4.56176 8.49339 4.53808 10.1872 4.51441C9.26123 4.35125 8.33524 4.1881 7.40925 4.02495C9.31047 3.98689 10.9527 4.17481 12.7596 3.96078C8.42432 3.42944 14.1707 3.56712 14.2343 3.50614C14.2557 3.46957 12.5506 3.04961 12.2763 2.97303C13.7904 2.825 18.3888 2.77674 15.7019 2.25454C16.1895 2.37171 17.3736 2.09738 17.3582 2.07602C17.2094 1.8518 14.6296 1.9805 15.0515 1.78146C15.5404 1.55048 16.2214 1.87223 16.9714 1.85155C20.82 1.74337 19.7716 0.571153 23.6287 0.779665C23.5522 0.737681 23.4757 0.695698 23.3992 0.653715C27.5925 0.745933 31.7858 0.838152 35.9791 0.93037C37.6221 0.584642 41.9902 0.395123 44.1347 0.447883C44.5666 0.458246 46.6857 0.658287 46.8455 0.692037C47.1414 0.756654 45.5121 0.770443 46.2475 0.892725C46.4028 0.917852 49.9921 1.01874 49.7367 0.817986C49.3346 0.792386 48.075 0.884642 47.8693 0.83643C46.424 0.492463 57.4892 0.82907 58.0383 0.697513C57.7936 0.631307 57.5489 0.5651 57.3042 0.498893C58.0024 0.535069 58.7005 0.571245 59.3987 0.607421ZM27.2092 16.4021C26.7888 16.5994 25.7393 16.4427 25.1183 16.4949C24.2603 16.5681 22.7978 17.3285 23.4302 16.5612C24.6899 16.5082 25.9495 16.4552 27.2092 16.4021ZM45.6118 16.8147C44.768 16.7021 45.4257 16.2755 46.1167 16.4588C46.1934 16.4797 46.7534 16.9663 45.6118 16.8147ZM36.7604 16.5551C36.796 16.5496 37.5256 16.5656 37.5511 16.5725C38.2044 16.7495 36.0046 16.7004 36.7604 16.5551ZM79.5268 16.6008C78.5963 16.6136 79.2676 17.0094 79.8471 16.8519C79.8836 16.8418 79.588 16.6003 79.5268 16.6008ZM78.8651 16.5863C78.1447 16.2312 76.6848 16.9327 77.8423 16.8684C77.9546 16.8619 78.8985 16.6036 78.8651 16.5863ZM42.6029 16.6247C42.6988 16.4909 43.5694 16.5613 43.9412 16.5957C43.9303 16.7184 42.9678 16.612 42.6029 16.6247ZM64.6878 16.7251C64.7255 16.6197 61.6979 16.6067 61.4908 16.7446C61.969 16.6885 64.6525 16.8199 64.6878 16.7251ZM72.4529 16.6252C72.3763 16.6064 71.3302 16.6277 71.3602 16.7211C71.8699 16.8466 72.798 16.71 72.4529 16.6252ZM87.8848 16.7277C87.9417 16.7046 87.1622 16.1065 89.0157 16.5085C89.2878 16.5674 88.3137 16.7163 88.4103 16.7382C88.6129 16.781 88.773 16.8013 88.9018 16.8056C88.0371 16.8494 87.139 16.8669 87.0524 16.8304C86.6456 16.6579 87.8596 16.7373 87.8848 16.7277ZM95.9893 16.3362C96.168 16.2405 97.305 16.2993 97.5636 16.3408C97.608 16.3486 97.4127 16.6017 97.9249 16.5859C98.3362 16.5727 97.7236 16.3084 98.5243 16.3551C99.3334 16.402 98.2509 16.5809 98.3215 16.5946C98.4161 16.6125 99.6689 16.5034 99.629 16.6546C99.5993 16.7666 98.2584 16.6824 97.9266 16.7042C97.5017 16.7322 98.0155 16.9223 97.3059 16.8777C96.86 16.8499 97.1093 16.5227 97.0153 16.5055C96.9364 16.4916 95.3761 16.6711 95.9917 16.3372C95.9909 16.3369 95.9901 16.3365 95.9893 16.3362ZM89.1357 16.7925C89.0706 16.8032 88.9942 16.8087 88.9018 16.8056C88.9802 16.8016 89.0584 16.7969 89.1357 16.7925ZM29.6499 16.2731C30.0882 16.3773 28.7845 16.4991 28.2919 16.3632C28.284 16.2561 29.5801 16.2569 29.6499 16.2731ZM89.939 16.5298C91.2225 16.6202 90.2773 16.7276 89.1357 16.7925C89.4984 16.7329 89.508 16.4996 89.939 16.5298ZM53.4823 16.4394C53.5363 16.4643 53.5704 16.5027 53.5743 16.5655C53.4324 16.496 53.4199 16.459 53.4823 16.4394ZM56.4771 16.5702C57.5052 16.3853 55.4187 16.38 55.4311 16.5169C55.437 16.5687 56.4359 16.5775 56.4771 16.5702ZM80.7201 16.6269C80.6263 16.6076 82.0892 16.039 79.9677 16.4593C81.0981 16.5345 79.9047 16.5899 79.922 16.6406C79.9672 16.7863 81.8676 16.6584 82.2878 16.7239C82.6188 16.4658 81.0298 16.6906 80.7225 16.627C80.7217 16.6269 80.7209 16.6269 80.7201 16.6269ZM110.59 16.5673C110.331 16.7182 109.515 16.664 108.964 16.6516C109.223 16.5008 110.039 16.5549 110.59 16.5673ZM254.775 17.4884C250.998 17.6058 250.513 16.9819 253.966 17.2489C254.034 17.2544 255.004 17.4269 254.775 17.4884ZM222.374 17.1255C222.02 16.8527 223.197 16.8165 223.97 16.9331C224.145 16.9593 224.79 17.2374 224.051 17.2864C224.076 16.9586 222.935 16.8262 222.374 17.1255ZM90.6657 16.3611C91.0408 16.183 92.1908 16.3186 92.7971 16.3495C92.4261 16.4957 91.2016 16.4209 90.6657 16.3611ZM242.37 17.0873C241.973 17.0643 241.703 17.2981 241.771 17.3181C242.078 17.4098 242.823 17.2241 242.37 17.0873ZM86.9508 16.3099C86.8988 16.2017 88.4239 16.1074 88.5283 16.3747C88.2026 16.3534 86.9881 16.3778 86.9508 16.3099ZM109.551 16.4799C109.315 16.4236 110.541 16.3331 110.912 16.3898C110.881 16.5044 109.706 16.5165 109.551 16.4799ZM235.963 17.1272C235.607 17.1046 234.717 17.0928 234.617 17.1873C234.494 17.3055 235.8 17.2731 235.963 17.1272ZM302.27 17.3353C302.315 17.3784 300.934 17.6779 300.322 17.5961C299.159 17.4397 302.222 17.3048 302.27 17.3353ZM246.138 16.9894C247.261 17.2203 246.014 16.9957 246.062 17.2317C246.818 17.2449 248.699 17.2683 247.407 17.0284C247.156 16.982 246.491 17.0069 246.138 16.9894ZM245.102 16.9041C244.981 16.9797 244.17 17.2154 244.87 17.2025C245.194 17.1962 245.717 16.9319 245.102 16.9041ZM293.727 17.3869C292.721 17.1719 297.338 17.3127 297.47 17.35C297.54 17.3698 297.586 17.3883 297.612 17.4038C297.782 17.3387 298.654 17.3323 298.754 17.5002C298.493 17.4847 297.779 17.495 297.696 17.476C297.66 17.4678 297.634 17.4603 297.615 17.4526C297.307 17.5959 293.92 17.4276 293.727 17.3869ZM286.077 17.1244C287.232 16.8237 287.432 17.3484 287.333 17.3646C286.077 17.571 286.898 17.1901 286.859 17.1718C286.772 17.1411 285.879 17.3147 286.081 17.1244C286.08 17.1244 286.078 17.1244 286.077 17.1244ZM292.159 17.291C292.206 17.2844 293.174 17.3067 293.214 17.3152C294.006 17.496 291.268 17.4339 292.159 17.291ZM102.098 16.008C102.791 16.0643 102.11 16.2527 101.65 16.1805C101.612 16.1735 101.487 15.9582 102.098 16.008ZM244.548 16.9525C244.388 16.9151 240.28 16.7522 240.525 17.0447C240.874 17.0125 245.544 17.1914 244.548 16.9525ZM213.843 16.6904C214.568 16.6972 213.776 16.9666 213.39 16.8619C213.247 16.823 213.66 16.6889 213.843 16.6904ZM84.8971 16.048C84.1438 16.1941 84.3025 15.6894 84.9537 15.8668C84.9792 15.8737 84.9266 16.0423 84.8971 16.048ZM219.63 16.8842C217.131 17.0349 217.728 16.1689 220.975 16.4828C220.873 16.5209 220.771 16.559 220.669 16.5971C224.418 16.7509 220.925 16.66 220.006 16.7029C219.657 16.7193 219.949 16.8662 219.633 16.8853C219.632 16.8849 219.631 16.8846 219.63 16.8842ZM210.033 16.6501C207.63 16.0178 212.222 16.4484 213.54 16.3762C212.261 16.6231 210.598 16.5742 212.858 16.8493C209.551 16.8791 210.929 16.6418 210.797 16.6206C210.641 16.5967 210.135 16.6772 210.033 16.6501ZM216.38 16.6855C216.52 16.6684 217.567 16.8006 217.945 16.7824C217.415 16.99 215.456 16.8022 216.38 16.6855ZM278.055 17.2175C278.143 17.0528 278.359 16.9325 279.186 16.9994C278.93 17.0808 278.401 17.1489 278.055 17.2175ZM26.419 15.5277C25.8494 15.5123 24.7155 15.4429 25.0623 15.6188C25.1003 15.6338 26.4167 15.6251 26.419 15.5277ZM232.615 16.7442C232.494 16.7231 229.361 16.69 230.442 16.879C230.768 16.9361 233.619 16.9305 232.615 16.7442ZM248.84 16.8662C248.578 16.8628 247.513 16.8873 247.49 16.9262C247.417 17.0609 248.725 16.9948 248.84 16.8662ZM23.5463 15.3406C23.4714 15.323 21.7312 15.3425 21.922 15.4239C22.2841 15.5777 23.8031 15.4012 23.5463 15.3406ZM104.621 15.6367C104.767 15.6315 104.958 15.8121 105.008 15.8144C105.127 15.8177 107.789 15.7653 106.771 15.9894C106.601 16.0269 102.771 15.9146 102.273 15.8887C102.081 15.6411 103.716 15.8857 104.115 15.8628C104.185 15.8585 104.231 15.6526 104.62 15.6377C104.62 15.6374 104.621 15.637 104.621 15.6367ZM282.366 17.0701C282.484 16.9142 285.615 16.83 285.578 17.0195C284.507 17.0364 283.436 17.0532 282.366 17.0701ZM280.776 17.0342C280.109 16.9192 281.673 16.8923 282.134 16.9441C282.138 17.0495 280.873 17.051 280.776 17.0342ZM242.907 16.2439C242.593 16.2803 243.558 16.5148 243.342 16.5579C243.203 16.5847 242.501 16.4947 242.276 16.5648C242.212 16.5871 242.928 16.8064 243.135 16.7984C243.43 16.7879 243.145 16.617 243.467 16.6178C244.534 16.6209 245.479 16.7474 246.48 16.7508C246.57 16.7508 245.87 16.627 246.641 16.6335C246.76 16.6343 247.474 16.8166 248.396 16.7959C250.435 16.2579 251.927 16.808 254.511 16.6255C254.414 16.573 252.483 16.4219 252.369 16.416C250.21 16.312 246.342 16.2779 244.08 16.2626C243.5 16.2585 243.781 16.3769 243.531 16.3796C243.333 16.3815 243.57 16.1671 242.907 16.2439ZM26.7223 15.4102C26.4521 15.1929 25.4989 15.3234 24.8906 15.3085C25.1035 15.5043 26.1282 15.3587 26.7223 15.4102ZM266.724 16.7795C266.419 16.7859 265.474 16.7151 265.396 16.7795C265.295 16.8637 266.659 16.9256 266.724 16.7795ZM119.633 15.7915C119.663 15.7858 120.396 15.8019 120.424 15.8089C121.078 15.986 118.878 15.9368 119.633 15.7915ZM137.18 15.9425C137.737 15.9193 138.298 15.8555 138.484 16.0315C138.13 16.0025 137.115 16.0639 137.18 15.9425ZM161.389 16.0883C161.276 15.8585 162.949 16.0173 163.265 16.0398C163.147 16.1409 161.472 16.2539 161.389 16.0883ZM277.939 16.4977C278.963 16.5176 278.749 16.1693 279.398 16.3304C279.504 16.3576 279.842 17.0822 278.719 16.8045C278.516 16.7546 279.31 16.5878 277.939 16.4977ZM221.504 16.4933C221.765 16.3434 222.578 16.3935 223.128 16.409C223.004 16.5208 221.895 16.4849 221.504 16.4933ZM20.4048 15.1477C19.9261 14.9308 17.707 15.0756 18.255 15.2204C18.3329 15.2394 20.0937 15.1377 20.4048 15.1477ZM93.2726 15.6863C94.1862 15.5235 92.2963 15.4595 91.6986 15.6204C91.9689 15.6113 93.2109 15.697 93.2726 15.6863ZM155.575 15.9275C155.619 15.9209 156.586 15.9432 156.63 15.9517C157.422 16.1326 154.684 16.0705 155.575 15.9275ZM131.412 15.6284C131.761 15.4919 134.053 15.6181 134.566 15.7601C134.07 15.9598 130.978 15.7989 131.412 15.6284ZM273.727 16.57C274.457 16.5674 275.15 16.6144 275.82 16.6785C275.678 16.7944 273.804 16.6577 273.727 16.57ZM159.127 15.9351C159.179 15.9364 159.23 15.9499 159.279 15.9516C159.228 15.9464 159.177 15.9404 159.127 15.9351ZM257.383 16.3861C256.771 16.3362 256.897 16.5508 256.935 16.5576C257.395 16.6298 258.075 16.4424 257.383 16.3861ZM26.0251 15.0883C25.8142 14.894 24.784 15.0373 24.1922 14.9877C24.3631 15.1412 25.5481 15.1056 26.0251 15.0883ZM207.458 16.2386C206.69 16.0246 209.82 15.801 210.478 15.94C210.526 16.0696 207.57 16.268 207.458 16.2386ZM90.4404 15.3791C90.38 15.2275 89.0654 15.4018 89.344 15.475C89.5205 15.5215 90.4765 15.4733 90.4404 15.3791ZM212.051 16.038C212.345 15.9936 213.029 16.1472 212.787 16.2366C212.477 16.3513 211.975 16.0507 212.051 16.038ZM238.42 16.081C238.292 16.0571 236.563 16.2016 237.276 16.3603C237.771 16.4706 237.851 16.2525 237.967 16.2525C238.097 16.254 240.87 16.5389 238.42 16.081ZM189.939 15.9976C190.591 15.9435 191.379 16.0159 192.062 16.016C191.783 16.1078 190.216 16.1236 189.939 15.9976ZM95.5059 15.3702C95.3479 15.3081 91.0344 15.2443 93.4838 15.4479C93.6267 15.4594 95.9857 15.5584 95.5059 15.3702ZM277.939 16.4977C277.81 16.4952 277.661 16.487 277.489 16.471C277.66 16.478 277.809 16.4892 277.939 16.4977ZM266.314 16.4024C266.551 16.2937 265.364 16.2569 265.013 16.3133C264.904 16.4471 266.282 16.4175 266.314 16.4024ZM192.115 15.8628C192.508 15.8022 193.221 15.8739 193.708 15.8696C193.625 15.9714 192.284 15.9678 192.115 15.8628ZM164.505 15.5754C165.285 15.6411 166.246 15.6191 166.262 15.494C166.278 15.5137 166.316 15.5347 166.378 15.5559C166.442 15.577 167.278 15.524 167.642 15.569C169.816 15.8364 159.239 15.6657 165.372 15.3504C165.083 15.4254 164.794 15.5004 164.505 15.5754ZM128.312 15.3144C127.87 15.1592 126.628 15.3424 126.949 15.4044C127.173 15.447 128.755 15.4706 128.312 15.3144ZM145.365 15.3305C145.232 15.3024 144.02 15.4016 143.988 15.4817C144.684 15.5706 145.967 15.4606 145.365 15.3305ZM124.907 15.1147C124.629 15.0899 124.272 15.3334 124.305 15.3444C124.587 15.4358 125.373 15.2544 124.907 15.1147ZM275.823 15.8225C275.41 15.7495 274.089 15.9192 273.801 16.0797C273.748 16.0479 273.604 16.0061 273.34 15.9554C273.341 15.9554 273.342 15.9554 273.343 15.9554C272.986 15.8876 262.325 15.7495 269.475 16.1066C269.698 16.118 269.393 15.9705 270.305 16.0018C270.365 16.0041 270.394 16.1232 270.58 16.1301C271.008 16.1454 273.287 16.2344 273.745 16.1416C273.749 16.1636 273.778 16.1848 273.841 16.2044C274.402 16.3794 276.144 15.8787 275.823 15.8225ZM147.767 15.3236C147.524 15.2781 146.751 15.3151 146.671 15.4195C147.053 15.4734 148.333 15.43 147.767 15.3236ZM95.3748 14.9388C94.8785 14.8493 93.6184 15.0029 93.9984 15.091C94.2314 15.1452 95.9471 15.0414 95.3748 14.9388ZM140.035 15.3315C142.883 15.4733 140.715 15.3257 141.152 15.1745C140.78 15.2268 140.408 15.2791 140.035 15.3315ZM289.006 16.3021C288.552 16.2639 289.087 15.9635 289.587 16.1314C289.743 16.1847 289.26 16.3229 289.006 16.3021ZM309.519 16.3356C309.133 16.0639 311.026 16.234 310.286 16.4141C310.252 16.4201 309.547 16.3461 309.519 16.3356ZM295.186 16.1362C294.876 16.3177 294.676 16.3382 293.807 16.2874C295.093 16.2438 293.902 16.0742 295.186 16.1362ZM166.253 15.4742C166.258 15.4817 166.263 15.4872 166.262 15.494C166.256 15.4872 166.254 15.4808 166.253 15.4742ZM122.228 15.1457C121.872 14.9881 120.873 14.9933 121.169 15.1515C121.198 15.1662 122.081 15.2595 122.228 15.1457ZM273.801 16.0797C273.848 16.1078 273.824 16.1256 273.745 16.1416C273.742 16.1208 273.762 16.1013 273.801 16.0797ZM127.595 15.0526C127.559 15.1682 129.08 15.2228 129.141 15.2095C130.015 15.014 128.223 15.0495 127.595 15.0526ZM85.3177 14.7131C85.2391 14.7247 85.7432 15.027 86.0542 14.9118C86.2949 14.8223 85.6118 14.6689 85.3177 14.7131ZM298.136 16.0799C298.618 16.0831 299.296 16.0872 299.42 16.2301C299.098 16.2063 298.126 16.1841 298.136 16.0799ZM308.779 16.1359C308.208 16.2994 306.908 16.2908 306.078 16.2581C306.064 16.0382 308.244 16.1843 308.779 16.1359ZM277.129 15.9126C277.09 15.9034 275.882 15.8303 276.046 15.9785C276.286 16.1958 277.47 15.9948 277.129 15.9126ZM87.6624 14.8865C88.2032 14.7885 86.962 14.4692 86.3906 14.7063C86.0971 14.8277 87.5713 14.9029 87.6624 14.8865ZM119.108 14.9228C118.395 15.0036 120.161 15.1663 120.408 15.014C120.08 14.9996 119.362 14.8943 119.108 14.9228ZM143.364 14.9185C141.12 14.4606 142.339 15.278 142.737 15.2093C142.794 15.1995 143.419 14.9293 143.364 14.9185ZM14.8365 14.2258C14.5181 14.2855 15.7023 14.5163 15.8566 14.3702C15.952 14.2787 15.0401 14.1877 14.8365 14.2258ZM177.187 15.4179C177.093 15.4187 176.998 15.4196 176.905 15.4203C176.975 15.4135 177.067 15.4117 177.187 15.4179ZM112.641 14.2879C114.219 14.9245 114.056 14.4404 114.193 14.4439C114.49 14.4525 115.179 14.6263 115.739 14.6019C115.097 14.6685 114.456 14.7351 113.815 14.8016C114.321 14.85 118.717 15.1081 118.81 15.0071C118.943 14.8632 117.559 14.9 117.518 14.887C117.461 14.8685 117.247 14.4648 117.119 14.4487C116.908 14.4229 113.23 14.3916 112.641 14.2879ZM138.666 14.9587C139.027 15.0088 139.128 15.1688 139.296 15.1318C139.354 15.1191 139.364 14.9671 139.559 14.929C139.261 14.9389 138.964 14.9488 138.666 14.9587ZM109.806 14.8337C109.36 14.6451 111.366 14.7282 111.43 14.7494C111.773 14.8775 110.171 14.9877 109.806 14.8337ZM126.837 14.9129C126.763 14.9016 125.223 14.834 125.234 14.9372C125.642 15.0183 127.702 15.0541 126.837 14.9129ZM139.8 14.9201C140.342 14.9412 141.364 15.1007 141.248 14.871C141.248 14.871 141.247 14.871 141.246 14.871C140.764 14.8874 140.282 14.9038 139.8 14.9201ZM89.5146 14.4145C88.5134 14.0436 88.9859 14.5073 89.8737 14.6305C90.1438 14.4685 89.6787 14.4749 89.5146 14.4145ZM86.305 14.1226C86.0263 14.0553 83.149 14.1092 83.5867 14.3049C83.7423 14.3746 85.3977 14.2115 85.4738 14.2254C85.5892 14.2458 85.0602 14.456 85.9427 14.4192C85.8916 14.3466 86.4005 14.1451 86.305 14.1226ZM88.6855 14.1759C87.6901 13.8923 87.4628 14.4024 88.2127 14.4085C88.5057 14.4112 88.8275 14.2168 88.6855 14.1759ZM92.7584 14.2449C92.3998 14.1941 91.4446 14.1174 90.7848 14.2834C91.6662 14.3034 92.5477 14.3234 93.4292 14.3435C93.5315 14.2477 93.072 14.2894 92.756 14.2448C92.7568 14.2448 92.7576 14.2448 92.7584 14.2449ZM314.779 14.8628C313.988 14.7128 315.814 14.6686 315.891 14.7047C316.119 14.8245 315.133 14.9298 314.779 14.8628ZM8.67676 9.54074C8.45697 9.48155 8.31424 9.29042 7.82906 9.38706C8.31558 9.53053 8.8021 9.67399 9.28862 9.81746C9.6694 9.49806 8.91698 9.60601 8.67676 9.54074ZM6.82291 8.35351C6.89181 8.34614 6.5188 7.84903 7.4062 8.18489C8.00579 8.41168 4.73631 8.60865 4.14775 8.38559C4.80023 8.28772 6.22985 8.41333 6.82291 8.35351ZM1.11168 6.17616C1.07424 6.13647 2.31624 6.08634 2.45978 6.11505C3.2135 6.26637 1.31423 6.38882 1.11168 6.17616ZM5.07213 6.29529C4.49043 6.19558 5.7808 6.14169 6.16489 6.19938C6.20161 6.2917 5.162 6.30985 5.07213 6.29529ZM306.801 7.64698C306.173 7.30679 305.604 8.02714 306.575 7.88735C306.621 7.88077 306.827 7.66361 306.801 7.64698ZM2.32866 5.68464C2.91036 5.78435 1.61999 5.83824 1.2359 5.78055C1.20072 5.68834 2.24008 5.67004 2.32866 5.68464ZM306.362 6.84317C305.527 6.59598 305.816 7.40992 305.921 7.4433C306.351 7.57523 307.83 7.26569 308.132 7.18834C305.92 7.29642 306.755 6.95965 306.362 6.84317ZM302.499 7.30678C301.722 7.38857 303.705 7.56664 304.085 7.34261C303.699 7.35104 302.72 7.28311 302.499 7.30678ZM297.789 7.01695C297.372 6.98526 296.13 6.90787 295.921 7.03435C296.377 7.01406 297.612 7.14733 297.789 7.01695ZM296.846 6.62817C296.195 6.45048 296.035 6.95538 296.788 6.8094C296.818 6.80375 296.87 6.63798 296.846 6.62817ZM293.179 6.42267C292.752 6.21882 292.261 6.70569 292.954 6.72323C293.16 6.72753 293.224 6.44602 293.179 6.42267ZM305.32 5.96297C304.707 5.87275 303.916 6.21867 305.224 6.26536C304.764 6.31611 304.304 6.36685 303.844 6.41759C305.557 6.62494 305.434 6.1376 305.926 6.16079C306.614 6.19367 306.557 6.59483 306.418 6.72004C306.984 6.47758 309.38 6.48858 310.764 6.45038C309.548 6.33956 307.575 6.14827 306.374 6.07538C306.031 6.05431 305.698 6.16234 305.406 6.1482C304.937 6.12494 305.354 5.969 305.322 5.96298C305.322 5.96298 305.321 5.96297 305.32 5.96297ZM288.357 6.38533C287.101 6.14959 287.893 6.64659 288.605 6.56328C288.635 6.55671 288.389 6.3911 288.357 6.38533ZM0.669669 4.17903C2.3493 4.39517 1.12578 4.66013 4.64478 4.26815C3.16562 4.55196 4.56176 4.47838 4.27266 4.59477C4.04074 4.68684 3.17443 4.60399 3.67711 4.79548C3.01611 4.58635 0.140502 4.62512 0.012525 4.59103C0.0137304 4.59104 0.0149359 4.59104 0.0161413 4.59105C-0.0607244 4.57085 0.133701 4.11028 0.669669 4.17903ZM297.791 5.73026C297.375 5.13063 297.204 6.0772 296.383 5.57725C295.28 6.28892 299.416 5.59627 299.913 6.2063C295.426 6.10779 302.874 6.82615 299.747 5.89812C302.326 6.24395 300.594 5.79088 300.993 5.6776C301.42 5.55695 302.879 5.70006 302.806 5.47723C302.805 5.47722 302.804 5.47722 302.804 5.47721C301.911 5.48721 301.018 5.4972 300.125 5.5072C300.996 5.99234 299.172 5.83713 298.556 5.44242C298.301 5.53836 298.046 5.63431 297.791 5.73026ZM302.841 6.21211C302.753 6.20057 300.811 6.2557 300.936 6.35276C301.195 6.41578 303.951 6.35934 302.841 6.21211ZM311.388 6.16061C310.691 6.1551 309.614 6.05479 309.232 6.23329C309.93 6.23886 311.008 6.33922 311.388 6.16061ZM275.485 5.90243C274.595 6.04532 277.331 6.10635 276.541 5.92562C276.502 5.9171 275.529 5.89578 275.485 5.90243ZM295.769 5.80793C294.866 5.61984 295.29 6.20324 295.96 6.05608C295.999 6.0474 295.81 5.81651 295.769 5.80793ZM2.03224 4.11697C2.09358 3.97506 4.5318 4.09021 4.96412 4.09167C4.71768 4.2224 1.96188 4.27965 2.03224 4.11697ZM312.619 5.63597C311.235 5.1157 309.348 5.6949 309.142 5.68069C308.937 5.66626 309.26 5.44462 309.213 5.43833C309.107 5.42512 306.92 5.43025 306.814 5.44516C306.739 5.45682 307.132 5.77357 306.68 5.86976C307.562 5.69667 311.558 5.83332 311.765 5.79979C311.926 5.77298 310.717 5.43539 312.616 5.63596C312.617 5.63596 312.618 5.63596 312.619 5.63597ZM308.626 5.60899C309.172 5.74414 307.64 5.75107 307.27 5.70015C306.447 5.58622 308.556 5.59295 308.626 5.60899ZM304.943 5.46462C304.769 5.43398 303.19 5.39729 303.055 5.54311C303.801 5.73803 305.34 5.53594 304.943 5.46462ZM287.378 5.37477C286.968 5.391 285.841 5.27127 285.775 5.39902C286.186 5.38289 287.312 5.50254 287.378 5.37477ZM10.3603 3.05031C9.67987 2.93883 11.2582 2.90487 11.7182 2.95917C11.7427 3.04481 10.4182 3.05989 10.3603 3.05031ZM295.623 4.58155C295.381 4.54106 290.428 4.60742 289.733 4.6631C290.412 4.76426 295.32 4.80232 295.543 4.75641C295.608 4.74265 295.654 4.58787 295.623 4.58155ZM306.334 4.58921C306.789 4.40331 307.084 4.63151 307.141 4.63471C307.703 4.66709 308.867 4.6318 308.611 4.81198C307.62 4.73246 305.428 4.95834 306.334 4.58921ZM287.031 4.51862C285.349 4.57816 288.578 4.79714 288.155 4.59723C288.128 4.58513 287.205 4.51235 287.031 4.51862ZM296.177 4.53001C296.549 4.37982 301.502 4.54224 302.297 4.54742C301.583 4.82425 301.01 4.60703 300.053 4.6154C299.795 4.618 299.863 4.73544 299.835 4.73545C299.388 4.73808 299.724 4.60502 299.448 4.60125C299.274 4.59924 295.654 4.74161 296.177 4.53001ZM306.594 4.46008C306.871 4.35362 309.965 4.3268 310.089 4.35633C311.019 4.57596 306.834 4.49924 306.594 4.46008ZM295.724 4.2771C296.259 3.95354 298.718 4.1878 297.033 4.34026C296.872 4.35409 296.192 4.20814 295.724 4.2771ZM287.213 4.20845C287.13 4.19832 285.377 4.12205 285.345 4.22586C285.598 4.26786 288.153 4.32006 287.213 4.20845ZM288.124 3.86237C288.081 3.8646 288.491 4.06749 287.669 4.03697C287.601 4.03416 287.474 3.80798 286.441 3.88404C286.231 3.89972 285.905 4.0468 285.928 4.05621C287.002 4.41662 290.247 3.7594 288.124 3.86237ZM306.652 4.27781C306.486 4.18164 306.889 3.90179 307.251 4.04704C307.406 4.10976 307.115 4.2774 306.652 4.27781ZM281.654 4.08247C282.674 3.91758 279.475 3.86525 279.311 3.90806C279.413 4.01537 281.552 4.09856 281.654 4.08247ZM11.9633 1.73834C11.9625 1.73833 11.9617 1.73833 11.9609 1.73832C12.818 1.78247 12.2861 1.92162 12.3262 1.92634C14.1511 2.14697 13.6687 1.8213 13.9545 1.785C14.5673 1.70647 14.4662 2.09822 15.5001 1.94199C13.7913 2.17157 15.346 2.08056 15.3935 2.22045C15.5813 2.79131 13.122 1.93953 12.27 2.05362C12.1513 2.06942 13.0259 2.25669 12.7217 2.30651C11.7326 2.46794 8.67454 1.56943 11.9633 1.73834ZM307.531 4.02388C307.93 3.85903 310.945 4.04015 310.145 4.17301C310.016 4.19431 306.945 4.26413 307.531 4.02388ZM166.606 2.89795C167.331 2.75766 165.652 2.57694 165.34 2.68771C165.185 2.7429 166.287 2.95951 166.606 2.89795ZM154.828 2.205C153.966 2.22903 153.054 2.82724 154.126 2.74021C154.24 2.73068 154.926 2.28939 154.828 2.205ZM211.399 2.86811C210.501 2.64669 210.552 3.048 211.212 3.04646C211.445 3.04598 211.427 2.87511 211.399 2.86811ZM177.063 2.70583C176.973 2.69127 175.933 2.71039 175.97 2.80278C176.354 2.86047 177.645 2.80555 177.063 2.70583ZM211.685 2.81282C211.151 2.88176 212.067 3.1775 212.721 2.89815C212.39 2.91933 211.74 2.80578 211.685 2.81282ZM293.871 3.37939C293.423 3.54125 292.16 3.48362 291.434 3.50738C291.357 3.29358 293.352 3.41483 293.871 3.37939ZM158.483 2.47062C157.667 2.61587 159.413 2.74985 159.254 2.55014C159.232 2.5392 158.515 2.46441 158.483 2.47062ZM240.424 2.97028C239.83 3.09382 241.711 3.27668 241.195 3.0498C241.169 3.04052 240.456 2.9634 240.424 2.97028ZM248.643 3.09522C248.194 3.04949 246.275 3.05073 247.021 3.17953C247.137 3.19933 248.609 3.21155 248.643 3.09522ZM14.0061 1.63175C13.7651 1.41111 15.1715 1.47205 15.3726 1.5116C15.4516 1.52802 14.3204 1.91881 14.0061 1.63175ZM205.556 2.79742C205.091 2.82194 203.884 2.76231 203.67 2.87594C204.24 2.85569 205.708 3.02737 205.556 2.79742ZM162.202 2.49277C161.493 2.25024 160.28 2.26617 160.578 2.57914C161.918 2.56666 160.414 2.29848 162.202 2.49277ZM214.684 2.57523C214.311 2.55474 214.023 2.85172 214.065 2.86606C214.469 3.0025 215.055 2.69379 214.684 2.57523ZM186.672 2.64644C186.651 2.51862 185.455 2.56911 185.614 2.65229C185.666 2.6802 186.689 2.74987 186.672 2.64644ZM278.201 3.20901C277.653 3.08905 279.328 2.98556 279.823 3.1247C280.062 3.32225 278.27 3.22283 278.201 3.20901ZM225.035 2.7145C225.092 2.52536 223.221 2.62083 223.957 2.78248C224.141 2.82293 225.015 2.77773 225.035 2.7145ZM242.941 2.59893C241.685 2.81706 246.951 3.01034 245.569 2.72013C245.47 2.69945 243.05 2.58053 242.941 2.59893ZM251.543 2.79371C251.327 2.76746 251.438 2.13142 252.333 2.38253C252.45 2.41511 251.899 2.57999 251.995 2.61909C252.051 2.64138 253.998 2.74295 254.088 2.72864C254.185 2.71237 254.072 2.50759 254.17 2.48531C254.281 2.46041 255.479 2.64716 256.107 2.65303C257.29 2.66377 257.419 2.49472 257.515 2.49476C257.798 2.4954 258.273 2.61896 258.846 2.62238C261.734 2.63904 266.152 2.52262 268.439 2.89702C266.403 2.73969 264.46 2.88102 262.432 2.91558C263.028 2.56474 259.448 3.17016 261.542 2.7741C260.579 2.85683 252.252 2.87587 251.545 2.79372C251.544 2.79372 251.544 2.79371 251.543 2.79371ZM151.428 2.00532C151.959 1.79123 149.243 1.82319 149.011 2.07326C149.369 2.1104 151.362 2.02955 151.428 2.00532ZM163.961 1.55325C164.213 1.5173 164.455 1.09386 165.776 1.31761C165.778 1.31762 165.779 1.31763 165.78 1.31763C166.166 1.38298 165.725 1.48378 165.796 1.52111C165.821 1.53634 167.026 1.75524 166.024 1.78299C164.496 1.82562 165.882 1.46597 165.068 1.45639C164.968 1.45542 163.425 1.67582 163.515 1.72687C163.524 1.73281 163.988 1.68704 164.065 1.70851C164.353 1.7892 164.212 1.92102 164.252 1.92759C164.386 1.9446 166.825 1.73374 167.178 1.93338C167.293 1.99777 163.291 2.11968 163.135 2.08561C163.037 2.06413 163.081 1.69605 162.979 1.65919C162.926 1.64082 161.316 1.76881 161.107 1.73364C161.047 1.72347 161 1.71263 160.967 1.70371C161.209 1.81919 159.752 1.80189 159.797 1.67359C159.823 1.62321 160.826 1.65872 160.862 1.66778C160.878 1.67162 160.891 1.67686 160.904 1.68049C160.697 1.54032 164.093 1.56777 163.362 1.35651C164.347 1.24942 163.22 1.65884 163.961 1.55325ZM168.695 1.35553C168.593 1.39363 168.491 1.43174 168.389 1.46984C170.113 1.38577 172.101 1.58466 174.086 1.59565C174.59 1.59872 174.012 1.35819 174.672 1.42705C175.201 1.48224 175.785 1.70563 175.497 1.75284C175.427 1.76462 174.351 1.61478 173.811 1.6261C172.219 1.65966 172.62 1.86534 172.527 1.87024C172.424 1.87538 171.424 1.72625 170.877 1.7292C169.501 1.73707 168.872 1.85789 166.994 1.6832C168.079 1.55606 167.487 1.26147 168.695 1.35553ZM232.938 2.18893C233.004 2.06146 234.131 2.18195 234.541 2.16572C234.476 2.29351 233.348 2.17269 232.938 2.18893ZM64.8584 0.974562C64.5106 1.18225 67.1069 1.25041 66.4237 1.07149C66.2725 1.03178 65.1846 0.97809 64.8584 0.974562ZM76.5226 1.17495C76.8703 1.11909 75.4726 0.959283 75.4741 1.12171C75.4758 1.17381 76.4778 1.18221 76.5226 1.17495ZM190.973 1.70098C191.039 1.69482 191.994 1.74751 192.024 1.75838C192.656 1.98514 189.512 1.83674 190.973 1.70098ZM90.7048 1.00503C89.4933 1.13502 93.1371 1.21737 92.0247 1.03505C91.9692 1.02616 90.7631 0.998704 90.7048 1.00503ZM95.7703 0.998227C95.48 1.00379 94.1917 0.927456 94.1743 0.991385C94.1479 1.09453 95.6227 1.17432 95.7703 0.998227ZM214.941 1.78406C214.803 1.54674 216.501 1.7364 217.092 1.71031C217.231 1.9478 215.532 1.75788 214.941 1.78406ZM204.215 1.54283C211.381 1.40113 209.798 1.89645 203.788 1.65535C203.78 1.50361 203.763 1.55175 204.215 1.54283ZM213.39 1.62807C213.128 1.77792 212.315 1.72793 211.765 1.71237C211.865 1.60767 212.993 1.65282 213.39 1.62807ZM61.7685 0.630503C62.219 0.441958 64.2074 0.690267 63.8531 0.766986C63.7707 0.783517 61.6028 0.734702 61.7685 0.630503ZM191.575 1.50239C191.409 1.2714 193.56 1.37861 193.725 1.43071C194.387 1.64026 191.749 1.45272 191.575 1.50239ZM225.112 1.64515C225.493 1.4674 226.571 1.56678 227.265 1.57349C226.948 1.72554 225.7 1.65206 225.112 1.64515ZM220.103 1.47279C220.146 1.46615 221.114 1.48844 221.157 1.49701C221.949 1.67787 219.212 1.61574 220.103 1.47279ZM10.7856 0.00121659C10.8179 -0.00438621 11.5507 0.0116703 11.5763 0.0186006C12.2294 0.195608 10.0297 0.146553 10.7856 0.00121659Z" fill="#333333"/>
</svg>
